<svg xmlns="http://www.w3.org/2000/svg" width="24.378" height="24.378" viewBox="0 0 24.378 24.378">
  <g id="Deactivate" transform="translate(0.05 0.05)">
    <g id="icon_issue_svg" transform="translate(2.382 2.621)">
      <g id="Group_10962" data-name="Group 10962" transform="translate(4.914 6.857)">
        <g id="Group_10961" data-name="Group 10961">
          <path id="Path_9078" data-name="Path 9078" d="M13.7,20.011l2.636,2.481L22.46,16.6" transform="translate(-13.7 -16.6)" fill="none" stroke="#077c22" stroke-linecap="round" stroke-linejoin="round" stroke-width="1.5"/>
        </g>
      </g>
      <g id="Group_10964" data-name="Group 10964" transform="translate(0 0)">
        <g id="Group_10963" data-name="Group 10963">
          <path id="Path_9079" data-name="Path 9079" d="M26.624,17.412a9.489,9.489,0,0,1-2.791,6.822,8.952,8.952,0,0,1-6.822,2.791,9.362,9.362,0,0,1-6.822-2.791A8.952,8.952,0,0,1,7.4,17.412a9.489,9.489,0,0,1,2.791-6.822A8.952,8.952,0,0,1,17.012,7.8a9.362,9.362,0,0,1,6.822,2.791A9.067,9.067,0,0,1,26.624,17.412Z" transform="translate(-7.4 -7.8)" fill="none" stroke="#077c22" stroke-linecap="round" stroke-linejoin="round" stroke-width="1.5"/>
        </g>
      </g>
    </g>
    <g id="Layer_3">
      <g id="Group_10966" data-name="Group 10966">
        <g id="Group_10965" data-name="Group 10965">
          <path id="Path_9080" data-name="Path 9080" d="M0,24.278V0H24.278V3.156" fill="none" stroke="rgba(63,64,64,0)" stroke-linecap="round" stroke-linejoin="round" stroke-width="0.1"/>
        </g>
      </g>
    </g>
  </g>
</svg>
