<svg xmlns="http://www.w3.org/2000/svg" width="25" height="24" viewBox="0 0 25 24">
  <g id="Group_11107" data-name="Group 11107" transform="translate(0.284)">
    <rect id="Rectangle_4426" data-name="Rectangle 4426" width="25" height="24" transform="translate(-0.284)" fill="#fff" opacity="0"/>
    <path id="angle-left" d="M.366,6.633a.322.322,0,0,0,.11.24l4.328,4.1-4.328,4.1a.317.317,0,0,0,0,.481l.551.522a.36.36,0,0,0,.507,0l5.132-4.867a.317.317,0,0,0,0-.481L1.533,5.87a.36.36,0,0,0-.507,0l-.551.522a.322.322,0,0,0-.11.24Z" transform="translate(9.35 1.234)" fill="#b4b4b4"/>
  </g>
</svg>
