<svg id="calender" xmlns="http://www.w3.org/2000/svg" width="24" height="24" viewBox="0 0 24 24">
  <rect id="Rectangle_4495" data-name="Rectangle 4495" width="24" height="24" fill="#fff" opacity="0"/>
  <g id="calendar" transform="translate(1.542 1.542)">
    <g id="Group_11161" data-name="Group 11161">
      <path id="Path_9126" data-name="Path 9126" d="M4.575,0a.654.654,0,0,1,.654.654v.654H15.687V.654a.654.654,0,1,1,1.307,0v.654H18.3a2.615,2.615,0,0,1,2.615,2.615V18.3A2.615,2.615,0,0,1,18.3,20.916H2.615A2.615,2.615,0,0,1,0,18.3V3.922A2.615,2.615,0,0,1,2.615,1.307H3.922V.654A.654.654,0,0,1,4.575,0ZM1.307,5.229V18.3a1.307,1.307,0,0,0,1.307,1.307H18.3A1.307,1.307,0,0,0,19.609,18.3V5.229Z" fill="#002e6e"/>
    </g>
  </g>
</svg>
