<svg xmlns="http://www.w3.org/2000/svg" xmlns:xlink="http://www.w3.org/1999/xlink" width="87.328" height="71.507" viewBox="0 0 87.328 71.507">
  <defs>
    <linearGradient id="linear-gradient" x1="0.681" x2="0.39" y2="0.693" gradientUnits="objectBoundingBox">
      <stop offset="0" stop-color="#fff" stop-opacity="0.451"/>
      <stop offset="1" stop-color="#fff" stop-opacity="0.051"/>
    </linearGradient>
    <filter id="Path_8950" x="0" y="9" width="87.328" height="62.507" filterUnits="userSpaceOnUse">
      <feOffset dy="3" input="SourceAlpha"/>
      <feGaussianBlur stdDeviation="6" result="blur"/>
      <feFlood flood-opacity="0.263"/>
      <feComposite operator="in" in2="blur"/>
      <feComposite in="SourceGraphic"/>
    </filter>
  </defs>
  <g id="Group_10898" data-name="Group 10898" transform="translate(-844.336 -838)">
    <rect id="Rectangle_4461" data-name="Rectangle 4461" width="56" height="56" rx="8" transform="translate(860 838)" fill="#00d4ff" opacity="0"/>
    <g transform="matrix(1, 0, 0, 1, 844.34, 838)" filter="url(#Path_8950)">
      <path id="Path_8950-2" data-name="Path 8950" d="M25.664,0C39.838,0,51.328,5.934,51.328,13.253S39.838,26.507,25.664,26.507,0,20.573,0,13.253,11.49,0,25.664,0Z" transform="translate(18 24)" fill="url(#linear-gradient)"/>
    </g>
    <g id="calender33_svg" transform="translate(875.89 846.562)">
      <g id="Group_9983" data-name="Group 9983" transform="translate(28.221 38.876) rotate(180)">
        <g id="Group_9982" data-name="Group 9982" transform="translate(0 0)">
          <g id="Group_9981" data-name="Group 9981">
            <path id="Path_8748" data-name="Path 8748" d="M.936,34.979,0,34.447V12.933l.936-1.595L20.526,0l.936.532V22.045l-.936,1.62Z" fill="#655851"/>
          </g>
        </g>
      </g>
      <g id="Group_9986" data-name="Group 9986" transform="translate(19.287 30.444) rotate(180)">
        <g id="Group_9985" data-name="Group 9985" transform="translate(0)">
          <g id="Group_9984" data-name="Group 9984">
            <path id="Path_8749" data-name="Path 8749" d="M3.493.1V.2L3.315.481.177,2.3,0,2.2V2.126l.177-.3L3.315,0Z" fill="#d7d1c8"/>
          </g>
        </g>
      </g>
      <g id="Group_9989" data-name="Group 9989" transform="translate(15.972 30.241) rotate(180)">
        <g id="Group_9988" data-name="Group 9988" transform="translate(0 0)">
          <g id="Group_9987" data-name="Group 9987">
            <path id="Path_8750" data-name="Path 8750" d="M.228.025.051.3,0,.278.177,0Z" fill="#b4afa8"/>
          </g>
        </g>
      </g>
      <g id="Group_9992" data-name="Group 9992" transform="translate(15.795 30.343) rotate(180)">
        <g id="Group_9991" data-name="Group 9991" transform="translate(0 0)">
          <g id="Group_9990" data-name="Group 9990">
            <path id="Path_8751" data-name="Path 8751" d="M.051.025v.1L0,.1V0Z" fill="#a29c96"/>
          </g>
        </g>
      </g>
      <g id="Group_9995" data-name="Group 9995" transform="translate(11.063 35.931) rotate(180)">
        <g id="Group_9994" data-name="Group 9994" transform="translate(0 0)">
          <g id="Group_9993" data-name="Group 9993">
            <path id="Path_8752" data-name="Path 8752" d="M0,.759.3.228.734,0l.3.152V.658l-.3.531L.3,1.443,0,1.265Z" fill="#342c29"/>
          </g>
        </g>
      </g>
      <g id="Group_9998" data-name="Group 9998" transform="translate(10.76 34.742) rotate(180)">
        <g id="Group_9997" data-name="Group 9997" transform="translate(0 0)">
          <g id="Group_9996" data-name="Group 9996">
            <path id="Path_8753" data-name="Path 8753" d="M.709.152.278.4,0,.253.43,0Z" fill="#554944"/>
          </g>
        </g>
      </g>
      <g id="Group_10001" data-name="Group 10001" transform="translate(10.329 35.273) rotate(180)">
        <g id="Group_10000" data-name="Group 10000" transform="translate(0 0)">
          <g id="Group_9999" data-name="Group 9999">
            <path id="Path_8754" data-name="Path 8754" d="M.582.152l-.3.531L0,.531.3,0Z" fill="#201a1a"/>
          </g>
        </g>
      </g>
      <g id="Group_10004" data-name="Group 10004" transform="translate(10.026 35.779) rotate(180)">
        <g id="Group_10003" data-name="Group 10003" transform="translate(0 0)">
          <g id="Group_10002" data-name="Group 10002">
            <path id="Path_8755" data-name="Path 8755" d="M.278.152V.658L0,.506V0Z" fill="#0a0808"/>
          </g>
        </g>
      </g>
      <g id="Group_10007" data-name="Group 10007" transform="translate(12.354 34.767) rotate(180)">
        <g id="Group_10006" data-name="Group 10006" transform="translate(0 0)">
          <g id="Group_10005" data-name="Group 10005">
            <path id="Path_8756" data-name="Path 8756" d="M.557.1V.354L.4.658.177.785,0,.683V.43l.177-.3L.4,0Z" fill="#342c29"/>
          </g>
        </g>
      </g>
      <g id="Group_10010" data-name="Group 10010" transform="translate(12.177 34.109) rotate(180)">
        <g id="Group_10009" data-name="Group 10009" transform="translate(0 0)">
          <g id="Group_10008" data-name="Group 10008">
            <path id="Path_8757" data-name="Path 8757" d="M.354.076.127.2,0,.127.228,0Z" fill="#554944"/>
          </g>
        </g>
      </g>
      <g id="Group_10013" data-name="Group 10013" transform="translate(11.949 34.413) rotate(180)">
        <g id="Group_10012" data-name="Group 10012" transform="translate(0)">
          <g id="Group_10011" data-name="Group 10011">
            <path id="Path_8758" data-name="Path 8758" d="M.3.1.127.38,0,.3.152,0Z" fill="#201a1a"/>
          </g>
        </g>
      </g>
      <g id="Group_10016" data-name="Group 10016" transform="translate(11.797 34.666) rotate(180)">
        <g id="Group_10015" data-name="Group 10015" transform="translate(0)">
          <g id="Group_10014" data-name="Group 10014">
            <path id="Path_8759" data-name="Path 8759" d="M.152.076V.354L0,.253V0Z" fill="#0a0808"/>
          </g>
        </g>
      </g>
      <g id="Group_10019" data-name="Group 10019" transform="translate(13.493 34.109) rotate(180)">
        <g id="Group_10018" data-name="Group 10018" transform="translate(0 0)">
          <g id="Group_10017" data-name="Group 10017">
            <path id="Path_8760" data-name="Path 8760" d="M.557.1V.38L.38.658.152.785,0,.683V.43L.152.152.38,0Z" fill="#342c29"/>
          </g>
        </g>
      </g>
      <g id="Group_10022" data-name="Group 10022" transform="translate(13.341 33.451) rotate(180)">
        <g id="Group_10021" data-name="Group 10021" transform="translate(0 0)">
          <g id="Group_10020" data-name="Group 10020">
            <path id="Path_8761" data-name="Path 8761" d="M.38.076.152.2,0,.127.228,0Z" fill="#554944"/>
          </g>
        </g>
      </g>
      <g id="Group_10025" data-name="Group 10025" transform="translate(13.113 33.729) rotate(180)">
        <g id="Group_10024" data-name="Group 10024" transform="translate(0 0)">
          <g id="Group_10023" data-name="Group 10023">
            <path id="Path_8762" data-name="Path 8762" d="M.3.076.152.354,0,.278.177,0Z" fill="#201a1a"/>
          </g>
        </g>
      </g>
      <g id="Group_10028" data-name="Group 10028" transform="translate(12.936 34.008) rotate(180)">
        <g id="Group_10027" data-name="Group 10027" transform="translate(0 0)">
          <g id="Group_10026" data-name="Group 10026">
            <path id="Path_8763" data-name="Path 8763" d="M.127.076V.354L0,.278V0Z" fill="#0a0808"/>
          </g>
        </g>
      </g>
      <g id="Group_10031" data-name="Group 10031" transform="translate(14.657 33.426) rotate(180)">
        <g id="Group_10030" data-name="Group 10030" transform="translate(0)">
          <g id="Group_10029" data-name="Group 10029">
            <path id="Path_8764" data-name="Path 8764" d="M.557.076V.354L.4.633.177.759,0,.683V.4L.177.127.4,0Z" fill="#342c29"/>
          </g>
        </g>
      </g>
      <g id="Group_10034" data-name="Group 10034" transform="translate(14.48 32.793) rotate(180)">
        <g id="Group_10033" data-name="Group 10033" transform="translate(0 0)">
          <g id="Group_10032" data-name="Group 10032">
            <path id="Path_8765" data-name="Path 8765" d="M.354.076.127.228,0,.127.228,0Z" fill="#554944"/>
          </g>
        </g>
      </g>
      <g id="Group_10037" data-name="Group 10037" transform="translate(14.252 33.071) rotate(180)">
        <g id="Group_10036" data-name="Group 10036" transform="translate(0 0)">
          <g id="Group_10035" data-name="Group 10035">
            <path id="Path_8766" data-name="Path 8766" d="M.3.076.127.354,0,.278.152,0Z" fill="#201a1a"/>
          </g>
        </g>
      </g>
      <g id="Group_10040" data-name="Group 10040" transform="translate(14.1 33.35) rotate(180)">
        <g id="Group_10039" data-name="Group 10039" transform="translate(0 0)">
          <g id="Group_10038" data-name="Group 10038">
            <path id="Path_8767" data-name="Path 8767" d="M.152.1V.354L0,.278V0Z" fill="#0a0808"/>
          </g>
        </g>
      </g>
      <g id="Group_10043" data-name="Group 10043" transform="translate(15.796 32.768) rotate(180)">
        <g id="Group_10042" data-name="Group 10042" transform="translate(0 0)">
          <g id="Group_10041" data-name="Group 10041">
            <path id="Path_8768" data-name="Path 8768" d="M.557.1V.354L.38.633.152.785,0,.683V.4L.152.127.38,0Z" fill="#342c29"/>
          </g>
        </g>
      </g>
      <g id="Group_10046" data-name="Group 10046" transform="translate(15.644 32.135) rotate(180)">
        <g id="Group_10045" data-name="Group 10045" transform="translate(0)">
          <g id="Group_10044" data-name="Group 10044">
            <path id="Path_8769" data-name="Path 8769" d="M.38.1.152.228,0,.152.228,0Z" fill="#554944"/>
          </g>
        </g>
      </g>
      <g id="Group_10049" data-name="Group 10049" transform="translate(15.416 32.413) rotate(180)">
        <g id="Group_10048" data-name="Group 10048" transform="translate(0 0)">
          <g id="Group_10047" data-name="Group 10047">
            <path id="Path_8770" data-name="Path 8770" d="M.3.076.152.38,0,.278.177,0Z" fill="#201a1a"/>
          </g>
        </g>
      </g>
      <g id="Group_10052" data-name="Group 10052" transform="translate(15.239 32.666) rotate(180)">
        <g id="Group_10051" data-name="Group 10051" transform="translate(0 0)">
          <g id="Group_10050" data-name="Group 10050">
            <path id="Path_8771" data-name="Path 8771" d="M.127.076V.329L0,.253V0Z" fill="#0a0808"/>
          </g>
        </g>
      </g>
      <g id="Group_10055" data-name="Group 10055" transform="translate(16.96 32.11) rotate(180)">
        <g id="Group_10054" data-name="Group 10054" transform="translate(0 0)">
          <g id="Group_10053" data-name="Group 10053">
            <path id="Path_8772" data-name="Path 8772" d="M.557.1V.354L.4.658.177.785,0,.683V.43l.177-.3L.4,0Z" fill="#342c29"/>
          </g>
        </g>
      </g>
      <g id="Group_10058" data-name="Group 10058" transform="translate(16.783 31.452) rotate(180)">
        <g id="Group_10057" data-name="Group 10057" transform="translate(0 0)">
          <g id="Group_10056" data-name="Group 10056">
            <path id="Path_8773" data-name="Path 8773" d="M.354.076.127.2,0,.127.228,0Z" fill="#554944"/>
          </g>
        </g>
      </g>
      <g id="Group_10061" data-name="Group 10061" transform="translate(16.555 31.755) rotate(180)">
        <g id="Group_10060" data-name="Group 10060" transform="translate(0)">
          <g id="Group_10059" data-name="Group 10059">
            <path id="Path_8774" data-name="Path 8774" d="M.3.1.127.38,0,.3.152,0Z" fill="#201a1a"/>
          </g>
        </g>
      </g>
      <g id="Group_10064" data-name="Group 10064" transform="translate(16.403 32.008) rotate(180)">
        <g id="Group_10063" data-name="Group 10063" transform="translate(0 0)">
          <g id="Group_10062" data-name="Group 10062">
            <path id="Path_8775" data-name="Path 8775" d="M.152.076V.354L0,.253V0Z" fill="#0a0808"/>
          </g>
        </g>
      </g>
      <g id="Group_10067" data-name="Group 10067" transform="translate(27.461 28.904) rotate(180)">
        <g id="Group_10066" data-name="Group 10066" transform="translate(0 0)">
          <g id="Group_10065" data-name="Group 10065">
            <path id="Path_8776" data-name="Path 8776" d="M4.455,0V2.151L3.822,3.214,0,5.416V3.265L.607,2.2Z" fill="#3e3532"/>
          </g>
        </g>
      </g>
      <g id="Group_10070" data-name="Group 10070" transform="translate(27.284 15.211) rotate(180)">
        <g id="Group_10069" data-name="Group 10069" transform="translate(0 0)">
          <g id="Group_10068" data-name="Group 10068">
            <path id="Path_8777" data-name="Path 8777" d="M6.758,15.211,0,11.314,19.59,0l6.783,3.9Z" fill="#806f6a"/>
          </g>
        </g>
      </g>
      <g id="Group_10073" data-name="Group 10073" transform="translate(7.694 16.831) rotate(180)">
        <g id="Group_10072" data-name="Group 10072" transform="translate(0)">
          <g id="Group_10071" data-name="Group 10071">
            <path id="Path_8778" data-name="Path 8778" d="M7.694,3.923,6.783,5.518,0,1.62.936,0Z" fill="#524541"/>
          </g>
        </g>
      </g>
      <g id="Group_10076" data-name="Group 10076" transform="translate(6.758 38.345) rotate(180)">
        <g id="Group_10075" data-name="Group 10075" transform="translate(0 0)">
          <g id="Group_10074" data-name="Group 10074">
            <path id="Path_8779" data-name="Path 8779" d="M6.758,3.923V25.437L0,21.514V0Z" fill="#3e3532"/>
          </g>
        </g>
      </g>
      <g id="Group_10079" data-name="Group 10079" transform="translate(26.981 33.03) rotate(180)">
        <g id="Group_10078" data-name="Group 10078" transform="translate(0 0)">
          <g id="Group_10077" data-name="Group 10077">
            <path id="Path_8780" data-name="Path 8780" d="M.2,26.829l-.2-.1V11.415L.81,10,18.147,0l.2.1L1.012,10.124.2,11.516Z" fill="#0a0808"/>
          </g>
        </g>
      </g>
      <g id="Group_10082" data-name="Group 10082" transform="translate(7.996 5.824)">
        <g id="Group_10081" data-name="Group 10081" transform="translate(0)">
          <g id="Group_10080" data-name="Group 10080">
            <path id="Path_8781" data-name="Path 8781" d="M251.085,141.776l-.609-.376-17.339,10.02-.837,1.419V168.15l.636.355,17.339-10.025.81-1.388Z" transform="translate(-232.3 -141.4)" fill="#fff"/>
          </g>
        </g>
      </g>
      <g id="Group_10085" data-name="Group 10085" transform="translate(16.517 15.468)">
        <g id="Group_10084" data-name="Group 10084" transform="translate(0)">
          <g id="Group_10083" data-name="Group 10083">
            <path id="Path_8782" data-name="Path 8782" d="M310.75,227.45v7.679l3.511-5.2Z" transform="translate(-310.75 -227.45)" fill="#633c7e"/>
          </g>
        </g>
      </g>
    </g>
  </g>
</svg>
