<svg width="97" height="97" viewBox="0 0 97 97" fill="none" xmlns="http://www.w3.org/2000/svg">
<circle cx="48.5" cy="48.5" r="48.5" fill="#FFFAF4"/>
<circle cx="49.5" cy="47.5" r="31.5" fill="#FFEEDB"/>
<path d="M54.125 60.3125C53.2812 60.3125 52.7187 60.0312 51.875 59.75L48.5 58.3438L45.125 59.75C44.5625 60.0312 43.7187 60.3125 42.875 60.3125C42.3125 60.3125 42.0312 60.3125 41.4687 60.0312L41.5 71L48.5 65.375L55.25 71L55.25 60.0312C54.9687 60.3125 54.4062 60.3125 54.125 60.3125ZM62.2812 42.5938C62 42.0312 62 41.1875 62.2812 40.625L63.9687 37.25C64.5312 36.125 63.9687 34.7188 62.5625 34.1562L58.9062 32.75C58.3437 32.4688 57.7812 31.9062 57.5 31.3438L56.0937 27.6875C55.8125 26.5625 54.9687 26 54.125 26C53.8437 26 53.2812 26 53 26.2812L49.3437 27.9688H48.5C48.2187 27.9688 47.9375 27.9688 47.6562 27.6875L44 26.2812C43.7187 26 43.1562 26 42.875 26C42.0312 26 41.1875 26.5625 40.625 27.4062L39.2187 31.3438C39.2187 31.9062 38.6562 32.4688 38.0937 32.75L34.1562 34.1562C33.0312 34.4375 32.4687 35.8438 33.0312 37.25L34.7187 40.9063C35 41.4688 35 42.3125 34.7187 42.875L33.0312 46.25C32.4687 47.375 33.0312 48.7812 34.4375 49.3438L38.0937 50.75C38.6562 51.0312 39.2187 51.5938 39.5 52.1562L40.9062 55.8125C41.1875 56.9375 42.0312 57.5 42.875 57.5C43.1562 57.5 43.4375 57.5 43.7187 57.2188L47.375 55.5312C47.6562 55.5312 47.9375 55.25 48.2187 55.25C48.5 55.25 48.7812 55.25 49.0625 55.5312L52.7187 57.2188C53 57.5 53.2812 57.5 53.5625 57.5C54.4062 57.5 55.25 56.9375 55.8125 56.0938L57.2187 52.4375C57.5 51.875 58.0625 51.3125 58.625 51.0312L62.2812 49.625C63.4062 49.0625 64.25 47.6562 63.6875 46.5312L62.2812 42.5938ZM48.5 53C42.3125 53 37.25 47.9375 37.25 41.75C37.25 35.5625 42.3125 30.5 48.5 30.5C54.6875 30.5 59.75 35.5625 59.75 41.75C59.75 47.9375 54.6875 53 48.5 53Z" fill="#E96D13"/>
<path d="M56.9375 41.75C56.9375 43.9878 56.0486 46.1339 54.4662 47.7162C52.8839 49.2986 50.7378 50.1875 48.5 50.1875C46.2622 50.1875 44.1161 49.2986 42.5338 47.7162C40.9514 46.1339 40.0625 43.9878 40.0625 41.75C40.0625 39.5122 40.9514 37.3661 42.5338 35.7838C44.1161 34.2014 46.2622 33.3125 48.5 33.3125C50.7378 33.3125 52.8839 34.2014 54.4662 35.7838C56.0486 37.3661 56.9375 39.5122 56.9375 41.75Z" fill="#E96D13"/>
</svg>
