<svg xmlns="http://www.w3.org/2000/svg" xmlns:xlink="http://www.w3.org/1999/xlink" width="87.328" height="71.507" viewBox="0 0 87.328 71.507">
  <defs>
    <linearGradient id="linear-gradient" x1="0.681" x2="0.39" y2="0.693" gradientUnits="objectBoundingBox">
      <stop offset="0" stop-color="#fff" stop-opacity="0.451"/>
      <stop offset="1" stop-color="#fff" stop-opacity="0.051"/>
    </linearGradient>
    <filter id="Path_8950" x="0" y="9" width="87.328" height="62.507" filterUnits="userSpaceOnUse">
      <feOffset dy="3" input="SourceAlpha"/>
      <feGaussianBlur stdDeviation="6" result="blur"/>
      <feFlood flood-opacity="0.263"/>
      <feComposite operator="in" in2="blur"/>
      <feComposite in="SourceGraphic"/>
    </filter>
    <linearGradient id="linear-gradient-2" x1="0.231" y1="-0.991" x2="0.858" y2="-0.991" gradientUnits="objectBoundingBox">
      <stop offset="0" stop-color="#fff" stop-opacity="0"/>
      <stop offset="1" stop-color="#fff" stop-opacity="0.298"/>
    </linearGradient>
    <linearGradient id="linear-gradient-3" x1="1.73" y1="0.394" x2="1.769" y2="0.865" xlink:href="#linear-gradient-2"/>
  </defs>
  <g id="Group_10894" data-name="Group 10894" transform="translate(-694.336 -992)">
    <rect id="Rectangle_4461" data-name="Rectangle 4461" width="56" height="56" rx="8" transform="translate(710 992)" fill="#00d4ff"/>
    <g transform="matrix(1, 0, 0, 1, 694.34, 992)" filter="url(#Path_8950)">
      <path id="Path_8950-2" data-name="Path 8950" d="M25.664,0C39.838,0,51.328,5.934,51.328,13.253S39.838,26.507,25.664,26.507,0,20.573,0,13.253,11.49,0,25.664,0Z" transform="translate(18 24)" fill="url(#linear-gradient)"/>
    </g>
    <g id="Tccl_3d_icon0004" data-name="Tccl 3d icon0004" transform="translate(722.129 999.782)">
      <g id="calender33_svg" transform="translate(0 0)">
        <g id="Group_9601" data-name="Group 9601" transform="translate(27.173 14.772)">
          <g id="Group_9600" data-name="Group 9600">
            <g id="Group_9599" data-name="Group 9599">
              <path id="Path_8494" data-name="Path 8494" d="M1677.682,1511.875v1.22l3.712-1.042a1.566,1.566,0,0,1,.941.127l-2.339-1.348a1.336,1.336,0,0,0-.839-.254l-.254.025-.254.076-.508.712Z" transform="translate(-1677.682 -1510.578)" fill="#f4b34b"/>
            </g>
          </g>
        </g>
        <g id="Group_9604" data-name="Group 9604" transform="translate(17.638)">
          <g id="Group_9603" data-name="Group 9603">
            <g id="Group_9602" data-name="Group 9602">
              <path id="Path_8495" data-name="Path 8495" d="M1579.737,1350.081l-.1.051-1.958,1.144a8.645,8.645,0,0,0-3.916,6.763v2.644l2.924,1.678v-2.644a7.676,7.676,0,0,1,1.144-3.839,7.919,7.919,0,0,1,2.771-2.949l2.06-1.17a2.524,2.524,0,0,1,2.593-.305l-2.8-1.627h-.026l-.025-.025-.051-.025h-.051l-.2-.1-.076-.025-.229-.051h-.051l-.229-.026h-.33l-.331.051-.356.1-.381.153-.305.178Z" transform="translate(-1573.762 -1349.572)" fill="#2d2824"/>
            </g>
          </g>
        </g>
        <g id="Group_9607" data-name="Group 9607" transform="translate(19.876 25.574)">
          <g id="Group_9606" data-name="Group 9606" transform="translate(0 0)">
            <g id="Group_9605" data-name="Group 9605">
              <path id="Path_8496" data-name="Path 8496" d="M1598.479,1628.326l-.076.025-.1.076a.488.488,0,0,0-.152.356v2.288l.483-.3V1628.5Q1598.631,1628.3,1598.479,1628.326Z" transform="translate(-1598.148 -1628.323)" fill="#9f433b"/>
            </g>
          </g>
        </g>
        <g id="Group_9610" data-name="Group 9610" transform="translate(29.639 19.93)">
          <g id="Group_9609" data-name="Group 9609" transform="translate(0 0)">
            <g id="Group_9608" data-name="Group 9608">
              <path id="Path_8497" data-name="Path 8497" d="M1705.045,1566.878a.154.154,0,0,0-.229-.051.445.445,0,0,0-.255.432v2.288l.483-.28Z" transform="translate(-1704.562 -1566.799)" fill="#f4b34b"/>
            </g>
          </g>
        </g>
        <g id="Group_9613" data-name="Group 9613" transform="translate(22.825 16.068)">
          <g id="Group_9612" data-name="Group 9612" transform="translate(0 0)">
            <g id="Group_9611" data-name="Group 9611">
              <path id="Path_8498" data-name="Path 8498" d="M1634.642,1526.008v-1.3a5.51,5.51,0,0,1-1.373,1.118l-.737.407a3.213,3.213,0,0,1-1.805.534l-.432-.076v1.78q0,.432.636.381a4.464,4.464,0,0,0,1.551-.585l.483-.305.051-.051.432-.33h.025l.814-.839.3-.508Z" transform="translate(-1630.294 -1524.712)" fill="#b18a5e"/>
            </g>
          </g>
        </g>
        <g id="Group_9616" data-name="Group 9616" transform="translate(17.41 11.111)">
          <g id="Group_9615" data-name="Group 9615" transform="translate(0 0)">
            <g id="Group_9614" data-name="Group 9614">
              <path id="Path_8499" data-name="Path 8499" d="M1571.5,1470.673l-.152.356a2.018,2.018,0,0,0-.077.534v.2l.051.153.026.026a.3.3,0,0,0,.2.229v.026l.686.381.025,1.22.026.153v.076l.1.381v.076l.229.534.153.229.076.076.076.1.254.229.127.076.025.026.865.508v1.653l2.492,1.474v-1.78a1.888,1.888,0,0,1-1.119-.865,3.376,3.376,0,0,1-.432-1.78v-1.17a.585.585,0,0,1-.966-.559,1.83,1.83,0,0,1,.254-.89Z" transform="translate(-1571.267 -1470.673)" fill="#d0b18c"/>
            </g>
          </g>
        </g>
        <g id="Group_9619" data-name="Group 9619" transform="translate(20.562 1.646)">
          <g id="Group_9618" data-name="Group 9618" transform="translate(0 0)">
            <g id="Group_9617" data-name="Group 9617">
              <path id="Path_8500" data-name="Path 8500" d="M1614.351,1367.828l-.1-.051a2.522,2.522,0,0,0-2.644.28l-2.059,1.169a7.923,7.923,0,0,0-2.771,2.949,7.679,7.679,0,0,0-1.144,3.839v2.644a2.128,2.128,0,0,1,.712-.814v-2.186a6.4,6.4,0,0,1,3.966-2.237,7.858,7.858,0,0,0,4.348-2.288v1.907a.684.684,0,0,1,.737-.026v-2.771A2.636,2.636,0,0,0,1614.351,1367.828Z" transform="translate(-1605.63 -1367.517)" fill="#473f37"/>
            </g>
          </g>
        </g>
        <g id="Group_9622" data-name="Group 9622" transform="translate(20.308 5.263)">
          <g id="Group_9621" data-name="Group 9621" transform="translate(0 0)">
            <g id="Group_9620" data-name="Group 9620">
              <path id="Path_8501" data-name="Path 8501" d="M1612.139,1408.842v-1.907a7.857,7.857,0,0,1-4.348,2.288,6.4,6.4,0,0,0-3.966,2.237v2.187a2.126,2.126,0,0,0-.712.814,1.827,1.827,0,0,0-.254.89.585.585,0,0,0,.966.559v1.17a3.377,3.377,0,0,0,.432,1.78,1.89,1.89,0,0,0,1.119.864l.432.076a3.212,3.212,0,0,0,1.805-.534l.737-.407a5.515,5.515,0,0,0,1.373-1.119l.457-.483.509-.712a7.45,7.45,0,0,0,1.449-4.246v-1.195a1.855,1.855,0,0,0,.686-.712,1.888,1.888,0,0,0,.305-.966.692.692,0,0,0-.254-.61A.683.683,0,0,0,1612.139,1408.842Z" transform="translate(-1602.859 -1406.936)" fill="#c29766"/>
            </g>
          </g>
        </g>
        <g id="Group_9625" data-name="Group 9625" transform="translate(17.486 16.226)">
          <g id="Group_9624" data-name="Group 9624" transform="translate(0 0)">
            <g id="Group_9623" data-name="Group 9623">
              <path id="Path_8502" data-name="Path 8502" d="M1581.786,1527.488v.076l-.051.229-.305.509-.229.254-.051.076-.3.305h-.026l-.2.2h-.025l-.2.178-.178.1-.1.1-.051.025-.432.28a4.458,4.458,0,0,1-1.551.585q-.636.051-.636-.381l-3.61,3.127-.1.076a5.337,5.337,0,0,0-1.17,1.678,4.5,4.5,0,0,0-.458,1.881v3.1l2.39-1.373v-2.288a.488.488,0,0,1,.153-.356l.1-.076.076-.025q.153-.025.153.178v2.263l9.28-5.339v-2.288a.445.445,0,0,1,.254-.432.154.154,0,0,1,.229.051v2.39l2.39-1.373v-3.1a1.623,1.623,0,0,0-.686-1.525v-.025a1.565,1.565,0,0,0-.941-.127Z" transform="translate(-1572.099 -1526.425)" fill="#f8d650"/>
            </g>
          </g>
        </g>
        <g id="Group_9628" data-name="Group 9628" transform="translate(15.02 18.357)">
          <g id="Group_9627" data-name="Group 9627">
            <g id="Group_9626" data-name="Group 9626">
              <path id="Path_8503" data-name="Path 8503" d="M1545.676,1554.559a4.5,4.5,0,0,0-.458,1.881v3.1l2.466,1.449v-3.1a4.5,4.5,0,0,1,.458-1.881,5.336,5.336,0,0,1,1.17-1.678l.1-.076,3.61-3.127-2.492-1.475-3.687,3.229A5.335,5.335,0,0,0,1545.676,1554.559Z" transform="translate(-1545.218 -1549.652)" fill="#cf5441"/>
            </g>
          </g>
        </g>
        <g id="Group_9631" data-name="Group 9631" transform="translate(12.179 23.449)">
          <g id="Group_9630" data-name="Group 9630" transform="translate(0 0)">
            <g id="Group_9629" data-name="Group 9629">
              <path id="Path_8504" data-name="Path 8504" d="M1515.2,1605.282l-.941,1.195v1.22l3.687-1.042a1.35,1.35,0,0,1,.941.127l-2.339-1.373a1.336,1.336,0,0,0-.839-.254Z" transform="translate(-1514.255 -1605.155)" fill="#cf5441"/>
            </g>
          </g>
        </g>
        <g id="Group_9634" data-name="Group 9634" transform="translate(2.619 8.676)">
          <g id="Group_9633" data-name="Group 9633">
            <g id="Group_9632" data-name="Group 9632">
              <path id="Path_8505" data-name="Path 8505" d="M1418.7,1444.369l-.051-.026h-.051l-.2-.1h-.051l-.229-.076h-.076l-.229-.026h-.1l-.229.026h-.127l-.788.229-.458.229-.076.026-.1.076-1.958,1.119a8.639,8.639,0,0,0-3.916,6.789v2.619l2.924,1.678v-2.644a8.644,8.644,0,0,1,3.916-6.763l2.059-1.195a2.6,2.6,0,0,1,2.644-.28l-2.848-1.653h-.025Z" transform="translate(-1410.053 -1444.14)" fill="#b99640"/>
            </g>
          </g>
        </g>
        <g id="Group_9637" data-name="Group 9637" transform="translate(4.856 34.255)">
          <g id="Group_9636" data-name="Group 9636">
            <g id="Group_9635" data-name="Group 9635">
              <path id="Path_8506" data-name="Path 8506" d="M1434.771,1722.936l-.076.025-.1.077a.487.487,0,0,0-.152.356v2.288l.483-.28v-2.288Q1434.924,1722.936,1434.771,1722.936Z" transform="translate(-1434.441 -1722.936)" fill="#9f433b"/>
            </g>
          </g>
        </g>
        <g id="Group_9640" data-name="Group 9640" transform="translate(14.62 28.616)">
          <g id="Group_9639" data-name="Group 9639">
            <g id="Group_9638" data-name="Group 9638">
              <path id="Path_8507" data-name="Path 8507" d="M1541.343,1661.545q-.076-.127-.229-.025a.445.445,0,0,0-.254.432v2.263l.483-.28Z" transform="translate(-1540.859 -1661.474)" fill="#4789b4"/>
            </g>
          </g>
        </g>
        <g id="Group_9643" data-name="Group 9643" transform="translate(7.806 24.771)">
          <g id="Group_9642" data-name="Group 9642">
            <g id="Group_9641" data-name="Group 9641">
              <path id="Path_8508" data-name="Path 8508" d="M1470.961,1620.786v-1.22a5.918,5.918,0,0,1-1.4,1.093l-.737.432a3.162,3.162,0,0,1-1.805.509,1.222,1.222,0,0,1-.432-.076v1.78q0,.432.636.382a4.461,4.461,0,0,0,1.551-.585l.483-.305.051-.051.432-.305.788-.788.356-.559.051-.229Z" transform="translate(-1466.588 -1619.565)" fill="#e7c49c"/>
            </g>
          </g>
        </g>
        <g id="Group_9646" data-name="Group 9646" transform="translate(2.39 19.787)">
          <g id="Group_9645" data-name="Group 9645" transform="translate(0 0)">
            <g id="Group_9644" data-name="Group 9644">
              <path id="Path_8509" data-name="Path 8509" d="M1407.66,1565.6a1.3,1.3,0,0,0-.1.534v.229l.076.178a.4.4,0,0,0,.2.229l.687.381.026,1.246.026.127v.076l.051.254.051.152v.051l.229.534.229.331.331.305.127.076.051.051.865.483v1.678l2.466,1.449v-1.78a1.889,1.889,0,0,1-1.119-.864,3.322,3.322,0,0,1-.432-1.755v-1.195a.585.585,0,0,1-.966-.559,1.827,1.827,0,0,1,.255-.89l-2.924-1.678Z" transform="translate(-1407.559 -1565.247)" fill="#d0b18c"/>
            </g>
          </g>
        </g>
        <g id="Group_9649" data-name="Group 9649" transform="translate(5.543 10.335)">
          <g id="Group_9648" data-name="Group 9648">
            <g id="Group_9647" data-name="Group 9647">
              <path id="Path_8510" data-name="Path 8510" d="M1450.542,1462.468a2.6,2.6,0,0,0-2.644.28l-2.06,1.2a8.645,8.645,0,0,0-3.916,6.763v2.644a1.924,1.924,0,0,1,.712-.788v-2.187a6.5,6.5,0,0,1,3.966-2.263,7.855,7.855,0,0,0,4.348-2.288v1.932a.66.66,0,0,1,.738-.051v-2.771a2.712,2.712,0,0,0-1.043-2.415Z" transform="translate(-1441.923 -1462.22)" fill="#d3af49"/>
            </g>
          </g>
        </g>
        <g id="Group_9652" data-name="Group 9652" transform="translate(5.289 13.939)">
          <g id="Group_9651" data-name="Group 9651">
            <g id="Group_9650" data-name="Group 9650">
              <path id="Path_8511" data-name="Path 8511" d="M1440.118,1511.677a3.324,3.324,0,0,0,.432,1.754,1.89,1.89,0,0,0,1.119.864,1.219,1.219,0,0,0,.432.077,3.164,3.164,0,0,0,1.805-.509l.737-.432a5.917,5.917,0,0,0,1.4-1.093l.941-1.195a7.647,7.647,0,0,0,1.449-4.271v-1.195a2.043,2.043,0,0,0,.712-.712,2.012,2.012,0,0,0,.28-.966.693.693,0,0,0-.254-.61.66.66,0,0,0-.737.051v-1.932a7.858,7.858,0,0,1-4.348,2.288,6.5,6.5,0,0,0-3.966,2.263v2.187a1.923,1.923,0,0,0-.712.788,1.826,1.826,0,0,0-.254.89.585.585,0,0,0,.966.559Z" transform="translate(-1439.152 -1501.507)" fill="#f8d3a7"/>
            </g>
          </g>
        </g>
        <g id="Group_9655" data-name="Group 9655" transform="translate(2.467 24.917)">
          <g id="Group_9654" data-name="Group 9654">
            <g id="Group_9653" data-name="Group 9653">
              <path id="Path_8512" data-name="Path 8512" d="M84.329,319.583l-.078.1a5.258,5.258,0,0,0-1.193,1.679,4.306,4.306,0,0,0-.459,1.853v3.106l2.39-1.376v-2.284a.489.489,0,0,1,.151-.358l.1-.078.078-.023q.151,0,.151.179v2.284l9.28-5.363v-2.262a.449.449,0,0,1,.257-.436q.151-.1.229.028v2.39l2.39-1.372v-3.106a1.641,1.641,0,0,0-.665-1.523H96.94a1.35,1.35,0,0,0-.94-.128l-3.688,1.041-.078.307-.353.56-.537.56H91.32l-.229.229-.358.28-.073.023-.05.05-.05.028-.436.28a4.382,4.382,0,0,1-1.551.583q-.633.05-.633-.381Z" transform="translate(-82.6 -312.864)" fill="#da725e"/>
            </g>
          </g>
        </g>
        <g id="Group_9658" data-name="Group 9658" transform="translate(0 27.059)">
          <g id="Group_9657" data-name="Group 9657" transform="translate(0 0)">
            <g id="Group_9656" data-name="Group 9656">
              <path id="Path_8513" data-name="Path 8513" d="M1383.974,1652.72a4.331,4.331,0,0,1,.458-1.856,5.293,5.293,0,0,1,1.195-1.678l.076-.1,3.611-3.127-2.466-1.449-3.712,3.2a5.849,5.849,0,0,0-1.169,1.7,4.449,4.449,0,0,0-.458,1.856v3.1l2.466,1.449Z" transform="translate(-1381.508 -1644.507)" fill="#cf5441"/>
            </g>
          </g>
        </g>
        <g id="Group_9661" data-name="Group 9661" transform="translate(9.477 3.787)">
          <g id="Group_9660" data-name="Group 9660">
            <g id="Group_9659" data-name="Group 9659">
              <path id="Path_8514" data-name="Path 8514" d="M165.2,282.039q0-.2-.174-.2H165l-.1.05-.1.073a.562.562,0,0,0-.179.408v2.642l.583-.33v-2.642m-.023-8.569v.028l-4.3,3.711a6.117,6.117,0,0,0-1.344,1.959,5.264,5.264,0,0,0-.537,2.184v3.587l2.849,1.679V283.03a5.023,5.023,0,0,1,.532-2.161,5.662,5.662,0,0,1,1.376-1.959l.1-.1,4.17-3.633-2.849-1.706m11.34,2.037-.028-.128q-.073-.128-.252-.05a.561.561,0,0,0-.307.509v2.642l.587-.33v-2.642m-.762-5.9a1.4,1.4,0,0,0-.945-.28h-.023l-.28.023-.307.078a4.12,4.12,0,0,1-.61.839l-.482.56v1.422l4.271-1.22a1.678,1.678,0,0,1,1.1.151Z" transform="translate(-159 -252.189)" fill="#9b4646"/>
              <path id="Path_8515" data-name="Path 8515" d="M262.382,287.48a.618.618,0,0,0,.078-.28l.023-.078V285.7a7.6,7.6,0,0,1-1.628,1.271l-.835.509a3.83,3.83,0,0,1-2.11.583,2.021,2.021,0,0,1-.509-.073v2.06q0,.5.734.431a4.867,4.867,0,0,0,1.807-.661l.527-.344.105-.064.381-.3.105-.083.051-.05.229-.179.344-.344q.114-.122.188-.216a1.05,1.05,0,0,0,.078-.1h.023l.078-.1A3.352,3.352,0,0,0,262.382,287.48Z" transform="translate(-248.372 -267.062)" fill="#e7c49c"/>
              <path id="Path_8516" data-name="Path 8516" d="M189.253,223.05l-.179.381a2.173,2.173,0,0,0-.124.638l.023.252.05.179.028.028a.585.585,0,0,0,.229.28h.023l.766.454h.023l.028,1.427.023.151v.078l.1.454.179.459.128.229.073.151.106.128q.023.028.073.1l.078.1.128.128.33.229.023.028v.023l1.018.56v1.931l2.849,1.706v-2.06a2.184,2.184,0,0,1-1.3-1.018,3.928,3.928,0,0,1-.482-2.032V226.66a.725.725,0,0,1-.789.078.794.794,0,0,1-.33-.739,2.1,2.1,0,0,1,.28-1.018Z" transform="translate(-186.202 -210.16)" fill="#d0b18c"/>
              <path id="Path_8517" data-name="Path 8517" d="M206.7,287.793l-.023-.027a1.677,1.677,0,0,0-1.1-.151l-4.271,1.22-.023.078a.617.617,0,0,1-.078.28,1.734,1.734,0,0,1-.33.56l-.078.1h-.023a1.047,1.047,0,0,1-.078.1l-.073.1-.115.115-.344.344-.229.179-.05.05-.106.083-.3.248-.151.1-.032.014-.528.344a4.865,4.865,0,0,1-1.807.661q-.734.073-.734-.431l-4.17,3.633-.1.1a5.661,5.661,0,0,0-1.376,1.959,5.024,5.024,0,0,0-.532,2.161V303.2l2.771-1.606v-2.642a.562.562,0,0,1,.179-.408l.1-.1.1-.023h.028q.174,0,.174.2v2.642l10.73-6.2v-2.642a.561.561,0,0,1,.307-.509q.179-.078.252.05l.028.128v2.642l2.771-1.6v-3.587A1.852,1.852,0,0,0,206.7,287.793Z" transform="translate(-187.201 -268.775)" fill="#ffa8a8"/>
              <path id="Path_8518" data-name="Path 8518" d="M237.369,152.818a2.29,2.29,0,0,0,.33-1.119.8.8,0,0,0-.307-.688.74.74,0,0,0-.812.028l-.027.023V148.8a9.156,9.156,0,0,1-5.032,2.67,7.42,7.42,0,0,0-4.6,2.619V156.6a2.246,2.246,0,0,0-.839.94,2.1,2.1,0,0,0-.28,1.018.794.794,0,0,0,.33.739.725.725,0,0,0,.789-.078V160.6a3.928,3.928,0,0,0,.482,2.032,2.183,2.183,0,0,0,1.3,1.018,2.024,2.024,0,0,0,.509.073,3.829,3.829,0,0,0,2.11-.583l.835-.509a7.6,7.6,0,0,0,1.628-1.271l.482-.56a4.12,4.12,0,0,0,.61-.839,8.721,8.721,0,0,0,1.679-4.931v-1.376h.027A2.091,2.091,0,0,0,237.369,152.818Z" transform="translate(-219.671 -142.722)" fill="#f8d3a7"/>
              <path id="Path_8519" data-name="Path 8519" d="M238.7,103.555a2.3,2.3,0,0,0-.39-.138,2.618,2.618,0,0,0-1.289.014,4.8,4.8,0,0,0-1.229.523l-2.39,1.372a9.144,9.144,0,0,0-3.229,3.408,8.923,8.923,0,0,0-1.321,4.473v3.051a2.246,2.246,0,0,1,.839-.94V112.8a7.42,7.42,0,0,1,4.6-2.619,9.156,9.156,0,0,0,5.032-2.67v2.262l.028-.023a.74.74,0,0,1,.812-.028V106.5a3.091,3.091,0,0,0-1.193-2.794l-.1-.055Q238.785,103.6,238.7,103.555Z" transform="translate(-222.442 -101.436)" fill="#77502c"/>
              <path id="Path_8520" data-name="Path 8520" d="M205.067,84.532a2.3,2.3,0,0,1,.39.138l-3.165-1.812-.05-.05-.05-.028h-.05l-.252-.128h-.05l-.28-.073-.711-.028-.179.028-.638.151-.431.179-2.821,1.6a10.087,10.087,0,0,0-4.528,7.858V95.44l3.358,1.931V94.321a8.923,8.923,0,0,1,1.321-4.473,9.144,9.144,0,0,1,3.229-3.408l2.39-1.372a4.8,4.8,0,0,1,1.229-.523A2.618,2.618,0,0,1,205.067,84.532Z" transform="translate(-189.199 -82.55)" fill="#5e3f23"/>
            </g>
          </g>
        </g>
      </g>
      <g id="light" transform="translate(9.477 3.787)">
        <g id="Group_9664" data-name="Group 9664" transform="translate(0)">
          <g id="Group_9663" data-name="Group 9663">
            <g id="Group_9662" data-name="Group 9662">
              <path id="Path_8521" data-name="Path 8521" d="M220.833,341.17q0-.2-.174-.2h-.028l-.1.05-.1.073a.562.562,0,0,0-.179.408v2.642l.583-.33V341.17m11.317-6.532-.028-.128q-.073-.128-.252-.05a.561.561,0,0,0-.307.509v2.642l.587-.33Z" transform="translate(-214.631 -311.32)" fill="#4789b4"/>
              <path id="Path_8522" data-name="Path 8522" d="M262.382,287.48a.618.618,0,0,0,.078-.28l.023-.078V285.7a7.6,7.6,0,0,1-1.628,1.271l-.835.509a3.83,3.83,0,0,1-2.11.583,2.021,2.021,0,0,1-.509-.073v2.06q0,.5.734.431a4.867,4.867,0,0,0,1.807-.661l.527-.344.105-.064.381-.3.105-.083.051-.05.229-.179.344-.344q.114-.122.188-.216a1.05,1.05,0,0,0,.078-.1h.023l.078-.1A3.352,3.352,0,0,0,262.382,287.48Z" transform="translate(-248.372 -267.062)" fill="#e7c49c"/>
              <path id="Path_8523" data-name="Path 8523" d="M165.179,273.47v.028l-4.3,3.711a6.117,6.117,0,0,0-1.344,1.959,5.264,5.264,0,0,0-.537,2.184v3.587l2.849,1.679V283.03a5.023,5.023,0,0,1,.532-2.161,5.662,5.662,0,0,1,1.376-1.959l.1-.1,4.17-3.633-2.849-1.706m10.578-3.863a1.4,1.4,0,0,0-.945-.28h-.023l-.28.023-.307.078a4.12,4.12,0,0,1-.61.839l-.482.56v1.422l4.271-1.22a1.678,1.678,0,0,1,1.1.151Z" transform="translate(-159 -252.189)" fill="#498db9"/>
              <path id="Path_8524" data-name="Path 8524" d="M189.253,223.05l-.179.381a2.173,2.173,0,0,0-.124.638l.023.252.05.179.028.028a.585.585,0,0,0,.229.28h.023l.766.454h.023l.028,1.427.023.151v.078l.1.454.179.459.128.229.073.151.106.128q.023.028.073.1l.078.1.128.128.33.229.023.028v.023l1.018.56v1.931l2.849,1.706v-2.06a2.184,2.184,0,0,1-1.3-1.018,3.928,3.928,0,0,1-.482-2.032V226.66a.725.725,0,0,1-.789.078.794.794,0,0,1-.33-.739,2.1,2.1,0,0,1,.28-1.018Z" transform="translate(-186.202 -210.16)" fill="#d0b18c"/>
              <path id="Path_8525" data-name="Path 8525" d="M206.7,287.793l-.023-.027a1.677,1.677,0,0,0-1.1-.151l-4.271,1.22-.023.078a.617.617,0,0,1-.078.28,1.734,1.734,0,0,1-.33.56l-.078.1h-.023a1.047,1.047,0,0,1-.078.1l-.073.1-.115.115-.344.344-.229.179-.05.05-.106.083-.3.248-.151.1-.032.014-.528.344a4.865,4.865,0,0,1-1.807.661q-.734.073-.734-.431l-4.17,3.633-.1.1a5.661,5.661,0,0,0-1.376,1.959,5.024,5.024,0,0,0-.532,2.161V303.2l2.771-1.606v-2.642a.562.562,0,0,1,.179-.408l.1-.1.1-.023h.028q.174,0,.174.2v2.642l10.73-6.2v-2.642a.561.561,0,0,1,.307-.509q.179-.078.252.05l.028.128v2.642l2.771-1.6v-3.587A1.852,1.852,0,0,0,206.7,287.793Z" transform="translate(-187.201 -268.775)" fill="#58a8dc"/>
              <path id="Path_8526" data-name="Path 8526" d="M236.553,151.062V148.8a9.156,9.156,0,0,1-5.032,2.67,7.42,7.42,0,0,0-4.6,2.619V156.6a2.246,2.246,0,0,0-.839.94,2.1,2.1,0,0,0-.28,1.018.794.794,0,0,0,.33.739.725.725,0,0,0,.789-.078V160.6a3.928,3.928,0,0,0,.482,2.032,2.183,2.183,0,0,0,1.3,1.018,2.024,2.024,0,0,0,.509.073,3.829,3.829,0,0,0,2.11-.583l.835-.509a7.6,7.6,0,0,0,1.628-1.271l.482-.56a4.12,4.12,0,0,0,.61-.839,8.721,8.721,0,0,0,1.679-4.931v-1.376h.027a2.091,2.091,0,0,0,.789-.835,2.29,2.29,0,0,0,.33-1.119.8.8,0,0,0-.307-.688.74.74,0,0,0-.812.028Z" transform="translate(-219.671 -142.722)" fill="#f8d3a7"/>
              <path id="Path_8527" data-name="Path 8527" d="M205.067,84.532a2.3,2.3,0,0,1,.39.138l-3.165-1.812-.05-.05-.05-.028h-.05l-.252-.128h-.05l-.28-.073-.711-.028-.179.028-.638.151-.431.179-2.821,1.6a10.087,10.087,0,0,0-4.528,7.858V95.44l3.358,1.931V94.321a8.923,8.923,0,0,1,1.321-4.473,9.144,9.144,0,0,1,3.229-3.408l2.39-1.372a4.8,4.8,0,0,1,1.229-.523A2.618,2.618,0,0,1,205.067,84.532Z" transform="translate(-189.199 -82.55)" fill="#5e3f23"/>
              <path id="Path_8528" data-name="Path 8528" d="M240.162,106.5a3.091,3.091,0,0,0-1.193-2.794l-.1-.055q-.084-.048-.17-.092a2.3,2.3,0,0,0-.39-.138,2.618,2.618,0,0,0-1.289.014,4.8,4.8,0,0,0-1.229.523l-2.39,1.372a9.144,9.144,0,0,0-3.229,3.408,8.923,8.923,0,0,0-1.321,4.473v3.051a2.246,2.246,0,0,1,.839-.94V112.8a7.42,7.42,0,0,1,4.6-2.619,9.156,9.156,0,0,0,5.032-2.67v2.262l.028-.023a.74.74,0,0,1,.812-.028Z" transform="translate(-222.442 -101.436)" fill="#77502c"/>
            </g>
          </g>
        </g>
        <g id="Group_9667" data-name="Group 9667" transform="translate(0)">
          <g id="Group_9666" data-name="Group 9666">
            <g id="Group_9665" data-name="Group 9665">
              <path id="Path_8529" data-name="Path 8529" d="M220.833,341.17q0-.2-.174-.2h-.028l-.1.05-.1.073a.562.562,0,0,0-.179.408v2.642l.583-.33V341.17m11.317-6.532-.028-.128q-.073-.128-.252-.05a.561.561,0,0,0-.307.509v2.642l.587-.33Z" transform="translate(-214.631 -311.32)" fill="#4789b4"/>
              <path id="Path_8530" data-name="Path 8530" d="M262.382,287.48a.618.618,0,0,0,.078-.28l.023-.078V285.7a7.6,7.6,0,0,1-1.628,1.271l-.835.509a3.83,3.83,0,0,1-2.11.583,2.021,2.021,0,0,1-.509-.073v2.06q0,.5.734.431a4.867,4.867,0,0,0,1.807-.661l.527-.344.105-.064.381-.3.105-.083.051-.05.229-.179.344-.344q.114-.122.188-.216a1.05,1.05,0,0,0,.078-.1h.023l.078-.1A3.352,3.352,0,0,0,262.382,287.48Z" transform="translate(-248.372 -267.062)" fill="#e7c49c"/>
              <path id="Path_8531" data-name="Path 8531" d="M165.179,273.47v.028l-4.3,3.711a6.117,6.117,0,0,0-1.344,1.959,5.264,5.264,0,0,0-.537,2.184v3.587l2.849,1.679V283.03a5.023,5.023,0,0,1,.532-2.161,5.662,5.662,0,0,1,1.376-1.959l.1-.1,4.17-3.633-2.849-1.706m10.578-3.863a1.4,1.4,0,0,0-.945-.28h-.023l-.28.023-.307.078a4.12,4.12,0,0,1-.61.839l-.482.56v1.422l4.271-1.22a1.678,1.678,0,0,1,1.1.151Z" transform="translate(-159 -252.189)" fill="#498db9"/>
              <path id="Path_8532" data-name="Path 8532" d="M189.253,223.05l-.179.381a2.173,2.173,0,0,0-.124.638l.023.252.05.179.028.028a.585.585,0,0,0,.229.28h.023l.766.454h.023l.028,1.427.023.151v.078l.1.454.179.459.128.229.073.151.106.128q.023.028.073.1l.078.1.128.128.33.229.023.028v.023l1.018.56v1.931l2.849,1.706v-2.06a2.184,2.184,0,0,1-1.3-1.018,3.928,3.928,0,0,1-.482-2.032V226.66a.725.725,0,0,1-.789.078.794.794,0,0,1-.33-.739,2.1,2.1,0,0,1,.28-1.018Z" transform="translate(-186.202 -210.16)" fill="#d0b18c"/>
              <path id="Path_8533" data-name="Path 8533" d="M206.7,120.455l-.023-.028a1.678,1.678,0,0,0-1.1-.151l-4.271,1.22-.023.078a.617.617,0,0,1-.078.28,1.735,1.735,0,0,1-.33.56l-.078.1h-.023a1.051,1.051,0,0,1-.078.1l-.073.1-.115.115-.344.344-.229.179-.05.05-.106.083-.3.248-.151.1-.032.014-.528.344a4.867,4.867,0,0,1-1.807.661q-.734.073-.734-.431l-4.17,3.633-.1.1a5.661,5.661,0,0,0-1.376,1.959,5.023,5.023,0,0,0-.532,2.161v3.587l2.771-1.606v-2.642a.562.562,0,0,1,.179-.408l.1-.1.1-.023h.028q.174,0,.174.2v2.642l10.73-6.2v-2.642a.561.561,0,0,1,.307-.509q.179-.078.252.05l.028.128V127.4l2.771-1.6v-3.587a1.852,1.852,0,0,0-.789-1.752m-3.243-16.9a2.3,2.3,0,0,0-.39-.138,2.618,2.618,0,0,0-1.289.014,4.8,4.8,0,0,0-1.229.523l-2.39,1.372a9.144,9.144,0,0,0-3.229,3.408,8.923,8.923,0,0,0-1.321,4.473v3.051a2.246,2.246,0,0,1,.839-.94V112.8a7.42,7.42,0,0,1,4.6-2.619,9.156,9.156,0,0,0,5.032-2.67v2.262l.028-.023a.74.74,0,0,1,.812-.028V106.5a3.091,3.091,0,0,0-1.193-2.794l-.1-.055Q203.545,103.6,203.459,103.555Z" transform="translate(-187.201 -101.436)" fill="url(#linear-gradient-2)"/>
              <path id="Path_8534" data-name="Path 8534" d="M237.369,152.818a2.29,2.29,0,0,0,.33-1.119.8.8,0,0,0-.307-.688.74.74,0,0,0-.812.028l-.027.023V148.8a9.156,9.156,0,0,1-5.032,2.67,7.42,7.42,0,0,0-4.6,2.619V156.6a2.246,2.246,0,0,0-.839.94,2.1,2.1,0,0,0-.28,1.018.794.794,0,0,0,.33.739.725.725,0,0,0,.789-.078V160.6a3.928,3.928,0,0,0,.482,2.032,2.183,2.183,0,0,0,1.3,1.018,2.024,2.024,0,0,0,.509.073,3.829,3.829,0,0,0,2.11-.583l.835-.509a7.6,7.6,0,0,0,1.628-1.271l.482-.56a4.12,4.12,0,0,0,.61-.839,8.721,8.721,0,0,0,1.679-4.931v-1.376h.027A2.091,2.091,0,0,0,237.369,152.818Z" transform="translate(-219.671 -142.722)" fill="#f8d3a7"/>
              <path id="Path_8535" data-name="Path 8535" d="M205.067,84.532a2.3,2.3,0,0,1,.39.138l-3.165-1.812-.05-.05-.05-.028h-.05l-.252-.128h-.05l-.28-.073-.711-.028-.179.028-.638.151-.431.179-2.821,1.6a10.087,10.087,0,0,0-4.528,7.858V95.44l3.358,1.931V94.321a8.923,8.923,0,0,1,1.321-4.473,9.144,9.144,0,0,1,3.229-3.408l2.39-1.372a4.8,4.8,0,0,1,1.229-.523A2.618,2.618,0,0,1,205.067,84.532Z" transform="translate(-189.199 -82.55)" fill="url(#linear-gradient-3)"/>
            </g>
          </g>
        </g>
      </g>
    </g>
  </g>
</svg>
