<svg xmlns="http://www.w3.org/2000/svg" xmlns:xlink="http://www.w3.org/1999/xlink" width="87.328" height="71.507" viewBox="0 0 87.328 71.507">
  <defs>
    <linearGradient id="linear-gradient" x1="0.681" x2="0.39" y2="0.693" gradientUnits="objectBoundingBox">
      <stop offset="0" stop-color="#fff" stop-opacity="0.451"/>
      <stop offset="1" stop-color="#fff" stop-opacity="0.051"/>
    </linearGradient>
    <filter id="Path_8950" x="0" y="9" width="87.328" height="62.507" filterUnits="userSpaceOnUse">
      <feOffset dy="3" input="SourceAlpha"/>
      <feGaussianBlur stdDeviation="6" result="blur"/>
      <feFlood flood-opacity="0.263"/>
      <feComposite operator="in" in2="blur"/>
      <feComposite in="SourceGraphic"/>
    </filter>
    <radialGradient id="radial-gradient" cx="0.373" cy="0.722" r="0.745" gradientUnits="objectBoundingBox">
      <stop offset="0" stop-color="#108dbf"/>
      <stop offset="1" stop-color="#8be4ff"/>
    </radialGradient>
    <linearGradient id="linear-gradient-2" y1="0.5" x2="1" y2="0.5" gradientUnits="objectBoundingBox">
      <stop offset="0" stop-color="#fff" stop-opacity="0"/>
      <stop offset="0.443" stop-color="#fff" stop-opacity="0.086"/>
      <stop offset="0.616" stop-color="#fff" stop-opacity="0"/>
      <stop offset="0.757" stop-color="#fff" stop-opacity="0.459"/>
      <stop offset="1" stop-color="#fff" stop-opacity="0"/>
    </linearGradient>
    <linearGradient id="linear-gradient-3" x1="0" y1="0.5" x2="1" y2="0.5" xlink:href="#linear-gradient-2"/>
    <linearGradient id="linear-gradient-4" x1="1" y1="0.5" x2="0" y2="0.5" gradientUnits="objectBoundingBox">
      <stop offset="0" stop-color="#fff" stop-opacity="0.8"/>
      <stop offset="1" stop-color="#fff" stop-opacity="0"/>
    </linearGradient>
    <linearGradient id="linear-gradient-5" x1="0.013" y1="0.5" x2="0.987" y2="0.5" gradientUnits="objectBoundingBox">
      <stop offset="0" stop-color="#fff" stop-opacity="0"/>
      <stop offset="0.09" stop-color="#fff" stop-opacity="0.055"/>
      <stop offset="0.157" stop-color="#fff" stop-opacity="0.278"/>
      <stop offset="0.239" stop-color="#fff" stop-opacity="0.149"/>
      <stop offset="0.443" stop-color="#fff" stop-opacity="0.282"/>
      <stop offset="0.616" stop-color="#fff" stop-opacity="0"/>
      <stop offset="0.757" stop-color="#fff" stop-opacity="0.608"/>
      <stop offset="1" stop-color="#fff" stop-opacity="0"/>
    </linearGradient>
    <linearGradient id="linear-gradient-6" x1="0.946" y1="0.52" x2="0.398" y2="0.52" gradientUnits="objectBoundingBox">
      <stop offset="0" stop-color="#fff" stop-opacity="0.4"/>
      <stop offset="1" stop-color="#fff" stop-opacity="0"/>
    </linearGradient>
    <linearGradient id="linear-gradient-7" x1="0" y1="0.5" x2="1" y2="0.5" xlink:href="#linear-gradient-2"/>
    <linearGradient id="linear-gradient-9" x1="0.01" y1="-1.108" x2="0.911" y2="-1.108" gradientUnits="objectBoundingBox">
      <stop offset="0" stop-color="#fff" stop-opacity="0"/>
      <stop offset="0.192" stop-color="#fff" stop-opacity="0.243"/>
      <stop offset="0.412" stop-color="#fff" stop-opacity="0"/>
      <stop offset="0.639" stop-color="#fff" stop-opacity="0.612"/>
      <stop offset="0.824" stop-color="#fff" stop-opacity="0.8"/>
      <stop offset="1" stop-color="#fff" stop-opacity="0"/>
    </linearGradient>
    <linearGradient id="linear-gradient-10" x1="0.418" y1="-0.352" x2="0.143" y2="0.573" gradientUnits="objectBoundingBox">
      <stop offset="0" stop-opacity="0.8"/>
      <stop offset="1" stop-opacity="0"/>
    </linearGradient>
    <linearGradient id="linear-gradient-11" x1="0.853" y1="0.907" x2="0.146" y2="0.093" xlink:href="#linear-gradient-9"/>
    <linearGradient id="linear-gradient-12" x1="0.324" y1="-0.329" x2="0.904" y2="1.051" xlink:href="#linear-gradient-9"/>
    <linearGradient id="linear-gradient-13" x1="0.695" y1="0.655" x2="-0.012" y2="0.002" gradientUnits="objectBoundingBox">
      <stop offset="0" stop-color="#fff" stop-opacity="0"/>
      <stop offset="1" stop-color="#fff" stop-opacity="0.8"/>
    </linearGradient>
  </defs>
  <g id="Group_10883" data-name="Group 10883" transform="translate(-469.336 -992)">
    <rect id="Rectangle_4461" data-name="Rectangle 4461" width="56" height="56" rx="8" transform="translate(485 992)" fill="#00d4ff"/>
    <g transform="matrix(1, 0, 0, 1, 469.34, 992)" filter="url(#Path_8950)">
      <path id="Path_8950-2" data-name="Path 8950" d="M25.664,0C39.838,0,51.328,5.934,51.328,13.253S39.838,26.507,25.664,26.507,0,20.573,0,13.253,11.49,0,25.664,0Z" transform="translate(18 24)" fill="url(#linear-gradient)"/>
    </g>
    <g id="Tccl_3d_icon0001" data-name="Tccl 3d icon0001" transform="translate(422.6 970.287)">
      <g id="calender33_svg" transform="translate(75.4 29.8)">
        <g id="Group_9573" data-name="Group 9573" transform="translate(0)">
          <g id="Group_9572" data-name="Group 9572">
            <g id="Group_9571" data-name="Group 9571">
              <path id="Path_8454" data-name="Path 8454" d="M83.965,66.266a1.571,1.571,0,0,1-.32-.425V67.12q-.215.479.32,1.009l5.9,3.3a2.484,2.484,0,0,0,2.237,0l5.319-3.086a1.267,1.267,0,0,0,.534-1.014V65.682a1.433,1.433,0,0,1-.534.8L92.1,69.567a2.484,2.484,0,0,1-2.237,0l-5.9-3.3m22.4,2.876V67.809L90.931,76.853,75.4,67.864v1.383l15.531,9.044,15.431-9.149M103.226,44.4a14.18,14.18,0,0,1,1.593,3.3,9.183,9.183,0,0,1,.425,3.566,6.844,6.844,0,0,1-1.383,3.456,7.631,7.631,0,0,1-6.542,2.926,14.138,14.138,0,0,1-8.4-2.926A13.761,13.761,0,0,1,83.645,47.7a7.343,7.343,0,0,1,.849-7.022,6.835,6.835,0,0,1,2.716-2.127,6.783,6.783,0,0,0-3.086,2.287,7.859,7.859,0,0,0-.9,7.236A14.065,14.065,0,0,0,88.644,55.3a.835.835,0,0,1,.215.16,17.279,17.279,0,0,0,4.894,2.4l-.425.215-.215.105a5.542,5.542,0,0,1-4.255,0,2.522,2.522,0,0,1-.265-.105,1.545,1.545,0,0,1-.959-1.068v2.607a1.214,1.214,0,0,0,.639,1.014,1.425,1.425,0,0,1,.32.16q.105.055.265.16a5.6,5.6,0,0,0,2.127.37,5.483,5.483,0,0,0,2.237-.425l.105-.1q.215-.105.425-.215a1.229,1.229,0,0,0,.584-1.009V58.021a14.463,14.463,0,0,0,3.036.32,7.781,7.781,0,0,0,6.7-3.036q2.287-2.977.959-7.232A12.2,12.2,0,0,0,103.226,44.4Z" transform="translate(-75.4 -37.751)" fill="#1e304f"/>
              <path id="Path_8455" data-name="Path 8455" d="M171.19,106.8a.207.207,0,0,1-.16-.055,1.089,1.089,0,0,1-.639-.689v-3.616l-4.844,2.552a.992.992,0,0,0-.37.53.705.705,0,0,0,0,.534,1.57,1.57,0,0,0,.32.425l5.9,3.3a2.484,2.484,0,0,0,2.237,0l5.319-3.086a1.434,1.434,0,0,0,.534-.8v-.215a1.351,1.351,0,0,0-.534-.689l-4.255-2.5v3.725a1.218,1.218,0,0,1-.639.53.217.217,0,0,1-.16.055,2.723,2.723,0,0,1-1.329.32,2.841,2.841,0,0,1-1.383-.32m9.843-23.676a1.477,1.477,0,0,0-.9-.32.775.775,0,0,0-.694.32q-.05.1-.105.215a1.28,1.28,0,0,0,0,.53,1.628,1.628,0,0,0,.584.8,1.477,1.477,0,0,0,.9.32.98.98,0,0,0,.32-.055.148.148,0,0,0,.105-.05l.269-.215a.788.788,0,0,0,.1-.8A1.283,1.283,0,0,0,181.033,83.12Z" transform="translate(-156.932 -77.961)" fill="#cbf3ff"/>
              <path id="Path_8456" data-name="Path 8456" d="M93.753,54.712q-.21.11-.425.215l-.105.105-.055,1.383,4.255,2.5a1.351,1.351,0,0,1,.534.689v1.863a1.267,1.267,0,0,1-.534,1.014L92.1,65.569a2.484,2.484,0,0,1-2.237,0l-5.9-3.3q-.534-.53-.32-1.009V59.981a.706.706,0,0,1,0-.534.992.992,0,0,1,.37-.53l4.844-2.552V55.087q-.16-.1-.265-.16a1.425,1.425,0,0,0-.32-.16L75.4,62l15.531,8.989,15.431-9.044-12.61-7.236m5.853-15.855a.98.98,0,0,1-.32.055,1.477,1.477,0,0,1-.9-.32,1.629,1.629,0,0,1-.584-.8,1.28,1.28,0,0,1,0-.53L89.178,32.1l8.195,6.332-8.994,10,9.843-9.149,7.022,6.118Z" transform="translate(-75.4 -31.89)" fill="#84e2ff"/>
              <path id="Path_8457" data-name="Path 8457" d="M215.093,226.411l.425-.215a17.277,17.277,0,0,1-4.894-2.4,1.953,1.953,0,0,0-.265.11,1.512,1.512,0,0,0-.959,1.274v.16a1.546,1.546,0,0,0,.959,1.068,2.529,2.529,0,0,0,.265.1,5.543,5.543,0,0,0,4.255,0l.215-.1m-.105,2.817a5.483,5.483,0,0,1-2.237.425,5.6,5.6,0,0,1-2.127-.37v4.894a1.089,1.089,0,0,0,.639.689.207.207,0,0,0,.16.055,2.841,2.841,0,0,0,1.383.32,2.723,2.723,0,0,0,1.329-.32.216.216,0,0,0,.16-.055,1.218,1.218,0,0,0,.639-.53v-3.725Z" transform="translate(-197.165 -206.086)" fill="#1db4d8"/>
              <path id="Path_8458" data-name="Path 8458" d="M175.642,34.639a1.477,1.477,0,0,1,.9.32,1.284,1.284,0,0,1,.584.744.788.788,0,0,1-.105.8l-.269.215a.148.148,0,0,1-.1.05l5.638,6.547a9.184,9.184,0,0,0-.425-3.566,14.182,14.182,0,0,0-1.593-3.3l-.8-.954a15.836,15.836,0,0,0-2.981-2.767,13.924,13.924,0,0,0-8.355-2.926,9.254,9.254,0,0,0-3.4.584,1.163,1.163,0,0,0-.479.215,6.836,6.836,0,0,0-2.716,2.127,7.343,7.343,0,0,0-.849,7.022,13.761,13.761,0,0,0,5.268,7.022,14.138,14.138,0,0,0,8.4,2.926,7.631,7.631,0,0,0,6.542-2.926,6.845,6.845,0,0,0,1.383-3.456L175.267,37.2l-9.843,9.149,8.994-10-8.195-6.332,8.619,5.163q.055-.11.1-.215A.775.775,0,0,1,175.642,34.639Z" transform="translate(-152.445 -29.8)" fill="#a2e9ff"/>
            </g>
          </g>
        </g>
      </g>
      <g id="Layer_4" transform="translate(83.142 29.8)">
        <g id="Group_9576" data-name="Group 9576" transform="translate(0)">
          <g id="Group_9575" data-name="Group 9575">
            <g id="Group_9574" data-name="Group 9574">
              <path id="Path_8459" data-name="Path 8459" d="M176.546,34.959a1.284,1.284,0,0,1,.584.744.788.788,0,0,1-.105.8l-.269.215a.148.148,0,0,1-.1.05l5.638,6.547a9.184,9.184,0,0,0-.425-3.566,14.182,14.182,0,0,0-1.593-3.3l-.8-.954a15.836,15.836,0,0,0-2.981-2.767,13.924,13.924,0,0,0-8.355-2.926,9.254,9.254,0,0,0-3.4.584,1.163,1.163,0,0,0-.479.215,6.836,6.836,0,0,0-2.716,2.127,7.343,7.343,0,0,0-.849,7.022,13.761,13.761,0,0,0,5.268,7.022,14.138,14.138,0,0,0,8.4,2.926,7.631,7.631,0,0,0,6.542-2.926,6.845,6.845,0,0,0,1.383-3.456L175.267,37.2l-9.843,9.149,8.994-10-8.195-6.332,8.619,5.163q.055-.11.1-.215a.775.775,0,0,1,.694-.32A1.477,1.477,0,0,1,176.546,34.959Z" transform="translate(-160.187 -29.8)" fill="url(#radial-gradient)"/>
            </g>
          </g>
        </g>
      </g>
      <g id="light" transform="translate(75.4 30.599)">
        <g id="Group_9579" data-name="Group 9579" transform="translate(0 0)">
          <g id="Group_9578" data-name="Group 9578">
            <g id="Group_9577" data-name="Group 9577">
              <path id="Path_8460" data-name="Path 8460" d="M176.356,44.4a14.18,14.18,0,0,1,1.593,3.3,9.184,9.184,0,0,1,.425,3.566,6.844,6.844,0,0,1-1.383,3.456,7.631,7.631,0,0,1-6.542,2.926,14.139,14.139,0,0,1-8.4-2.926q-.423-.31-.817-.635l-.014-.014a13.373,13.373,0,0,1-4.438-6.373,7.343,7.343,0,0,1,.849-7.022,6.835,6.835,0,0,1,2.716-2.127,6.783,6.783,0,0,0-3.086,2.287,7.859,7.859,0,0,0-.9,7.236,14.065,14.065,0,0,0,5.424,7.232.835.835,0,0,1,.215.16,17.279,17.279,0,0,0,4.894,2.4l1.525.329a14.541,14.541,0,0,0,2.1.151,7.781,7.781,0,0,0,6.7-3.036q2.287-2.977.959-7.232A12.2,12.2,0,0,0,176.356,44.4Z" transform="translate(-148.53 -38.55)" fill="url(#linear-gradient-2)"/>
              <path id="Path_8461" data-name="Path 8461" d="M165.408,336.284a1.569,1.569,0,0,1-.32-.425v1.278q-.215.479.32,1.009l5.9,3.3a2.484,2.484,0,0,0,2.237,0l5.319-3.086a1.267,1.267,0,0,0,.534-1.014V335.7a1.433,1.433,0,0,1-.534.8l-5.319,3.086a2.484,2.484,0,0,1-2.237,0Z" transform="translate(-156.843 -308.568)" fill="url(#linear-gradient-3)"/>
              <path id="Path_8462" data-name="Path 8462" d="M171.19,302.21a.207.207,0,0,1-.16-.055,1.089,1.089,0,0,1-.639-.689V297.85l-4.844,2.552a.992.992,0,0,0-.37.53.705.705,0,0,0,0,.534,1.569,1.569,0,0,0,.32.425l5.9,3.3a2.484,2.484,0,0,0,2.237,0l5.319-3.086a1.433,1.433,0,0,0,.534-.8v-.215a1.351,1.351,0,0,0-.534-.689l-4.255-2.5v3.725a1.219,1.219,0,0,1-.639.53.216.216,0,0,1-.16.055,2.723,2.723,0,0,1-1.329.32A2.841,2.841,0,0,1,171.19,302.21Z" transform="translate(-156.932 -274.174)" fill="url(#linear-gradient-4)"/>
              <path id="Path_8463" data-name="Path 8463" d="M227.165,283.25a5.483,5.483,0,0,1-2.237.425,5.6,5.6,0,0,1-2.127-.37V288.2a1.089,1.089,0,0,0,.639.689.207.207,0,0,0,.16.055,2.84,2.84,0,0,0,1.383.32,2.723,2.723,0,0,0,1.329-.32.216.216,0,0,0,.16-.055,1.218,1.218,0,0,0,.639-.53v-3.725Z" transform="translate(-209.341 -260.907)" fill="url(#linear-gradient-5)"/>
              <path id="Path_8464" data-name="Path 8464" d="M93.753,279.75q-.21.11-.425.215l-.105.105-.055,1.383,4.255,2.5a1.35,1.35,0,0,1,.534.689v1.863a1.267,1.267,0,0,1-.534,1.014L92.1,290.606a2.484,2.484,0,0,1-2.237,0l-5.9-3.3q-.534-.53-.32-1.009v-1.278a.706.706,0,0,1,0-.534.992.992,0,0,1,.37-.53l4.844-2.552v-1.278q-.16-.1-.265-.16a1.424,1.424,0,0,0-.32-.16L75.4,287.041l15.531,8.989,15.431-9.044Z" transform="translate(-75.4 -257.727)" fill="url(#linear-gradient-6)"/>
              <path id="Path_8465" data-name="Path 8465" d="M215.093,226.411l.425-.215a17.277,17.277,0,0,1-4.894-2.4,1.953,1.953,0,0,0-.265.11,1.512,1.512,0,0,0-.959,1.274v.16a1.546,1.546,0,0,0,.959,1.068,2.529,2.529,0,0,0,.265.1,5.543,5.543,0,0,0,4.255,0Z" transform="translate(-197.165 -206.885)" fill="#1db4d8"/>
              <path id="Path_8466" data-name="Path 8466" d="M215.518,241.554l-.425.215-.215.105a5.542,5.542,0,0,1-4.255,0,2.515,2.515,0,0,1-.265-.105,1.545,1.545,0,0,1-.959-1.068v2.607a1.214,1.214,0,0,0,.639,1.014,1.425,1.425,0,0,1,.32.16q.1.055.265.16a5.6,5.6,0,0,0,2.127.37,5.483,5.483,0,0,0,2.237-.425l.105-.105q.215-.1.425-.215a1.229,1.229,0,0,0,.584-1.009v-1.543q.468.1.94.169Z" transform="translate(-197.165 -222.242)" fill="url(#linear-gradient-7)"/>
              <path id="Path_8467" data-name="Path 8467" d="M106.362,360.333V359l-15.431,9.044L75.4,359.055v1.383l15.531,9.044Z" transform="translate(-75.4 -329.741)" fill="url(#linear-gradient-7)"/>
            </g>
          </g>
        </g>
      </g>
      <g id="highight" transform="translate(75.4 30.599)">
        <g id="Group_9582" data-name="Group 9582" transform="translate(0 0)">
          <g id="Group_9581" data-name="Group 9581">
            <g id="Group_9580" data-name="Group 9580">
              <path id="Path_8468" data-name="Path 8468" d="M83.965,250.867a1.571,1.571,0,0,1-.32-.425v.457a1.571,1.571,0,0,0,.32.425l5.9,3.3a2.484,2.484,0,0,0,2.237,0l5.319-3.086a1.433,1.433,0,0,0,.534-.8v-.215a.752.752,0,0,0-.037-.1,1.66,1.66,0,0,1-.5.657L92.1,254.168a2.484,2.484,0,0,1-2.237,0l-5.9-3.3m22.4,2-.393-.228-15.038,8.816L75.4,252.465v.457l15.531,8.989,15.431-9.044m-12.61-9.948.584-.3q.468.1.94.169l-1.525-.329-.425.215-.132.064-.082.041a5.542,5.542,0,0,1-4.255,0,2.519,2.519,0,0,1-.265-.105l-.014-.009a.053.053,0,0,1-.018-.009l-.018-.009-.023-.014-.849-.867-.018-.068a1.159,1.159,0,0,0-.018.178v.187a1.545,1.545,0,0,0,.959,1.068,2.526,2.526,0,0,0,.265.105,5.542,5.542,0,0,0,4.255,0l.215-.105Z" transform="translate(-75.4 -223.151)" fill="url(#linear-gradient-9)"/>
              <path id="Path_8469" data-name="Path 8469" d="M215.093,226.411l.425-.215a17.277,17.277,0,0,1-4.894-2.4,1.953,1.953,0,0,0-.265.11,1.512,1.512,0,0,0-.959,1.274v.16a1.314,1.314,0,0,0,.037.16l.849.867.023.014.018.009a.052.052,0,0,0,.018.009l.014.009a2.529,2.529,0,0,0,.265.1,5.543,5.543,0,0,0,4.255,0l.082-.041Z" transform="translate(-197.165 -206.885)" fill="url(#linear-gradient-10)"/>
              <path id="Path_8470" data-name="Path 8470" d="M178.164,48.073a12.2,12.2,0,0,0-1.808-3.675,14.18,14.18,0,0,1,1.593,3.3,9.184,9.184,0,0,1,.425,3.566,6.844,6.844,0,0,1-1.383,3.456,7.631,7.631,0,0,1-6.542,2.926,14.139,14.139,0,0,1-8.4-2.926q-.423-.31-.817-.635l-.014-.014a13.373,13.373,0,0,1-4.438-6.373,7.343,7.343,0,0,1,.849-7.022,6.835,6.835,0,0,1,2.716-2.127,6.783,6.783,0,0,0-3.086,2.287,7.859,7.859,0,0,0-.9,7.236,14.065,14.065,0,0,0,5.424,7.232.835.835,0,0,1,.215.16,17.279,17.279,0,0,0,4.894,2.4l1.525.329a14.541,14.541,0,0,0,2.1.151,7.781,7.781,0,0,0,6.7-3.036Q179.493,52.328,178.164,48.073Z" transform="translate(-148.53 -38.55)" fill="url(#linear-gradient-11)"/>
            </g>
          </g>
        </g>
        <g id="Group_9585" data-name="Group 9585" transform="translate(7.345 6.168)">
          <g id="Group_9584" data-name="Group 9584">
            <g id="Group_9583" data-name="Group 9583">
              <path id="Path_8471" data-name="Path 8471" d="M177.176,118.959a6.85,6.85,0,0,0,1.447-4.369,6.835,6.835,0,0,1-1.447,4.1,7.781,7.781,0,0,1-6.7,3.036,14.548,14.548,0,0,1-2.1-.151l-1.525-.329a17.279,17.279,0,0,1-4.894-2.4.835.835,0,0,0-.215-.16,14.065,14.065,0,0,1-5.424-7.232,10.174,10.174,0,0,1-.47-2.853q0,.044,0,.087a10.147,10.147,0,0,0,.475,3.041,14.065,14.065,0,0,0,5.424,7.232.835.835,0,0,1,.215.16,17.279,17.279,0,0,0,4.894,2.4l1.525.329a14.542,14.542,0,0,0,2.1.151A7.781,7.781,0,0,0,177.176,118.959Z" transform="translate(-155.846 -108.372)" fill="url(#linear-gradient-12)"/>
              <path id="Path_8472" data-name="Path 8472" d="M336.411,106.1a.98.98,0,0,1-.32.055h-.05l-.041,0,6.049,6.5Z" transform="translate(-319.551 -106.1)" fill="url(#linear-gradient-13)"/>
            </g>
          </g>
        </g>
      </g>
    </g>
  </g>
</svg>
