<svg xmlns="http://www.w3.org/2000/svg" width="15.955" height="17.699" viewBox="0 0 15.955 17.699">
  <g id="filters-2_curved" transform="translate(-7 -5)">
    <path id="Path_9043" data-name="Path 9043" d="M8,7.744h5.233m0,0a1.744,1.744,0,0,0,3.489,0m-3.489,0a1.744,1.744,0,0,1,3.489,0m0,0h5.233M8,13.85H18.466m0,0a1.744,1.744,0,1,0,1.744-1.744A1.744,1.744,0,0,0,18.466,13.85Zm-6.978,6.105H21.955m-10.466,0A1.744,1.744,0,1,0,9.744,21.7,1.744,1.744,0,0,0,11.489,19.955Z" fill="#002e6e" stroke="#002e6e" stroke-linecap="round" stroke-width="2"/>
  </g>
</svg>
