<svg width="32" height="32" viewBox="0 0 32 32" fill="none" xmlns="http://www.w3.org/2000/svg">
<g clip-path="url(#clip0_19_1102)">
<path d="M26.792 7.75733C26.7172 7.67439 26.6253 7.60868 26.5227 7.56472C26.42 7.52075 26.309 7.49958 26.1974 7.50267H22.7987V4.952C22.7933 4.72845 22.7021 4.51555 22.5439 4.35743C22.3858 4.19931 22.1729 4.10808 21.9494 4.10267H10.0507C9.82714 4.10808 9.61424 4.19931 9.45612 4.35743C9.29799 4.51555 9.20677 4.72845 9.20135 4.952V7.50134H5.80136C5.68972 7.49825 5.57873 7.51941 5.47606 7.56337C5.3734 7.60734 5.2815 7.67306 5.2067 7.756C5.05251 7.91679 4.96201 8.12812 4.95203 8.35067C5.03736 11.24 5.63203 13.284 6.65203 14.3C7.56308 15.2164 8.75788 15.7969 10.0414 15.9467C10.3364 16.4988 10.7121 17.0039 11.156 17.4453C12.2241 18.5313 13.64 19.2072 15.156 19.3547V22.7987H12.6067C12.3813 22.7987 12.1651 22.8882 12.0057 23.0476C11.8462 23.207 11.7567 23.4232 11.7567 23.6487C11.7567 23.8741 11.8462 24.0903 12.0057 24.2497C12.1651 24.4091 12.3813 24.4987 12.6067 24.4987H19.4067C19.6321 24.4987 19.8483 24.4091 20.0077 24.2497C20.1671 24.0903 20.2567 23.8741 20.2567 23.6487C20.2567 23.4232 20.1671 23.207 20.0077 23.0476C19.8483 22.8882 19.6321 22.7987 19.4067 22.7987H16.8574V19.332C17.9224 19.2246 18.9455 18.8606 19.839 18.2712C20.7326 17.6819 21.47 16.8847 21.988 15.948C23.257 15.7746 24.437 15.1989 25.3547 14.3053C26.3747 13.2853 26.9694 11.3307 27.0547 8.35601C27.0448 8.13344 26.9543 7.92206 26.8 7.76134M9.20135 14.0453C8.68118 13.845 8.21534 13.5253 7.84136 13.112C7.07402 11.9562 6.68752 10.5892 6.73602 9.20266H9.20002L9.20135 14.0453ZM19.5694 16.1693C18.6285 17.1309 17.3452 17.6808 16 17.6987C15.3298 17.7174 14.6635 17.5904 14.0473 17.3263C13.431 17.0623 12.8794 16.6675 12.4307 16.1693C11.4691 15.2285 10.9192 13.9452 10.9014 12.6V5.80001H21.0987V12.6C21.1175 13.2702 20.9904 13.9365 20.7264 14.5528C20.4623 15.1691 20.0675 15.7206 19.5694 16.1693ZM24.1587 13.1093C23.7619 13.4957 23.3019 13.8114 22.7987 14.0427V9.20133H25.2627C25.3112 10.5879 24.9247 11.9548 24.1574 13.1107M22.7974 26.1973H9.19736C8.97192 26.1973 8.75573 26.2869 8.59632 26.4463C8.43692 26.6057 8.34736 26.8219 8.34736 27.0473C8.34736 27.2728 8.43692 27.489 8.59632 27.6484C8.75573 27.8078 8.97192 27.8973 9.19736 27.8973H22.7974C23.0228 27.8973 23.239 27.8078 23.3984 27.6484C23.5578 27.489 23.6474 27.2728 23.6474 27.0473C23.6474 26.8219 23.5578 26.6057 23.3984 26.4463C23.239 26.2869 23.0228 26.1973 22.7974 26.1973Z" fill="white"/>
</g>
<defs>
<clipPath id="clip0_19_1102">
<rect width="32" height="32" fill="white"/>
</clipPath>
</defs>
</svg>
