<svg width="424" height="641" viewBox="0 0 424 641" fill="none" xmlns="http://www.w3.org/2000/svg">
<g opacity="0.5" filter="url(#filter0_d_324_4122)">
<rect x="7" y="5" width="410" height="627" rx="10" fill="white"/>
</g>
<rect x="93" y="237" width="19" height="5" rx="2.5" fill="#D25A27"/>
<rect x="147" y="237" width="19" height="5" rx="2.5" fill="#D25A27"/>
<rect x="94" y="407" width="19" height="5" rx="2.5" fill="#20A40B"/>
<path d="M41.408 83.696V92H40.316V85.808L37.556 92H36.788L34.016 85.796V92H32.924V83.696H34.1L37.172 90.56L40.244 83.696H41.408ZM47.0519 92.084C46.2759 92.084 45.5679 91.904 44.9279 91.544C44.2879 91.176 43.7799 90.668 43.4039 90.02C43.0359 89.364 42.8519 88.628 42.8519 87.812C42.8519 86.996 43.0359 86.264 43.4039 85.616C43.7799 84.96 44.2879 84.452 44.9279 84.092C45.5679 83.724 46.2759 83.54 47.0519 83.54C47.8359 83.54 48.5479 83.724 49.1879 84.092C49.8279 84.452 50.3319 84.956 50.6999 85.604C51.0679 86.252 51.2519 86.988 51.2519 87.812C51.2519 88.636 51.0679 89.372 50.6999 90.02C50.3319 90.668 49.8279 91.176 49.1879 91.544C48.5479 91.904 47.8359 92.084 47.0519 92.084ZM47.0519 91.136C47.6359 91.136 48.1599 91 48.6239 90.728C49.0959 90.456 49.4639 90.068 49.7279 89.564C49.9999 89.06 50.1359 88.476 50.1359 87.812C50.1359 87.14 49.9999 86.556 49.7279 86.06C49.4639 85.556 49.0999 85.168 48.6359 84.896C48.1719 84.624 47.6439 84.488 47.0519 84.488C46.4599 84.488 45.9319 84.624 45.4679 84.896C45.0039 85.168 44.6359 85.556 44.3639 86.06C44.0999 86.556 43.9679 87.14 43.9679 87.812C43.9679 88.476 44.0999 89.06 44.3639 89.564C44.6359 90.068 45.0039 90.456 45.4679 90.728C45.9399 91 46.4679 91.136 47.0519 91.136ZM59.2695 92H58.1775L53.7855 85.34V92H52.6935V83.624H53.7855L58.1775 90.272V83.624H59.2695V92Z" fill="#969696"/>
<path d="M97.4053 83.636V84.524H95.1253V92H94.0333V84.524H91.7413V83.636H97.4053ZM99.8174 83.636V88.928C99.8174 89.672 99.9974 90.224 100.357 90.584C100.725 90.944 101.233 91.124 101.881 91.124C102.521 91.124 103.021 90.944 103.381 90.584C103.749 90.224 103.933 89.672 103.933 88.928V83.636H105.025V88.916C105.025 89.612 104.885 90.2 104.605 90.68C104.325 91.152 103.945 91.504 103.465 91.736C102.993 91.968 102.461 92.084 101.869 92.084C101.277 92.084 100.741 91.968 100.261 91.736C99.7894 91.504 99.4134 91.152 99.1334 90.68C98.8614 90.2 98.7254 89.612 98.7254 88.916V83.636H99.8174ZM107.939 84.524V87.32H110.987V88.22H107.939V91.1H111.347V92H106.847V83.624H111.347V84.524H107.939Z" fill="#969696"/>
<path d="M154.103 83.636L151.679 92H150.455L148.511 85.268L146.495 92L145.283 92.012L142.943 83.636H144.107L145.931 90.728L147.947 83.636H149.171L151.091 90.704L152.927 83.636H154.103ZM156.39 84.524V87.32H159.438V88.22H156.39V91.1H159.798V92H155.298V83.624H159.798V84.524H156.39ZM164.054 83.636C164.966 83.636 165.754 83.808 166.418 84.152C167.09 84.488 167.602 84.972 167.954 85.604C168.314 86.236 168.494 86.98 168.494 87.836C168.494 88.692 168.314 89.436 167.954 90.068C167.602 90.692 167.09 91.172 166.418 91.508C165.754 91.836 164.966 92 164.054 92H161.45V83.636H164.054ZM164.054 91.1C165.134 91.1 165.958 90.816 166.526 90.248C167.094 89.672 167.378 88.868 167.378 87.836C167.378 86.796 167.09 85.984 166.514 85.4C165.946 84.816 165.126 84.524 164.054 84.524H162.542V91.1H164.054Z" fill="#969696"/>
<path d="M206.072 83.636V84.524H203.792V92H202.7V84.524H200.408V83.636H206.072ZM213.86 83.636V92H212.768V88.208H208.508V92H207.416V83.636H208.508V87.308H212.768V83.636H213.86ZM216.793 83.636V88.928C216.793 89.672 216.973 90.224 217.333 90.584C217.701 90.944 218.209 91.124 218.857 91.124C219.497 91.124 219.997 90.944 220.357 90.584C220.725 90.224 220.909 89.672 220.909 88.928V83.636H222.001V88.916C222.001 89.612 221.861 90.2 221.581 90.68C221.301 91.152 220.921 91.504 220.441 91.736C219.969 91.968 219.437 92.084 218.845 92.084C218.253 92.084 217.717 91.968 217.237 91.736C216.765 91.504 216.389 91.152 216.109 90.68C215.837 90.2 215.701 89.612 215.701 88.916V83.636H216.793Z" fill="#969696"/>
<path d="M258.985 83.636V84.524H255.349V87.344H258.301V88.232H255.349V92H254.257V83.636H258.985ZM264.708 92L262.716 88.58H261.396V92H260.304V83.636H263.004C263.636 83.636 264.168 83.744 264.6 83.96C265.04 84.176 265.368 84.468 265.584 84.836C265.8 85.204 265.908 85.624 265.908 86.096C265.908 86.672 265.74 87.18 265.404 87.62C265.076 88.06 264.58 88.352 263.916 88.496L266.016 92H264.708ZM261.396 87.704H263.004C263.596 87.704 264.04 87.56 264.336 87.272C264.632 86.976 264.78 86.584 264.78 86.096C264.78 85.6 264.632 85.216 264.336 84.944C264.048 84.672 263.604 84.536 263.004 84.536H261.396V87.704ZM268.697 83.636V92H267.605V83.636H268.697Z" fill="#969696"/>
<path d="M304.243 92.084C303.691 92.084 303.195 91.988 302.755 91.796C302.323 91.596 301.983 91.324 301.735 90.98C301.487 90.628 301.359 90.224 301.351 89.768H302.515C302.555 90.16 302.715 90.492 302.995 90.764C303.283 91.028 303.699 91.16 304.243 91.16C304.763 91.16 305.171 91.032 305.467 90.776C305.771 90.512 305.923 90.176 305.923 89.768C305.923 89.448 305.835 89.188 305.659 88.988C305.483 88.788 305.263 88.636 304.999 88.532C304.735 88.428 304.379 88.316 303.931 88.196C303.379 88.052 302.935 87.908 302.599 87.764C302.271 87.62 301.987 87.396 301.747 87.092C301.515 86.78 301.399 86.364 301.399 85.844C301.399 85.388 301.515 84.984 301.747 84.632C301.979 84.28 302.303 84.008 302.719 83.816C303.143 83.624 303.627 83.528 304.171 83.528C304.955 83.528 305.595 83.724 306.091 84.116C306.595 84.508 306.879 85.028 306.943 85.676H305.743C305.703 85.356 305.535 85.076 305.239 84.836C304.943 84.588 304.551 84.464 304.063 84.464C303.607 84.464 303.235 84.584 302.947 84.824C302.659 85.056 302.515 85.384 302.515 85.808C302.515 86.112 302.599 86.36 302.767 86.552C302.943 86.744 303.155 86.892 303.403 86.996C303.659 87.092 304.015 87.204 304.471 87.332C305.023 87.484 305.467 87.636 305.803 87.788C306.139 87.932 306.427 88.16 306.667 88.472C306.907 88.776 307.027 89.192 307.027 89.72C307.027 90.128 306.919 90.512 306.703 90.872C306.487 91.232 306.167 91.524 305.743 91.748C305.319 91.972 304.819 92.084 304.243 92.084ZM313.578 90.14H309.93L309.258 92H308.106L311.13 83.684H312.39L315.402 92H314.25L313.578 90.14ZM313.266 89.252L311.754 85.028L310.242 89.252H313.266ZM321.868 83.636V84.524H319.588V92H318.496V84.524H316.204V83.636H321.868Z" fill="#969696"/>
<path d="M356.576 92.084C356.024 92.084 355.528 91.988 355.088 91.796C354.656 91.596 354.316 91.324 354.068 90.98C353.82 90.628 353.692 90.224 353.684 89.768H354.848C354.888 90.16 355.048 90.492 355.328 90.764C355.616 91.028 356.032 91.16 356.576 91.16C357.096 91.16 357.504 91.032 357.8 90.776C358.104 90.512 358.256 90.176 358.256 89.768C358.256 89.448 358.168 89.188 357.992 88.988C357.816 88.788 357.596 88.636 357.332 88.532C357.068 88.428 356.712 88.316 356.264 88.196C355.712 88.052 355.268 87.908 354.932 87.764C354.604 87.62 354.32 87.396 354.08 87.092C353.848 86.78 353.732 86.364 353.732 85.844C353.732 85.388 353.848 84.984 354.08 84.632C354.312 84.28 354.636 84.008 355.052 83.816C355.476 83.624 355.96 83.528 356.504 83.528C357.288 83.528 357.928 83.724 358.424 84.116C358.928 84.508 359.212 85.028 359.276 85.676H358.076C358.036 85.356 357.868 85.076 357.572 84.836C357.276 84.588 356.884 84.464 356.396 84.464C355.94 84.464 355.568 84.584 355.28 84.824C354.992 85.056 354.848 85.384 354.848 85.808C354.848 86.112 354.932 86.36 355.1 86.552C355.276 86.744 355.488 86.892 355.736 86.996C355.992 87.092 356.348 87.204 356.804 87.332C357.356 87.484 357.8 87.636 358.136 87.788C358.472 87.932 358.76 88.16 359 88.472C359.24 88.776 359.36 89.192 359.36 89.72C359.36 90.128 359.252 90.512 359.036 90.872C358.82 91.232 358.5 91.524 358.076 91.748C357.652 91.972 357.152 92.084 356.576 92.084ZM362.035 83.636V88.928C362.035 89.672 362.215 90.224 362.575 90.584C362.943 90.944 363.451 91.124 364.099 91.124C364.739 91.124 365.239 90.944 365.599 90.584C365.967 90.224 366.151 89.672 366.151 88.928V83.636H367.243V88.916C367.243 89.612 367.103 90.2 366.823 90.68C366.543 91.152 366.163 91.504 365.683 91.736C365.211 91.968 364.679 92.084 364.087 92.084C363.495 92.084 362.959 91.968 362.479 91.736C362.007 91.504 361.631 91.152 361.351 90.68C361.079 90.2 360.943 89.612 360.943 88.916V83.636H362.035ZM375.641 92H374.549L370.157 85.34V92H369.065V83.624H370.157L374.549 90.272V83.624H375.641V92Z" fill="#969696"/>
<g filter="url(#filter1_d_324_4122)">
<path d="M7 15C7 9.47715 11.4772 5 17 5H407C412.523 5 417 9.47715 417 15V60H7V15Z" fill="#636363"/>
</g>
<path d="M27.256 38.098C26.6027 38.098 26.0147 37.986 25.492 37.762C24.9693 37.5287 24.5587 37.202 24.26 36.782C23.9613 36.362 23.812 35.872 23.812 35.312H25.52C25.5573 35.732 25.7207 36.0773 26.01 36.348C26.3087 36.6187 26.724 36.754 27.256 36.754C27.8067 36.754 28.236 36.6233 28.544 36.362C28.852 36.0913 29.006 35.746 29.006 35.326C29.006 34.9993 28.908 34.7333 28.712 34.528C28.5253 34.3227 28.2873 34.164 27.998 34.052C27.718 33.94 27.326 33.8187 26.822 33.688C26.1873 33.52 25.6693 33.352 25.268 33.184C24.876 33.0067 24.54 32.736 24.26 32.372C23.98 32.008 23.84 31.5227 23.84 30.916C23.84 30.356 23.98 29.866 24.26 29.446C24.54 29.026 24.932 28.704 25.436 28.48C25.94 28.256 26.5233 28.144 27.186 28.144C28.1287 28.144 28.8987 28.382 29.496 28.858C30.1027 29.3247 30.4387 29.9687 30.504 30.79H28.74C28.712 30.4353 28.544 30.132 28.236 29.88C27.928 29.628 27.522 29.502 27.018 29.502C26.5607 29.502 26.1873 29.6187 25.898 29.852C25.6087 30.0853 25.464 30.4213 25.464 30.86C25.464 31.1587 25.5527 31.406 25.73 31.602C25.9167 31.7887 26.15 31.938 26.43 32.05C26.71 32.162 27.0927 32.2833 27.578 32.414C28.222 32.5913 28.7447 32.7687 29.146 32.946C29.5567 33.1233 29.902 33.3987 30.182 33.772C30.4713 34.136 30.616 34.626 30.616 35.242C30.616 35.7367 30.4807 36.2033 30.21 36.642C29.9487 37.0807 29.5613 37.4353 29.048 37.706C28.544 37.9673 27.9467 38.098 27.256 38.098ZM39.5692 33.954C39.5692 34.2433 39.5506 34.5047 39.5132 34.738H33.6192C33.6659 35.354 33.8946 35.8487 34.3052 36.222C34.7159 36.5953 35.2199 36.782 35.8172 36.782C36.6759 36.782 37.2826 36.4227 37.6372 35.704H39.3592C39.1259 36.4133 38.7012 36.9967 38.0852 37.454C37.4786 37.902 36.7226 38.126 35.8172 38.126C35.0799 38.126 34.4172 37.9627 33.8292 37.636C33.2506 37.3 32.7932 36.8333 32.4572 36.236C32.1306 35.6293 31.9672 34.9293 31.9672 34.136C31.9672 33.3427 32.1259 32.6473 32.4432 32.05C32.7699 31.4433 33.2226 30.9767 33.8012 30.65C34.3892 30.3233 35.0612 30.16 35.8172 30.16C36.5452 30.16 37.1939 30.3187 37.7632 30.636C38.3326 30.9533 38.7759 31.4013 39.0932 31.98C39.4106 32.5493 39.5692 33.2073 39.5692 33.954ZM37.9032 33.45C37.8939 32.862 37.6839 32.3907 37.2732 32.036C36.8626 31.6813 36.3539 31.504 35.7472 31.504C35.1966 31.504 34.7252 31.6813 34.3332 32.036C33.9412 32.3813 33.7079 32.8527 33.6332 33.45H37.9032ZM42.7358 31.42C43.0065 31.0653 43.3752 30.7667 43.8418 30.524C44.3085 30.2813 44.8358 30.16 45.4238 30.16C46.0958 30.16 46.7072 30.328 47.2578 30.664C47.8178 30.9907 48.2565 31.4527 48.5738 32.05C48.8912 32.6473 49.0498 33.3333 49.0498 34.108C49.0498 34.8827 48.8912 35.578 48.5738 36.194C48.2565 36.8007 47.8178 37.2767 47.2578 37.622C46.7072 37.958 46.0958 38.126 45.4238 38.126C44.8358 38.126 44.3132 38.0093 43.8558 37.776C43.3985 37.5333 43.0252 37.2347 42.7358 36.88V41.668H41.1398V30.286H42.7358V31.42ZM47.4258 34.108C47.4258 33.576 47.3138 33.1187 47.0898 32.736C46.8752 32.344 46.5858 32.05 46.2218 31.854C45.8672 31.6487 45.4845 31.546 45.0738 31.546C44.6725 31.546 44.2898 31.6487 43.9258 31.854C43.5712 32.0593 43.2818 32.358 43.0578 32.75C42.8432 33.142 42.7358 33.604 42.7358 34.136C42.7358 34.668 42.8432 35.1347 43.0578 35.536C43.2818 35.928 43.5712 36.2267 43.9258 36.432C44.2898 36.6373 44.6725 36.74 45.0738 36.74C45.4845 36.74 45.8672 36.6373 46.2218 36.432C46.5858 36.2173 46.8752 35.9093 47.0898 35.508C47.3138 35.1067 47.4258 34.64 47.4258 34.108ZM52.4901 31.588V35.858C52.4901 36.1473 52.5555 36.3573 52.6861 36.488C52.8261 36.6093 53.0595 36.67 53.3861 36.67H54.3661V38H53.1061C52.3875 38 51.8368 37.832 51.4541 37.496C51.0715 37.16 50.8801 36.614 50.8801 35.858V31.588H49.9701V30.286H50.8801V28.368H52.4901V30.286H54.3661V31.588H52.4901ZM62.9071 33.954C62.9071 34.2433 62.8884 34.5047 62.8511 34.738H56.9571C57.0038 35.354 57.2324 35.8487 57.6431 36.222C58.0538 36.5953 58.5578 36.782 59.1551 36.782C60.0138 36.782 60.6204 36.4227 60.9751 35.704H62.6971C62.4638 36.4133 62.0391 36.9967 61.4231 37.454C60.8164 37.902 60.0604 38.126 59.1551 38.126C58.4178 38.126 57.7551 37.9627 57.1671 37.636C56.5884 37.3 56.1311 36.8333 55.7951 36.236C55.4684 35.6293 55.3051 34.9293 55.3051 34.136C55.3051 33.3427 55.4638 32.6473 55.7811 32.05C56.1078 31.4433 56.5604 30.9767 57.1391 30.65C57.7271 30.3233 58.3991 30.16 59.1551 30.16C59.8831 30.16 60.5318 30.3187 61.1011 30.636C61.6704 30.9533 62.1138 31.4013 62.4311 31.98C62.7484 32.5493 62.9071 33.2073 62.9071 33.954ZM61.2411 33.45C61.2318 32.862 61.0218 32.3907 60.6111 32.036C60.2004 31.6813 59.6918 31.504 59.0851 31.504C58.5344 31.504 58.0631 31.6813 57.6711 32.036C57.2791 32.3813 57.0458 32.8527 56.9711 33.45H61.2411ZM73.8157 30.16C74.4224 30.16 74.9637 30.286 75.4397 30.538C75.9251 30.79 76.3031 31.1633 76.5737 31.658C76.8537 32.1527 76.9937 32.75 76.9937 33.45V38H75.4117V33.688C75.4117 32.9973 75.2391 32.47 74.8937 32.106C74.5484 31.7327 74.0771 31.546 73.4797 31.546C72.8824 31.546 72.4064 31.7327 72.0517 32.106C71.7064 32.47 71.5337 32.9973 71.5337 33.688V38H69.9517V33.688C69.9517 32.9973 69.7791 32.47 69.4337 32.106C69.0884 31.7327 68.6171 31.546 68.0197 31.546C67.4224 31.546 66.9464 31.7327 66.5917 32.106C66.2464 32.47 66.0737 32.9973 66.0737 33.688V38H64.4777V30.286H66.0737V31.168C66.3351 30.8507 66.6664 30.6033 67.0677 30.426C67.4691 30.2487 67.8984 30.16 68.3557 30.16C68.9717 30.16 69.5224 30.2907 70.0077 30.552C70.4931 30.8133 70.8664 31.1913 71.1277 31.686C71.3611 31.2193 71.7251 30.8507 72.2197 30.58C72.7144 30.3 73.2464 30.16 73.8157 30.16ZM80.6206 31.434C80.8913 31.0607 81.2599 30.7573 81.7266 30.524C82.2026 30.2813 82.7299 30.16 83.3086 30.16C83.9899 30.16 84.6059 30.3233 85.1566 30.65C85.7073 30.9767 86.1413 31.4433 86.4586 32.05C86.7759 32.6473 86.9346 33.3333 86.9346 34.108C86.9346 34.8827 86.7759 35.578 86.4586 36.194C86.1413 36.8007 85.7026 37.2767 85.1426 37.622C84.5919 37.958 83.9806 38.126 83.3086 38.126C82.7113 38.126 82.1793 38.0093 81.7126 37.776C81.2553 37.5427 80.8913 37.244 80.6206 36.88V38H79.0246V27.64H80.6206V31.434ZM85.3106 34.108C85.3106 33.576 85.1986 33.1187 84.9746 32.736C84.7599 32.344 84.4706 32.05 84.1066 31.854C83.7519 31.6487 83.3693 31.546 82.9586 31.546C82.5573 31.546 82.1746 31.6487 81.8106 31.854C81.4559 32.0593 81.1666 32.358 80.9426 32.75C80.7279 33.142 80.6206 33.604 80.6206 34.136C80.6206 34.668 80.7279 35.1347 80.9426 35.536C81.1666 35.928 81.4559 36.2267 81.8106 36.432C82.1746 36.6373 82.5573 36.74 82.9586 36.74C83.3693 36.74 83.7519 36.6373 84.1066 36.432C84.4706 36.2173 84.7599 35.9093 84.9746 35.508C85.1986 35.1067 85.3106 34.64 85.3106 34.108ZM95.5829 33.954C95.5829 34.2433 95.5642 34.5047 95.5269 34.738H89.6329C89.6796 35.354 89.9082 35.8487 90.3189 36.222C90.7296 36.5953 91.2336 36.782 91.8309 36.782C92.6896 36.782 93.2962 36.4227 93.6509 35.704H95.3729C95.1396 36.4133 94.7149 36.9967 94.0989 37.454C93.4922 37.902 92.7362 38.126 91.8309 38.126C91.0936 38.126 90.4309 37.9627 89.8429 37.636C89.2642 37.3 88.8069 36.8333 88.4709 36.236C88.1442 35.6293 87.9809 34.9293 87.9809 34.136C87.9809 33.3427 88.1396 32.6473 88.4569 32.05C88.7836 31.4433 89.2362 30.9767 89.8149 30.65C90.4029 30.3233 91.0749 30.16 91.8309 30.16C92.5589 30.16 93.2076 30.3187 93.7769 30.636C94.3462 30.9533 94.7896 31.4013 95.1069 31.98C95.4242 32.5493 95.5829 33.2073 95.5829 33.954ZM93.9169 33.45C93.9076 32.862 93.6976 32.3907 93.2869 32.036C92.8762 31.6813 92.3676 31.504 91.7609 31.504C91.2102 31.504 90.7389 31.6813 90.3469 32.036C89.9549 32.3813 89.7216 32.8527 89.6469 33.45H93.9169ZM98.7495 31.406C98.9828 31.014 99.2908 30.7107 99.6735 30.496C100.066 30.272 100.528 30.16 101.06 30.16V31.812H100.654C100.028 31.812 99.5522 31.9707 99.2255 32.288C98.9082 32.6053 98.7495 33.156 98.7495 33.94V38H97.1535V30.286H98.7495V31.406ZM106.835 35.83C107.731 35.0553 108.436 34.4207 108.949 33.926C109.472 33.422 109.906 32.8993 110.251 32.358C110.597 31.8167 110.769 31.2753 110.769 30.734C110.769 30.174 110.634 29.7353 110.363 29.418C110.102 29.1007 109.687 28.942 109.117 28.942C108.567 28.942 108.137 29.1193 107.829 29.474C107.531 29.8193 107.372 30.286 107.353 30.874H105.813C105.841 29.81 106.159 28.998 106.765 28.438C107.381 27.8687 108.161 27.584 109.103 27.584C110.121 27.584 110.914 27.864 111.483 28.424C112.062 28.984 112.351 29.7307 112.351 30.664C112.351 31.336 112.179 31.9847 111.833 32.61C111.497 33.226 111.091 33.7813 110.615 34.276C110.149 34.7613 109.551 35.326 108.823 35.97L108.193 36.53H112.631V37.86H105.827V36.698L106.835 35.83ZM114.033 32.764C114.033 31.1493 114.304 29.8893 114.845 28.984C115.396 28.0693 116.339 27.612 117.673 27.612C119.008 27.612 119.946 28.0693 120.487 28.984C121.038 29.8893 121.313 31.1493 121.313 32.764C121.313 34.3973 121.038 35.676 120.487 36.6C119.946 37.5147 119.008 37.972 117.673 37.972C116.339 37.972 115.396 37.5147 114.845 36.6C114.304 35.676 114.033 34.3973 114.033 32.764ZM119.745 32.764C119.745 32.008 119.694 31.3687 119.591 30.846C119.498 30.3233 119.302 29.8987 119.003 29.572C118.705 29.236 118.261 29.068 117.673 29.068C117.085 29.068 116.642 29.236 116.343 29.572C116.045 29.8987 115.844 30.3233 115.741 30.846C115.648 31.3687 115.601 32.008 115.601 32.764C115.601 33.548 115.648 34.206 115.741 34.738C115.835 35.27 116.031 35.6993 116.329 36.026C116.637 36.3527 117.085 36.516 117.673 36.516C118.261 36.516 118.705 36.3527 119.003 36.026C119.311 35.6993 119.512 35.27 119.605 34.738C119.699 34.206 119.745 33.548 119.745 32.764ZM123.884 35.83C124.78 35.0553 125.485 34.4207 125.998 33.926C126.521 33.422 126.955 32.8993 127.3 32.358C127.645 31.8167 127.818 31.2753 127.818 30.734C127.818 30.174 127.683 29.7353 127.412 29.418C127.151 29.1007 126.735 28.942 126.166 28.942C125.615 28.942 125.186 29.1193 124.878 29.474C124.579 29.8193 124.421 30.286 124.402 30.874H122.862C122.89 29.81 123.207 28.998 123.814 28.438C124.43 27.8687 125.209 27.584 126.152 27.584C127.169 27.584 127.963 27.864 128.532 28.424C129.111 28.984 129.4 29.7307 129.4 30.664C129.4 31.336 129.227 31.9847 128.882 32.61C128.546 33.226 128.14 33.7813 127.664 34.276C127.197 34.7613 126.6 35.326 125.872 35.97L125.242 36.53H129.68V37.86H122.876V36.698L123.884 35.83ZM131.054 30.314C131.11 29.446 131.442 28.7693 132.048 28.284C132.664 27.7987 133.448 27.556 134.4 27.556C135.054 27.556 135.618 27.6727 136.094 27.906C136.57 28.1393 136.93 28.4567 137.172 28.858C137.415 29.2593 137.536 29.712 137.536 30.216C137.536 30.7947 137.382 31.2893 137.074 31.7C136.766 32.1107 136.398 32.386 135.968 32.526V32.582C136.519 32.75 136.948 33.058 137.256 33.506C137.564 33.9447 137.718 34.5093 137.718 35.2C137.718 35.7507 137.592 36.2407 137.34 36.67C137.088 37.0993 136.715 37.44 136.22 37.692C135.726 37.9347 135.133 38.056 134.442 38.056C133.434 38.056 132.604 37.7993 131.95 37.286C131.306 36.7633 130.961 36.0167 130.914 35.046H132.454C132.492 35.5407 132.683 35.9467 133.028 36.264C133.374 36.572 133.84 36.726 134.428 36.726C134.998 36.726 135.436 36.572 135.744 36.264C136.052 35.9467 136.206 35.5407 136.206 35.046C136.206 34.3927 135.996 33.9307 135.576 33.66C135.166 33.38 134.531 33.24 133.672 33.24H133.308V31.924H133.686C134.442 31.9147 135.016 31.7887 135.408 31.546C135.81 31.3033 136.01 30.9207 136.01 30.398C136.01 29.95 135.866 29.5953 135.576 29.334C135.287 29.0633 134.876 28.928 134.344 28.928C133.822 28.928 133.416 29.0633 133.126 29.334C132.837 29.5953 132.664 29.922 132.608 30.314H131.054Z" fill="white"/>
<path d="M350.998 27.9981C350.998 28.0501 350.987 28.1014 350.967 28.1491C350.946 28.1967 350.916 28.2396 350.878 28.2751L346.152 33.0001L350.878 37.7261C350.916 37.7616 350.946 37.8044 350.967 37.852C350.987 37.8995 350.998 37.9508 350.998 38.0026C350.998 38.0545 350.987 38.1057 350.967 38.1533C350.946 38.2009 350.916 38.2437 350.878 38.2791L350.278 38.8791C350.243 38.917 350.2 38.9471 350.152 38.9677C350.105 38.9883 350.053 38.9989 350.002 38.9989C349.95 38.9989 349.899 38.9883 349.851 38.9677C349.803 38.9471 349.761 38.917 349.725 38.8791L344.125 33.2791C344.087 33.2437 344.057 33.2009 344.037 33.1533C344.016 33.1057 344.005 33.0545 344.005 33.0026C344.005 32.9508 344.016 32.8995 344.037 32.852C344.057 32.8044 344.087 32.7616 344.125 32.7261L349.725 27.1261C349.761 27.0883 349.803 27.0582 349.851 27.0376C349.899 27.017 349.95 27.0063 350.002 27.0063C350.053 27.0063 350.105 27.017 350.152 27.0376C350.2 27.0582 350.243 27.0883 350.278 27.1261L350.878 27.7261C350.916 27.7617 350.946 27.8046 350.967 27.8522C350.987 27.8999 350.998 27.9512 350.998 28.0031V27.9981Z" fill="white"/>
<path d="M392 27.9979C392 28.0498 392.011 28.1012 392.031 28.1488C392.052 28.1965 392.082 28.2394 392.12 28.2749L396.846 33.0009L392.12 37.7259C392.082 37.7613 392.052 37.8042 392.031 37.8517C392.011 37.8993 392 37.9506 392 38.0024C392 38.0542 392.011 38.1055 392.031 38.1531C392.052 38.2006 392.082 38.2434 392.12 38.2789L392.72 38.8789C392.755 38.9167 392.798 38.9468 392.846 38.9675C392.893 38.9881 392.945 38.9987 392.996 38.9987C393.048 38.9987 393.1 38.9881 393.147 38.9675C393.195 38.9468 393.238 38.9167 393.273 38.8789L398.873 33.2789C398.911 33.2434 398.941 33.2006 398.962 33.1531C398.982 33.1055 398.993 33.0542 398.993 33.0024C398.993 32.9506 398.982 32.8993 398.962 32.8517C398.941 32.8042 398.911 32.7613 398.873 32.7259L393.273 27.1259C393.238 27.0881 393.195 27.0579 393.147 27.0373C393.1 27.0167 393.048 27.0061 392.996 27.0061C392.945 27.0061 392.893 27.0167 392.846 27.0373C392.798 27.0579 392.755 27.0881 392.72 27.1259L392.12 27.7259C392.082 27.7614 392.052 27.8043 392.031 27.852C392.011 27.8996 392 27.951 392 28.0029V27.9979Z" fill="white"/>
<path d="M170.49 31C170.455 31.0001 170.42 31.0075 170.388 31.0216C170.355 31.0357 170.326 31.0563 170.302 31.082L167.085 34.298L163.868 31.082C163.844 31.0562 163.815 31.0356 163.782 31.0215C163.75 31.0074 163.715 31.0002 163.68 31.0002C163.644 31.0002 163.609 31.0074 163.577 31.0215C163.544 31.0356 163.515 31.0562 163.491 31.082L163.082 31.491C163.056 31.5151 163.036 31.5443 163.022 31.5767C163.008 31.6092 163 31.6441 163 31.6795C163 31.7149 163.008 31.7498 163.022 31.7823C163.036 31.8147 163.056 31.8439 163.082 31.868L166.896 35.682C166.92 35.7078 166.949 35.7284 166.982 35.7425C167.014 35.7566 167.049 35.7638 167.085 35.7638C167.12 35.7638 167.155 35.7566 167.187 35.7425C167.22 35.7284 167.249 35.7078 167.273 35.682L171.087 31.868C171.113 31.8439 171.134 31.8147 171.148 31.7823C171.162 31.7498 171.169 31.7149 171.169 31.6795C171.169 31.6441 171.162 31.6092 171.148 31.5767C171.134 31.5443 171.113 31.5151 171.087 31.491L170.678 31.082C170.654 31.0563 170.625 31.0357 170.593 31.0216C170.56 31.0075 170.525 31.0001 170.49 31Z" fill="white"/>
<line x1="76.5" y1="104" x2="76.5" y2="514" stroke="#EDEDED"/>
<line x1="23.5" y1="104" x2="23.5" y2="514" stroke="#EDEDED"/>
<line x1="129.5" y1="104" x2="129.5" y2="514" stroke="#EDEDED"/>
<line x1="182.5" y1="104" x2="182.5" y2="514" stroke="#EDEDED"/>
<line x1="235.5" y1="104" x2="235.5" y2="514" stroke="#EDEDED"/>
<line x1="288.5" y1="104" x2="288.5" y2="514" stroke="#EDEDED"/>
<line x1="341.5" y1="104" x2="341.5" y2="514" stroke="#EDEDED"/>
<path d="M397.5 104L397.5 514" stroke="#EDEDED"/>
<line x1="23" y1="103.5" x2="399" y2="103.5" stroke="#EDEDED"/>
<line x1="23" y1="181.5" x2="399" y2="181.5" stroke="#EDEDED"/>
<line x1="23" y1="263.5" x2="399" y2="263.5" stroke="#EDEDED"/>
<line x1="23" y1="347.5" x2="399" y2="347.5" stroke="#EDEDED"/>
<line x1="23" y1="433.5" x2="399" y2="433.5" stroke="#EDEDED"/>
<line x1="23" y1="513.5" x2="399" y2="513.5" stroke="#EDEDED"/>
<path d="M42.714 147.978C43.8993 147.026 44.828 146.247 45.5 145.64C46.172 145.024 46.7367 144.385 47.194 143.722C47.6607 143.05 47.894 142.392 47.894 141.748C47.894 141.141 47.7447 140.665 47.446 140.32C47.1567 139.965 46.6853 139.788 46.032 139.788C45.3973 139.788 44.9027 139.989 44.548 140.39C44.2027 140.782 44.016 141.309 43.988 141.972H42.756C42.7933 140.927 43.1107 140.119 43.708 139.55C44.3053 138.981 45.0753 138.696 46.018 138.696C46.9793 138.696 47.74 138.962 48.3 139.494C48.8693 140.026 49.154 140.759 49.154 141.692C49.154 142.467 48.9207 143.223 48.454 143.96C47.9967 144.688 47.474 145.332 46.886 145.892C46.298 146.443 45.5467 147.087 44.632 147.824H49.448V148.888H42.714V147.978ZM52.7687 143.736C52.2461 143.531 51.8447 143.232 51.5647 142.84C51.2847 142.448 51.1447 141.972 51.1447 141.412C51.1447 140.908 51.2707 140.455 51.5227 140.054C51.7747 139.643 52.1481 139.321 52.6427 139.088C53.1467 138.845 53.7534 138.724 54.4627 138.724C55.1721 138.724 55.7741 138.845 56.2687 139.088C56.7727 139.321 57.1507 139.643 57.4027 140.054C57.6641 140.455 57.7947 140.908 57.7947 141.412C57.7947 141.953 57.6501 142.429 57.3607 142.84C57.0714 143.241 56.6747 143.54 56.1707 143.736C56.7494 143.913 57.2067 144.226 57.5427 144.674C57.8881 145.113 58.0607 145.645 58.0607 146.27C58.0607 146.877 57.9114 147.409 57.6127 147.866C57.3141 148.314 56.8894 148.664 56.3387 148.916C55.7974 149.159 55.1721 149.28 54.4627 149.28C53.7534 149.28 53.1281 149.159 52.5867 148.916C52.0547 148.664 51.6394 148.314 51.3407 147.866C51.0421 147.409 50.8927 146.877 50.8927 146.27C50.8927 145.645 51.0607 145.108 51.3967 144.66C51.7327 144.212 52.1901 143.904 52.7687 143.736ZM56.5627 141.566C56.5627 140.997 56.3761 140.558 56.0027 140.25C55.6294 139.942 55.1161 139.788 54.4627 139.788C53.8187 139.788 53.3101 139.942 52.9367 140.25C52.5634 140.558 52.3767 141.001 52.3767 141.58C52.3767 142.103 52.5681 142.523 52.9507 142.84C53.3427 143.157 53.8467 143.316 54.4627 143.316C55.0881 143.316 55.5921 143.157 55.9747 142.84C56.3667 142.513 56.5627 142.089 56.5627 141.566ZM54.4627 144.296C53.7721 144.296 53.2074 144.459 52.7687 144.786C52.3301 145.103 52.1107 145.584 52.1107 146.228C52.1107 146.825 52.3207 147.306 52.7407 147.67C53.1701 148.034 53.7441 148.216 54.4627 148.216C55.1814 148.216 55.7507 148.034 56.1707 147.67C56.5907 147.306 56.8007 146.825 56.8007 146.228C56.8007 145.603 56.5861 145.127 56.1567 144.8C55.7274 144.464 55.1627 144.296 54.4627 144.296Z" fill="#969696"/>
<path d="M95.714 147.978C96.8993 147.026 97.828 146.247 98.5 145.64C99.172 145.024 99.7367 144.385 100.194 143.722C100.661 143.05 100.894 142.392 100.894 141.748C100.894 141.141 100.745 140.665 100.446 140.32C100.157 139.965 99.6853 139.788 99.032 139.788C98.3973 139.788 97.9027 139.989 97.548 140.39C97.2027 140.782 97.016 141.309 96.988 141.972H95.756C95.7933 140.927 96.1107 140.119 96.708 139.55C97.3053 138.981 98.0753 138.696 99.018 138.696C99.9793 138.696 100.74 138.962 101.3 139.494C101.869 140.026 102.154 140.759 102.154 141.692C102.154 142.467 101.921 143.223 101.454 143.96C100.997 144.688 100.474 145.332 99.886 145.892C99.298 146.443 98.5467 147.087 97.632 147.824H102.448V148.888H95.714V147.978ZM105.559 146.284C105.652 146.816 105.867 147.227 106.203 147.516C106.548 147.805 107.01 147.95 107.589 147.95C108.363 147.95 108.933 147.647 109.297 147.04C109.67 146.433 109.847 145.411 109.829 143.974C109.633 144.394 109.306 144.725 108.849 144.968C108.391 145.201 107.883 145.318 107.323 145.318C106.697 145.318 106.137 145.192 105.643 144.94C105.157 144.679 104.775 144.301 104.495 143.806C104.215 143.311 104.075 142.714 104.075 142.014C104.075 141.015 104.364 140.213 104.943 139.606C105.521 138.99 106.343 138.682 107.407 138.682C108.713 138.682 109.628 139.107 110.151 139.956C110.683 140.805 110.949 142.07 110.949 143.75C110.949 144.926 110.841 145.897 110.627 146.662C110.421 147.427 110.067 148.011 109.563 148.412C109.068 148.813 108.387 149.014 107.519 149.014C106.567 149.014 105.825 148.757 105.293 148.244C104.761 147.731 104.457 147.077 104.383 146.284H105.559ZM107.533 144.24C108.158 144.24 108.671 144.049 109.073 143.666C109.474 143.274 109.675 142.747 109.675 142.084C109.675 141.384 109.479 140.819 109.087 140.39C108.695 139.961 108.144 139.746 107.435 139.746C106.781 139.746 106.259 139.951 105.867 140.362C105.484 140.773 105.293 141.314 105.293 141.986C105.293 142.667 105.484 143.213 105.867 143.624C106.249 144.035 106.805 144.24 107.533 144.24Z" fill="#969696"/>
<path d="M148.84 141.426C148.905 140.567 149.237 139.895 149.834 139.41C150.431 138.925 151.206 138.682 152.158 138.682C152.793 138.682 153.339 138.799 153.796 139.032C154.263 139.256 154.613 139.564 154.846 139.956C155.089 140.348 155.21 140.791 155.21 141.286C155.21 141.865 155.042 142.364 154.706 142.784C154.379 143.204 153.95 143.475 153.418 143.596V143.666C154.025 143.815 154.505 144.109 154.86 144.548C155.215 144.987 155.392 145.561 155.392 146.27C155.392 146.802 155.271 147.283 155.028 147.712C154.785 148.132 154.421 148.463 153.936 148.706C153.451 148.949 152.867 149.07 152.186 149.07C151.197 149.07 150.385 148.813 149.75 148.3C149.115 147.777 148.761 147.04 148.686 146.088H149.918C149.983 146.648 150.212 147.105 150.604 147.46C150.996 147.815 151.519 147.992 152.172 147.992C152.825 147.992 153.32 147.824 153.656 147.488C154.001 147.143 154.174 146.699 154.174 146.158C154.174 145.458 153.941 144.954 153.474 144.646C153.007 144.338 152.303 144.184 151.36 144.184H151.038V143.12H151.374C152.233 143.111 152.881 142.971 153.32 142.7C153.759 142.42 153.978 141.991 153.978 141.412C153.978 140.917 153.815 140.521 153.488 140.222C153.171 139.923 152.713 139.774 152.116 139.774C151.537 139.774 151.071 139.923 150.716 140.222C150.361 140.521 150.151 140.922 150.086 141.426H148.84ZM157.112 143.834C157.112 142.229 157.373 140.978 157.896 140.082C158.419 139.177 159.333 138.724 160.64 138.724C161.937 138.724 162.847 139.177 163.37 140.082C163.893 140.978 164.154 142.229 164.154 143.834C164.154 145.467 163.893 146.737 163.37 147.642C162.847 148.547 161.937 149 160.64 149C159.333 149 158.419 148.547 157.896 147.642C157.373 146.737 157.112 145.467 157.112 143.834ZM162.894 143.834C162.894 143.022 162.838 142.336 162.726 141.776C162.623 141.207 162.404 140.749 162.068 140.404C161.741 140.059 161.265 139.886 160.64 139.886C160.005 139.886 159.52 140.059 159.184 140.404C158.857 140.749 158.638 141.207 158.526 141.776C158.423 142.336 158.372 143.022 158.372 143.834C158.372 144.674 158.423 145.379 158.526 145.948C158.638 146.517 158.857 146.975 159.184 147.32C159.52 147.665 160.005 147.838 160.64 147.838C161.265 147.838 161.741 147.665 162.068 147.32C162.404 146.975 162.623 146.517 162.726 145.948C162.838 145.379 162.894 144.674 162.894 143.834Z" fill="#969696"/>
<path d="M202.84 141.426C202.905 140.567 203.237 139.895 203.834 139.41C204.431 138.925 205.206 138.682 206.158 138.682C206.793 138.682 207.339 138.799 207.796 139.032C208.263 139.256 208.613 139.564 208.846 139.956C209.089 140.348 209.21 140.791 209.21 141.286C209.21 141.865 209.042 142.364 208.706 142.784C208.379 143.204 207.95 143.475 207.418 143.596V143.666C208.025 143.815 208.505 144.109 208.86 144.548C209.215 144.987 209.392 145.561 209.392 146.27C209.392 146.802 209.271 147.283 209.028 147.712C208.785 148.132 208.421 148.463 207.936 148.706C207.451 148.949 206.867 149.07 206.186 149.07C205.197 149.07 204.385 148.813 203.75 148.3C203.115 147.777 202.761 147.04 202.686 146.088H203.918C203.983 146.648 204.212 147.105 204.604 147.46C204.996 147.815 205.519 147.992 206.172 147.992C206.825 147.992 207.32 147.824 207.656 147.488C208.001 147.143 208.174 146.699 208.174 146.158C208.174 145.458 207.941 144.954 207.474 144.646C207.007 144.338 206.303 144.184 205.36 144.184H205.038V143.12H205.374C206.233 143.111 206.881 142.971 207.32 142.7C207.759 142.42 207.978 141.991 207.978 141.412C207.978 140.917 207.815 140.521 207.488 140.222C207.171 139.923 206.713 139.774 206.116 139.774C205.537 139.774 205.071 139.923 204.716 140.222C204.361 140.521 204.151 140.922 204.086 141.426H202.84ZM210.776 140.04V138.878H213.408V149H212.12V140.04H210.776Z" fill="#969696"/>
<path d="M259.532 140.04V138.878H262.164V149H260.876V140.04H259.532Z" fill="#3A3A3A"/>
<path d="M310.188 147.978C311.373 147.026 312.302 146.247 312.974 145.64C313.646 145.024 314.21 144.385 314.668 143.722C315.134 143.05 315.368 142.392 315.368 141.748C315.368 141.141 315.218 140.665 314.92 140.32C314.63 139.965 314.159 139.788 313.506 139.788C312.871 139.788 312.376 139.989 312.022 140.39C311.676 140.782 311.49 141.309 311.462 141.972H310.23C310.267 140.927 310.584 140.119 311.182 139.55C311.779 138.981 312.549 138.696 313.492 138.696C314.453 138.696 315.214 138.962 315.774 139.494C316.343 140.026 316.628 140.759 316.628 141.692C316.628 142.467 316.394 143.223 315.928 143.96C315.47 144.688 314.948 145.332 314.36 145.892C313.772 146.443 313.02 147.087 312.106 147.824H316.922V148.888H310.188V147.978Z" fill="#3A3A3A"/>
<path d="M366.218 141.426C366.283 140.567 366.615 139.895 367.212 139.41C367.809 138.925 368.584 138.682 369.536 138.682C370.171 138.682 370.717 138.799 371.174 139.032C371.641 139.256 371.991 139.564 372.224 139.956C372.467 140.348 372.588 140.791 372.588 141.286C372.588 141.865 372.42 142.364 372.084 142.784C371.757 143.204 371.328 143.475 370.796 143.596V143.666C371.403 143.815 371.883 144.109 372.238 144.548C372.593 144.987 372.77 145.561 372.77 146.27C372.77 146.802 372.649 147.283 372.406 147.712C372.163 148.132 371.799 148.463 371.314 148.706C370.829 148.949 370.245 149.07 369.564 149.07C368.575 149.07 367.763 148.813 367.128 148.3C366.493 147.777 366.139 147.04 366.064 146.088H367.296C367.361 146.648 367.59 147.105 367.982 147.46C368.374 147.815 368.897 147.992 369.55 147.992C370.203 147.992 370.698 147.824 371.034 147.488C371.379 147.143 371.552 146.699 371.552 146.158C371.552 145.458 371.319 144.954 370.852 144.646C370.385 144.338 369.681 144.184 368.738 144.184H368.416V143.12H368.752C369.611 143.111 370.259 142.971 370.698 142.7C371.137 142.42 371.356 141.991 371.356 141.412C371.356 140.917 371.193 140.521 370.866 140.222C370.549 139.923 370.091 139.774 369.494 139.774C368.915 139.774 368.449 139.923 368.094 140.222C367.739 140.521 367.529 140.922 367.464 141.426H366.218Z" fill="#3A3A3A"/>
<path d="M45.56 228.746V227.78L50.474 220.976H52V227.64H53.4V228.746H52V231H50.74V228.746H45.56ZM50.796 222.306L47.03 227.64H50.796V222.306Z" fill="#3A3A3A"/>
<path d="M105.322 221.984H100.408V225.176C100.623 224.877 100.94 224.635 101.36 224.448C101.78 224.252 102.233 224.154 102.718 224.154C103.493 224.154 104.123 224.317 104.608 224.644C105.093 224.961 105.439 225.377 105.644 225.89C105.859 226.394 105.966 226.931 105.966 227.5C105.966 228.172 105.84 228.774 105.588 229.306C105.336 229.838 104.949 230.258 104.426 230.566C103.913 230.874 103.273 231.028 102.508 231.028C101.528 231.028 100.735 230.776 100.128 230.272C99.5213 229.768 99.1527 229.096 99.022 228.256H100.268C100.389 228.788 100.646 229.203 101.038 229.502C101.43 229.801 101.925 229.95 102.522 229.95C103.259 229.95 103.815 229.731 104.188 229.292C104.561 228.844 104.748 228.256 104.748 227.528C104.748 226.8 104.561 226.24 104.188 225.848C103.815 225.447 103.264 225.246 102.536 225.246C102.041 225.246 101.607 225.367 101.234 225.61C100.87 225.843 100.604 226.165 100.436 226.576H99.232V220.864H105.322V221.984Z" fill="#3A3A3A"/>
<path d="M158.51 223.286C158.305 222.25 157.665 221.732 156.592 221.732C155.761 221.732 155.141 222.054 154.73 222.698C154.319 223.333 154.119 224.383 154.128 225.848C154.343 225.363 154.697 224.985 155.192 224.714C155.696 224.434 156.256 224.294 156.872 224.294C157.833 224.294 158.599 224.593 159.168 225.19C159.747 225.787 160.036 226.613 160.036 227.668C160.036 228.303 159.91 228.872 159.658 229.376C159.415 229.88 159.042 230.281 158.538 230.58C158.043 230.879 157.441 231.028 156.732 231.028C155.771 231.028 155.019 230.813 154.478 230.384C153.937 229.955 153.559 229.362 153.344 228.606C153.129 227.85 153.022 226.917 153.022 225.806C153.022 222.381 154.217 220.668 156.606 220.668C157.521 220.668 158.239 220.915 158.762 221.41C159.285 221.905 159.593 222.53 159.686 223.286H158.51ZM156.606 225.372C156.205 225.372 155.827 225.456 155.472 225.624C155.117 225.783 154.828 226.03 154.604 226.366C154.389 226.693 154.282 227.094 154.282 227.57C154.282 228.279 154.487 228.858 154.898 229.306C155.309 229.745 155.897 229.964 156.662 229.964C157.315 229.964 157.833 229.763 158.216 229.362C158.608 228.951 158.804 228.401 158.804 227.71C158.804 226.982 158.617 226.413 158.244 226.002C157.871 225.582 157.325 225.372 156.606 225.372Z" fill="#3A3A3A"/>
<path d="M212.098 221.872L208.206 231H206.918L210.866 221.998H205.462V220.906H212.098V221.872Z" fill="#3A3A3A"/>
<path d="M260.716 225.736C260.193 225.531 259.792 225.232 259.512 224.84C259.232 224.448 259.092 223.972 259.092 223.412C259.092 222.908 259.218 222.455 259.47 222.054C259.722 221.643 260.095 221.321 260.59 221.088C261.094 220.845 261.701 220.724 262.41 220.724C263.119 220.724 263.721 220.845 264.216 221.088C264.72 221.321 265.098 221.643 265.35 222.054C265.611 222.455 265.742 222.908 265.742 223.412C265.742 223.953 265.597 224.429 265.308 224.84C265.019 225.241 264.622 225.54 264.118 225.736C264.697 225.913 265.154 226.226 265.49 226.674C265.835 227.113 266.008 227.645 266.008 228.27C266.008 228.877 265.859 229.409 265.56 229.866C265.261 230.314 264.837 230.664 264.286 230.916C263.745 231.159 263.119 231.28 262.41 231.28C261.701 231.28 261.075 231.159 260.534 230.916C260.002 230.664 259.587 230.314 259.288 229.866C258.989 229.409 258.84 228.877 258.84 228.27C258.84 227.645 259.008 227.108 259.344 226.66C259.68 226.212 260.137 225.904 260.716 225.736ZM264.51 223.566C264.51 222.997 264.323 222.558 263.95 222.25C263.577 221.942 263.063 221.788 262.41 221.788C261.766 221.788 261.257 221.942 260.884 222.25C260.511 222.558 260.324 223.001 260.324 223.58C260.324 224.103 260.515 224.523 260.898 224.84C261.29 225.157 261.794 225.316 262.41 225.316C263.035 225.316 263.539 225.157 263.922 224.84C264.314 224.513 264.51 224.089 264.51 223.566ZM262.41 226.296C261.719 226.296 261.155 226.459 260.716 226.786C260.277 227.103 260.058 227.584 260.058 228.228C260.058 228.825 260.268 229.306 260.688 229.67C261.117 230.034 261.691 230.216 262.41 230.216C263.129 230.216 263.698 230.034 264.118 229.67C264.538 229.306 264.748 228.825 264.748 228.228C264.748 227.603 264.533 227.127 264.104 226.8C263.675 226.464 263.11 226.296 262.41 226.296Z" fill="#3A3A3A"/>
<path d="M311.597 228.284C311.69 228.816 311.905 229.227 312.241 229.516C312.586 229.805 313.048 229.95 313.627 229.95C314.401 229.95 314.971 229.647 315.335 229.04C315.708 228.433 315.885 227.411 315.867 225.974C315.671 226.394 315.344 226.725 314.887 226.968C314.429 227.201 313.921 227.318 313.361 227.318C312.735 227.318 312.175 227.192 311.681 226.94C311.195 226.679 310.813 226.301 310.533 225.806C310.253 225.311 310.113 224.714 310.113 224.014C310.113 223.015 310.402 222.213 310.981 221.606C311.559 220.99 312.381 220.682 313.445 220.682C314.751 220.682 315.666 221.107 316.189 221.956C316.721 222.805 316.987 224.07 316.987 225.75C316.987 226.926 316.879 227.897 316.665 228.662C316.459 229.427 316.105 230.011 315.601 230.412C315.106 230.813 314.425 231.014 313.557 231.014C312.605 231.014 311.863 230.757 311.331 230.244C310.799 229.731 310.495 229.077 310.421 228.284H311.597ZM313.571 226.24C314.196 226.24 314.709 226.049 315.111 225.666C315.512 225.274 315.713 224.747 315.713 224.084C315.713 223.384 315.517 222.819 315.125 222.39C314.733 221.961 314.182 221.746 313.473 221.746C312.819 221.746 312.297 221.951 311.905 222.362C311.522 222.773 311.331 223.314 311.331 223.986C311.331 224.667 311.522 225.213 311.905 225.624C312.287 226.035 312.843 226.24 313.571 226.24Z" fill="#3A3A3A"/>
<path d="M362.894 222.04V220.878H365.526V231H364.238V222.04H362.894ZM367.715 225.834C367.715 224.229 367.976 222.978 368.499 222.082C369.021 221.177 369.936 220.724 371.243 220.724C372.54 220.724 373.45 221.177 373.973 222.082C374.495 222.978 374.757 224.229 374.757 225.834C374.757 227.467 374.495 228.737 373.973 229.642C373.45 230.547 372.54 231 371.243 231C369.936 231 369.021 230.547 368.499 229.642C367.976 228.737 367.715 227.467 367.715 225.834ZM373.497 225.834C373.497 225.022 373.441 224.336 373.329 223.776C373.226 223.207 373.007 222.749 372.671 222.404C372.344 222.059 371.868 221.886 371.243 221.886C370.608 221.886 370.123 222.059 369.787 222.404C369.46 222.749 369.241 223.207 369.129 223.776C369.026 224.336 368.975 225.022 368.975 225.834C368.975 226.674 369.026 227.379 369.129 227.948C369.241 228.517 369.46 228.975 369.787 229.32C370.123 229.665 370.608 229.838 371.243 229.838C371.868 229.838 372.344 229.665 372.671 229.32C373.007 228.975 373.226 228.517 373.329 227.948C373.441 227.379 373.497 226.674 373.497 225.834Z" fill="#3A3A3A"/>
<path d="M45.532 302.04V300.878H48.164V311H46.876V302.04H45.532ZM50.0164 302.04V300.878H52.6484V311H51.3604V302.04H50.0164Z" fill="#3A3A3A"/>
<path d="M97.532 302.04V300.878H100.164V311H98.876V302.04H97.532ZM102.198 309.978C103.384 309.026 104.312 308.247 104.984 307.64C105.656 307.024 106.221 306.385 106.678 305.722C107.145 305.05 107.378 304.392 107.378 303.748C107.378 303.141 107.229 302.665 106.93 302.32C106.641 301.965 106.17 301.788 105.516 301.788C104.882 301.788 104.387 301.989 104.032 302.39C103.687 302.782 103.5 303.309 103.472 303.972H102.24C102.278 302.927 102.595 302.119 103.192 301.55C103.79 300.981 104.56 300.696 105.502 300.696C106.464 300.696 107.224 300.962 107.784 301.494C108.354 302.026 108.638 302.759 108.638 303.692C108.638 304.467 108.405 305.223 107.938 305.96C107.481 306.688 106.958 307.332 106.37 307.892C105.782 308.443 105.031 309.087 104.116 309.824H108.932V310.888H102.198V309.978Z" fill="#3A3A3A"/>
<path d="M151.532 302.04V300.878H154.164V311H152.876V302.04H151.532ZM156.324 303.426C156.39 302.567 156.721 301.895 157.318 301.41C157.916 300.925 158.69 300.682 159.642 300.682C160.277 300.682 160.823 300.799 161.28 301.032C161.747 301.256 162.097 301.564 162.33 301.956C162.573 302.348 162.694 302.791 162.694 303.286C162.694 303.865 162.526 304.364 162.19 304.784C161.864 305.204 161.434 305.475 160.902 305.596V305.666C161.509 305.815 161.99 306.109 162.344 306.548C162.699 306.987 162.876 307.561 162.876 308.27C162.876 308.802 162.755 309.283 162.512 309.712C162.27 310.132 161.906 310.463 161.42 310.706C160.935 310.949 160.352 311.07 159.67 311.07C158.681 311.07 157.869 310.813 157.234 310.3C156.6 309.777 156.245 309.04 156.17 308.088H157.402C157.468 308.648 157.696 309.105 158.088 309.46C158.48 309.815 159.003 309.992 159.656 309.992C160.31 309.992 160.804 309.824 161.14 309.488C161.486 309.143 161.658 308.699 161.658 308.158C161.658 307.458 161.425 306.954 160.958 306.646C160.492 306.338 159.787 306.184 158.844 306.184H158.522V305.12H158.858C159.717 305.111 160.366 304.971 160.804 304.7C161.243 304.42 161.462 303.991 161.462 303.412C161.462 302.917 161.299 302.521 160.972 302.222C160.655 301.923 160.198 301.774 159.6 301.774C159.022 301.774 158.555 301.923 158.2 302.222C157.846 302.521 157.636 302.922 157.57 303.426H156.324Z" fill="#3A3A3A"/>
<path d="M203.532 302.04V300.878H206.164V311H204.876V302.04H203.532ZM208.044 308.746V307.78L212.958 300.976H214.484V307.64H215.884V308.746H214.484V311H213.224V308.746H208.044ZM213.28 302.306L209.514 307.64H213.28V302.306Z" fill="#3A3A3A"/>
<path d="M254.532 302.04V300.878H257.164V311H255.876V302.04H254.532ZM265.806 301.984H260.892V305.176C261.107 304.877 261.424 304.635 261.844 304.448C262.264 304.252 262.717 304.154 263.202 304.154C263.977 304.154 264.607 304.317 265.092 304.644C265.578 304.961 265.923 305.377 266.128 305.89C266.343 306.394 266.45 306.931 266.45 307.5C266.45 308.172 266.324 308.774 266.072 309.306C265.82 309.838 265.433 310.258 264.91 310.566C264.397 310.874 263.758 311.028 262.992 311.028C262.012 311.028 261.219 310.776 260.612 310.272C260.006 309.768 259.637 309.096 259.506 308.256H260.752C260.874 308.788 261.13 309.203 261.522 309.502C261.914 309.801 262.409 309.95 263.006 309.95C263.744 309.95 264.299 309.731 264.672 309.292C265.046 308.844 265.232 308.256 265.232 307.528C265.232 306.8 265.046 306.24 264.672 305.848C264.299 305.447 263.748 305.246 263.02 305.246C262.526 305.246 262.092 305.367 261.718 305.61C261.354 305.843 261.088 306.165 260.92 306.576H259.716V300.864H265.806V301.984Z" fill="#3A3A3A"/>
<path d="M307.846 302.04V300.878H310.478V311H309.19V302.04H307.846ZM318.309 303.286C318.103 302.25 317.464 301.732 316.391 301.732C315.56 301.732 314.939 302.054 314.529 302.698C314.118 303.333 313.917 304.383 313.927 305.848C314.141 305.363 314.496 304.985 314.991 304.714C315.495 304.434 316.055 304.294 316.671 304.294C317.632 304.294 318.397 304.593 318.967 305.19C319.545 305.787 319.835 306.613 319.835 307.668C319.835 308.303 319.709 308.872 319.457 309.376C319.214 309.88 318.841 310.281 318.337 310.58C317.842 310.879 317.24 311.028 316.531 311.028C315.569 311.028 314.818 310.813 314.277 310.384C313.735 309.955 313.357 309.362 313.143 308.606C312.928 307.85 312.821 306.917 312.821 305.806C312.821 302.381 314.015 300.668 316.405 300.668C317.319 300.668 318.038 300.915 318.561 301.41C319.083 301.905 319.391 302.53 319.485 303.286H318.309ZM316.405 305.372C316.003 305.372 315.625 305.456 315.271 305.624C314.916 305.783 314.627 306.03 314.403 306.366C314.188 306.693 314.081 307.094 314.081 307.57C314.081 308.279 314.286 308.858 314.697 309.306C315.107 309.745 315.695 309.964 316.461 309.964C317.114 309.964 317.632 309.763 318.015 309.362C318.407 308.951 318.603 308.401 318.603 307.71C318.603 306.982 318.416 306.413 318.043 306.002C317.669 305.582 317.123 305.372 316.405 305.372Z" fill="#3A3A3A"/>
<path d="M363.969 302.04V300.878H366.601V311H365.313V302.04H363.969ZM375.019 301.872L371.127 311H369.839L373.787 301.998H368.383V300.906H375.019V301.872Z" fill="#3A3A3A"/>
<path d="M44.532 389.04V387.878H47.164V398H45.876V389.04H44.532ZM51.2004 392.736C50.6777 392.531 50.2764 392.232 49.9964 391.84C49.7164 391.448 49.5764 390.972 49.5764 390.412C49.5764 389.908 49.7024 389.455 49.9544 389.054C50.2064 388.643 50.5797 388.321 51.0744 388.088C51.5784 387.845 52.185 387.724 52.8944 387.724C53.6037 387.724 54.2057 387.845 54.7004 388.088C55.2044 388.321 55.5824 388.643 55.8344 389.054C56.0957 389.455 56.2264 389.908 56.2264 390.412C56.2264 390.953 56.0817 391.429 55.7924 391.84C55.503 392.241 55.1064 392.54 54.6024 392.736C55.181 392.913 55.6384 393.226 55.9744 393.674C56.3197 394.113 56.4924 394.645 56.4924 395.27C56.4924 395.877 56.343 396.409 56.0444 396.866C55.7457 397.314 55.321 397.664 54.7704 397.916C54.229 398.159 53.6037 398.28 52.8944 398.28C52.185 398.28 51.5597 398.159 51.0184 397.916C50.4864 397.664 50.071 397.314 49.7724 396.866C49.4737 396.409 49.3244 395.877 49.3244 395.27C49.3244 394.645 49.4924 394.108 49.8284 393.66C50.1644 393.212 50.6217 392.904 51.2004 392.736ZM54.9944 390.566C54.9944 389.997 54.8077 389.558 54.4344 389.25C54.061 388.942 53.5477 388.788 52.8944 388.788C52.2504 388.788 51.7417 388.942 51.3684 389.25C50.995 389.558 50.8084 390.001 50.8084 390.58C50.8084 391.103 50.9997 391.523 51.3824 391.84C51.7744 392.157 52.2784 392.316 52.8944 392.316C53.5197 392.316 54.0237 392.157 54.4064 391.84C54.7984 391.513 54.9944 391.089 54.9944 390.566ZM52.8944 393.296C52.2037 393.296 51.639 393.459 51.2004 393.786C50.7617 394.103 50.5424 394.584 50.5424 395.228C50.5424 395.825 50.7524 396.306 51.1724 396.67C51.6017 397.034 52.1757 397.216 52.8944 397.216C53.613 397.216 54.1824 397.034 54.6024 396.67C55.0224 396.306 55.2324 395.825 55.2324 395.228C55.2324 394.603 55.0177 394.127 54.5884 393.8C54.159 393.464 53.5944 393.296 52.8944 393.296Z" fill="#3A3A3A"/>
<path d="M97.532 389.04V387.878H100.164V398H98.876V389.04H97.532ZM103.99 395.284C104.084 395.816 104.298 396.227 104.634 396.516C104.98 396.805 105.442 396.95 106.02 396.95C106.795 396.95 107.364 396.647 107.728 396.04C108.102 395.433 108.279 394.411 108.26 392.974C108.064 393.394 107.738 393.725 107.28 393.968C106.823 394.201 106.314 394.318 105.754 394.318C105.129 394.318 104.569 394.192 104.074 393.94C103.589 393.679 103.206 393.301 102.926 392.806C102.646 392.311 102.506 391.714 102.506 391.014C102.506 390.015 102.796 389.213 103.374 388.606C103.953 387.99 104.774 387.682 105.838 387.682C107.145 387.682 108.06 388.107 108.582 388.956C109.114 389.805 109.38 391.07 109.38 392.75C109.38 393.926 109.273 394.897 109.058 395.662C108.853 396.427 108.498 397.011 107.994 397.412C107.5 397.813 106.818 398.014 105.95 398.014C104.998 398.014 104.256 397.757 103.724 397.244C103.192 396.731 102.889 396.077 102.814 395.284H103.99ZM105.964 393.24C106.59 393.24 107.103 393.049 107.504 392.666C107.906 392.274 108.106 391.747 108.106 391.084C108.106 390.384 107.91 389.819 107.518 389.39C107.126 388.961 106.576 388.746 105.866 388.746C105.213 388.746 104.69 388.951 104.298 389.362C103.916 389.773 103.724 390.314 103.724 390.986C103.724 391.667 103.916 392.213 104.298 392.624C104.681 393.035 105.236 393.24 105.964 393.24Z" fill="#3A3A3A"/>
<path d="M148.714 396.978C149.899 396.026 150.828 395.247 151.5 394.64C152.172 394.024 152.737 393.385 153.194 392.722C153.661 392.05 153.894 391.392 153.894 390.748C153.894 390.141 153.745 389.665 153.446 389.32C153.157 388.965 152.685 388.788 152.032 388.788C151.397 388.788 150.903 388.989 150.548 389.39C150.203 389.782 150.016 390.309 149.988 390.972H148.756C148.793 389.927 149.111 389.119 149.708 388.55C150.305 387.981 151.075 387.696 152.018 387.696C152.979 387.696 153.74 387.962 154.3 388.494C154.869 389.026 155.154 389.759 155.154 390.692C155.154 391.467 154.921 392.223 154.454 392.96C153.997 393.688 153.474 394.332 152.886 394.892C152.298 395.443 151.547 396.087 150.632 396.824H155.448V397.888H148.714V396.978ZM156.921 392.834C156.921 391.229 157.182 389.978 157.705 389.082C158.227 388.177 159.142 387.724 160.449 387.724C161.746 387.724 162.656 388.177 163.179 389.082C163.701 389.978 163.963 391.229 163.963 392.834C163.963 394.467 163.701 395.737 163.179 396.642C162.656 397.547 161.746 398 160.449 398C159.142 398 158.227 397.547 157.705 396.642C157.182 395.737 156.921 394.467 156.921 392.834ZM162.703 392.834C162.703 392.022 162.647 391.336 162.535 390.776C162.432 390.207 162.213 389.749 161.877 389.404C161.55 389.059 161.074 388.886 160.449 388.886C159.814 388.886 159.329 389.059 158.993 389.404C158.666 389.749 158.447 390.207 158.335 390.776C158.232 391.336 158.181 392.022 158.181 392.834C158.181 393.674 158.232 394.379 158.335 394.948C158.447 395.517 158.666 395.975 158.993 396.32C159.329 396.665 159.814 396.838 160.449 396.838C161.074 396.838 161.55 396.665 161.877 396.32C162.213 395.975 162.432 395.517 162.535 394.948C162.647 394.379 162.703 393.674 162.703 392.834Z" fill="#3A3A3A"/>
<path d="M204.714 396.978C205.899 396.026 206.828 395.247 207.5 394.64C208.172 394.024 208.737 393.385 209.194 392.722C209.661 392.05 209.894 391.392 209.894 390.748C209.894 390.141 209.745 389.665 209.446 389.32C209.157 388.965 208.685 388.788 208.032 388.788C207.397 388.788 206.903 388.989 206.548 389.39C206.203 389.782 206.016 390.309 205.988 390.972H204.756C204.793 389.927 205.111 389.119 205.708 388.55C206.305 387.981 207.075 387.696 208.018 387.696C208.979 387.696 209.74 387.962 210.3 388.494C210.869 389.026 211.154 389.759 211.154 390.692C211.154 391.467 210.921 392.223 210.454 392.96C209.997 393.688 209.474 394.332 208.886 394.892C208.298 395.443 207.547 396.087 206.632 396.824H211.448V397.888H204.714V396.978ZM212.585 389.04V387.878H215.217V398H213.929V389.04H212.585Z" fill="#3A3A3A"/>
<path d="M255.714 396.978C256.899 396.026 257.828 395.247 258.5 394.64C259.172 394.024 259.737 393.385 260.194 392.722C260.661 392.05 260.894 391.392 260.894 390.748C260.894 390.141 260.745 389.665 260.446 389.32C260.157 388.965 259.685 388.788 259.032 388.788C258.397 388.788 257.903 388.989 257.548 389.39C257.203 389.782 257.016 390.309 256.988 390.972H255.756C255.793 389.927 256.111 389.119 256.708 388.55C257.305 387.981 258.075 387.696 259.018 387.696C259.979 387.696 260.74 387.962 261.3 388.494C261.869 389.026 262.154 389.759 262.154 390.692C262.154 391.467 261.921 392.223 261.454 392.96C260.997 393.688 260.474 394.332 259.886 394.892C259.298 395.443 258.547 396.087 257.632 396.824H262.448V397.888H255.714V396.978ZM263.767 396.978C264.952 396.026 265.881 395.247 266.553 394.64C267.225 394.024 267.789 393.385 268.247 392.722C268.713 392.05 268.947 391.392 268.947 390.748C268.947 390.141 268.797 389.665 268.499 389.32C268.209 388.965 267.738 388.788 267.085 388.788C266.45 388.788 265.955 388.989 265.601 389.39C265.255 389.782 265.069 390.309 265.041 390.972H263.809C263.846 389.927 264.163 389.119 264.761 388.55C265.358 387.981 266.128 387.696 267.071 387.696C268.032 387.696 268.793 387.962 269.353 388.494C269.922 389.026 270.207 389.759 270.207 390.692C270.207 391.467 269.973 392.223 269.507 392.96C269.049 393.688 268.527 394.332 267.939 394.892C267.351 395.443 266.599 396.087 265.685 396.824H270.501V397.888H263.767V396.978Z" fill="#3A3A3A"/>
<path d="M307.066 396.978C308.251 396.026 309.18 395.247 309.852 394.64C310.524 394.024 311.088 393.385 311.546 392.722C312.012 392.05 312.246 391.392 312.246 390.748C312.246 390.141 312.096 389.665 311.798 389.32C311.508 388.965 311.037 388.788 310.384 388.788C309.749 388.788 309.254 388.989 308.9 389.39C308.554 389.782 308.368 390.309 308.34 390.972H307.108C307.145 389.927 307.462 389.119 308.06 388.55C308.657 387.981 309.427 387.696 310.37 387.696C311.331 387.696 312.092 387.962 312.652 388.494C313.221 389.026 313.506 389.759 313.506 390.692C313.506 391.467 313.272 392.223 312.806 392.96C312.348 393.688 311.826 394.332 311.238 394.892C310.65 395.443 309.898 396.087 308.984 396.824H313.8V397.888H307.066V396.978ZM315.244 390.426C315.31 389.567 315.641 388.895 316.238 388.41C316.836 387.925 317.61 387.682 318.562 387.682C319.197 387.682 319.743 387.799 320.2 388.032C320.667 388.256 321.017 388.564 321.25 388.956C321.493 389.348 321.614 389.791 321.614 390.286C321.614 390.865 321.446 391.364 321.11 391.784C320.784 392.204 320.354 392.475 319.822 392.596V392.666C320.429 392.815 320.91 393.109 321.264 393.548C321.619 393.987 321.796 394.561 321.796 395.27C321.796 395.802 321.675 396.283 321.432 396.712C321.19 397.132 320.826 397.463 320.34 397.706C319.855 397.949 319.272 398.07 318.59 398.07C317.601 398.07 316.789 397.813 316.154 397.3C315.52 396.777 315.165 396.04 315.09 395.088H316.322C316.388 395.648 316.616 396.105 317.008 396.46C317.4 396.815 317.923 396.992 318.576 396.992C319.23 396.992 319.724 396.824 320.06 396.488C320.406 396.143 320.578 395.699 320.578 395.158C320.578 394.458 320.345 393.954 319.878 393.646C319.412 393.338 318.707 393.184 317.764 393.184H317.442V392.12H317.778C318.637 392.111 319.286 391.971 319.724 391.7C320.163 391.42 320.382 390.991 320.382 390.412C320.382 389.917 320.219 389.521 319.892 389.222C319.575 388.923 319.118 388.774 318.52 388.774C317.942 388.774 317.475 388.923 317.12 389.222C316.766 389.521 316.556 389.922 316.49 390.426H315.244Z" fill="#3A3A3A"/>
<path d="M361.785 396.978C362.971 396.026 363.899 395.247 364.571 394.64C365.243 394.024 365.808 393.385 366.265 392.722C366.732 392.05 366.965 391.392 366.965 390.748C366.965 390.141 366.816 389.665 366.517 389.32C366.228 388.965 365.757 388.788 365.103 388.788C364.469 388.788 363.974 388.989 363.619 389.39C363.274 389.782 363.087 390.309 363.059 390.972H361.827C361.865 389.927 362.182 389.119 362.779 388.55C363.377 387.981 364.147 387.696 365.089 387.696C366.051 387.696 366.811 387.962 367.371 388.494C367.941 389.026 368.225 389.759 368.225 390.692C368.225 391.467 367.992 392.223 367.525 392.96C367.068 393.688 366.545 394.332 365.957 394.892C365.369 395.443 364.618 396.087 363.703 396.824H368.519V397.888H361.785V396.978ZM369.684 395.746V394.78L374.598 387.976H376.124V394.64H377.524V395.746H376.124V398H374.864V395.746H369.684ZM374.92 389.306L371.154 394.64H374.92V389.306Z" fill="#3A3A3A"/>
<path d="M41.714 476.978C42.8993 476.026 43.828 475.247 44.5 474.64C45.172 474.024 45.7367 473.385 46.194 472.722C46.6607 472.05 46.894 471.392 46.894 470.748C46.894 470.141 46.7447 469.665 46.446 469.32C46.1567 468.965 45.6853 468.788 45.032 468.788C44.3973 468.788 43.9027 468.989 43.548 469.39C43.2027 469.782 43.016 470.309 42.988 470.972H41.756C41.7933 469.927 42.1107 469.119 42.708 468.55C43.3053 467.981 44.0753 467.696 45.018 467.696C45.9793 467.696 46.74 467.962 47.3 468.494C47.8693 469.026 48.154 469.759 48.154 470.692C48.154 471.467 47.9207 472.223 47.454 472.96C46.9967 473.688 46.474 474.332 45.886 474.892C45.298 475.443 44.5467 476.087 43.632 476.824H48.448V477.888H41.714V476.978ZM56.3747 468.984H51.4607V472.176C51.6754 471.877 51.9927 471.635 52.4127 471.448C52.8327 471.252 53.2854 471.154 53.7707 471.154C54.5454 471.154 55.1754 471.317 55.6607 471.644C56.1461 471.961 56.4914 472.377 56.6967 472.89C56.9114 473.394 57.0187 473.931 57.0187 474.5C57.0187 475.172 56.8927 475.774 56.6407 476.306C56.3887 476.838 56.0014 477.258 55.4787 477.566C54.9654 477.874 54.3261 478.028 53.5607 478.028C52.5807 478.028 51.7874 477.776 51.1807 477.272C50.5741 476.768 50.2054 476.096 50.0747 475.256H51.3207C51.4421 475.788 51.6987 476.203 52.0907 476.502C52.4827 476.801 52.9774 476.95 53.5747 476.95C54.3121 476.95 54.8674 476.731 55.2407 476.292C55.6141 475.844 55.8007 475.256 55.8007 474.528C55.8007 473.8 55.6141 473.24 55.2407 472.848C54.8674 472.447 54.3167 472.246 53.5887 472.246C53.0941 472.246 52.6601 472.367 52.2867 472.61C51.9227 472.843 51.6567 473.165 51.4887 473.576H50.2847V467.864H56.3747V468.984Z" fill="#3A3A3A"/>
<path d="M95.714 476.978C96.8993 476.026 97.828 475.247 98.5 474.64C99.172 474.024 99.7367 473.385 100.194 472.722C100.661 472.05 100.894 471.392 100.894 470.748C100.894 470.141 100.745 469.665 100.446 469.32C100.157 468.965 99.6853 468.788 99.032 468.788C98.3973 468.788 97.9027 468.989 97.548 469.39C97.2027 469.782 97.016 470.309 96.988 470.972H95.756C95.7933 469.927 96.1107 469.119 96.708 468.55C97.3053 467.981 98.0753 467.696 99.018 467.696C99.9793 467.696 100.74 467.962 101.3 468.494C101.869 469.026 102.154 469.759 102.154 470.692C102.154 471.467 101.921 472.223 101.454 472.96C100.997 473.688 100.474 474.332 99.886 474.892C99.298 475.443 98.5467 476.087 97.632 476.824H102.448V477.888H95.714V476.978ZM109.563 470.286C109.357 469.25 108.718 468.732 107.645 468.732C106.814 468.732 106.193 469.054 105.783 469.698C105.372 470.333 105.171 471.383 105.181 472.848C105.395 472.363 105.75 471.985 106.245 471.714C106.749 471.434 107.309 471.294 107.925 471.294C108.886 471.294 109.651 471.593 110.221 472.19C110.799 472.787 111.089 473.613 111.089 474.668C111.089 475.303 110.963 475.872 110.711 476.376C110.468 476.88 110.095 477.281 109.591 477.58C109.096 477.879 108.494 478.028 107.785 478.028C106.823 478.028 106.072 477.813 105.531 477.384C104.989 476.955 104.611 476.362 104.397 475.606C104.182 474.85 104.075 473.917 104.075 472.806C104.075 469.381 105.269 467.668 107.659 467.668C108.573 467.668 109.292 467.915 109.815 468.41C110.337 468.905 110.645 469.53 110.739 470.286H109.563ZM107.659 472.372C107.257 472.372 106.879 472.456 106.525 472.624C106.17 472.783 105.881 473.03 105.657 473.366C105.442 473.693 105.335 474.094 105.335 474.57C105.335 475.279 105.54 475.858 105.951 476.306C106.361 476.745 106.949 476.964 107.715 476.964C108.368 476.964 108.886 476.763 109.269 476.362C109.661 475.951 109.857 475.401 109.857 474.71C109.857 473.982 109.67 473.413 109.297 473.002C108.923 472.582 108.377 472.372 107.659 472.372Z" fill="#3A3A3A"/>
<path d="M149.714 476.978C150.899 476.026 151.828 475.247 152.5 474.64C153.172 474.024 153.737 473.385 154.194 472.722C154.661 472.05 154.894 471.392 154.894 470.748C154.894 470.141 154.745 469.665 154.446 469.32C154.157 468.965 153.685 468.788 153.032 468.788C152.397 468.788 151.903 468.989 151.548 469.39C151.203 469.782 151.016 470.309 150.988 470.972H149.756C149.793 469.927 150.111 469.119 150.708 468.55C151.305 467.981 152.075 467.696 153.018 467.696C153.979 467.696 154.74 467.962 155.3 468.494C155.869 469.026 156.154 469.759 156.154 470.692C156.154 471.467 155.921 472.223 155.454 472.96C154.997 473.688 154.474 474.332 153.886 474.892C153.298 475.443 152.547 476.087 151.632 476.824H156.448V477.888H149.714V476.978ZM164.151 468.872L160.259 478H158.971L162.919 468.998H157.515V467.906H164.151V468.872Z" fill="#3A3A3A"/>
<path d="M202.714 476.978C203.899 476.026 204.828 475.247 205.5 474.64C206.172 474.024 206.737 473.385 207.194 472.722C207.661 472.05 207.894 471.392 207.894 470.748C207.894 470.141 207.745 469.665 207.446 469.32C207.157 468.965 206.685 468.788 206.032 468.788C205.397 468.788 204.903 468.989 204.548 469.39C204.203 469.782 204.016 470.309 203.988 470.972H202.756C202.793 469.927 203.111 469.119 203.708 468.55C204.305 467.981 205.075 467.696 206.018 467.696C206.979 467.696 207.74 467.962 208.3 468.494C208.869 469.026 209.154 469.759 209.154 470.692C209.154 471.467 208.921 472.223 208.454 472.96C207.997 473.688 207.474 474.332 206.886 474.892C206.298 475.443 205.547 476.087 204.632 476.824H209.448V477.888H202.714V476.978ZM212.769 472.736C212.246 472.531 211.845 472.232 211.565 471.84C211.285 471.448 211.145 470.972 211.145 470.412C211.145 469.908 211.271 469.455 211.523 469.054C211.775 468.643 212.148 468.321 212.643 468.088C213.147 467.845 213.753 467.724 214.463 467.724C215.172 467.724 215.774 467.845 216.269 468.088C216.773 468.321 217.151 468.643 217.403 469.054C217.664 469.455 217.795 469.908 217.795 470.412C217.795 470.953 217.65 471.429 217.361 471.84C217.071 472.241 216.675 472.54 216.171 472.736C216.749 472.913 217.207 473.226 217.543 473.674C217.888 474.113 218.061 474.645 218.061 475.27C218.061 475.877 217.911 476.409 217.613 476.866C217.314 477.314 216.889 477.664 216.339 477.916C215.797 478.159 215.172 478.28 214.463 478.28C213.753 478.28 213.128 478.159 212.587 477.916C212.055 477.664 211.639 477.314 211.341 476.866C211.042 476.409 210.893 475.877 210.893 475.27C210.893 474.645 211.061 474.108 211.397 473.66C211.733 473.212 212.19 472.904 212.769 472.736ZM216.563 470.566C216.563 469.997 216.376 469.558 216.003 469.25C215.629 468.942 215.116 468.788 214.463 468.788C213.819 468.788 213.31 468.942 212.937 469.25C212.563 469.558 212.377 470.001 212.377 470.58C212.377 471.103 212.568 471.523 212.951 471.84C213.343 472.157 213.847 472.316 214.463 472.316C215.088 472.316 215.592 472.157 215.975 471.84C216.367 471.513 216.563 471.089 216.563 470.566ZM214.463 473.296C213.772 473.296 213.207 473.459 212.769 473.786C212.33 474.103 212.111 474.584 212.111 475.228C212.111 475.825 212.321 476.306 212.741 476.67C213.17 477.034 213.744 477.216 214.463 477.216C215.181 477.216 215.751 477.034 216.171 476.67C216.591 476.306 216.801 475.825 216.801 475.228C216.801 474.603 216.586 474.127 216.157 473.8C215.727 473.464 215.163 473.296 214.463 473.296Z" fill="#3A3A3A"/>
<path d="M255.714 476.978C256.899 476.026 257.828 475.247 258.5 474.64C259.172 474.024 259.737 473.385 260.194 472.722C260.661 472.05 260.894 471.392 260.894 470.748C260.894 470.141 260.745 469.665 260.446 469.32C260.157 468.965 259.685 468.788 259.032 468.788C258.397 468.788 257.903 468.989 257.548 469.39C257.203 469.782 257.016 470.309 256.988 470.972H255.756C255.793 469.927 256.111 469.119 256.708 468.55C257.305 467.981 258.075 467.696 259.018 467.696C259.979 467.696 260.74 467.962 261.3 468.494C261.869 469.026 262.154 469.759 262.154 470.692C262.154 471.467 261.921 472.223 261.454 472.96C260.997 473.688 260.474 474.332 259.886 474.892C259.298 475.443 258.547 476.087 257.632 476.824H262.448V477.888H255.714V476.978ZM265.559 475.284C265.652 475.816 265.867 476.227 266.203 476.516C266.548 476.805 267.01 476.95 267.589 476.95C268.363 476.95 268.933 476.647 269.297 476.04C269.67 475.433 269.847 474.411 269.829 472.974C269.633 473.394 269.306 473.725 268.849 473.968C268.391 474.201 267.883 474.318 267.323 474.318C266.697 474.318 266.137 474.192 265.643 473.94C265.157 473.679 264.775 473.301 264.495 472.806C264.215 472.311 264.075 471.714 264.075 471.014C264.075 470.015 264.364 469.213 264.943 468.606C265.521 467.99 266.343 467.682 267.407 467.682C268.713 467.682 269.628 468.107 270.151 468.956C270.683 469.805 270.949 471.07 270.949 472.75C270.949 473.926 270.841 474.897 270.627 475.662C270.421 476.427 270.067 477.011 269.563 477.412C269.068 477.813 268.387 478.014 267.519 478.014C266.567 478.014 265.825 477.757 265.293 477.244C264.761 476.731 264.457 476.077 264.383 475.284H265.559ZM267.533 473.24C268.158 473.24 268.671 473.049 269.073 472.666C269.474 472.274 269.675 471.747 269.675 471.084C269.675 470.384 269.479 469.819 269.087 469.39C268.695 468.961 268.144 468.746 267.435 468.746C266.781 468.746 266.259 468.951 265.867 469.362C265.484 469.773 265.293 470.314 265.293 470.986C265.293 471.667 265.484 472.213 265.867 472.624C266.249 473.035 266.805 473.24 267.533 473.24Z" fill="#3A3A3A"/>
<path d="M306.322 470.426C306.388 469.567 306.719 468.895 307.316 468.41C307.914 467.925 308.688 467.682 309.64 467.682C310.275 467.682 310.821 467.799 311.278 468.032C311.745 468.256 312.095 468.564 312.328 468.956C312.571 469.348 312.692 469.791 312.692 470.286C312.692 470.865 312.524 471.364 312.188 471.784C311.862 472.204 311.432 472.475 310.9 472.596V472.666C311.507 472.815 311.988 473.109 312.342 473.548C312.697 473.987 312.874 474.561 312.874 475.27C312.874 475.802 312.753 476.283 312.51 476.712C312.268 477.132 311.904 477.463 311.418 477.706C310.933 477.949 310.35 478.07 309.668 478.07C308.679 478.07 307.867 477.813 307.232 477.3C306.598 476.777 306.243 476.04 306.168 475.088H307.4C307.466 475.648 307.694 476.105 308.086 476.46C308.478 476.815 309.001 476.992 309.654 476.992C310.308 476.992 310.802 476.824 311.138 476.488C311.484 476.143 311.656 475.699 311.656 475.158C311.656 474.458 311.423 473.954 310.956 473.646C310.49 473.338 309.785 473.184 308.842 473.184H308.52V472.12H308.856C309.715 472.111 310.364 471.971 310.802 471.7C311.241 471.42 311.46 470.991 311.46 470.412C311.46 469.917 311.297 469.521 310.97 469.222C310.653 468.923 310.196 468.774 309.598 468.774C309.02 468.774 308.553 468.923 308.198 469.222C307.844 469.521 307.634 469.922 307.568 470.426H306.322ZM314.595 472.834C314.595 471.229 314.856 469.978 315.379 469.082C315.901 468.177 316.816 467.724 318.123 467.724C319.42 467.724 320.33 468.177 320.853 469.082C321.375 469.978 321.637 471.229 321.637 472.834C321.637 474.467 321.375 475.737 320.853 476.642C320.33 477.547 319.42 478 318.123 478C316.816 478 315.901 477.547 315.379 476.642C314.856 475.737 314.595 474.467 314.595 472.834ZM320.377 472.834C320.377 472.022 320.321 471.336 320.209 470.776C320.106 470.207 319.887 469.749 319.551 469.404C319.224 469.059 318.748 468.886 318.123 468.886C317.488 468.886 317.003 469.059 316.667 469.404C316.34 469.749 316.121 470.207 316.009 470.776C315.906 471.336 315.855 472.022 315.855 472.834C315.855 473.674 315.906 474.379 316.009 474.948C316.121 475.517 316.34 475.975 316.667 476.32C317.003 476.665 317.488 476.838 318.123 476.838C318.748 476.838 319.224 476.665 319.551 476.32C319.887 475.975 320.106 475.517 320.209 474.948C320.321 474.379 320.377 473.674 320.377 472.834Z" fill="#3A3A3A"/>
<path d="M367.79 469.04V467.878H370.422V478H369.134V469.04H367.79Z" fill="#969696"/>
<circle cx="261" cy="306" r="19.25" stroke="#2C8ACE" stroke-width="1.5"/>
<rect x="28" y="554" width="19" height="5" rx="2.5" fill="#20A40B"/>
<path d="M63.596 551.242V561H62.322V556.576H57.352V561H56.078V551.242H57.352V555.526H62.322V551.242H63.596ZM69.1174 561.126C68.3987 561.126 67.7454 560.963 67.1574 560.636C66.5787 560.309 66.1214 559.847 65.7854 559.25C65.4587 558.643 65.2954 557.943 65.2954 557.15C65.2954 556.366 65.4634 555.675 65.7994 555.078C66.1447 554.471 66.6114 554.009 67.1994 553.692C67.7874 553.365 68.4454 553.202 69.1734 553.202C69.9014 553.202 70.5594 553.365 71.1474 553.692C71.7354 554.009 72.1974 554.467 72.5334 555.064C72.8787 555.661 73.0514 556.357 73.0514 557.15C73.0514 557.943 72.874 558.643 72.5194 559.25C72.174 559.847 71.7027 560.309 71.1054 560.636C70.508 560.963 69.8454 561.126 69.1174 561.126ZM69.1174 560.006C69.5747 560.006 70.004 559.899 70.4054 559.684C70.8067 559.469 71.1287 559.147 71.3714 558.718C71.6234 558.289 71.7494 557.766 71.7494 557.15C71.7494 556.534 71.628 556.011 71.3854 555.582C71.1427 555.153 70.8254 554.835 70.4334 554.63C70.0414 554.415 69.6167 554.308 69.1594 554.308C68.6927 554.308 68.2634 554.415 67.8714 554.63C67.4887 554.835 67.1807 555.153 66.9474 555.582C66.714 556.011 66.5974 556.534 66.5974 557.15C66.5974 557.775 66.7094 558.303 66.9334 558.732C67.1667 559.161 67.4747 559.483 67.8574 559.698C68.24 559.903 68.66 560.006 69.1174 560.006ZM76.0004 550.64V561H74.7264V550.64H76.0004ZM78.8298 552.082C78.5871 552.082 78.3818 551.998 78.2138 551.83C78.0458 551.662 77.9618 551.457 77.9618 551.214C77.9618 550.971 78.0458 550.766 78.2138 550.598C78.3818 550.43 78.5871 550.346 78.8298 550.346C79.0631 550.346 79.2591 550.43 79.4178 550.598C79.5858 550.766 79.6698 550.971 79.6698 551.214C79.6698 551.457 79.5858 551.662 79.4178 551.83C79.2591 551.998 79.0631 552.082 78.8298 552.082ZM79.4458 553.328V561H78.1718V553.328H79.4458ZM81.1411 557.136C81.1411 556.352 81.2997 555.666 81.6171 555.078C81.9344 554.481 82.3684 554.019 82.9191 553.692C83.4791 553.365 84.1044 553.202 84.7951 553.202C85.3924 553.202 85.9477 553.342 86.4611 553.622C86.9744 553.893 87.3664 554.252 87.6371 554.7V550.64H88.9251V561H87.6371V559.558C87.3851 560.015 87.0117 560.393 86.5171 560.692C86.0224 560.981 85.4437 561.126 84.7811 561.126C84.0997 561.126 83.4791 560.958 82.9191 560.622C82.3684 560.286 81.9344 559.815 81.6171 559.208C81.2997 558.601 81.1411 557.911 81.1411 557.136ZM87.6371 557.15C87.6371 556.571 87.5204 556.067 87.2871 555.638C87.0537 555.209 86.7364 554.882 86.3351 554.658C85.9431 554.425 85.5091 554.308 85.0331 554.308C84.5571 554.308 84.1231 554.42 83.7311 554.644C83.3391 554.868 83.0264 555.195 82.7931 555.624C82.5597 556.053 82.4431 556.557 82.4431 557.136C82.4431 557.724 82.5597 558.237 82.7931 558.676C83.0264 559.105 83.3391 559.437 83.7311 559.67C84.1231 559.894 84.5571 560.006 85.0331 560.006C85.5091 560.006 85.9431 559.894 86.3351 559.67C86.7364 559.437 87.0537 559.105 87.2871 558.676C87.5204 558.237 87.6371 557.729 87.6371 557.15ZM90.602 557.136C90.602 556.352 90.7607 555.666 91.078 555.078C91.3953 554.481 91.8293 554.019 92.38 553.692C92.94 553.365 93.5607 553.202 94.242 553.202C94.914 553.202 95.4973 553.347 95.992 553.636C96.4867 553.925 96.8553 554.289 97.098 554.728V553.328H98.386V561H97.098V559.572C96.846 560.02 96.468 560.393 95.964 560.692C95.4693 560.981 94.8907 561.126 94.228 561.126C93.5467 561.126 92.9307 560.958 92.38 560.622C91.8293 560.286 91.3953 559.815 91.078 559.208C90.7607 558.601 90.602 557.911 90.602 557.136ZM97.098 557.15C97.098 556.571 96.9813 556.067 96.748 555.638C96.5147 555.209 96.1973 554.882 95.796 554.658C95.404 554.425 94.97 554.308 94.494 554.308C94.018 554.308 93.584 554.42 93.192 554.644C92.8 554.868 92.4873 555.195 92.254 555.624C92.0207 556.053 91.904 556.557 91.904 557.136C91.904 557.724 92.0207 558.237 92.254 558.676C92.4873 559.105 92.8 559.437 93.192 559.67C93.584 559.894 94.018 560.006 94.494 560.006C94.97 560.006 95.404 559.894 95.796 559.67C96.1973 559.437 96.5147 559.105 96.748 558.676C96.9813 558.237 97.098 557.729 97.098 557.15ZM107.147 553.328L102.527 564.612H101.211L102.723 560.916L99.6289 553.328H101.043L103.451 559.544L105.831 553.328H107.147Z" fill="#3A3A3A"/>
<rect x="138" y="554" width="19" height="5" rx="2.5" fill="#27C7D2"/>
<path d="M165.602 556.114C165.602 555.162 165.817 554.308 166.246 553.552C166.675 552.787 167.259 552.189 167.996 551.76C168.743 551.331 169.569 551.116 170.474 551.116C171.538 551.116 172.467 551.373 173.26 551.886C174.053 552.399 174.632 553.127 174.996 554.07H173.47C173.199 553.482 172.807 553.029 172.294 552.712C171.79 552.395 171.183 552.236 170.474 552.236C169.793 552.236 169.181 552.395 168.64 552.712C168.099 553.029 167.674 553.482 167.366 554.07C167.058 554.649 166.904 555.33 166.904 556.114C166.904 556.889 167.058 557.57 167.366 558.158C167.674 558.737 168.099 559.185 168.64 559.502C169.181 559.819 169.793 559.978 170.474 559.978C171.183 559.978 171.79 559.824 172.294 559.516C172.807 559.199 173.199 558.746 173.47 558.158H174.996C174.632 559.091 174.053 559.815 173.26 560.328C172.467 560.832 171.538 561.084 170.474 561.084C169.569 561.084 168.743 560.874 167.996 560.454C167.259 560.025 166.675 559.432 166.246 558.676C165.817 557.92 165.602 557.066 165.602 556.114ZM176.416 557.136C176.416 556.352 176.575 555.666 176.892 555.078C177.21 554.481 177.644 554.019 178.194 553.692C178.754 553.365 179.375 553.202 180.056 553.202C180.728 553.202 181.312 553.347 181.806 553.636C182.301 553.925 182.67 554.289 182.912 554.728V553.328H184.2V561H182.912V559.572C182.66 560.02 182.282 560.393 181.778 560.692C181.284 560.981 180.705 561.126 180.042 561.126C179.361 561.126 178.745 560.958 178.194 560.622C177.644 560.286 177.21 559.815 176.892 559.208C176.575 558.601 176.416 557.911 176.416 557.136ZM182.912 557.15C182.912 556.571 182.796 556.067 182.562 555.638C182.329 555.209 182.012 554.882 181.61 554.658C181.218 554.425 180.784 554.308 180.308 554.308C179.832 554.308 179.398 554.42 179.006 554.644C178.614 554.868 178.302 555.195 178.068 555.624C177.835 556.053 177.718 556.557 177.718 557.136C177.718 557.724 177.835 558.237 178.068 558.676C178.302 559.105 178.614 559.437 179.006 559.67C179.398 559.894 179.832 560.006 180.308 560.006C180.784 560.006 181.218 559.894 181.61 559.67C182.012 559.437 182.329 559.105 182.562 558.676C182.796 558.237 182.912 557.729 182.912 557.15ZM189.069 561.126C188.481 561.126 187.954 561.028 187.487 560.832C187.021 560.627 186.652 560.347 186.381 559.992C186.111 559.628 185.961 559.213 185.933 558.746H187.249C187.287 559.129 187.464 559.441 187.781 559.684C188.108 559.927 188.533 560.048 189.055 560.048C189.541 560.048 189.923 559.941 190.203 559.726C190.483 559.511 190.623 559.241 190.623 558.914C190.623 558.578 190.474 558.331 190.175 558.172C189.877 558.004 189.415 557.841 188.789 557.682C188.22 557.533 187.753 557.383 187.389 557.234C187.035 557.075 186.727 556.847 186.465 556.548C186.213 556.24 186.087 555.839 186.087 555.344C186.087 554.952 186.204 554.593 186.437 554.266C186.671 553.939 187.002 553.683 187.431 553.496C187.861 553.3 188.351 553.202 188.901 553.202C189.751 553.202 190.437 553.417 190.959 553.846C191.482 554.275 191.762 554.863 191.799 555.61H190.525C190.497 555.209 190.334 554.887 190.035 554.644C189.746 554.401 189.354 554.28 188.859 554.28C188.402 554.28 188.038 554.378 187.767 554.574C187.497 554.77 187.361 555.027 187.361 555.344C187.361 555.596 187.441 555.806 187.599 555.974C187.767 556.133 187.973 556.263 188.215 556.366C188.467 556.459 188.813 556.567 189.251 556.688C189.802 556.837 190.25 556.987 190.595 557.136C190.941 557.276 191.235 557.491 191.477 557.78C191.729 558.069 191.86 558.447 191.869 558.914C191.869 559.334 191.753 559.712 191.519 560.048C191.286 560.384 190.955 560.65 190.525 560.846C190.105 561.033 189.62 561.126 189.069 561.126ZM200.472 553.328V561H199.198V559.866C198.955 560.258 198.615 560.566 198.176 560.79C197.747 561.005 197.271 561.112 196.748 561.112C196.151 561.112 195.614 560.991 195.138 560.748C194.662 560.496 194.284 560.123 194.004 559.628C193.733 559.133 193.598 558.531 193.598 557.822V553.328H194.858V557.654C194.858 558.41 195.049 558.993 195.432 559.404C195.815 559.805 196.337 560.006 197 560.006C197.681 560.006 198.218 559.796 198.61 559.376C199.002 558.956 199.198 558.345 199.198 557.542V553.328H200.472ZM202.147 557.136C202.147 556.352 202.306 555.666 202.623 555.078C202.94 554.481 203.374 554.019 203.925 553.692C204.485 553.365 205.106 553.202 205.787 553.202C206.459 553.202 207.042 553.347 207.537 553.636C208.032 553.925 208.4 554.289 208.643 554.728V553.328H209.931V561H208.643V559.572C208.391 560.02 208.013 560.393 207.509 560.692C207.014 560.981 206.436 561.126 205.773 561.126C205.092 561.126 204.476 560.958 203.925 560.622C203.374 560.286 202.94 559.815 202.623 559.208C202.306 558.601 202.147 557.911 202.147 557.136ZM208.643 557.15C208.643 556.571 208.526 556.067 208.293 555.638C208.06 555.209 207.742 554.882 207.341 554.658C206.949 554.425 206.515 554.308 206.039 554.308C205.563 554.308 205.129 554.42 204.737 554.644C204.345 554.868 204.032 555.195 203.799 555.624C203.566 556.053 203.449 556.557 203.449 557.136C203.449 557.724 203.566 558.237 203.799 558.676C204.032 559.105 204.345 559.437 204.737 559.67C205.129 559.894 205.563 560.006 206.039 560.006C206.515 560.006 206.949 559.894 207.341 559.67C207.742 559.437 208.06 559.105 208.293 558.676C208.526 558.237 208.643 557.729 208.643 557.15ZM213.358 550.64V561H212.084V550.64H213.358ZM220.536 559.964H223.952V561H219.262V551.242H220.536V559.964ZM232.305 556.87C232.305 557.113 232.291 557.369 232.263 557.64H226.131C226.177 558.396 226.434 558.989 226.901 559.418C227.377 559.838 227.951 560.048 228.623 560.048C229.173 560.048 229.631 559.922 229.995 559.67C230.368 559.409 230.629 559.063 230.779 558.634H232.151C231.945 559.371 231.535 559.973 230.919 560.44C230.303 560.897 229.537 561.126 228.623 561.126C227.895 561.126 227.241 560.963 226.663 560.636C226.093 560.309 225.645 559.847 225.319 559.25C224.992 558.643 224.829 557.943 224.829 557.15C224.829 556.357 224.987 555.661 225.305 555.064C225.622 554.467 226.065 554.009 226.635 553.692C227.213 553.365 227.876 553.202 228.623 553.202C229.351 553.202 229.995 553.361 230.555 553.678C231.115 553.995 231.544 554.434 231.843 554.994C232.151 555.545 232.305 556.17 232.305 556.87ZM230.989 556.604C230.989 556.119 230.881 555.703 230.667 555.358C230.452 555.003 230.158 554.737 229.785 554.56C229.421 554.373 229.015 554.28 228.567 554.28C227.923 554.28 227.372 554.485 226.915 554.896C226.467 555.307 226.21 555.876 226.145 556.604H230.989ZM233.51 557.136C233.51 556.352 233.669 555.666 233.986 555.078C234.304 554.481 234.738 554.019 235.288 553.692C235.848 553.365 236.469 553.202 237.15 553.202C237.822 553.202 238.406 553.347 238.9 553.636C239.395 553.925 239.764 554.289 240.006 554.728V553.328H241.294V561H240.006V559.572C239.754 560.02 239.376 560.393 238.872 560.692C238.378 560.981 237.799 561.126 237.136 561.126C236.455 561.126 235.839 560.958 235.288 560.622C234.738 560.286 234.304 559.815 233.986 559.208C233.669 558.601 233.51 557.911 233.51 557.136ZM240.006 557.15C240.006 556.571 239.89 556.067 239.656 555.638C239.423 555.209 239.106 554.882 238.704 554.658C238.312 554.425 237.878 554.308 237.402 554.308C236.926 554.308 236.492 554.42 236.1 554.644C235.708 554.868 235.396 555.195 235.162 555.624C234.929 556.053 234.812 556.557 234.812 557.136C234.812 557.724 234.929 558.237 235.162 558.676C235.396 559.105 235.708 559.437 236.1 559.67C236.492 559.894 236.926 560.006 237.402 560.006C237.878 560.006 238.312 559.894 238.704 559.67C239.106 559.437 239.423 559.105 239.656 558.676C239.89 558.237 240.006 557.729 240.006 557.15ZM246.303 559.824L248.683 553.328H250.041L247.031 561H245.547L242.537 553.328H243.909L246.303 559.824ZM258.295 556.87C258.295 557.113 258.281 557.369 258.253 557.64H252.121C252.167 558.396 252.424 558.989 252.891 559.418C253.367 559.838 253.941 560.048 254.613 560.048C255.163 560.048 255.621 559.922 255.985 559.67C256.358 559.409 256.619 559.063 256.769 558.634H258.141C257.935 559.371 257.525 559.973 256.909 560.44C256.293 560.897 255.527 561.126 254.613 561.126C253.885 561.126 253.231 560.963 252.653 560.636C252.083 560.309 251.635 559.847 251.309 559.25C250.982 558.643 250.819 557.943 250.819 557.15C250.819 556.357 250.977 555.661 251.295 555.064C251.612 554.467 252.055 554.009 252.625 553.692C253.203 553.365 253.866 553.202 254.613 553.202C255.341 553.202 255.985 553.361 256.545 553.678C257.105 553.995 257.534 554.434 257.833 554.994C258.141 555.545 258.295 556.17 258.295 556.87ZM256.979 556.604C256.979 556.119 256.871 555.703 256.657 555.358C256.442 555.003 256.148 554.737 255.775 554.56C255.411 554.373 255.005 554.28 254.557 554.28C253.913 554.28 253.362 554.485 252.905 554.896C252.457 555.307 252.2 555.876 252.135 556.604H256.979Z" fill="#3A3A3A"/>
<rect x="282" y="554" width="19" height="5" rx="2.5" fill="#D25A27"/>
<path d="M313.172 561.098C312.528 561.098 311.949 560.986 311.436 560.762C310.932 560.529 310.535 560.211 310.246 559.81C309.957 559.399 309.807 558.928 309.798 558.396H311.156C311.203 558.853 311.389 559.241 311.716 559.558C312.052 559.866 312.537 560.02 313.172 560.02C313.779 560.02 314.255 559.871 314.6 559.572C314.955 559.264 315.132 558.872 315.132 558.396C315.132 558.023 315.029 557.719 314.824 557.486C314.619 557.253 314.362 557.075 314.054 556.954C313.746 556.833 313.331 556.702 312.808 556.562C312.164 556.394 311.646 556.226 311.254 556.058C310.871 555.89 310.54 555.629 310.26 555.274C309.989 554.91 309.854 554.425 309.854 553.818C309.854 553.286 309.989 552.815 310.26 552.404C310.531 551.993 310.909 551.676 311.394 551.452C311.889 551.228 312.453 551.116 313.088 551.116C314.003 551.116 314.749 551.345 315.328 551.802C315.916 552.259 316.247 552.866 316.322 553.622H314.922C314.875 553.249 314.679 552.922 314.334 552.642C313.989 552.353 313.531 552.208 312.962 552.208C312.43 552.208 311.996 552.348 311.66 552.628C311.324 552.899 311.156 553.281 311.156 553.776C311.156 554.131 311.254 554.42 311.45 554.644C311.655 554.868 311.903 555.041 312.192 555.162C312.491 555.274 312.906 555.405 313.438 555.554C314.082 555.731 314.6 555.909 314.992 556.086C315.384 556.254 315.72 556.52 316 556.884C316.28 557.239 316.42 557.724 316.42 558.34C316.42 558.816 316.294 559.264 316.042 559.684C315.79 560.104 315.417 560.445 314.922 560.706C314.427 560.967 313.844 561.098 313.172 561.098ZM318.953 552.082C318.71 552.082 318.505 551.998 318.337 551.83C318.169 551.662 318.085 551.457 318.085 551.214C318.085 550.971 318.169 550.766 318.337 550.598C318.505 550.43 318.71 550.346 318.953 550.346C319.186 550.346 319.382 550.43 319.541 550.598C319.709 550.766 319.793 550.971 319.793 551.214C319.793 551.457 319.709 551.662 319.541 551.83C319.382 551.998 319.186 552.082 318.953 552.082ZM319.569 553.328V561H318.295V553.328H319.569ZM321.264 557.15C321.264 556.357 321.423 555.666 321.74 555.078C322.057 554.481 322.496 554.019 323.056 553.692C323.625 553.365 324.274 553.202 325.002 553.202C325.945 553.202 326.719 553.431 327.326 553.888C327.942 554.345 328.348 554.98 328.544 555.792H327.172C327.041 555.325 326.785 554.957 326.402 554.686C326.029 554.415 325.562 554.28 325.002 554.28C324.274 554.28 323.686 554.532 323.238 555.036C322.79 555.531 322.566 556.235 322.566 557.15C322.566 558.074 322.79 558.788 323.238 559.292C323.686 559.796 324.274 560.048 325.002 560.048C325.562 560.048 326.029 559.917 326.402 559.656C326.775 559.395 327.032 559.021 327.172 558.536H328.544C328.339 559.32 327.928 559.95 327.312 560.426C326.696 560.893 325.926 561.126 325.002 561.126C324.274 561.126 323.625 560.963 323.056 560.636C322.496 560.309 322.057 559.847 321.74 559.25C321.423 558.653 321.264 557.953 321.264 557.15ZM334.528 561L331.518 557.612V561H330.244V550.64H331.518V556.73L334.472 553.328H336.25L332.638 557.15L336.264 561H334.528ZM342.456 559.964H345.872V561H341.182V551.242H342.456V559.964ZM354.224 556.87C354.224 557.113 354.21 557.369 354.182 557.64H348.05C348.097 558.396 348.354 558.989 348.82 559.418C349.296 559.838 349.87 560.048 350.542 560.048C351.093 560.048 351.55 559.922 351.914 559.67C352.288 559.409 352.549 559.063 352.698 558.634H354.07C353.865 559.371 353.454 559.973 352.838 560.44C352.222 560.897 351.457 561.126 350.542 561.126C349.814 561.126 349.161 560.963 348.582 560.636C348.013 560.309 347.565 559.847 347.238 559.25C346.912 558.643 346.748 557.943 346.748 557.15C346.748 556.357 346.907 555.661 347.224 555.064C347.542 554.467 347.985 554.009 348.554 553.692C349.133 553.365 349.796 553.202 350.542 553.202C351.27 553.202 351.914 553.361 352.474 553.678C353.034 553.995 353.464 554.434 353.762 554.994C354.07 555.545 354.224 556.17 354.224 556.87ZM352.908 556.604C352.908 556.119 352.801 555.703 352.586 555.358C352.372 555.003 352.078 554.737 351.704 554.56C351.34 554.373 350.934 554.28 350.486 554.28C349.842 554.28 349.292 554.485 348.834 554.896C348.386 555.307 348.13 555.876 348.064 556.604H352.908ZM355.43 557.136C355.43 556.352 355.589 555.666 355.906 555.078C356.223 554.481 356.657 554.019 357.208 553.692C357.768 553.365 358.389 553.202 359.07 553.202C359.742 553.202 360.325 553.347 360.82 553.636C361.315 553.925 361.683 554.289 361.926 554.728V553.328H363.214V561H361.926V559.572C361.674 560.02 361.296 560.393 360.792 560.692C360.297 560.981 359.719 561.126 359.056 561.126C358.375 561.126 357.759 560.958 357.208 560.622C356.657 560.286 356.223 559.815 355.906 559.208C355.589 558.601 355.43 557.911 355.43 557.136ZM361.926 557.15C361.926 556.571 361.809 556.067 361.576 555.638C361.343 555.209 361.025 554.882 360.624 554.658C360.232 554.425 359.798 554.308 359.322 554.308C358.846 554.308 358.412 554.42 358.02 554.644C357.628 554.868 357.315 555.195 357.082 555.624C356.849 556.053 356.732 556.557 356.732 557.136C356.732 557.724 356.849 558.237 357.082 558.676C357.315 559.105 357.628 559.437 358.02 559.67C358.412 559.894 358.846 560.006 359.322 560.006C359.798 560.006 360.232 559.894 360.624 559.67C361.025 559.437 361.343 559.105 361.576 558.676C361.809 558.237 361.926 557.729 361.926 557.15ZM368.223 559.824L370.603 553.328H371.961L368.951 561H367.467L364.457 553.328H365.829L368.223 559.824ZM380.215 556.87C380.215 557.113 380.201 557.369 380.173 557.64H374.041C374.087 558.396 374.344 558.989 374.811 559.418C375.287 559.838 375.861 560.048 376.533 560.048C377.083 560.048 377.541 559.922 377.905 559.67C378.278 559.409 378.539 559.063 378.689 558.634H380.061C379.855 559.371 379.445 559.973 378.829 560.44C378.213 560.897 377.447 561.126 376.533 561.126C375.805 561.126 375.151 560.963 374.573 560.636C374.003 560.309 373.555 559.847 373.229 559.25C372.902 558.643 372.739 557.943 372.739 557.15C372.739 556.357 372.897 555.661 373.215 555.064C373.532 554.467 373.975 554.009 374.545 553.692C375.123 553.365 375.786 553.202 376.533 553.202C377.261 553.202 377.905 553.361 378.465 553.678C379.025 553.995 379.454 554.434 379.753 554.994C380.061 555.545 380.215 556.17 380.215 556.87ZM378.899 556.604C378.899 556.119 378.791 555.703 378.577 555.358C378.362 555.003 378.068 554.737 377.695 554.56C377.331 554.373 376.925 554.28 376.477 554.28C375.833 554.28 375.282 554.485 374.825 554.896C374.377 555.307 374.12 555.876 374.055 556.604H378.899Z" fill="#3A3A3A"/>
<rect x="27" y="593" width="19" height="5" rx="2.5" fill="#274CD2"/>
<path d="M56.352 591.278V594.54H59.908V595.59H56.352V598.95H60.328V600H55.078V590.228H60.328V591.278H56.352ZM61.7797 596.136C61.7797 595.352 61.9384 594.666 62.2557 594.078C62.5731 593.481 63.0071 593.019 63.5577 592.692C64.1177 592.365 64.7384 592.202 65.4197 592.202C66.0917 592.202 66.6751 592.347 67.1697 592.636C67.6644 592.925 68.0331 593.289 68.2757 593.728V592.328H69.5637V600H68.2757V598.572C68.0237 599.02 67.6457 599.393 67.1417 599.692C66.6471 599.981 66.0684 600.126 65.4057 600.126C64.7244 600.126 64.1084 599.958 63.5577 599.622C63.0071 599.286 62.5731 598.815 62.2557 598.208C61.9384 597.601 61.7797 596.911 61.7797 596.136ZM68.2757 596.15C68.2757 595.571 68.1591 595.067 67.9257 594.638C67.6924 594.209 67.3751 593.882 66.9737 593.658C66.5817 593.425 66.1477 593.308 65.6717 593.308C65.1957 593.308 64.7617 593.42 64.3697 593.644C63.9777 593.868 63.6651 594.195 63.4317 594.624C63.1984 595.053 63.0817 595.557 63.0817 596.136C63.0817 596.724 63.1984 597.237 63.4317 597.676C63.6651 598.105 63.9777 598.437 64.3697 598.67C64.7617 598.894 65.1957 599.006 65.6717 599.006C66.1477 599.006 66.5817 598.894 66.9737 598.67C67.3751 598.437 67.6924 598.105 67.9257 597.676C68.1591 597.237 68.2757 596.729 68.2757 596.15ZM72.9907 593.574C73.2147 593.135 73.532 592.795 73.9427 592.552C74.3627 592.309 74.8713 592.188 75.4687 592.188V593.504H75.1327C73.7047 593.504 72.9907 594.279 72.9907 595.828V600H71.7167V592.328H72.9907V593.574ZM80.6773 592.188C81.6107 592.188 82.3667 592.473 82.9453 593.042C83.524 593.602 83.8133 594.414 83.8133 595.478V600H82.5533V595.66C82.5533 594.895 82.362 594.311 81.9793 593.91C81.5967 593.499 81.074 593.294 80.4113 593.294C79.7393 593.294 79.2027 593.504 78.8013 593.924C78.4093 594.344 78.2133 594.955 78.2133 595.758V600H76.9393V592.328H78.2133V593.42C78.4653 593.028 78.806 592.725 79.2353 592.51C79.674 592.295 80.1547 592.188 80.6773 592.188ZM92.8944 595.87C92.8944 596.113 92.8804 596.369 92.8524 596.64H86.7204C86.7671 597.396 87.0237 597.989 87.4904 598.418C87.9664 598.838 88.5404 599.048 89.2124 599.048C89.7631 599.048 90.2204 598.922 90.5844 598.67C90.9577 598.409 91.2191 598.063 91.3684 597.634H92.7404C92.5351 598.371 92.1244 598.973 91.5084 599.44C90.8924 599.897 90.1271 600.126 89.2124 600.126C88.4844 600.126 87.8311 599.963 87.2524 599.636C86.6831 599.309 86.2351 598.847 85.9084 598.25C85.5817 597.643 85.4184 596.943 85.4184 596.15C85.4184 595.357 85.5771 594.661 85.8944 594.064C86.2117 593.467 86.6551 593.009 87.2244 592.692C87.8031 592.365 88.4657 592.202 89.2124 592.202C89.9404 592.202 90.5844 592.361 91.1444 592.678C91.7044 592.995 92.1337 593.434 92.4324 593.994C92.7404 594.545 92.8944 595.17 92.8944 595.87ZM91.5784 595.604C91.5784 595.119 91.4711 594.703 91.2564 594.358C91.0417 594.003 90.7477 593.737 90.3744 593.56C90.0104 593.373 89.6044 593.28 89.1564 593.28C88.5124 593.28 87.9617 593.485 87.5044 593.896C87.0564 594.307 86.7997 594.876 86.7344 595.604H91.5784ZM94.1 596.136C94.1 595.352 94.2587 594.666 94.576 594.078C94.8934 593.481 95.3274 593.019 95.878 592.692C96.438 592.365 97.0634 592.202 97.754 592.202C98.3514 592.202 98.9067 592.342 99.42 592.622C99.9334 592.893 100.325 593.252 100.596 593.7V589.64H101.884V600H100.596V598.558C100.344 599.015 99.9707 599.393 99.476 599.692C98.9814 599.981 98.4027 600.126 97.74 600.126C97.0587 600.126 96.438 599.958 95.878 599.622C95.3274 599.286 94.8934 598.815 94.576 598.208C94.2587 597.601 94.1 596.911 94.1 596.136ZM100.596 596.15C100.596 595.571 100.479 595.067 100.246 594.638C100.013 594.209 99.6954 593.882 99.294 593.658C98.902 593.425 98.468 593.308 97.992 593.308C97.516 593.308 97.082 593.42 96.69 593.644C96.298 593.868 95.9854 594.195 95.752 594.624C95.5187 595.053 95.402 595.557 95.402 596.136C95.402 596.724 95.5187 597.237 95.752 597.676C95.9854 598.105 96.298 598.437 96.69 598.67C97.082 598.894 97.516 599.006 97.992 599.006C98.468 599.006 98.902 598.894 99.294 598.67C99.6954 598.437 100.013 598.105 100.246 597.676C100.479 597.237 100.596 596.729 100.596 596.15ZM109.043 598.964H112.459V600H107.769V590.242H109.043V598.964ZM120.812 595.87C120.812 596.113 120.798 596.369 120.77 596.64H114.638C114.685 597.396 114.942 597.989 115.408 598.418C115.884 598.838 116.458 599.048 117.13 599.048C117.681 599.048 118.138 598.922 118.502 598.67C118.876 598.409 119.137 598.063 119.286 597.634H120.658C120.453 598.371 120.042 598.973 119.426 599.44C118.81 599.897 118.045 600.126 117.13 600.126C116.402 600.126 115.749 599.963 115.17 599.636C114.601 599.309 114.153 598.847 113.826 598.25C113.5 597.643 113.336 596.943 113.336 596.15C113.336 595.357 113.495 594.661 113.812 594.064C114.13 593.467 114.573 593.009 115.142 592.692C115.721 592.365 116.384 592.202 117.13 592.202C117.858 592.202 118.502 592.361 119.062 592.678C119.622 592.995 120.052 593.434 120.35 593.994C120.658 594.545 120.812 595.17 120.812 595.87ZM119.496 595.604C119.496 595.119 119.389 594.703 119.174 594.358C118.96 594.003 118.666 593.737 118.292 593.56C117.928 593.373 117.522 593.28 117.074 593.28C116.43 593.28 115.88 593.485 115.422 593.896C114.974 594.307 114.718 594.876 114.652 595.604H119.496ZM122.018 596.136C122.018 595.352 122.177 594.666 122.494 594.078C122.811 593.481 123.245 593.019 123.796 592.692C124.356 592.365 124.977 592.202 125.658 592.202C126.33 592.202 126.913 592.347 127.408 592.636C127.903 592.925 128.271 593.289 128.514 593.728V592.328H129.802V600H128.514V598.572C128.262 599.02 127.884 599.393 127.38 599.692C126.885 599.981 126.307 600.126 125.644 600.126C124.963 600.126 124.347 599.958 123.796 599.622C123.245 599.286 122.811 598.815 122.494 598.208C122.177 597.601 122.018 596.911 122.018 596.136ZM128.514 596.15C128.514 595.571 128.397 595.067 128.164 594.638C127.931 594.209 127.613 593.882 127.212 593.658C126.82 593.425 126.386 593.308 125.91 593.308C125.434 593.308 125 593.42 124.608 593.644C124.216 593.868 123.903 594.195 123.67 594.624C123.437 595.053 123.32 595.557 123.32 596.136C123.32 596.724 123.437 597.237 123.67 597.676C123.903 598.105 124.216 598.437 124.608 598.67C125 598.894 125.434 599.006 125.91 599.006C126.386 599.006 126.82 598.894 127.212 598.67C127.613 598.437 127.931 598.105 128.164 597.676C128.397 597.237 128.514 596.729 128.514 596.15ZM134.811 598.824L137.191 592.328H138.549L135.539 600H134.055L131.045 592.328H132.417L134.811 598.824ZM146.803 595.87C146.803 596.113 146.789 596.369 146.761 596.64H140.629C140.675 597.396 140.932 597.989 141.399 598.418C141.875 598.838 142.449 599.048 143.121 599.048C143.671 599.048 144.129 598.922 144.493 598.67C144.866 598.409 145.127 598.063 145.277 597.634H146.649C146.443 598.371 146.033 598.973 145.417 599.44C144.801 599.897 144.035 600.126 143.121 600.126C142.393 600.126 141.739 599.963 141.161 599.636C140.591 599.309 140.143 598.847 139.817 598.25C139.49 597.643 139.327 596.943 139.327 596.15C139.327 595.357 139.485 594.661 139.803 594.064C140.12 593.467 140.563 593.009 141.133 592.692C141.711 592.365 142.374 592.202 143.121 592.202C143.849 592.202 144.493 592.361 145.053 592.678C145.613 592.995 146.042 593.434 146.341 593.994C146.649 594.545 146.803 595.17 146.803 595.87ZM145.487 595.604C145.487 595.119 145.379 594.703 145.165 594.358C144.95 594.003 144.656 593.737 144.283 593.56C143.919 593.373 143.513 593.28 143.065 593.28C142.421 593.28 141.87 593.485 141.413 593.896C140.965 594.307 140.708 594.876 140.643 595.604H145.487Z" fill="#3A3A3A"/>
<defs>
<filter id="filter0_d_324_4122" x="0" y="0" width="424" height="641" filterUnits="userSpaceOnUse" color-interpolation-filters="sRGB">
<feFlood flood-opacity="0" result="BackgroundImageFix"/>
<feColorMatrix in="SourceAlpha" type="matrix" values="0 0 0 0 0 0 0 0 0 0 0 0 0 0 0 0 0 0 127 0" result="hardAlpha"/>
<feOffset dy="2"/>
<feGaussianBlur stdDeviation="3.5"/>
<feComposite in2="hardAlpha" operator="out"/>
<feColorMatrix type="matrix" values="0 0 0 0 0 0 0 0 0 0 0 0 0 0 0 0 0 0 0.1 0"/>
<feBlend mode="normal" in2="BackgroundImageFix" result="effect1_dropShadow_324_4122"/>
<feBlend mode="normal" in="SourceGraphic" in2="effect1_dropShadow_324_4122" result="shape"/>
</filter>
<filter id="filter1_d_324_4122" x="0" y="0" width="424" height="69" filterUnits="userSpaceOnUse" color-interpolation-filters="sRGB">
<feFlood flood-opacity="0" result="BackgroundImageFix"/>
<feColorMatrix in="SourceAlpha" type="matrix" values="0 0 0 0 0 0 0 0 0 0 0 0 0 0 0 0 0 0 127 0" result="hardAlpha"/>
<feOffset dy="2"/>
<feGaussianBlur stdDeviation="3.5"/>
<feComposite in2="hardAlpha" operator="out"/>
<feColorMatrix type="matrix" values="0 0 0 0 0 0 0 0 0 0 0 0 0 0 0 0 0 0 0.1 0"/>
<feBlend mode="normal" in2="BackgroundImageFix" result="effect1_dropShadow_324_4122"/>
<feBlend mode="normal" in="SourceGraphic" in2="effect1_dropShadow_324_4122" result="shape"/>
</filter>
</defs>
</svg>
