<svg xmlns="http://www.w3.org/2000/svg" width="24" height="24" viewBox="0 0 24 24">
  <g id="Group_10666" data-name="Group 10666" transform="translate(5463 5453)">
    <rect id="Rectangle_4426" data-name="Rectangle 4426" width="24" height="24" transform="translate(-5463 -5453)" fill="#fff" opacity="0"/>
    <path id="angle-left" d="M9.113,7.013a.475.475,0,0,1-.15.346L3.056,13.266l5.907,5.907a.473.473,0,0,1,0,.692l-.751.751a.473.473,0,0,1-.692,0l-7-7a.473.473,0,0,1,0-.692l7-7a.473.473,0,0,1,.692,0l.751.751a.475.475,0,0,1,.15.346Z" transform="translate(-5455.366 -5453.766)"/>
  </g>
</svg>
