<svg xmlns="http://www.w3.org/2000/svg" width="24.378" height="24.378" viewBox="0 0 24.378 24.378">
  <g id="Link" transform="translate(0.05 0.05)">
    <!-- Link icon -->
    <g id="Group_11006" data-name="Group 11006" transform="translate(4 3)">
      <path id="Path_9056" data-name="Path 9056" d="M7.42,3.324,9.379,1.365a4.586,4.586,0,0,1,6.53,0h0A4.533,4.533,0,0,1,17.274,4.63a4.669,4.669,0,0,1-1.365,3.324L13.949,9.913m-3.562,3.562L7.895,15.968A4.533,4.533,0,0,1,4.63,17.333a4.308,4.308,0,0,1-3.265-1.365h0A4.569,4.569,0,0,1,0,12.644,4.634,4.634,0,0,1,1.365,9.379L3.858,6.886m9.2-2.552L5.046,12.347" transform="translate(0)" fill="none" stroke="#002e6e" stroke-linecap="round" stroke-linejoin="round" stroke-width="1.5" />
    </g>
  </g>
</svg>
