<svg width="314" height="199" viewBox="0 0 314 199" fill="none" xmlns="http://www.w3.org/2000/svg">
<g opacity="0.5" filter="url(#filter0_d_273_3901)">
<rect x="7" y="5" width="300" height="185" rx="10" fill="white"/>
<rect x="7.5" y="5.5" width="299" height="184" rx="9.5" stroke="#2C8ACE"/>
</g>
<path d="M96.5362 70.544H86.1682V76.016C86.6162 75.4613 87.2562 75.0133 88.0882 74.672C88.9202 74.3093 89.8055 74.128 90.7442 74.128C92.4508 74.128 93.8482 74.5013 94.9362 75.248C96.0242 75.9947 96.8135 76.9547 97.3042 78.128C97.7948 79.28 98.0402 80.5173 98.0402 81.84C98.0402 84.2933 97.3362 86.2667 95.9282 87.76C94.5415 89.2533 92.5575 90 89.9762 90C87.5442 90 85.6028 89.392 84.1522 88.176C82.7015 86.96 81.8802 85.3707 81.6882 83.408H86.0402C86.2322 84.2613 86.6588 84.944 87.3202 85.456C88.0028 85.968 88.8668 86.224 89.9122 86.224C91.1708 86.224 92.1202 85.8293 92.7602 85.04C93.4002 84.2507 93.7202 83.2053 93.7202 81.904C93.7202 80.5813 93.3895 79.5787 92.7282 78.896C92.0882 78.192 91.1388 77.84 89.8802 77.84C88.9842 77.84 88.2375 78.064 87.6402 78.512C87.0428 78.96 86.6162 79.5573 86.3602 80.304H82.0722V66.608H96.5362V70.544ZM103.946 90.224C103.135 90.224 102.463 89.9787 101.93 89.488C101.418 88.976 101.162 88.3467 101.162 87.6C101.162 86.8533 101.418 86.2347 101.93 85.744C102.463 85.232 103.135 84.976 103.946 84.976C104.735 84.976 105.386 85.232 105.898 85.744C106.41 86.2347 106.666 86.8533 106.666 87.6C106.666 88.3467 106.41 88.976 105.898 89.488C105.386 89.9787 104.735 90.224 103.946 90.224ZM125.442 70.544H115.074V76.016C115.522 75.4613 116.162 75.0133 116.994 74.672C117.826 74.3093 118.712 74.128 119.65 74.128C121.357 74.128 122.754 74.5013 123.842 75.248C124.93 75.9947 125.72 76.9547 126.21 78.128C126.701 79.28 126.946 80.5173 126.946 81.84C126.946 84.2933 126.242 86.2667 124.834 87.76C123.448 89.2533 121.464 90 118.882 90C116.45 90 114.509 89.392 113.058 88.176C111.608 86.96 110.786 85.3707 110.594 83.408H114.946C115.138 84.2613 115.565 84.944 116.226 85.456C116.909 85.968 117.773 86.224 118.818 86.224C120.077 86.224 121.026 85.8293 121.666 85.04C122.306 84.2507 122.626 83.2053 122.626 81.904C122.626 80.5813 122.296 79.5787 121.634 78.896C120.994 78.192 120.045 77.84 118.786 77.84C117.89 77.84 117.144 78.064 116.546 78.512C115.949 78.96 115.522 79.5573 115.266 80.304H110.978V66.608H125.442V70.544Z" fill="#2C8ACE"/>
<path d="M142.9 59.792L134.196 95.6H130.612L139.284 59.792H142.9ZM146.858 72.816C146.964 70.6827 147.711 69.04 149.098 67.888C150.506 66.7147 152.351 66.128 154.634 66.128C156.191 66.128 157.524 66.4053 158.634 66.96C159.743 67.4933 160.575 68.2293 161.13 69.168C161.706 70.0853 161.994 71.1307 161.994 72.304C161.994 73.648 161.642 74.7893 160.938 75.728C160.255 76.6453 159.434 77.264 158.474 77.584V77.712C159.711 78.096 160.671 78.7787 161.354 79.76C162.058 80.7413 162.41 82 162.41 83.536C162.41 84.816 162.111 85.9573 161.514 86.96C160.938 87.9627 160.074 88.752 158.922 89.328C157.791 89.8827 156.426 90.16 154.826 90.16C152.415 90.16 150.452 89.552 148.938 88.336C147.423 87.12 146.623 85.328 146.538 82.96H150.89C150.932 84.0053 151.284 84.848 151.946 85.488C152.628 86.1067 153.556 86.416 154.73 86.416C155.818 86.416 156.65 86.1173 157.226 85.52C157.823 84.9013 158.122 84.112 158.122 83.152C158.122 81.872 157.716 80.9547 156.906 80.4C156.095 79.8453 154.836 79.568 153.13 79.568H152.202V75.888H153.13C156.159 75.888 157.674 74.8747 157.674 72.848C157.674 71.9307 157.396 71.216 156.842 70.704C156.308 70.192 155.53 69.936 154.506 69.936C153.503 69.936 152.724 70.2133 152.17 70.768C151.636 71.3013 151.327 71.984 151.242 72.816H146.858ZM165.95 78.032C165.95 74.3413 166.611 71.4507 167.934 69.36C169.278 67.2693 171.497 66.224 174.59 66.224C177.683 66.224 179.891 67.2693 181.214 69.36C182.558 71.4507 183.23 74.3413 183.23 78.032C183.23 81.744 182.558 84.656 181.214 86.768C179.891 88.88 177.683 89.936 174.59 89.936C171.497 89.936 169.278 88.88 167.934 86.768C166.611 84.656 165.95 81.744 165.95 78.032ZM178.814 78.032C178.814 76.4533 178.707 75.1307 178.494 74.064C178.302 72.976 177.897 72.0907 177.278 71.408C176.681 70.7253 175.785 70.384 174.59 70.384C173.395 70.384 172.489 70.7253 171.87 71.408C171.273 72.0907 170.867 72.976 170.654 74.064C170.462 75.1307 170.366 76.4533 170.366 78.032C170.366 79.6533 170.462 81.0187 170.654 82.128C170.846 83.216 171.251 84.1013 171.87 84.784C172.489 85.4453 173.395 85.776 174.59 85.776C175.785 85.776 176.691 85.4453 177.31 84.784C177.929 84.1013 178.334 83.216 178.526 82.128C178.718 81.0187 178.814 79.6533 178.814 78.032ZM191.201 76.04C192.668 76.04 193.955 76.3267 195.061 76.9C196.181 77.4733 197.041 78.2933 197.641 79.36C198.255 80.4133 198.561 81.64 198.561 83.04C198.561 84.44 198.255 85.6667 197.641 86.72C197.041 87.76 196.181 88.5667 195.061 89.14C193.955 89.7133 192.668 90 191.201 90H186.321V76.04H191.201ZM191.101 87.62C192.568 87.62 193.701 87.22 194.501 86.42C195.301 85.62 195.701 84.4933 195.701 83.04C195.701 81.5867 195.301 80.4533 194.501 79.64C193.701 78.8133 192.568 78.4 191.101 78.4H189.121V87.62H191.101ZM199.937 84.42C199.937 83.3 200.157 82.3067 200.597 81.44C201.051 80.5733 201.657 79.9067 202.417 79.44C203.191 78.9733 204.051 78.74 204.997 78.74C205.824 78.74 206.544 78.9067 207.157 79.24C207.784 79.5733 208.284 79.9933 208.657 80.5V78.92H211.477V90H208.657V88.38C208.297 88.9 207.797 89.3333 207.157 89.68C206.531 90.0133 205.804 90.18 204.977 90.18C204.044 90.18 203.191 89.94 202.417 89.46C201.657 88.98 201.051 88.3067 200.597 87.44C200.157 86.56 199.937 85.5533 199.937 84.42ZM208.657 84.46C208.657 83.78 208.524 83.2 208.257 82.72C207.991 82.2267 207.631 81.8533 207.177 81.6C206.724 81.3333 206.237 81.2 205.717 81.2C205.197 81.2 204.717 81.3267 204.277 81.58C203.837 81.8333 203.477 82.2067 203.197 82.7C202.931 83.18 202.797 83.7533 202.797 84.42C202.797 85.0867 202.931 85.6733 203.197 86.18C203.477 86.6733 203.837 87.0533 204.277 87.32C204.731 87.5867 205.211 87.72 205.717 87.72C206.237 87.72 206.724 87.5933 207.177 87.34C207.631 87.0733 207.991 86.7 208.257 86.22C208.524 85.7267 208.657 85.14 208.657 84.46ZM224.812 78.92L217.952 95.24H214.972L217.372 89.72L212.932 78.92H216.072L218.932 86.66L221.832 78.92H224.812ZM230.561 90.18C229.655 90.18 228.841 90.02 228.121 89.7C227.401 89.3667 226.828 88.92 226.401 88.36C225.988 87.8 225.761 87.18 225.721 86.5H228.541C228.595 86.9267 228.801 87.28 229.161 87.56C229.535 87.84 229.995 87.98 230.541 87.98C231.075 87.98 231.488 87.8733 231.781 87.66C232.088 87.4467 232.241 87.1733 232.241 86.84C232.241 86.48 232.055 86.2133 231.681 86.04C231.321 85.8533 230.741 85.6533 229.941 85.44C229.115 85.24 228.435 85.0333 227.901 84.82C227.381 84.6067 226.928 84.28 226.541 83.84C226.168 83.4 225.981 82.8067 225.981 82.06C225.981 81.4467 226.155 80.8867 226.501 80.38C226.861 79.8733 227.368 79.4733 228.021 79.18C228.688 78.8867 229.468 78.74 230.361 78.74C231.681 78.74 232.735 79.0733 233.521 79.74C234.308 80.3933 234.741 81.28 234.821 82.4H232.141C232.101 81.96 231.915 81.6133 231.581 81.36C231.261 81.0933 230.828 80.96 230.281 80.96C229.775 80.96 229.381 81.0533 229.101 81.24C228.835 81.4267 228.701 81.6867 228.701 82.02C228.701 82.3933 228.888 82.68 229.261 82.88C229.635 83.0667 230.215 83.26 231.001 83.46C231.801 83.66 232.461 83.8667 232.981 84.08C233.501 84.2933 233.948 84.6267 234.321 85.08C234.708 85.52 234.908 86.1067 234.921 86.84C234.921 87.48 234.741 88.0533 234.381 88.56C234.035 89.0667 233.528 89.4667 232.861 89.76C232.208 90.04 231.441 90.18 230.561 90.18Z" fill="#7C7C7C"/>
<path d="M110.752 120.49V122.164H107.422V133H105.37V122.164H102.022V120.49H110.752ZM117.132 133.162C116.196 133.162 115.35 132.952 114.594 132.532C113.838 132.1 113.244 131.5 112.812 130.732C112.38 129.952 112.164 129.052 112.164 128.032C112.164 127.024 112.386 126.13 112.83 125.35C113.274 124.57 113.88 123.97 114.648 123.55C115.416 123.13 116.274 122.92 117.222 122.92C118.17 122.92 119.028 123.13 119.796 123.55C120.564 123.97 121.17 124.57 121.614 125.35C122.058 126.13 122.28 127.024 122.28 128.032C122.28 129.04 122.052 129.934 121.596 130.714C121.14 131.494 120.516 132.1 119.724 132.532C118.944 132.952 118.08 133.162 117.132 133.162ZM117.132 131.38C117.66 131.38 118.152 131.254 118.608 131.002C119.076 130.75 119.454 130.372 119.742 129.868C120.03 129.364 120.174 128.752 120.174 128.032C120.174 127.312 120.036 126.706 119.76 126.214C119.484 125.71 119.118 125.332 118.662 125.08C118.206 124.828 117.714 124.702 117.186 124.702C116.658 124.702 116.166 124.828 115.71 125.08C115.266 125.332 114.912 125.71 114.648 126.214C114.384 126.706 114.252 127.312 114.252 128.032C114.252 129.1 114.522 129.928 115.062 130.516C115.614 131.092 116.304 131.38 117.132 131.38ZM126.703 124.756V130.246C126.703 130.618 126.787 130.888 126.955 131.056C127.135 131.212 127.435 131.29 127.855 131.29H129.115V133H127.495C126.571 133 125.863 132.784 125.371 132.352C124.879 131.92 124.633 131.218 124.633 130.246V124.756H123.463V123.082H124.633V120.616H126.703V123.082H129.115V124.756H126.703ZM130.322 127.996C130.322 127 130.526 126.118 130.934 125.35C131.354 124.582 131.918 123.988 132.626 123.568C133.346 123.136 134.138 122.92 135.002 122.92C135.782 122.92 136.46 123.076 137.036 123.388C137.624 123.688 138.092 124.066 138.44 124.522V123.082H140.51V133H138.44V131.524C138.092 131.992 137.618 132.382 137.018 132.694C136.418 133.006 135.734 133.162 134.966 133.162C134.114 133.162 133.334 132.946 132.626 132.514C131.918 132.07 131.354 131.458 130.934 130.678C130.526 129.886 130.322 128.992 130.322 127.996ZM138.44 128.032C138.44 127.348 138.296 126.754 138.008 126.25C137.732 125.746 137.366 125.362 136.91 125.098C136.454 124.834 135.962 124.702 135.434 124.702C134.906 124.702 134.414 124.834 133.958 125.098C133.502 125.35 133.13 125.728 132.842 126.232C132.566 126.724 132.428 127.312 132.428 127.996C132.428 128.68 132.566 129.28 132.842 129.796C133.13 130.312 133.502 130.708 133.958 130.984C134.426 131.248 134.918 131.38 135.434 131.38C135.962 131.38 136.454 131.248 136.91 130.984C137.366 130.72 137.732 130.336 138.008 129.832C138.296 129.316 138.44 128.716 138.44 128.032ZM145.257 119.68V133H143.205V119.68H145.257ZM154.679 131.344H158.909V133H152.627V120.49H154.679V131.344ZM169.715 127.798C169.715 128.17 169.691 128.506 169.643 128.806H162.065C162.125 129.598 162.419 130.234 162.947 130.714C163.475 131.194 164.123 131.434 164.891 131.434C165.995 131.434 166.775 130.972 167.231 130.048H169.445C169.145 130.96 168.599 131.71 167.807 132.298C167.027 132.874 166.055 133.162 164.891 133.162C163.943 133.162 163.091 132.952 162.335 132.532C161.591 132.1 161.003 131.5 160.571 130.732C160.151 129.952 159.941 129.052 159.941 128.032C159.941 127.012 160.145 126.118 160.553 125.35C160.973 124.57 161.555 123.97 162.299 123.55C163.055 123.13 163.919 122.92 164.891 122.92C165.827 122.92 166.661 123.124 167.393 123.532C168.125 123.94 168.695 124.516 169.103 125.26C169.511 125.992 169.715 126.838 169.715 127.798ZM167.573 127.15C167.561 126.394 167.291 125.788 166.763 125.332C166.235 124.876 165.581 124.648 164.801 124.648C164.093 124.648 163.487 124.876 162.983 125.332C162.479 125.776 162.179 126.382 162.083 127.15H167.573ZM171.051 127.996C171.051 127 171.255 126.118 171.663 125.35C172.083 124.582 172.647 123.988 173.355 123.568C174.075 123.136 174.867 122.92 175.731 122.92C176.511 122.92 177.189 123.076 177.765 123.388C178.353 123.688 178.821 124.066 179.169 124.522V123.082H181.239V133H179.169V131.524C178.821 131.992 178.347 132.382 177.747 132.694C177.147 133.006 176.463 133.162 175.695 133.162C174.843 133.162 174.063 132.946 173.355 132.514C172.647 132.07 172.083 131.458 171.663 130.678C171.255 129.886 171.051 128.992 171.051 127.996ZM179.169 128.032C179.169 127.348 179.025 126.754 178.737 126.25C178.461 125.746 178.095 125.362 177.639 125.098C177.183 124.834 176.691 124.702 176.163 124.702C175.635 124.702 175.143 124.834 174.687 125.098C174.231 125.35 173.859 125.728 173.571 126.232C173.295 126.724 173.157 127.312 173.157 127.996C173.157 128.68 173.295 129.28 173.571 129.796C173.859 130.312 174.231 130.708 174.687 130.984C175.155 131.248 175.647 131.38 176.163 131.38C176.691 131.38 177.183 131.248 177.639 130.984C178.095 130.72 178.461 130.336 178.737 129.832C179.025 129.316 179.169 128.716 179.169 128.032ZM187.768 131.164L190.576 123.082H192.754L188.974 133H186.526L182.764 123.082H184.96L187.768 131.164ZM203.395 127.798C203.395 128.17 203.371 128.506 203.323 128.806H195.745C195.805 129.598 196.099 130.234 196.627 130.714C197.155 131.194 197.803 131.434 198.571 131.434C199.675 131.434 200.455 130.972 200.911 130.048H203.125C202.825 130.96 202.279 131.71 201.487 132.298C200.707 132.874 199.735 133.162 198.571 133.162C197.623 133.162 196.771 132.952 196.015 132.532C195.271 132.1 194.683 131.5 194.251 130.732C193.831 129.952 193.621 129.052 193.621 128.032C193.621 127.012 193.825 126.118 194.233 125.35C194.653 124.57 195.235 123.97 195.979 123.55C196.735 123.13 197.599 122.92 198.571 122.92C199.507 122.92 200.341 123.124 201.073 123.532C201.805 123.94 202.375 124.516 202.783 125.26C203.191 125.992 203.395 126.838 203.395 127.798ZM201.253 127.15C201.241 126.394 200.971 125.788 200.443 125.332C199.915 124.876 199.261 124.648 198.481 124.648C197.773 124.648 197.167 124.876 196.663 125.332C196.159 125.776 195.859 126.382 195.763 127.15H201.253ZM209.014 133.162C208.234 133.162 207.532 133.024 206.908 132.748C206.296 132.46 205.81 132.076 205.45 131.596C205.09 131.104 204.898 130.558 204.874 129.958H206.998C207.034 130.378 207.232 130.732 207.592 131.02C207.964 131.296 208.426 131.434 208.978 131.434C209.554 131.434 209.998 131.326 210.31 131.11C210.634 130.882 210.796 130.594 210.796 130.246C210.796 129.874 210.616 129.598 210.256 129.418C209.908 129.238 209.35 129.04 208.582 128.824C207.838 128.62 207.232 128.422 206.764 128.23C206.296 128.038 205.888 127.744 205.54 127.348C205.204 126.952 205.036 126.43 205.036 125.782C205.036 125.254 205.192 124.774 205.504 124.342C205.816 123.898 206.26 123.55 206.836 123.298C207.424 123.046 208.096 122.92 208.852 122.92C209.98 122.92 210.886 123.208 211.57 123.784C212.266 124.348 212.638 125.122 212.686 126.106H210.634C210.598 125.662 210.418 125.308 210.094 125.044C209.77 124.78 209.332 124.648 208.78 124.648C208.24 124.648 207.826 124.75 207.538 124.954C207.25 125.158 207.106 125.428 207.106 125.764C207.106 126.028 207.202 126.25 207.394 126.43C207.586 126.61 207.82 126.754 208.096 126.862C208.372 126.958 208.78 127.084 209.32 127.24C210.04 127.432 210.628 127.63 211.084 127.834C211.552 128.026 211.954 128.314 212.29 128.698C212.626 129.082 212.8 129.592 212.812 130.228C212.812 130.792 212.656 131.296 212.344 131.74C212.032 132.184 211.588 132.532 211.012 132.784C210.448 133.036 209.782 133.162 209.014 133.162ZM109.786 145.25V143.794H112.698V154H111.088V145.25H109.786ZM124.044 144.27V151.284C124.044 152.152 123.778 152.838 123.246 153.342C122.723 153.846 122.032 154.098 121.174 154.098C120.315 154.098 119.62 153.846 119.088 153.342C118.565 152.838 118.304 152.152 118.304 151.284H119.914C119.923 151.713 120.03 152.054 120.236 152.306C120.45 152.558 120.763 152.684 121.174 152.684C121.584 152.684 121.897 152.558 122.112 152.306C122.326 152.045 122.434 151.704 122.434 151.284V144.27H124.044ZM132.506 152.012H128.432L127.732 154H126.066L129.552 144.256H131.4L134.886 154H133.206L132.506 152.012ZM132.058 150.71L130.476 146.188L128.88 150.71H132.058ZM144.396 154H142.8L137.998 146.734V154H136.402V144.256H137.998L142.8 151.508V144.256H144.396V154ZM156.05 148.26V149.604H150.296V148.26H156.05ZM161.716 146.314C161.772 145.446 162.104 144.769 162.71 144.284C163.326 143.799 164.11 143.556 165.062 143.556C165.716 143.556 166.28 143.673 166.756 143.906C167.232 144.139 167.592 144.457 167.834 144.858C168.077 145.259 168.198 145.712 168.198 146.216C168.198 146.795 168.044 147.289 167.736 147.7C167.428 148.111 167.06 148.386 166.63 148.526V148.582C167.181 148.75 167.61 149.058 167.918 149.506C168.226 149.945 168.38 150.509 168.38 151.2C168.38 151.751 168.254 152.241 168.002 152.67C167.75 153.099 167.377 153.44 166.882 153.692C166.388 153.935 165.795 154.056 165.104 154.056C164.096 154.056 163.266 153.799 162.612 153.286C161.968 152.763 161.623 152.017 161.576 151.046H163.116C163.154 151.541 163.345 151.947 163.69 152.264C164.036 152.572 164.502 152.726 165.09 152.726C165.66 152.726 166.098 152.572 166.406 152.264C166.714 151.947 166.868 151.541 166.868 151.046C166.868 150.393 166.658 149.931 166.238 149.66C165.828 149.38 165.193 149.24 164.334 149.24H163.97V147.924H164.348C165.104 147.915 165.678 147.789 166.07 147.546C166.472 147.303 166.672 146.921 166.672 146.398C166.672 145.95 166.528 145.595 166.238 145.334C165.949 145.063 165.538 144.928 165.006 144.928C164.484 144.928 164.078 145.063 163.788 145.334C163.499 145.595 163.326 145.922 163.27 146.314H161.716ZM169.847 145.25V143.794H172.759V154H171.149V145.25H169.847ZM181.976 144.27C183.012 144.27 183.917 144.471 184.692 144.872C185.476 145.264 186.078 145.833 186.498 146.58C186.927 147.317 187.142 148.181 187.142 149.17C187.142 150.159 186.927 151.018 186.498 151.746C186.078 152.474 185.476 153.034 184.692 153.426C183.917 153.809 183.012 154 181.976 154H178.798V144.27H181.976ZM181.976 152.698C183.115 152.698 183.987 152.39 184.594 151.774C185.201 151.158 185.504 150.29 185.504 149.17C185.504 148.041 185.201 147.159 184.594 146.524C183.987 145.889 183.115 145.572 181.976 145.572H180.394V152.698H181.976ZM190.32 145.558V148.414H193.68V149.716H190.32V152.698H194.1V154H188.724V144.256H194.1V145.558H190.32ZM195.534 149.114C195.534 148.162 195.753 147.308 196.192 146.552C196.64 145.796 197.242 145.208 197.998 144.788C198.763 144.359 199.598 144.144 200.504 144.144C201.54 144.144 202.459 144.401 203.262 144.914C204.074 145.418 204.662 146.137 205.026 147.07H203.108C202.856 146.557 202.506 146.174 202.058 145.922C201.61 145.67 201.092 145.544 200.504 145.544C199.86 145.544 199.286 145.689 198.782 145.978C198.278 146.267 197.881 146.683 197.592 147.224C197.312 147.765 197.172 148.395 197.172 149.114C197.172 149.833 197.312 150.463 197.592 151.004C197.881 151.545 198.278 151.965 198.782 152.264C199.286 152.553 199.86 152.698 200.504 152.698C201.092 152.698 201.61 152.572 202.058 152.32C202.506 152.068 202.856 151.685 203.108 151.172H205.026C204.662 152.105 204.074 152.824 203.262 153.328C202.459 153.832 201.54 154.084 200.504 154.084C199.589 154.084 198.754 153.874 197.998 153.454C197.242 153.025 196.64 152.432 196.192 151.676C195.753 150.92 195.534 150.066 195.534 149.114Z" fill="#7C7C7C"/>
<defs>
<filter id="filter0_d_273_3901" x="0" y="0" width="314" height="199" filterUnits="userSpaceOnUse" color-interpolation-filters="sRGB">
<feFlood flood-opacity="0" result="BackgroundImageFix"/>
<feColorMatrix in="SourceAlpha" type="matrix" values="0 0 0 0 0 0 0 0 0 0 0 0 0 0 0 0 0 0 127 0" result="hardAlpha"/>
<feOffset dy="2"/>
<feGaussianBlur stdDeviation="3.5"/>
<feComposite in2="hardAlpha" operator="out"/>
<feColorMatrix type="matrix" values="0 0 0 0 0 0 0 0 0 0 0 0 0 0 0 0 0 0 0.1 0"/>
<feBlend mode="normal" in2="BackgroundImageFix" result="effect1_dropShadow_273_3901"/>
<feBlend mode="normal" in="SourceGraphic" in2="effect1_dropShadow_273_3901" result="shape"/>
</filter>
</defs>
</svg>
