<svg width="314" height="199" viewBox="0 0 314 199" fill="none" xmlns="http://www.w3.org/2000/svg">
<g opacity="0.5" filter="url(#filter0_d_254_3566)">
<rect x="7" y="5" width="300" height="185" rx="10" fill="white"/>
<rect x="7.5" y="5.5" width="299" height="184" rx="9.5" stroke="#2C8ACE"/>
</g>
<path d="M85.4372 71.8V67.672H93.1492V91H88.5412V71.8H85.4372ZM100.071 91.224C99.2602 91.224 98.5882 90.9787 98.0549 90.488C97.5429 89.976 97.2869 89.3467 97.2869 88.6C97.2869 87.8533 97.5429 87.2347 98.0549 86.744C98.5882 86.232 99.2602 85.976 100.071 85.976C100.86 85.976 101.511 86.232 102.023 86.744C102.535 87.2347 102.791 87.8533 102.791 88.6C102.791 89.3467 102.535 89.976 102.023 90.488C101.511 90.9787 100.86 91.224 100.071 91.224ZM121.567 71.544H111.199V77.016C111.647 76.4613 112.287 76.0133 113.119 75.672C113.951 75.3093 114.837 75.128 115.775 75.128C117.482 75.128 118.879 75.5013 119.967 76.248C121.055 76.9947 121.845 77.9547 122.335 79.128C122.826 80.28 123.071 81.5173 123.071 82.84C123.071 85.2933 122.367 87.2667 120.959 88.76C119.573 90.2533 117.589 91 115.007 91C112.575 91 110.634 90.392 109.183 89.176C107.733 87.96 106.911 86.3707 106.719 84.408H111.071C111.263 85.2613 111.69 85.944 112.351 86.456C113.034 86.968 113.898 87.224 114.943 87.224C116.202 87.224 117.151 86.8293 117.791 86.04C118.431 85.2507 118.751 84.2053 118.751 82.904C118.751 81.5813 118.421 80.5787 117.759 79.896C117.119 79.192 116.17 78.84 114.911 78.84C114.015 78.84 113.269 79.064 112.671 79.512C112.074 79.96 111.647 80.5573 111.391 81.304H107.103V67.608H121.567V71.544Z" fill="#D25A27"/>
<path d="M139.025 60.792L130.321 96.6H126.737L135.409 60.792H139.025ZM142.375 71.8V67.672H150.087V91H145.479V71.8H142.375ZM155.92 85.944C157.968 84.2373 159.6 82.8187 160.816 81.688C162.032 80.536 163.046 79.3413 163.856 78.104C164.667 76.8667 165.072 75.6507 165.072 74.456C165.072 73.368 164.816 72.5147 164.304 71.896C163.792 71.2773 163.003 70.968 161.936 70.968C160.87 70.968 160.048 71.3307 159.472 72.056C158.896 72.76 158.598 73.7307 158.576 74.968H154.224C154.31 72.408 155.067 70.4667 156.496 69.144C157.947 67.8213 159.782 67.16 162 67.16C164.432 67.16 166.299 67.8107 167.6 69.112C168.902 70.392 169.552 72.088 169.552 74.2C169.552 75.864 169.104 77.4533 168.208 78.968C167.312 80.4827 166.288 81.8053 165.136 82.936C163.984 84.0453 162.48 85.3893 160.624 86.968H170.064V90.68H154.256V87.352L155.92 85.944ZM185.076 77.04C186.543 77.04 187.83 77.3267 188.936 77.9C190.056 78.4733 190.916 79.2933 191.516 80.36C192.13 81.4133 192.436 82.64 192.436 84.04C192.436 85.44 192.13 86.6667 191.516 87.72C190.916 88.76 190.056 89.5667 188.936 90.14C187.83 90.7133 186.543 91 185.076 91H180.196V77.04H185.076ZM184.976 88.62C186.443 88.62 187.576 88.22 188.376 87.42C189.176 86.62 189.576 85.4933 189.576 84.04C189.576 82.5867 189.176 81.4533 188.376 80.64C187.576 79.8133 186.443 79.4 184.976 79.4H182.996V88.62H184.976ZM193.812 85.42C193.812 84.3 194.032 83.3067 194.472 82.44C194.926 81.5733 195.532 80.9067 196.292 80.44C197.066 79.9733 197.926 79.74 198.872 79.74C199.699 79.74 200.419 79.9067 201.032 80.24C201.659 80.5733 202.159 80.9933 202.532 81.5V79.92H205.352V91H202.532V89.38C202.172 89.9 201.672 90.3333 201.032 90.68C200.406 91.0133 199.679 91.18 198.852 91.18C197.919 91.18 197.066 90.94 196.292 90.46C195.532 89.98 194.926 89.3067 194.472 88.44C194.032 87.56 193.812 86.5533 193.812 85.42ZM202.532 85.46C202.532 84.78 202.399 84.2 202.132 83.72C201.866 83.2267 201.506 82.8533 201.052 82.6C200.599 82.3333 200.112 82.2 199.592 82.2C199.072 82.2 198.592 82.3267 198.152 82.58C197.712 82.8333 197.352 83.2067 197.072 83.7C196.806 84.18 196.672 84.7533 196.672 85.42C196.672 86.0867 196.806 86.6733 197.072 87.18C197.352 87.6733 197.712 88.0533 198.152 88.32C198.606 88.5867 199.086 88.72 199.592 88.72C200.112 88.72 200.599 88.5933 201.052 88.34C201.506 88.0733 201.866 87.7 202.132 87.22C202.399 86.7267 202.532 86.14 202.532 85.46ZM218.687 79.92L211.827 96.24H208.847L211.247 90.72L206.807 79.92H209.947L212.807 87.66L215.707 79.92H218.687ZM224.436 91.18C223.53 91.18 222.716 91.02 221.996 90.7C221.276 90.3667 220.703 89.92 220.276 89.36C219.863 88.8 219.636 88.18 219.596 87.5H222.416C222.47 87.9267 222.676 88.28 223.036 88.56C223.41 88.84 223.87 88.98 224.416 88.98C224.95 88.98 225.363 88.8733 225.656 88.66C225.963 88.4467 226.116 88.1733 226.116 87.84C226.116 87.48 225.93 87.2133 225.556 87.04C225.196 86.8533 224.616 86.6533 223.816 86.44C222.99 86.24 222.31 86.0333 221.776 85.82C221.256 85.6067 220.803 85.28 220.416 84.84C220.043 84.4 219.856 83.8067 219.856 83.06C219.856 82.4467 220.03 81.8867 220.376 81.38C220.736 80.8733 221.243 80.4733 221.896 80.18C222.563 79.8867 223.343 79.74 224.236 79.74C225.556 79.74 226.61 80.0733 227.396 80.74C228.183 81.3933 228.616 82.28 228.696 83.4H226.016C225.976 82.96 225.79 82.6133 225.456 82.36C225.136 82.0933 224.703 81.96 224.156 81.96C223.65 81.96 223.256 82.0533 222.976 82.24C222.71 82.4267 222.576 82.6867 222.576 83.02C222.576 83.3933 222.763 83.68 223.136 83.88C223.51 84.0667 224.09 84.26 224.876 84.46C225.676 84.66 226.336 84.8667 226.856 85.08C227.376 85.2933 227.823 85.6267 228.196 86.08C228.583 86.52 228.783 87.1067 228.796 87.84C228.796 88.48 228.616 89.0533 228.256 89.56C227.91 90.0667 227.403 90.4667 226.736 90.76C226.083 91.04 225.316 91.18 224.436 91.18Z" fill="#7C7C7C"/>
<path d="M110.748 134.126C109.908 134.126 109.152 133.982 108.48 133.694C107.808 133.394 107.28 132.974 106.896 132.434C106.512 131.894 106.32 131.264 106.32 130.544H108.516C108.564 131.084 108.774 131.528 109.146 131.876C109.53 132.224 110.064 132.398 110.748 132.398C111.456 132.398 112.008 132.23 112.404 131.894C112.8 131.546 112.998 131.102 112.998 130.562C112.998 130.142 112.872 129.8 112.62 129.536C112.38 129.272 112.074 129.068 111.702 128.924C111.342 128.78 110.838 128.624 110.19 128.456C109.374 128.24 108.708 128.024 108.192 127.808C107.688 127.58 107.256 127.232 106.896 126.764C106.536 126.296 106.356 125.672 106.356 124.892C106.356 124.172 106.536 123.542 106.896 123.002C107.256 122.462 107.76 122.048 108.408 121.76C109.056 121.472 109.806 121.328 110.658 121.328C111.87 121.328 112.86 121.634 113.628 122.246C114.408 122.846 114.84 123.674 114.924 124.73H112.656C112.62 124.274 112.404 123.884 112.008 123.56C111.612 123.236 111.09 123.074 110.442 123.074C109.854 123.074 109.374 123.224 109.002 123.524C108.63 123.824 108.444 124.256 108.444 124.82C108.444 125.204 108.558 125.522 108.786 125.774C109.026 126.014 109.326 126.206 109.686 126.35C110.046 126.494 110.538 126.65 111.162 126.818C111.99 127.046 112.662 127.274 113.178 127.502C113.706 127.73 114.15 128.084 114.51 128.564C114.882 129.032 115.068 129.662 115.068 130.454C115.068 131.09 114.894 131.69 114.546 132.254C114.21 132.818 113.712 133.274 113.052 133.622C112.404 133.958 111.636 134.126 110.748 134.126ZM118.534 122.768C118.162 122.768 117.85 122.642 117.598 122.39C117.346 122.138 117.22 121.826 117.22 121.454C117.22 121.082 117.346 120.77 117.598 120.518C117.85 120.266 118.162 120.14 118.534 120.14C118.894 120.14 119.2 120.266 119.452 120.518C119.704 120.77 119.83 121.082 119.83 121.454C119.83 121.826 119.704 122.138 119.452 122.39C119.2 122.642 118.894 122.768 118.534 122.768ZM119.542 124.082V134H117.49V124.082H119.542ZM121.552 129.032C121.552 128.012 121.756 127.118 122.164 126.35C122.584 125.57 123.16 124.97 123.892 124.55C124.624 124.13 125.464 123.92 126.412 123.92C127.612 123.92 128.602 124.208 129.382 124.784C130.174 125.348 130.708 126.158 130.984 127.214H128.77C128.59 126.722 128.302 126.338 127.906 126.062C127.51 125.786 127.012 125.648 126.412 125.648C125.572 125.648 124.9 125.948 124.396 126.548C123.904 127.136 123.658 127.964 123.658 129.032C123.658 130.1 123.904 130.934 124.396 131.534C124.9 132.134 125.572 132.434 126.412 132.434C127.6 132.434 128.386 131.912 128.77 130.868H130.984C130.696 131.876 130.156 132.68 129.364 133.28C128.572 133.868 127.588 134.162 126.412 134.162C125.464 134.162 124.624 133.952 123.892 133.532C123.16 133.1 122.584 132.5 122.164 131.732C121.756 130.952 121.552 130.052 121.552 129.032ZM136.953 129.05L141.525 134H138.753L135.081 129.734V134H133.029V120.68H135.081V128.42L138.681 124.082H141.525L136.953 129.05ZM149.723 132.344H153.953V134H147.671V121.49H149.723V132.344ZM164.759 128.798C164.759 129.17 164.735 129.506 164.687 129.806H157.109C157.169 130.598 157.463 131.234 157.991 131.714C158.519 132.194 159.167 132.434 159.935 132.434C161.039 132.434 161.819 131.972 162.275 131.048H164.489C164.189 131.96 163.643 132.71 162.851 133.298C162.071 133.874 161.099 134.162 159.935 134.162C158.987 134.162 158.135 133.952 157.379 133.532C156.635 133.1 156.047 132.5 155.615 131.732C155.195 130.952 154.985 130.052 154.985 129.032C154.985 128.012 155.189 127.118 155.597 126.35C156.017 125.57 156.599 124.97 157.343 124.55C158.099 124.13 158.963 123.92 159.935 123.92C160.871 123.92 161.705 124.124 162.437 124.532C163.169 124.94 163.739 125.516 164.147 126.26C164.555 126.992 164.759 127.838 164.759 128.798ZM162.617 128.15C162.605 127.394 162.335 126.788 161.807 126.332C161.279 125.876 160.625 125.648 159.845 125.648C159.137 125.648 158.531 125.876 158.027 126.332C157.523 126.776 157.223 127.382 157.127 128.15H162.617ZM166.095 128.996C166.095 128 166.299 127.118 166.707 126.35C167.127 125.582 167.691 124.988 168.399 124.568C169.119 124.136 169.911 123.92 170.775 123.92C171.555 123.92 172.233 124.076 172.809 124.388C173.397 124.688 173.865 125.066 174.213 125.522V124.082H176.283V134H174.213V132.524C173.865 132.992 173.391 133.382 172.791 133.694C172.191 134.006 171.507 134.162 170.739 134.162C169.887 134.162 169.107 133.946 168.399 133.514C167.691 133.07 167.127 132.458 166.707 131.678C166.299 130.886 166.095 129.992 166.095 128.996ZM174.213 129.032C174.213 128.348 174.069 127.754 173.781 127.25C173.505 126.746 173.139 126.362 172.683 126.098C172.227 125.834 171.735 125.702 171.207 125.702C170.679 125.702 170.187 125.834 169.731 126.098C169.275 126.35 168.903 126.728 168.615 127.232C168.339 127.724 168.201 128.312 168.201 128.996C168.201 129.68 168.339 130.28 168.615 130.796C168.903 131.312 169.275 131.708 169.731 131.984C170.199 132.248 170.691 132.38 171.207 132.38C171.735 132.38 172.227 132.248 172.683 131.984C173.139 131.72 173.505 131.336 173.781 130.832C174.069 130.316 174.213 129.716 174.213 129.032ZM182.812 132.164L185.62 124.082H187.798L184.018 134H181.57L177.808 124.082H180.004L182.812 132.164ZM198.439 128.798C198.439 129.17 198.415 129.506 198.367 129.806H190.789C190.849 130.598 191.143 131.234 191.671 131.714C192.199 132.194 192.847 132.434 193.615 132.434C194.719 132.434 195.499 131.972 195.955 131.048H198.169C197.869 131.96 197.323 132.71 196.531 133.298C195.751 133.874 194.779 134.162 193.615 134.162C192.667 134.162 191.815 133.952 191.059 133.532C190.315 133.1 189.727 132.5 189.295 131.732C188.875 130.952 188.665 130.052 188.665 129.032C188.665 128.012 188.869 127.118 189.277 126.35C189.697 125.57 190.279 124.97 191.023 124.55C191.779 124.13 192.643 123.92 193.615 123.92C194.551 123.92 195.385 124.124 196.117 124.532C196.849 124.94 197.419 125.516 197.827 126.26C198.235 126.992 198.439 127.838 198.439 128.798ZM196.297 128.15C196.285 127.394 196.015 126.788 195.487 126.332C194.959 125.876 194.305 125.648 193.525 125.648C192.817 125.648 192.211 125.876 191.707 126.332C191.203 126.776 190.903 127.382 190.807 128.15H196.297ZM204.058 134.162C203.278 134.162 202.576 134.024 201.952 133.748C201.34 133.46 200.854 133.076 200.494 132.596C200.134 132.104 199.942 131.558 199.918 130.958H202.042C202.078 131.378 202.276 131.732 202.636 132.02C203.008 132.296 203.47 132.434 204.022 132.434C204.598 132.434 205.042 132.326 205.354 132.11C205.678 131.882 205.84 131.594 205.84 131.246C205.84 130.874 205.66 130.598 205.3 130.418C204.952 130.238 204.394 130.04 203.626 129.824C202.882 129.62 202.276 129.422 201.808 129.23C201.34 129.038 200.932 128.744 200.584 128.348C200.248 127.952 200.08 127.43 200.08 126.782C200.08 126.254 200.236 125.774 200.548 125.342C200.86 124.898 201.304 124.55 201.88 124.298C202.468 124.046 203.14 123.92 203.896 123.92C205.024 123.92 205.93 124.208 206.614 124.784C207.31 125.348 207.682 126.122 207.73 127.106H205.678C205.642 126.662 205.462 126.308 205.138 126.044C204.814 125.78 204.376 125.648 203.824 125.648C203.284 125.648 202.87 125.75 202.582 125.954C202.294 126.158 202.15 126.428 202.15 126.764C202.15 127.028 202.246 127.25 202.438 127.43C202.63 127.61 202.864 127.754 203.14 127.862C203.416 127.958 203.824 128.084 204.364 128.24C205.084 128.432 205.672 128.63 206.128 128.834C206.596 129.026 206.998 129.314 207.334 129.698C207.67 130.082 207.844 130.592 207.856 131.228C207.856 131.792 207.7 132.296 207.388 132.74C207.076 133.184 206.632 133.532 206.056 133.784C205.492 134.036 204.826 134.162 204.058 134.162Z" fill="#7C7C7C"/>
<defs>
<filter id="filter0_d_254_3566" x="0" y="0" width="314" height="199" filterUnits="userSpaceOnUse" color-interpolation-filters="sRGB">
<feFlood flood-opacity="0" result="BackgroundImageFix"/>
<feColorMatrix in="SourceAlpha" type="matrix" values="0 0 0 0 0 0 0 0 0 0 0 0 0 0 0 0 0 0 127 0" result="hardAlpha"/>
<feOffset dy="2"/>
<feGaussianBlur stdDeviation="3.5"/>
<feComposite in2="hardAlpha" operator="out"/>
<feColorMatrix type="matrix" values="0 0 0 0 0 0 0 0 0 0 0 0 0 0 0 0 0 0 0.1 0"/>
<feBlend mode="normal" in2="BackgroundImageFix" result="effect1_dropShadow_254_3566"/>
<feBlend mode="normal" in="SourceGraphic" in2="effect1_dropShadow_254_3566" result="shape"/>
</filter>
</defs>
</svg>
