<svg width="315" height="199" viewBox="0 0 315 199" fill="none" xmlns="http://www.w3.org/2000/svg">
<g opacity="0.5" filter="url(#filter0_d_254_3561)">
<rect x="7.66675" y="5" width="300" height="185" rx="10" fill="white"/>
<rect x="8.16675" y="5.5" width="299" height="184" rx="9.5" stroke="#2C8ACE"/>
</g>
<path d="M97.0608 70.816C97.1674 68.6827 97.9141 67.04 99.3008 65.888C100.709 64.7147 102.554 64.128 104.837 64.128C106.394 64.128 107.727 64.4053 108.837 64.96C109.946 65.4933 110.778 66.2293 111.333 67.168C111.909 68.0853 112.197 69.1307 112.197 70.304C112.197 71.648 111.845 72.7893 111.141 73.728C110.458 74.6453 109.637 75.264 108.677 75.584V75.712C109.914 76.096 110.874 76.7787 111.557 77.76C112.261 78.7413 112.613 80 112.613 81.536C112.613 82.816 112.314 83.9573 111.717 84.96C111.141 85.9627 110.277 86.752 109.125 87.328C107.994 87.8827 106.629 88.16 105.029 88.16C102.618 88.16 100.655 87.552 99.1408 86.336C97.6261 85.12 96.8261 83.328 96.7408 80.96H101.093C101.135 82.0053 101.487 82.848 102.149 83.488C102.831 84.1067 103.759 84.416 104.933 84.416C106.021 84.416 106.853 84.1173 107.429 83.52C108.026 82.9013 108.325 82.112 108.325 81.152C108.325 79.872 107.919 78.9547 107.109 78.4C106.298 77.8453 105.039 77.568 103.333 77.568H102.405V73.888H103.333C106.362 73.888 107.877 72.8747 107.877 70.848C107.877 69.9307 107.599 69.216 107.045 68.704C106.511 68.192 105.733 67.936 104.709 67.936C103.706 67.936 102.927 68.2133 102.373 68.768C101.839 69.3013 101.53 69.984 101.445 70.816H97.0608Z" fill="#274CD2"/>
<path d="M128.697 57.792L119.993 93.6H116.409L125.081 57.792H128.697ZM132.047 68.8V64.672H139.759V88H135.151V68.8H132.047ZM144.184 76.032C144.184 72.3413 144.846 69.4507 146.168 67.36C147.512 65.2693 149.731 64.224 152.824 64.224C155.918 64.224 158.126 65.2693 159.448 67.36C160.792 69.4507 161.464 72.3413 161.464 76.032C161.464 79.744 160.792 82.656 159.448 84.768C158.126 86.88 155.918 87.936 152.824 87.936C149.731 87.936 147.512 86.88 146.168 84.768C144.846 82.656 144.184 79.744 144.184 76.032ZM157.048 76.032C157.048 74.4533 156.942 73.1307 156.728 72.064C156.536 70.976 156.131 70.0907 155.512 69.408C154.915 68.7253 154.019 68.384 152.824 68.384C151.63 68.384 150.723 68.7253 150.104 69.408C149.507 70.0907 149.102 70.976 148.888 72.064C148.696 73.1307 148.6 74.4533 148.6 76.032C148.6 77.6533 148.696 79.0187 148.888 80.128C149.08 81.216 149.486 82.1013 150.104 82.784C150.723 83.4453 151.63 83.776 152.824 83.776C154.019 83.776 154.926 83.4453 155.544 82.784C156.163 82.1013 156.568 81.216 156.76 80.128C156.952 79.0187 157.048 77.6533 157.048 76.032ZM177.061 74.04C178.527 74.04 179.814 74.3267 180.921 74.9C182.041 75.4733 182.901 76.2933 183.501 77.36C184.114 78.4133 184.421 79.64 184.421 81.04C184.421 82.44 184.114 83.6667 183.501 84.72C182.901 85.76 182.041 86.5667 180.921 87.14C179.814 87.7133 178.527 88 177.061 88H172.181V74.04H177.061ZM176.961 85.62C178.427 85.62 179.561 85.22 180.361 84.42C181.161 83.62 181.561 82.4933 181.561 81.04C181.561 79.5867 181.161 78.4533 180.361 77.64C179.561 76.8133 178.427 76.4 176.961 76.4H174.981V85.62H176.961ZM185.797 82.42C185.797 81.3 186.017 80.3067 186.457 79.44C186.91 78.5733 187.517 77.9067 188.277 77.44C189.05 76.9733 189.91 76.74 190.857 76.74C191.683 76.74 192.403 76.9067 193.017 77.24C193.643 77.5733 194.143 77.9933 194.517 78.5V76.92H197.337V88H194.517V86.38C194.157 86.9 193.657 87.3333 193.017 87.68C192.39 88.0133 191.663 88.18 190.837 88.18C189.903 88.18 189.05 87.94 188.277 87.46C187.517 86.98 186.91 86.3067 186.457 85.44C186.017 84.56 185.797 83.5533 185.797 82.42ZM194.517 82.46C194.517 81.78 194.383 81.2 194.117 80.72C193.85 80.2267 193.49 79.8533 193.037 79.6C192.583 79.3333 192.097 79.2 191.577 79.2C191.057 79.2 190.577 79.3267 190.137 79.58C189.697 79.8333 189.337 80.2067 189.057 80.7C188.79 81.18 188.657 81.7533 188.657 82.42C188.657 83.0867 188.79 83.6733 189.057 84.18C189.337 84.6733 189.697 85.0533 190.137 85.32C190.59 85.5867 191.07 85.72 191.577 85.72C192.097 85.72 192.583 85.5933 193.037 85.34C193.49 85.0733 193.85 84.7 194.117 84.22C194.383 83.7267 194.517 83.14 194.517 82.46ZM210.671 76.92L203.811 93.24H200.831L203.231 87.72L198.791 76.92H201.931L204.791 84.66L207.691 76.92H210.671ZM216.421 88.18C215.514 88.18 214.701 88.02 213.981 87.7C213.261 87.3667 212.687 86.92 212.261 86.36C211.847 85.8 211.621 85.18 211.581 84.5H214.401C214.454 84.9267 214.661 85.28 215.021 85.56C215.394 85.84 215.854 85.98 216.401 85.98C216.934 85.98 217.347 85.8733 217.641 85.66C217.947 85.4467 218.101 85.1733 218.101 84.84C218.101 84.48 217.914 84.2133 217.541 84.04C217.181 83.8533 216.601 83.6533 215.801 83.44C214.974 83.24 214.294 83.0333 213.761 82.82C213.241 82.6067 212.787 82.28 212.401 81.84C212.027 81.4 211.841 80.8067 211.841 80.06C211.841 79.4467 212.014 78.8867 212.361 78.38C212.721 77.8733 213.227 77.4733 213.881 77.18C214.547 76.8867 215.327 76.74 216.221 76.74C217.541 76.74 218.594 77.0733 219.381 77.74C220.167 78.3933 220.601 79.28 220.681 80.4H218.001C217.961 79.96 217.774 79.6133 217.441 79.36C217.121 79.0933 216.687 78.96 216.141 78.96C215.634 78.96 215.241 79.0533 214.961 79.24C214.694 79.4267 214.561 79.6867 214.561 80.02C214.561 80.3933 214.747 80.68 215.121 80.88C215.494 81.0667 216.074 81.26 216.861 81.46C217.661 81.66 218.321 81.8667 218.841 82.08C219.361 82.2933 219.807 82.6267 220.181 83.08C220.567 83.52 220.767 84.1067 220.781 84.84C220.781 85.48 220.601 86.0533 220.241 86.56C219.894 87.0667 219.387 87.4667 218.721 87.76C218.067 88.04 217.301 88.18 216.421 88.18Z" fill="#7C7C7C"/>
<path d="M96.5905 120.146V123.818H100.91V125.492H96.5905V129.326H101.45V131H94.5385V118.472H101.45V120.146H96.5905ZM103.294 125.996C103.294 125 103.498 124.118 103.906 123.35C104.326 122.582 104.89 121.988 105.598 121.568C106.318 121.136 107.11 120.92 107.974 120.92C108.754 120.92 109.432 121.076 110.008 121.388C110.596 121.688 111.064 122.066 111.412 122.522V121.082H113.482V131H111.412V129.524C111.064 129.992 110.59 130.382 109.99 130.694C109.39 131.006 108.706 131.162 107.938 131.162C107.086 131.162 106.306 130.946 105.598 130.514C104.89 130.07 104.326 129.458 103.906 128.678C103.498 127.886 103.294 126.992 103.294 125.996ZM111.412 126.032C111.412 125.348 111.268 124.754 110.98 124.25C110.704 123.746 110.338 123.362 109.882 123.098C109.426 122.834 108.934 122.702 108.406 122.702C107.878 122.702 107.386 122.834 106.93 123.098C106.474 123.35 106.102 123.728 105.814 124.232C105.538 124.724 105.4 125.312 105.4 125.996C105.4 126.68 105.538 127.28 105.814 127.796C106.102 128.312 106.474 128.708 106.93 128.984C107.398 129.248 107.89 129.38 108.406 129.38C108.934 129.38 109.426 129.248 109.882 128.984C110.338 128.72 110.704 128.336 110.98 127.832C111.268 127.316 111.412 126.716 111.412 126.032ZM118.229 122.522C118.529 122.018 118.925 121.628 119.417 121.352C119.921 121.064 120.515 120.92 121.199 120.92V123.044H120.677C119.873 123.044 119.261 123.248 118.841 123.656C118.433 124.064 118.229 124.772 118.229 125.78V131H116.177V121.082H118.229V122.522ZM128.089 120.92C128.869 120.92 129.565 121.082 130.177 121.406C130.801 121.73 131.287 122.21 131.635 122.846C131.983 123.482 132.157 124.25 132.157 125.15V131H130.123V125.456C130.123 124.568 129.901 123.89 129.457 123.422C129.013 122.942 128.407 122.702 127.639 122.702C126.871 122.702 126.259 122.942 125.803 123.422C125.359 123.89 125.137 124.568 125.137 125.456V131H123.085V121.082H125.137V122.216C125.473 121.808 125.899 121.49 126.415 121.262C126.943 121.034 127.501 120.92 128.089 120.92ZM143.865 125.798C143.865 126.17 143.841 126.506 143.793 126.806H136.215C136.275 127.598 136.569 128.234 137.097 128.714C137.625 129.194 138.273 129.434 139.041 129.434C140.145 129.434 140.925 128.972 141.381 128.048H143.595C143.295 128.96 142.749 129.71 141.957 130.298C141.177 130.874 140.205 131.162 139.041 131.162C138.093 131.162 137.241 130.952 136.485 130.532C135.741 130.1 135.153 129.5 134.721 128.732C134.301 127.952 134.091 127.052 134.091 126.032C134.091 125.012 134.295 124.118 134.703 123.35C135.123 122.57 135.705 121.97 136.449 121.55C137.205 121.13 138.069 120.92 139.041 120.92C139.977 120.92 140.811 121.124 141.543 121.532C142.275 121.94 142.845 122.516 143.253 123.26C143.661 123.992 143.865 124.838 143.865 125.798ZM141.723 125.15C141.711 124.394 141.441 123.788 140.913 123.332C140.385 122.876 139.731 122.648 138.951 122.648C138.243 122.648 137.637 122.876 137.133 123.332C136.629 123.776 136.329 124.382 136.233 125.15H141.723ZM145.2 125.996C145.2 125 145.404 124.118 145.812 123.35C146.232 122.582 146.796 121.988 147.504 121.568C148.224 121.136 149.022 120.92 149.898 120.92C150.546 120.92 151.182 121.064 151.806 121.352C152.442 121.628 152.946 122 153.318 122.468V117.68H155.388V131H153.318V129.506C152.982 129.986 152.514 130.382 151.914 130.694C151.326 131.006 150.648 131.162 149.88 131.162C149.016 131.162 148.224 130.946 147.504 130.514C146.796 130.07 146.232 129.458 145.812 128.678C145.404 127.886 145.2 126.992 145.2 125.996ZM153.318 126.032C153.318 125.348 153.174 124.754 152.886 124.25C152.61 123.746 152.244 123.362 151.788 123.098C151.332 122.834 150.84 122.702 150.312 122.702C149.784 122.702 149.292 122.834 148.836 123.098C148.38 123.35 148.008 123.728 147.72 124.232C147.444 124.724 147.306 125.312 147.306 125.996C147.306 126.68 147.444 127.28 147.72 127.796C148.008 128.312 148.38 128.708 148.836 128.984C149.304 129.248 149.796 129.38 150.312 129.38C150.84 129.38 151.332 129.248 151.788 128.984C152.244 128.72 152.61 128.336 152.886 127.832C153.174 127.316 153.318 126.716 153.318 126.032ZM164.811 129.344H169.041V131H162.759V118.49H164.811V129.344ZM179.847 125.798C179.847 126.17 179.823 126.506 179.775 126.806H172.197C172.257 127.598 172.551 128.234 173.079 128.714C173.607 129.194 174.255 129.434 175.023 129.434C176.127 129.434 176.907 128.972 177.363 128.048H179.577C179.277 128.96 178.731 129.71 177.939 130.298C177.159 130.874 176.187 131.162 175.023 131.162C174.075 131.162 173.223 130.952 172.467 130.532C171.723 130.1 171.135 129.5 170.703 128.732C170.283 127.952 170.073 127.052 170.073 126.032C170.073 125.012 170.277 124.118 170.685 123.35C171.105 122.57 171.687 121.97 172.431 121.55C173.187 121.13 174.051 120.92 175.023 120.92C175.959 120.92 176.793 121.124 177.525 121.532C178.257 121.94 178.827 122.516 179.235 123.26C179.643 123.992 179.847 124.838 179.847 125.798ZM177.705 125.15C177.693 124.394 177.423 123.788 176.895 123.332C176.367 122.876 175.713 122.648 174.933 122.648C174.225 122.648 173.619 122.876 173.115 123.332C172.611 123.776 172.311 124.382 172.215 125.15H177.705ZM181.183 125.996C181.183 125 181.387 124.118 181.795 123.35C182.215 122.582 182.779 121.988 183.487 121.568C184.207 121.136 184.999 120.92 185.863 120.92C186.643 120.92 187.321 121.076 187.897 121.388C188.485 121.688 188.953 122.066 189.301 122.522V121.082H191.371V131H189.301V129.524C188.953 129.992 188.479 130.382 187.879 130.694C187.279 131.006 186.595 131.162 185.827 131.162C184.975 131.162 184.195 130.946 183.487 130.514C182.779 130.07 182.215 129.458 181.795 128.678C181.387 127.886 181.183 126.992 181.183 125.996ZM189.301 126.032C189.301 125.348 189.157 124.754 188.869 124.25C188.593 123.746 188.227 123.362 187.771 123.098C187.315 122.834 186.823 122.702 186.295 122.702C185.767 122.702 185.275 122.834 184.819 123.098C184.363 123.35 183.991 123.728 183.703 124.232C183.427 124.724 183.289 125.312 183.289 125.996C183.289 126.68 183.427 127.28 183.703 127.796C183.991 128.312 184.363 128.708 184.819 128.984C185.287 129.248 185.779 129.38 186.295 129.38C186.823 129.38 187.315 129.248 187.771 128.984C188.227 128.72 188.593 128.336 188.869 127.832C189.157 127.316 189.301 126.716 189.301 126.032ZM197.9 129.164L200.708 121.082H202.886L199.106 131H196.658L192.896 121.082H195.092L197.9 129.164ZM213.527 125.798C213.527 126.17 213.503 126.506 213.455 126.806H205.877C205.937 127.598 206.231 128.234 206.759 128.714C207.287 129.194 207.935 129.434 208.703 129.434C209.807 129.434 210.587 128.972 211.043 128.048H213.257C212.957 128.96 212.411 129.71 211.619 130.298C210.839 130.874 209.867 131.162 208.703 131.162C207.755 131.162 206.903 130.952 206.147 130.532C205.403 130.1 204.815 129.5 204.383 128.732C203.963 127.952 203.753 127.052 203.753 126.032C203.753 125.012 203.957 124.118 204.365 123.35C204.785 122.57 205.367 121.97 206.111 121.55C206.867 121.13 207.731 120.92 208.703 120.92C209.639 120.92 210.473 121.124 211.205 121.532C211.937 121.94 212.507 122.516 212.915 123.26C213.323 123.992 213.527 124.838 213.527 125.798ZM211.385 125.15C211.373 124.394 211.103 123.788 210.575 123.332C210.047 122.876 209.393 122.648 208.613 122.648C207.905 122.648 207.299 122.876 206.795 123.332C206.291 123.776 205.991 124.382 205.895 125.15H211.385ZM219.146 131.162C218.366 131.162 217.664 131.024 217.04 130.748C216.428 130.46 215.942 130.076 215.582 129.596C215.222 129.104 215.03 128.558 215.006 127.958H217.13C217.166 128.378 217.364 128.732 217.724 129.02C218.096 129.296 218.558 129.434 219.11 129.434C219.686 129.434 220.13 129.326 220.442 129.11C220.766 128.882 220.928 128.594 220.928 128.246C220.928 127.874 220.748 127.598 220.388 127.418C220.04 127.238 219.482 127.04 218.714 126.824C217.97 126.62 217.364 126.422 216.896 126.23C216.428 126.038 216.02 125.744 215.672 125.348C215.336 124.952 215.168 124.43 215.168 123.782C215.168 123.254 215.324 122.774 215.636 122.342C215.948 121.898 216.392 121.55 216.968 121.298C217.556 121.046 218.228 120.92 218.984 120.92C220.112 120.92 221.018 121.208 221.702 121.784C222.398 122.348 222.77 123.122 222.818 124.106H220.766C220.73 123.662 220.55 123.308 220.226 123.044C219.902 122.78 219.464 122.648 218.912 122.648C218.372 122.648 217.958 122.75 217.67 122.954C217.382 123.158 217.238 123.428 217.238 123.764C217.238 124.028 217.334 124.25 217.526 124.43C217.718 124.61 217.952 124.754 218.228 124.862C218.504 124.958 218.912 125.084 219.452 125.24C220.172 125.432 220.76 125.63 221.216 125.834C221.684 126.026 222.086 126.314 222.422 126.698C222.758 127.082 222.932 127.592 222.944 128.228C222.944 128.792 222.788 129.296 222.476 129.74C222.164 130.184 221.72 130.532 221.144 130.784C220.58 131.036 219.914 131.162 219.146 131.162Z" fill="#7C7C7C"/>
<defs>
<filter id="filter0_d_254_3561" x="0.666748" y="0" width="314" height="199" filterUnits="userSpaceOnUse" color-interpolation-filters="sRGB">
<feFlood flood-opacity="0" result="BackgroundImageFix"/>
<feColorMatrix in="SourceAlpha" type="matrix" values="0 0 0 0 0 0 0 0 0 0 0 0 0 0 0 0 0 0 127 0" result="hardAlpha"/>
<feOffset dy="2"/>
<feGaussianBlur stdDeviation="3.5"/>
<feComposite in2="hardAlpha" operator="out"/>
<feColorMatrix type="matrix" values="0 0 0 0 0 0 0 0 0 0 0 0 0 0 0 0 0 0 0.1 0"/>
<feBlend mode="normal" in2="BackgroundImageFix" result="effect1_dropShadow_254_3561"/>
<feBlend mode="normal" in="SourceGraphic" in2="effect1_dropShadow_254_3561" result="shape"/>
</filter>
</defs>
</svg>
