<svg width="315" height="199" viewBox="0 0 315 199" fill="none" xmlns="http://www.w3.org/2000/svg">
<g opacity="0.5" filter="url(#filter0_d_273_3906)">
<rect x="7.33337" y="5" width="300" height="185" rx="10" fill="white"/>
<rect x="7.83337" y="5.5" width="299" height="184" rx="9.5" stroke="#2C8ACE"/>
</g>
<path d="M103.655 84.944C105.703 83.2373 107.335 81.8187 108.551 80.688C109.767 79.536 110.78 78.3413 111.591 77.104C112.401 75.8667 112.807 74.6507 112.807 73.456C112.807 72.368 112.551 71.5147 112.039 70.896C111.527 70.2773 110.737 69.968 109.671 69.968C108.604 69.968 107.783 70.3307 107.207 71.056C106.631 71.76 106.332 72.7307 106.311 73.968H101.959C102.044 71.408 102.801 69.4667 104.231 68.144C105.681 66.8213 107.516 66.16 109.735 66.16C112.167 66.16 114.033 66.8107 115.335 68.112C116.636 69.392 117.287 71.088 117.287 73.2C117.287 74.864 116.839 76.4533 115.943 77.968C115.047 79.4827 114.023 80.8053 112.871 81.936C111.719 83.0453 110.215 84.3893 108.359 85.968H117.799V89.68H101.991V86.352L103.655 84.944Z" fill="#27C7D2"/>
<path d="M133.166 59.792L124.462 95.6H120.878L129.55 59.792H133.166ZM140.963 77.648C138.83 76.5387 137.763 74.8213 137.763 72.496C137.763 71.344 138.051 70.2987 138.627 69.36C139.225 68.4 140.11 67.6427 141.283 67.088C142.478 66.512 143.929 66.224 145.635 66.224C147.342 66.224 148.782 66.512 149.955 67.088C151.15 67.6427 152.035 68.4 152.611 69.36C153.209 70.2987 153.507 71.344 153.507 72.496C153.507 73.6693 153.219 74.704 152.643 75.6C152.067 76.4747 151.299 77.1573 150.339 77.648C151.513 78.16 152.43 78.9067 153.091 79.888C153.753 80.8693 154.083 82.032 154.083 83.376C154.083 84.8267 153.71 86.096 152.963 87.184C152.238 88.2507 151.235 89.072 149.955 89.648C148.675 90.224 147.235 90.512 145.635 90.512C144.035 90.512 142.595 90.224 141.315 89.648C140.057 89.072 139.054 88.2507 138.307 87.184C137.582 86.096 137.219 84.8267 137.219 83.376C137.219 82.032 137.55 80.8693 138.211 79.888C138.873 78.8853 139.79 78.1387 140.963 77.648ZM149.155 73.136C149.155 72.0907 148.835 71.28 148.195 70.704C147.577 70.128 146.723 69.84 145.635 69.84C144.569 69.84 143.715 70.128 143.075 70.704C142.457 71.28 142.147 72.1013 142.147 73.168C142.147 74.128 142.467 74.896 143.107 75.472C143.769 76.048 144.611 76.336 145.635 76.336C146.659 76.336 147.502 76.048 148.163 75.472C148.825 74.8747 149.155 74.096 149.155 73.136ZM145.635 79.6C144.419 79.6 143.427 79.9093 142.659 80.528C141.913 81.1467 141.539 82.032 141.539 83.184C141.539 84.2507 141.902 85.1253 142.627 85.808C143.374 86.4693 144.377 86.8 145.635 86.8C146.894 86.8 147.886 86.4587 148.611 85.776C149.337 85.0933 149.699 84.2293 149.699 83.184C149.699 82.0533 149.326 81.1787 148.579 80.56C147.833 79.92 146.851 79.6 145.635 79.6ZM169.811 76.04C171.277 76.04 172.564 76.3267 173.671 76.9C174.791 77.4733 175.651 78.2933 176.251 79.36C176.864 80.4133 177.171 81.64 177.171 83.04C177.171 84.44 176.864 85.6667 176.251 86.72C175.651 87.76 174.791 88.5667 173.671 89.14C172.564 89.7133 171.277 90 169.811 90H164.931V76.04H169.811ZM169.711 87.62C171.177 87.62 172.311 87.22 173.111 86.42C173.911 85.62 174.311 84.4933 174.311 83.04C174.311 81.5867 173.911 80.4533 173.111 79.64C172.311 78.8133 171.177 78.4 169.711 78.4H167.731V87.62H169.711ZM178.547 84.42C178.547 83.3 178.767 82.3067 179.207 81.44C179.66 80.5733 180.267 79.9067 181.027 79.44C181.8 78.9733 182.66 78.74 183.607 78.74C184.433 78.74 185.153 78.9067 185.767 79.24C186.393 79.5733 186.893 79.9933 187.267 80.5V78.92H190.087V90H187.267V88.38C186.907 88.9 186.407 89.3333 185.767 89.68C185.14 90.0133 184.413 90.18 183.587 90.18C182.653 90.18 181.8 89.94 181.027 89.46C180.267 88.98 179.66 88.3067 179.207 87.44C178.767 86.56 178.547 85.5533 178.547 84.42ZM187.267 84.46C187.267 83.78 187.133 83.2 186.867 82.72C186.6 82.2267 186.24 81.8533 185.787 81.6C185.333 81.3333 184.847 81.2 184.327 81.2C183.807 81.2 183.327 81.3267 182.887 81.58C182.447 81.8333 182.087 82.2067 181.807 82.7C181.54 83.18 181.407 83.7533 181.407 84.42C181.407 85.0867 181.54 85.6733 181.807 86.18C182.087 86.6733 182.447 87.0533 182.887 87.32C183.34 87.5867 183.82 87.72 184.327 87.72C184.847 87.72 185.333 87.5933 185.787 87.34C186.24 87.0733 186.6 86.7 186.867 86.22C187.133 85.7267 187.267 85.14 187.267 84.46ZM203.421 78.92L196.561 95.24H193.581L195.981 89.72L191.541 78.92H194.681L197.541 86.66L200.441 78.92H203.421ZM209.171 90.18C208.264 90.18 207.451 90.02 206.731 89.7C206.011 89.3667 205.437 88.92 205.011 88.36C204.597 87.8 204.371 87.18 204.331 86.5H207.151C207.204 86.9267 207.411 87.28 207.771 87.56C208.144 87.84 208.604 87.98 209.151 87.98C209.684 87.98 210.097 87.8733 210.391 87.66C210.697 87.4467 210.851 87.1733 210.851 86.84C210.851 86.48 210.664 86.2133 210.291 86.04C209.931 85.8533 209.351 85.6533 208.551 85.44C207.724 85.24 207.044 85.0333 206.511 84.82C205.991 84.6067 205.537 84.28 205.151 83.84C204.777 83.4 204.591 82.8067 204.591 82.06C204.591 81.4467 204.764 80.8867 205.111 80.38C205.471 79.8733 205.977 79.4733 206.631 79.18C207.297 78.8867 208.077 78.74 208.971 78.74C210.291 78.74 211.344 79.0733 212.131 79.74C212.917 80.3933 213.351 81.28 213.431 82.4H210.751C210.711 81.96 210.524 81.6133 210.191 81.36C209.871 81.0933 209.437 80.96 208.891 80.96C208.384 80.96 207.991 81.0533 207.711 81.24C207.444 81.4267 207.311 81.6867 207.311 82.02C207.311 82.3933 207.497 82.68 207.871 82.88C208.244 83.0667 208.824 83.26 209.611 83.46C210.411 83.66 211.071 83.8667 211.591 84.08C212.111 84.2933 212.557 84.6267 212.931 85.08C213.317 85.52 213.517 86.1067 213.531 86.84C213.531 87.48 213.351 88.0533 212.991 88.56C212.644 89.0667 212.137 89.4667 211.471 89.76C210.817 90.04 210.051 90.18 209.171 90.18Z" fill="#7C7C7C"/>
<path d="M94.0674 126.718C94.0674 125.494 94.3494 124.396 94.9134 123.424C95.4894 122.452 96.2634 121.696 97.2354 121.156C98.2194 120.604 99.2934 120.328 100.457 120.328C101.789 120.328 102.971 120.658 104.003 121.318C105.047 121.966 105.803 122.89 106.271 124.09H103.805C103.481 123.43 103.031 122.938 102.455 122.614C101.879 122.29 101.213 122.128 100.457 122.128C99.6294 122.128 98.8914 122.314 98.2434 122.686C97.5954 123.058 97.0854 123.592 96.7134 124.288C96.3534 124.984 96.1734 125.794 96.1734 126.718C96.1734 127.642 96.3534 128.452 96.7134 129.148C97.0854 129.844 97.5954 130.384 98.2434 130.768C98.8914 131.14 99.6294 131.326 100.457 131.326C101.213 131.326 101.879 131.164 102.455 130.84C103.031 130.516 103.481 130.024 103.805 129.364H106.271C105.803 130.564 105.047 131.488 104.003 132.136C102.971 132.784 101.789 133.108 100.457 133.108C99.2814 133.108 98.2074 132.838 97.2354 132.298C96.2634 131.746 95.4894 130.984 94.9134 130.012C94.3494 129.04 94.0674 127.942 94.0674 126.718ZM107.989 127.996C107.989 127 108.193 126.118 108.601 125.35C109.021 124.582 109.585 123.988 110.293 123.568C111.013 123.136 111.805 122.92 112.669 122.92C113.449 122.92 114.127 123.076 114.703 123.388C115.291 123.688 115.759 124.066 116.107 124.522V123.082H118.177V133H116.107V131.524C115.759 131.992 115.285 132.382 114.685 132.694C114.085 133.006 113.401 133.162 112.633 133.162C111.781 133.162 111.001 132.946 110.293 132.514C109.585 132.07 109.021 131.458 108.601 130.678C108.193 129.886 107.989 128.992 107.989 127.996ZM116.107 128.032C116.107 127.348 115.963 126.754 115.675 126.25C115.399 125.746 115.033 125.362 114.577 125.098C114.121 124.834 113.629 124.702 113.101 124.702C112.573 124.702 112.081 124.834 111.625 125.098C111.169 125.35 110.797 125.728 110.509 126.232C110.233 126.724 110.095 127.312 110.095 127.996C110.095 128.68 110.233 129.28 110.509 129.796C110.797 130.312 111.169 130.708 111.625 130.984C112.093 131.248 112.585 131.38 113.101 131.38C113.629 131.38 114.121 131.248 114.577 130.984C115.033 130.72 115.399 130.336 115.675 129.832C115.963 129.316 116.107 128.716 116.107 128.032ZM124.472 133.162C123.692 133.162 122.99 133.024 122.366 132.748C121.754 132.46 121.268 132.076 120.908 131.596C120.548 131.104 120.356 130.558 120.332 129.958H122.456C122.492 130.378 122.69 130.732 123.05 131.02C123.422 131.296 123.884 131.434 124.436 131.434C125.012 131.434 125.456 131.326 125.768 131.11C126.092 130.882 126.254 130.594 126.254 130.246C126.254 129.874 126.074 129.598 125.714 129.418C125.366 129.238 124.808 129.04 124.04 128.824C123.296 128.62 122.69 128.422 122.222 128.23C121.754 128.038 121.346 127.744 120.998 127.348C120.662 126.952 120.494 126.43 120.494 125.782C120.494 125.254 120.65 124.774 120.962 124.342C121.274 123.898 121.718 123.55 122.294 123.298C122.882 123.046 123.554 122.92 124.31 122.92C125.438 122.92 126.344 123.208 127.028 123.784C127.724 124.348 128.096 125.122 128.144 126.106H126.092C126.056 125.662 125.876 125.308 125.552 125.044C125.228 124.78 124.79 124.648 124.238 124.648C123.698 124.648 123.284 124.75 122.996 124.954C122.708 125.158 122.564 125.428 122.564 125.764C122.564 126.028 122.66 126.25 122.852 126.43C123.044 126.61 123.278 126.754 123.554 126.862C123.83 126.958 124.238 127.084 124.778 127.24C125.498 127.432 126.086 127.63 126.542 127.834C127.01 128.026 127.412 128.314 127.748 128.698C128.084 129.082 128.258 129.592 128.27 130.228C128.27 130.792 128.114 131.296 127.802 131.74C127.49 132.184 127.046 132.532 126.47 132.784C125.906 133.036 125.24 133.162 124.472 133.162ZM139.47 123.082V133H137.418V131.83C137.094 132.238 136.668 132.562 136.14 132.802C135.624 133.03 135.072 133.144 134.484 133.144C133.704 133.144 133.002 132.982 132.378 132.658C131.766 132.334 131.28 131.854 130.92 131.218C130.572 130.582 130.398 129.814 130.398 128.914V123.082H132.432V128.608C132.432 129.496 132.654 130.18 133.098 130.66C133.542 131.128 134.148 131.362 134.916 131.362C135.684 131.362 136.29 131.128 136.734 130.66C137.19 130.18 137.418 129.496 137.418 128.608V123.082H139.47ZM141.493 127.996C141.493 127 141.697 126.118 142.105 125.35C142.525 124.582 143.089 123.988 143.797 123.568C144.517 123.136 145.309 122.92 146.173 122.92C146.953 122.92 147.631 123.076 148.207 123.388C148.795 123.688 149.263 124.066 149.611 124.522V123.082H151.681V133H149.611V131.524C149.263 131.992 148.789 132.382 148.189 132.694C147.589 133.006 146.905 133.162 146.137 133.162C145.285 133.162 144.505 132.946 143.797 132.514C143.089 132.07 142.525 131.458 142.105 130.678C141.697 129.886 141.493 128.992 141.493 127.996ZM149.611 128.032C149.611 127.348 149.467 126.754 149.179 126.25C148.903 125.746 148.537 125.362 148.081 125.098C147.625 124.834 147.133 124.702 146.605 124.702C146.077 124.702 145.585 124.834 145.129 125.098C144.673 125.35 144.301 125.728 144.013 126.232C143.737 126.724 143.599 127.312 143.599 127.996C143.599 128.68 143.737 129.28 144.013 129.796C144.301 130.312 144.673 130.708 145.129 130.984C145.597 131.248 146.089 131.38 146.605 131.38C147.133 131.38 147.625 131.248 148.081 130.984C148.537 130.72 148.903 130.336 149.179 129.832C149.467 129.316 149.611 128.716 149.611 128.032ZM156.428 119.68V133H154.376V119.68H156.428ZM165.85 119.68V133H163.798V119.68H165.85ZM177.634 127.798C177.634 128.17 177.61 128.506 177.562 128.806H169.984C170.044 129.598 170.338 130.234 170.866 130.714C171.394 131.194 172.042 131.434 172.81 131.434C173.914 131.434 174.694 130.972 175.15 130.048H177.364C177.064 130.96 176.518 131.71 175.726 132.298C174.946 132.874 173.974 133.162 172.81 133.162C171.862 133.162 171.01 132.952 170.254 132.532C169.51 132.1 168.922 131.5 168.49 130.732C168.07 129.952 167.86 129.052 167.86 128.032C167.86 127.012 168.064 126.118 168.472 125.35C168.892 124.57 169.474 123.97 170.218 123.55C170.974 123.13 171.838 122.92 172.81 122.92C173.746 122.92 174.58 123.124 175.312 123.532C176.044 123.94 176.614 124.516 177.022 125.26C177.43 125.992 177.634 126.838 177.634 127.798ZM175.492 127.15C175.48 126.394 175.21 125.788 174.682 125.332C174.154 124.876 173.5 124.648 172.72 124.648C172.012 124.648 171.406 124.876 170.902 125.332C170.398 125.776 170.098 126.382 170.002 127.15H175.492ZM178.97 127.996C178.97 127 179.174 126.118 179.582 125.35C180.002 124.582 180.566 123.988 181.274 123.568C181.994 123.136 182.786 122.92 183.65 122.92C184.43 122.92 185.108 123.076 185.684 123.388C186.272 123.688 186.74 124.066 187.088 124.522V123.082H189.158V133H187.088V131.524C186.74 131.992 186.266 132.382 185.666 132.694C185.066 133.006 184.382 133.162 183.614 133.162C182.762 133.162 181.982 132.946 181.274 132.514C180.566 132.07 180.002 131.458 179.582 130.678C179.174 129.886 178.97 128.992 178.97 127.996ZM187.088 128.032C187.088 127.348 186.944 126.754 186.656 126.25C186.38 125.746 186.014 125.362 185.558 125.098C185.102 124.834 184.61 124.702 184.082 124.702C183.554 124.702 183.062 124.834 182.606 125.098C182.15 125.35 181.778 125.728 181.49 126.232C181.214 126.724 181.076 127.312 181.076 127.996C181.076 128.68 181.214 129.28 181.49 129.796C181.778 130.312 182.15 130.708 182.606 130.984C183.074 131.248 183.566 131.38 184.082 131.38C184.61 131.38 185.102 131.248 185.558 130.984C186.014 130.72 186.38 130.336 186.656 129.832C186.944 129.316 187.088 128.716 187.088 128.032ZM195.687 131.164L198.495 123.082H200.673L196.893 133H194.445L190.683 123.082H192.879L195.687 131.164ZM211.314 127.798C211.314 128.17 211.29 128.506 211.242 128.806H203.664C203.724 129.598 204.018 130.234 204.546 130.714C205.074 131.194 205.722 131.434 206.49 131.434C207.594 131.434 208.374 130.972 208.83 130.048H211.044C210.744 130.96 210.198 131.71 209.406 132.298C208.626 132.874 207.654 133.162 206.49 133.162C205.542 133.162 204.69 132.952 203.934 132.532C203.19 132.1 202.602 131.5 202.17 130.732C201.75 129.952 201.54 129.052 201.54 128.032C201.54 127.012 201.744 126.118 202.152 125.35C202.572 124.57 203.154 123.97 203.898 123.55C204.654 123.13 205.518 122.92 206.49 122.92C207.426 122.92 208.26 123.124 208.992 123.532C209.724 123.94 210.294 124.516 210.702 125.26C211.11 125.992 211.314 126.838 211.314 127.798ZM209.172 127.15C209.16 126.394 208.89 125.788 208.362 125.332C207.834 124.876 207.18 124.648 206.4 124.648C205.692 124.648 205.086 124.876 204.582 125.332C204.078 125.776 203.778 126.382 203.682 127.15H209.172ZM216.933 133.162C216.153 133.162 215.451 133.024 214.827 132.748C214.215 132.46 213.729 132.076 213.369 131.596C213.009 131.104 212.817 130.558 212.793 129.958H214.917C214.953 130.378 215.151 130.732 215.511 131.02C215.883 131.296 216.345 131.434 216.897 131.434C217.473 131.434 217.917 131.326 218.229 131.11C218.553 130.882 218.715 130.594 218.715 130.246C218.715 129.874 218.535 129.598 218.175 129.418C217.827 129.238 217.269 129.04 216.501 128.824C215.757 128.62 215.151 128.422 214.683 128.23C214.215 128.038 213.807 127.744 213.459 127.348C213.123 126.952 212.955 126.43 212.955 125.782C212.955 125.254 213.111 124.774 213.423 124.342C213.735 123.898 214.179 123.55 214.755 123.298C215.343 123.046 216.015 122.92 216.771 122.92C217.899 122.92 218.805 123.208 219.489 123.784C220.185 124.348 220.557 125.122 220.605 126.106H218.553C218.517 125.662 218.337 125.308 218.013 125.044C217.689 124.78 217.251 124.648 216.699 124.648C216.159 124.648 215.745 124.75 215.457 124.954C215.169 125.158 215.025 125.428 215.025 125.764C215.025 126.028 215.121 126.25 215.313 126.43C215.505 126.61 215.739 126.754 216.015 126.862C216.291 126.958 216.699 127.084 217.239 127.24C217.959 127.432 218.547 127.63 219.003 127.834C219.471 128.026 219.873 128.314 220.209 128.698C220.545 129.082 220.719 129.592 220.731 130.228C220.731 130.792 220.575 131.296 220.263 131.74C219.951 132.184 219.507 132.532 218.931 132.784C218.367 133.036 217.701 133.162 216.933 133.162Z" fill="#7C7C7C"/>
<defs>
<filter id="filter0_d_273_3906" x="0.333374" y="0" width="314" height="199" filterUnits="userSpaceOnUse" color-interpolation-filters="sRGB">
<feFlood flood-opacity="0" result="BackgroundImageFix"/>
<feColorMatrix in="SourceAlpha" type="matrix" values="0 0 0 0 0 0 0 0 0 0 0 0 0 0 0 0 0 0 127 0" result="hardAlpha"/>
<feOffset dy="2"/>
<feGaussianBlur stdDeviation="3.5"/>
<feComposite in2="hardAlpha" operator="out"/>
<feColorMatrix type="matrix" values="0 0 0 0 0 0 0 0 0 0 0 0 0 0 0 0 0 0 0.1 0"/>
<feBlend mode="normal" in2="BackgroundImageFix" result="effect1_dropShadow_273_3906"/>
<feBlend mode="normal" in="SourceGraphic" in2="effect1_dropShadow_273_3906" result="shape"/>
</filter>
</defs>
</svg>
