<svg width="976" height="148" viewBox="0 0 976 148" fill="none" xmlns="http://www.w3.org/2000/svg">
<path d="M357.78 9.94V14.02H362.58V15.88H357.78V20.14H363.18V22H355.5V8.08H363.18V9.94H357.78ZM379.328 10.8C380.195 10.8 380.968 10.98 381.648 11.34C382.342 11.7 382.882 12.2333 383.268 12.94C383.668 13.6467 383.868 14.5 383.868 15.5V22H381.608V15.84C381.608 14.8533 381.362 14.1 380.868 13.58C380.375 13.0467 379.702 12.78 378.848 12.78C377.995 12.78 377.315 13.0467 376.808 13.58C376.315 14.1 376.068 14.8533 376.068 15.84V22H373.808V15.84C373.808 14.8533 373.562 14.1 373.068 13.58C372.575 13.0467 371.902 12.78 371.048 12.78C370.195 12.78 369.515 13.0467 369.008 13.58C368.515 14.1 368.268 14.8533 368.268 15.84V22H365.988V10.98H368.268V12.24C368.642 11.7867 369.115 11.4333 369.688 11.18C370.262 10.9267 370.875 10.8 371.528 10.8C372.408 10.8 373.195 10.9867 373.888 11.36C374.582 11.7333 375.115 12.2733 375.488 12.98C375.822 12.3133 376.342 11.7867 377.048 11.4C377.755 11 378.515 10.8 379.328 10.8ZM389.05 12.6C389.436 12.0933 389.963 11.6667 390.63 11.32C391.296 10.9733 392.05 10.8 392.89 10.8C393.85 10.8 394.723 11.04 395.51 11.52C396.31 11.9867 396.936 12.6467 397.39 13.5C397.843 14.3533 398.07 15.3333 398.07 16.44C398.07 17.5467 397.843 18.54 397.39 19.42C396.936 20.2867 396.31 20.9667 395.51 21.46C394.723 21.94 393.85 22.18 392.89 22.18C392.05 22.18 391.303 22.0133 390.65 21.68C389.996 21.3333 389.463 20.9067 389.05 20.4V27.24H386.77V10.98H389.05V12.6ZM395.75 16.44C395.75 15.68 395.59 15.0267 395.27 14.48C394.963 13.92 394.55 13.5 394.03 13.22C393.523 12.9267 392.976 12.78 392.39 12.78C391.816 12.78 391.27 12.9267 390.75 13.22C390.243 13.5133 389.83 13.94 389.51 14.5C389.203 15.06 389.05 15.72 389.05 16.48C389.05 17.24 389.203 17.9067 389.51 18.48C389.83 19.04 390.243 19.4667 390.75 19.76C391.27 20.0533 391.816 20.2 392.39 20.2C392.976 20.2 393.523 20.0533 394.03 19.76C394.55 19.4533 394.963 19.0133 395.27 18.44C395.59 17.8667 395.75 17.2 395.75 16.44ZM402.604 7.2V22H400.324V7.2H402.604ZM410.378 22.18C409.338 22.18 408.398 21.9467 407.558 21.48C406.718 21 406.058 20.3333 405.578 19.48C405.098 18.6133 404.858 17.6133 404.858 16.48C404.858 15.36 405.104 14.3667 405.598 13.5C406.091 12.6333 406.764 11.9667 407.618 11.5C408.471 11.0333 409.424 10.8 410.478 10.8C411.531 10.8 412.484 11.0333 413.338 11.5C414.191 11.9667 414.864 12.6333 415.358 13.5C415.851 14.3667 416.098 15.36 416.098 16.48C416.098 17.6 415.844 18.5933 415.338 19.46C414.831 20.3267 414.138 21 413.258 21.48C412.391 21.9467 411.431 22.18 410.378 22.18ZM410.378 20.2C410.964 20.2 411.511 20.06 412.018 19.78C412.538 19.5 412.958 19.08 413.278 18.52C413.598 17.96 413.758 17.28 413.758 16.48C413.758 15.68 413.604 15.0067 413.298 14.46C412.991 13.9 412.584 13.48 412.078 13.2C411.571 12.92 411.024 12.78 410.438 12.78C409.851 12.78 409.304 12.92 408.798 13.2C408.304 13.48 407.911 13.9 407.618 14.46C407.324 15.0067 407.178 15.68 407.178 16.48C407.178 17.6667 407.478 18.5867 408.078 19.24C408.691 19.88 409.458 20.2 410.378 20.2ZM428.272 10.98L421.512 27.18H419.152L421.392 21.82L417.052 10.98H419.592L422.692 19.38L425.912 10.98H428.272ZM440.092 16.22C440.092 16.6333 440.066 17.0067 440.012 17.34H431.592C431.659 18.22 431.986 18.9267 432.572 19.46C433.159 19.9933 433.879 20.26 434.732 20.26C435.959 20.26 436.826 19.7467 437.332 18.72H439.792C439.459 19.7333 438.852 20.5667 437.972 21.22C437.106 21.86 436.026 22.18 434.732 22.18C433.679 22.18 432.732 21.9467 431.892 21.48C431.066 21 430.412 20.3333 429.932 19.48C429.466 18.6133 429.232 17.6133 429.232 16.48C429.232 15.3467 429.459 14.3533 429.912 13.5C430.379 12.6333 431.026 11.9667 431.852 11.5C432.692 11.0333 433.652 10.8 434.732 10.8C435.772 10.8 436.699 11.0267 437.512 11.48C438.326 11.9333 438.959 12.5733 439.412 13.4C439.866 14.2133 440.092 15.1533 440.092 16.22ZM437.712 15.5C437.699 14.66 437.399 13.9867 436.812 13.48C436.226 12.9733 435.499 12.72 434.632 12.72C433.846 12.72 433.172 12.9733 432.612 13.48C432.052 13.9733 431.719 14.6467 431.612 15.5H437.712ZM452.436 16.22C452.436 16.6333 452.409 17.0067 452.356 17.34H443.936C444.003 18.22 444.329 18.9267 444.916 19.46C445.503 19.9933 446.223 20.26 447.076 20.26C448.303 20.26 449.169 19.7467 449.676 18.72H452.136C451.803 19.7333 451.196 20.5667 450.316 21.22C449.449 21.86 448.369 22.18 447.076 22.18C446.023 22.18 445.076 21.9467 444.236 21.48C443.409 21 442.756 20.3333 442.276 19.48C441.809 18.6133 441.576 17.6133 441.576 16.48C441.576 15.3467 441.803 14.3533 442.256 13.5C442.723 12.6333 443.369 11.9667 444.196 11.5C445.036 11.0333 445.996 10.8 447.076 10.8C448.116 10.8 449.043 11.0267 449.856 11.48C450.669 11.9333 451.303 12.5733 451.756 13.4C452.209 14.2133 452.436 15.1533 452.436 16.22ZM450.056 15.5C450.043 14.66 449.743 13.9867 449.156 13.48C448.569 12.9733 447.843 12.72 446.976 12.72C446.189 12.72 445.516 12.9733 444.956 13.48C444.396 13.9733 444.063 14.6467 443.956 15.5H450.056ZM464.455 22.14C463.522 22.14 462.682 21.98 461.935 21.66C461.188 21.3267 460.602 20.86 460.175 20.26C459.748 19.66 459.535 18.96 459.535 18.16H461.975C462.028 18.76 462.262 19.2533 462.675 19.64C463.102 20.0267 463.695 20.22 464.455 20.22C465.242 20.22 465.855 20.0333 466.295 19.66C466.735 19.2733 466.955 18.78 466.955 18.18C466.955 17.7133 466.815 17.3333 466.535 17.04C466.268 16.7467 465.928 16.52 465.515 16.36C465.115 16.2 464.555 16.0267 463.835 15.84C462.928 15.6 462.188 15.36 461.615 15.12C461.055 14.8667 460.575 14.48 460.175 13.96C459.775 13.44 459.575 12.7467 459.575 11.88C459.575 11.08 459.775 10.38 460.175 9.78C460.575 9.18 461.135 8.72 461.855 8.4C462.575 8.08 463.408 7.92 464.355 7.92C465.702 7.92 466.802 8.26 467.655 8.94C468.522 9.60667 469.002 10.5267 469.095 11.7H466.575C466.535 11.1933 466.295 10.76 465.855 10.4C465.415 10.04 464.835 9.86 464.115 9.86C463.462 9.86 462.928 10.0267 462.515 10.36C462.102 10.6933 461.895 11.1733 461.895 11.8C461.895 12.2267 462.022 12.58 462.275 12.86C462.542 13.1267 462.875 13.34 463.275 13.5C463.675 13.66 464.222 13.8333 464.915 14.02C465.835 14.2733 466.582 14.5267 467.155 14.78C467.742 15.0333 468.235 15.4267 468.635 15.96C469.048 16.48 469.255 17.18 469.255 18.06C469.255 18.7667 469.062 19.4333 468.675 20.06C468.302 20.6867 467.748 21.1933 467.015 21.58C466.295 21.9533 465.442 22.14 464.455 22.14ZM482.045 16.22C482.045 16.6333 482.019 17.0067 481.965 17.34H473.545C473.612 18.22 473.939 18.9267 474.525 19.46C475.112 19.9933 475.832 20.26 476.685 20.26C477.912 20.26 478.779 19.7467 479.285 18.72H481.745C481.412 19.7333 480.805 20.5667 479.925 21.22C479.059 21.86 477.979 22.18 476.685 22.18C475.632 22.18 474.685 21.9467 473.845 21.48C473.019 21 472.365 20.3333 471.885 19.48C471.419 18.6133 471.185 17.6133 471.185 16.48C471.185 15.3467 471.412 14.3533 471.865 13.5C472.332 12.6333 472.979 11.9667 473.805 11.5C474.645 11.0333 475.605 10.8 476.685 10.8C477.725 10.8 478.652 11.0267 479.465 11.48C480.279 11.9333 480.912 12.5733 481.365 13.4C481.819 14.2133 482.045 15.1533 482.045 16.22ZM479.665 15.5C479.652 14.66 479.352 13.9867 478.765 13.48C478.179 12.9733 477.452 12.72 476.585 12.72C475.799 12.72 475.125 12.9733 474.565 13.48C474.005 13.9733 473.672 14.6467 473.565 15.5H479.665ZM486.569 7.2V22H484.289V7.2H486.569ZM494.183 12.84H492.143V22H489.843V12.84H488.543V10.98H489.843V10.2C489.843 8.93333 490.176 8.01333 490.843 7.44C491.523 6.85333 492.583 6.56 494.023 6.56V8.46C493.329 8.46 492.843 8.59333 492.563 8.86C492.283 9.11333 492.143 9.56 492.143 10.2V10.98H494.183V12.84ZM507.738 22.14C506.445 22.14 505.252 21.84 504.158 21.24C503.078 20.6267 502.218 19.78 501.578 18.7C500.952 17.6067 500.638 16.38 500.638 15.02C500.638 13.66 500.952 12.44 501.578 11.36C502.218 10.28 503.078 9.44 504.158 8.84C505.252 8.22667 506.445 7.92 507.738 7.92C509.045 7.92 510.238 8.22667 511.318 8.84C512.412 9.44 513.272 10.28 513.898 11.36C514.525 12.44 514.838 13.66 514.838 15.02C514.838 16.38 514.525 17.6067 513.898 18.7C513.272 19.78 512.412 20.6267 511.318 21.24C510.238 21.84 509.045 22.14 507.738 22.14ZM507.738 20.16C508.658 20.16 509.478 19.9533 510.198 19.54C510.918 19.1133 511.478 18.5133 511.878 17.74C512.292 16.9533 512.498 16.0467 512.498 15.02C512.498 13.9933 512.292 13.0933 511.878 12.32C511.478 11.5467 510.918 10.9533 510.198 10.54C509.478 10.1267 508.658 9.92 507.738 9.92C506.818 9.92 505.998 10.1267 505.278 10.54C504.558 10.9533 503.992 11.5467 503.578 12.32C503.178 13.0933 502.978 13.9933 502.978 15.02C502.978 16.0467 503.178 16.9533 503.578 17.74C503.992 18.5133 504.558 19.1133 505.278 19.54C505.998 19.9533 506.818 20.16 507.738 20.16ZM522.642 10.8C523.509 10.8 524.282 10.98 524.962 11.34C525.655 11.7 526.195 12.2333 526.582 12.94C526.969 13.6467 527.162 14.5 527.162 15.5V22H524.902V15.84C524.902 14.8533 524.655 14.1 524.162 13.58C523.669 13.0467 522.995 12.78 522.142 12.78C521.289 12.78 520.609 13.0467 520.102 13.58C519.609 14.1 519.362 14.8533 519.362 15.84V22H517.082V10.98H519.362V12.24C519.735 11.7867 520.209 11.4333 520.782 11.18C521.369 10.9267 521.989 10.8 522.642 10.8ZM532.35 12.62C532.737 12.0867 533.264 11.6533 533.93 11.32C534.61 10.9733 535.364 10.8 536.19 10.8C537.164 10.8 538.044 11.0333 538.83 11.5C539.617 11.9667 540.237 12.6333 540.69 13.5C541.144 14.3533 541.37 15.3333 541.37 16.44C541.37 17.5467 541.144 18.54 540.69 19.42C540.237 20.2867 539.61 20.9667 538.81 21.46C538.024 21.94 537.15 22.18 536.19 22.18C535.337 22.18 534.577 22.0133 533.91 21.68C533.257 21.3467 532.737 20.92 532.35 20.4V22H530.07V7.2H532.35V12.62ZM539.05 16.44C539.05 15.68 538.89 15.0267 538.57 14.48C538.264 13.92 537.85 13.5 537.33 13.22C536.824 12.9267 536.277 12.78 535.69 12.78C535.117 12.78 534.57 12.9267 534.05 13.22C533.544 13.5133 533.13 13.94 532.81 14.5C532.504 15.06 532.35 15.72 532.35 16.48C532.35 17.24 532.504 17.9067 532.81 18.48C533.13 19.04 533.544 19.4667 534.05 19.76C534.57 20.0533 535.117 20.2 535.69 20.2C536.277 20.2 536.824 20.0533 537.33 19.76C537.85 19.4533 538.264 19.0133 538.57 18.44C538.89 17.8667 539.05 17.2 539.05 16.44ZM548.405 22.18C547.365 22.18 546.425 21.9467 545.585 21.48C544.745 21 544.085 20.3333 543.605 19.48C543.125 18.6133 542.885 17.6133 542.885 16.48C542.885 15.36 543.132 14.3667 543.625 13.5C544.118 12.6333 544.792 11.9667 545.645 11.5C546.498 11.0333 547.452 10.8 548.505 10.8C549.558 10.8 550.512 11.0333 551.365 11.5C552.218 11.9667 552.892 12.6333 553.385 13.5C553.878 14.3667 554.125 15.36 554.125 16.48C554.125 17.6 553.872 18.5933 553.365 19.46C552.858 20.3267 552.165 21 551.285 21.48C550.418 21.9467 549.458 22.18 548.405 22.18ZM548.405 20.2C548.992 20.2 549.538 20.06 550.045 19.78C550.565 19.5 550.985 19.08 551.305 18.52C551.625 17.96 551.785 17.28 551.785 16.48C551.785 15.68 551.632 15.0067 551.325 14.46C551.018 13.9 550.612 13.48 550.105 13.2C549.598 12.92 549.052 12.78 548.465 12.78C547.878 12.78 547.332 12.92 546.825 13.2C546.332 13.48 545.938 13.9 545.645 14.46C545.352 15.0067 545.205 15.68 545.205 16.48C545.205 17.6667 545.505 18.5867 546.105 19.24C546.718 19.88 547.485 20.2 548.405 20.2ZM555.619 16.44C555.619 15.3333 555.846 14.3533 556.299 13.5C556.766 12.6467 557.392 11.9867 558.179 11.52C558.979 11.04 559.859 10.8 560.819 10.8C561.686 10.8 562.439 10.9733 563.079 11.32C563.732 11.6533 564.252 12.0733 564.639 12.58V10.98H566.939V22H564.639V20.36C564.252 20.88 563.726 21.3133 563.059 21.66C562.392 22.0067 561.632 22.18 560.779 22.18C559.832 22.18 558.966 21.94 558.179 21.46C557.392 20.9667 556.766 20.2867 556.299 19.42C555.846 18.54 555.619 17.5467 555.619 16.44ZM564.639 16.48C564.639 15.72 564.479 15.06 564.159 14.5C563.852 13.94 563.446 13.5133 562.939 13.22C562.432 12.9267 561.886 12.78 561.299 12.78C560.712 12.78 560.166 12.9267 559.659 13.22C559.152 13.5 558.739 13.92 558.419 14.48C558.112 15.0267 557.959 15.68 557.959 16.44C557.959 17.2 558.112 17.8667 558.419 18.44C558.739 19.0133 559.152 19.4533 559.659 19.76C560.179 20.0533 560.726 20.2 561.299 20.2C561.886 20.2 562.432 20.0533 562.939 19.76C563.446 19.4667 563.852 19.04 564.159 18.48C564.479 17.9067 564.639 17.24 564.639 16.48ZM572.214 12.58C572.547 12.02 572.987 11.5867 573.534 11.28C574.094 10.96 574.754 10.8 575.514 10.8V13.16H574.934C574.04 13.16 573.36 13.3867 572.894 13.84C572.44 14.2933 572.214 15.08 572.214 16.2V22H569.934V10.98H572.214V12.58ZM576.849 16.44C576.849 15.3333 577.076 14.3533 577.529 13.5C577.996 12.6467 578.623 11.9867 579.409 11.52C580.209 11.04 581.096 10.8 582.069 10.8C582.789 10.8 583.496 10.96 584.189 11.28C584.896 11.5867 585.456 12 585.869 12.52V7.2H588.169V22H585.869V20.34C585.496 20.8733 584.976 21.3133 584.309 21.66C583.656 22.0067 582.903 22.18 582.049 22.18C581.089 22.18 580.209 21.94 579.409 21.46C578.623 20.9667 577.996 20.2867 577.529 19.42C577.076 18.54 576.849 17.5467 576.849 16.44ZM585.869 16.48C585.869 15.72 585.709 15.06 585.389 14.5C585.083 13.94 584.676 13.5133 584.169 13.22C583.663 12.9267 583.116 12.78 582.529 12.78C581.943 12.78 581.396 12.9267 580.889 13.22C580.383 13.5 579.969 13.92 579.649 14.48C579.343 15.0267 579.189 15.68 579.189 16.44C579.189 17.2 579.343 17.8667 579.649 18.44C579.969 19.0133 580.383 19.4533 580.889 19.76C581.409 20.0533 581.956 20.2 582.529 20.2C583.116 20.2 583.663 20.0533 584.169 19.76C584.676 19.4667 585.083 19.04 585.389 18.48C585.709 17.9067 585.869 17.24 585.869 16.48ZM592.324 9.52C591.911 9.52 591.564 9.38 591.284 9.1C591.004 8.82 590.864 8.47333 590.864 8.06C590.864 7.64667 591.004 7.3 591.284 7.02C591.564 6.74 591.911 6.6 592.324 6.6C592.724 6.6 593.064 6.74 593.344 7.02C593.624 7.3 593.764 7.64667 593.764 8.06C593.764 8.47333 593.624 8.82 593.344 9.1C593.064 9.38 592.724 9.52 592.324 9.52ZM593.444 10.98V22H591.164V10.98H593.444ZM601.998 10.8C602.864 10.8 603.638 10.98 604.318 11.34C605.011 11.7 605.551 12.2333 605.938 12.94C606.324 13.6467 606.518 14.5 606.518 15.5V22H604.258V15.84C604.258 14.8533 604.011 14.1 603.518 13.58C603.024 13.0467 602.351 12.78 601.498 12.78C600.644 12.78 599.964 13.0467 599.458 13.58C598.964 14.1 598.718 14.8533 598.718 15.84V22H596.438V10.98H598.718V12.24C599.091 11.7867 599.564 11.4333 600.138 11.18C600.724 10.9267 601.344 10.8 601.998 10.8ZM613.866 10.8C614.719 10.8 615.472 10.9733 616.126 11.32C616.792 11.6533 617.312 12.0733 617.686 12.58V10.98H619.986V22.18C619.986 23.1933 619.772 24.0933 619.346 24.88C618.919 25.68 618.299 26.3067 617.486 26.76C616.686 27.2133 615.726 27.44 614.606 27.44C613.112 27.44 611.872 27.0867 610.886 26.38C609.899 25.6867 609.339 24.74 609.206 23.54H611.466C611.639 24.1133 612.006 24.5733 612.566 24.92C613.139 25.28 613.819 25.46 614.606 25.46C615.526 25.46 616.266 25.18 616.826 24.62C617.399 24.06 617.686 23.2467 617.686 22.18V20.34C617.299 20.86 616.772 21.3 616.106 21.66C615.452 22.0067 614.706 22.18 613.866 22.18C612.906 22.18 612.026 21.94 611.226 21.46C610.439 20.9667 609.812 20.2867 609.346 19.42C608.892 18.54 608.666 17.5467 608.666 16.44C608.666 15.3333 608.892 14.3533 609.346 13.5C609.812 12.6467 610.439 11.9867 611.226 11.52C612.026 11.04 612.906 10.8 613.866 10.8ZM617.686 16.48C617.686 15.72 617.526 15.06 617.206 14.5C616.899 13.94 616.492 13.5133 615.986 13.22C615.479 12.9267 614.932 12.78 614.346 12.78C613.759 12.78 613.212 12.9267 612.706 13.22C612.199 13.5 611.786 13.92 611.466 14.48C611.159 15.0267 611.006 15.68 611.006 16.44C611.006 17.2 611.159 17.8667 611.466 18.44C611.786 19.0133 612.199 19.4533 612.706 19.76C613.226 20.0533 613.772 20.2 614.346 20.2C614.932 20.2 615.479 20.0533 615.986 19.76C616.492 19.4667 616.899 19.04 617.206 18.48C617.526 17.9067 617.686 17.24 617.686 16.48Z" fill="#3A3A3A"/>
<rect x="95" y="76" width="782" height="2" fill="#D9D9D9"/>
<rect x="137" y="76" width="560" height="4" fill="#2C8ACE"/>
<path d="M47.9357 120.098C47.9357 120.91 47.6557 121.587 47.0957 122.128C46.5451 122.66 45.7004 122.926 44.5617 122.926H42.6857V127H41.4117V117.242H44.5617C45.6631 117.242 46.4984 117.508 47.0677 118.04C47.6464 118.572 47.9357 119.258 47.9357 120.098ZM44.5617 121.876C45.2711 121.876 45.7937 121.722 46.1297 121.414C46.4657 121.106 46.6337 120.667 46.6337 120.098C46.6337 118.894 45.9431 118.292 44.5617 118.292H42.6857V121.876H44.5617ZM56.5192 122.87C56.5192 123.113 56.5052 123.369 56.4772 123.64H50.3452C50.3918 124.396 50.6485 124.989 51.1152 125.418C51.5912 125.838 52.1652 126.048 52.8372 126.048C53.3878 126.048 53.8452 125.922 54.2092 125.67C54.5825 125.409 54.8438 125.063 54.9932 124.634H56.3652C56.1598 125.371 55.7492 125.973 55.1332 126.44C54.5172 126.897 53.7518 127.126 52.8372 127.126C52.1092 127.126 51.4558 126.963 50.8772 126.636C50.3078 126.309 49.8598 125.847 49.5332 125.25C49.2065 124.643 49.0432 123.943 49.0432 123.15C49.0432 122.357 49.2018 121.661 49.5192 121.064C49.8365 120.467 50.2798 120.009 50.8492 119.692C51.4278 119.365 52.0905 119.202 52.8372 119.202C53.5652 119.202 54.2092 119.361 54.7692 119.678C55.3292 119.995 55.7585 120.434 56.0572 120.994C56.3652 121.545 56.5192 122.17 56.5192 122.87ZM55.2032 122.604C55.2032 122.119 55.0958 121.703 54.8812 121.358C54.6665 121.003 54.3725 120.737 53.9992 120.56C53.6352 120.373 53.2292 120.28 52.7812 120.28C52.1372 120.28 51.5865 120.485 51.1292 120.896C50.6812 121.307 50.4245 121.876 50.3592 122.604H55.2032ZM59.4748 120.574C59.6988 120.135 60.0161 119.795 60.4268 119.552C60.8468 119.309 61.3555 119.188 61.9528 119.188V120.504H61.6168C60.1888 120.504 59.4748 121.279 59.4748 122.828V127H58.2008V119.328H59.4748V120.574ZM66.1395 127.126C65.5515 127.126 65.0241 127.028 64.5575 126.832C64.0908 126.627 63.7221 126.347 63.4515 125.992C63.1808 125.628 63.0315 125.213 63.0035 124.746H64.3195C64.3568 125.129 64.5341 125.441 64.8515 125.684C65.1781 125.927 65.6028 126.048 66.1255 126.048C66.6108 126.048 66.9935 125.941 67.2735 125.726C67.5535 125.511 67.6935 125.241 67.6935 124.914C67.6935 124.578 67.5441 124.331 67.2455 124.172C66.9468 124.004 66.4848 123.841 65.8595 123.682C65.2901 123.533 64.8235 123.383 64.4595 123.234C64.1048 123.075 63.7968 122.847 63.5355 122.548C63.2835 122.24 63.1575 121.839 63.1575 121.344C63.1575 120.952 63.2741 120.593 63.5075 120.266C63.7408 119.939 64.0721 119.683 64.5015 119.496C64.9308 119.3 65.4208 119.202 65.9715 119.202C66.8208 119.202 67.5068 119.417 68.0295 119.846C68.5521 120.275 68.8321 120.863 68.8695 121.61H67.5955C67.5675 121.209 67.4041 120.887 67.1055 120.644C66.8161 120.401 66.4241 120.28 65.9295 120.28C65.4721 120.28 65.1081 120.378 64.8375 120.574C64.5668 120.77 64.4315 121.027 64.4315 121.344C64.4315 121.596 64.5108 121.806 64.6695 121.974C64.8375 122.133 65.0428 122.263 65.2855 122.366C65.5375 122.459 65.8828 122.567 66.3215 122.688C66.8721 122.837 67.3201 122.987 67.6655 123.136C68.0108 123.276 68.3048 123.491 68.5475 123.78C68.7995 124.069 68.9301 124.447 68.9395 124.914C68.9395 125.334 68.8228 125.712 68.5895 126.048C68.3561 126.384 68.0248 126.65 67.5955 126.846C67.1755 127.033 66.6901 127.126 66.1395 127.126ZM74.0839 127.126C73.3652 127.126 72.7119 126.963 72.1239 126.636C71.5452 126.309 71.0879 125.847 70.7519 125.25C70.4252 124.643 70.2619 123.943 70.2619 123.15C70.2619 122.366 70.4299 121.675 70.7659 121.078C71.1112 120.471 71.5779 120.009 72.1659 119.692C72.7539 119.365 73.4119 119.202 74.1399 119.202C74.8679 119.202 75.5259 119.365 76.1139 119.692C76.7019 120.009 77.1639 120.467 77.4999 121.064C77.8452 121.661 78.0179 122.357 78.0179 123.15C78.0179 123.943 77.8406 124.643 77.4859 125.25C77.1406 125.847 76.6692 126.309 76.0719 126.636C75.4746 126.963 74.8119 127.126 74.0839 127.126ZM74.0839 126.006C74.5412 126.006 74.9706 125.899 75.3719 125.684C75.7732 125.469 76.0952 125.147 76.3379 124.718C76.5899 124.289 76.7159 123.766 76.7159 123.15C76.7159 122.534 76.5946 122.011 76.3519 121.582C76.1092 121.153 75.7919 120.835 75.3999 120.63C75.0079 120.415 74.5832 120.308 74.1259 120.308C73.6592 120.308 73.2299 120.415 72.8379 120.63C72.4552 120.835 72.1472 121.153 71.9139 121.582C71.6806 122.011 71.5639 122.534 71.5639 123.15C71.5639 123.775 71.6759 124.303 71.8999 124.732C72.1332 125.161 72.4412 125.483 72.8239 125.698C73.2066 125.903 73.6266 126.006 74.0839 126.006ZM83.431 119.188C84.3643 119.188 85.1203 119.473 85.699 120.042C86.2777 120.602 86.567 121.414 86.567 122.478V127H85.307V122.66C85.307 121.895 85.1157 121.311 84.733 120.91C84.3503 120.499 83.8277 120.294 83.165 120.294C82.493 120.294 81.9563 120.504 81.555 120.924C81.163 121.344 80.967 121.955 80.967 122.758V127H79.693V119.328H80.967V120.42C81.219 120.028 81.5597 119.725 81.989 119.51C82.4277 119.295 82.9083 119.188 83.431 119.188ZM88.1721 123.136C88.1721 122.352 88.3307 121.666 88.6481 121.078C88.9654 120.481 89.3994 120.019 89.9501 119.692C90.5101 119.365 91.1307 119.202 91.8121 119.202C92.4841 119.202 93.0674 119.347 93.5621 119.636C94.0567 119.925 94.4254 120.289 94.6681 120.728V119.328H95.9561V127H94.6681V125.572C94.4161 126.02 94.0381 126.393 93.5341 126.692C93.0394 126.981 92.4607 127.126 91.7981 127.126C91.1167 127.126 90.5007 126.958 89.9501 126.622C89.3994 126.286 88.9654 125.815 88.6481 125.208C88.3307 124.601 88.1721 123.911 88.1721 123.136ZM94.6681 123.15C94.6681 122.571 94.5514 122.067 94.3181 121.638C94.0847 121.209 93.7674 120.882 93.3661 120.658C92.9741 120.425 92.5401 120.308 92.0641 120.308C91.5881 120.308 91.1541 120.42 90.7621 120.644C90.3701 120.868 90.0574 121.195 89.8241 121.624C89.5907 122.053 89.4741 122.557 89.4741 123.136C89.4741 123.724 89.5907 124.237 89.8241 124.676C90.0574 125.105 90.3701 125.437 90.7621 125.67C91.1541 125.894 91.5881 126.006 92.0641 126.006C92.5401 126.006 92.9741 125.894 93.3661 125.67C93.7674 125.437 94.0847 125.105 94.3181 124.676C94.5514 124.237 94.6681 123.729 94.6681 123.15ZM99.383 116.64V127H98.109V116.64H99.383ZM106.561 117.242V127H105.287V117.242H106.561ZM112.47 119.188C113.403 119.188 114.159 119.473 114.738 120.042C115.317 120.602 115.606 121.414 115.606 122.478V127H114.346V122.66C114.346 121.895 114.155 121.311 113.772 120.91C113.389 120.499 112.867 120.294 112.204 120.294C111.532 120.294 110.995 120.504 110.594 120.924C110.202 121.344 110.006 121.955 110.006 122.758V127H108.732V119.328H110.006V120.42C110.258 120.028 110.599 119.725 111.028 119.51C111.467 119.295 111.947 119.188 112.47 119.188ZM120.809 120.378H119.199V127H117.925V120.378H116.931V119.328H117.925V118.782C117.925 117.923 118.144 117.298 118.583 116.906C119.031 116.505 119.745 116.304 120.725 116.304V117.368C120.165 117.368 119.768 117.48 119.535 117.704C119.311 117.919 119.199 118.278 119.199 118.782V119.328H120.809V120.378ZM125.641 127.126C124.922 127.126 124.269 126.963 123.681 126.636C123.102 126.309 122.645 125.847 122.309 125.25C121.982 124.643 121.819 123.943 121.819 123.15C121.819 122.366 121.987 121.675 122.323 121.078C122.668 120.471 123.135 120.009 123.723 119.692C124.311 119.365 124.969 119.202 125.697 119.202C126.425 119.202 127.083 119.365 127.671 119.692C128.259 120.009 128.721 120.467 129.057 121.064C129.402 121.661 129.575 122.357 129.575 123.15C129.575 123.943 129.397 124.643 129.043 125.25C128.697 125.847 128.226 126.309 127.629 126.636C127.031 126.963 126.369 127.126 125.641 127.126ZM125.641 126.006C126.098 126.006 126.527 125.899 126.929 125.684C127.33 125.469 127.652 125.147 127.895 124.718C128.147 124.289 128.273 123.766 128.273 123.15C128.273 122.534 128.151 122.011 127.909 121.582C127.666 121.153 127.349 120.835 126.957 120.63C126.565 120.415 126.14 120.308 125.683 120.308C125.216 120.308 124.787 120.415 124.395 120.63C124.012 120.835 123.704 121.153 123.471 121.582C123.237 122.011 123.121 122.534 123.121 123.15C123.121 123.775 123.233 124.303 123.457 124.732C123.69 125.161 123.998 125.483 124.381 125.698C124.763 125.903 125.183 126.006 125.641 126.006ZM132.524 120.574C132.748 120.135 133.065 119.795 133.476 119.552C133.896 119.309 134.404 119.188 135.002 119.188V120.504H134.666C133.238 120.504 132.524 121.279 132.524 122.828V127H131.25V119.328H132.524V120.574ZM145.698 119.188C146.296 119.188 146.828 119.314 147.294 119.566C147.761 119.809 148.13 120.177 148.4 120.672C148.671 121.167 148.806 121.769 148.806 122.478V127H147.546V122.66C147.546 121.895 147.355 121.311 146.972 120.91C146.599 120.499 146.09 120.294 145.446 120.294C144.784 120.294 144.256 120.509 143.864 120.938C143.472 121.358 143.276 121.969 143.276 122.772V127H142.016V122.66C142.016 121.895 141.825 121.311 141.442 120.91C141.069 120.499 140.56 120.294 139.916 120.294C139.254 120.294 138.726 120.509 138.334 120.938C137.942 121.358 137.746 121.969 137.746 122.772V127H136.472V119.328H137.746V120.434C137.998 120.033 138.334 119.725 138.754 119.51C139.184 119.295 139.655 119.188 140.168 119.188C140.812 119.188 141.382 119.333 141.876 119.622C142.371 119.911 142.74 120.336 142.982 120.896C143.197 120.355 143.552 119.935 144.046 119.636C144.541 119.337 145.092 119.188 145.698 119.188ZM150.42 123.136C150.42 122.352 150.579 121.666 150.896 121.078C151.213 120.481 151.647 120.019 152.198 119.692C152.758 119.365 153.379 119.202 154.06 119.202C154.732 119.202 155.315 119.347 155.81 119.636C156.305 119.925 156.673 120.289 156.916 120.728V119.328H158.204V127H156.916V125.572C156.664 126.02 156.286 126.393 155.782 126.692C155.287 126.981 154.709 127.126 154.046 127.126C153.365 127.126 152.749 126.958 152.198 126.622C151.647 126.286 151.213 125.815 150.896 125.208C150.579 124.601 150.42 123.911 150.42 123.136ZM156.916 123.15C156.916 122.571 156.799 122.067 156.566 121.638C156.333 121.209 156.015 120.882 155.614 120.658C155.222 120.425 154.788 120.308 154.312 120.308C153.836 120.308 153.402 120.42 153.01 120.644C152.618 120.868 152.305 121.195 152.072 121.624C151.839 122.053 151.722 122.557 151.722 123.136C151.722 123.724 151.839 124.237 152.072 124.676C152.305 125.105 152.618 125.437 153.01 125.67C153.402 125.894 153.836 126.006 154.312 126.006C154.788 126.006 155.222 125.894 155.614 125.67C156.015 125.437 156.333 125.105 156.566 124.676C156.799 124.237 156.916 123.729 156.916 123.15ZM161.911 120.378V124.9C161.911 125.273 161.99 125.539 162.149 125.698C162.308 125.847 162.583 125.922 162.975 125.922H163.913V127H162.765C162.056 127 161.524 126.837 161.169 126.51C160.814 126.183 160.637 125.647 160.637 124.9V120.378H159.643V119.328H160.637V117.396H161.911V119.328H163.913V120.378H161.911ZM166.115 118.082C165.872 118.082 165.667 117.998 165.499 117.83C165.331 117.662 165.247 117.457 165.247 117.214C165.247 116.971 165.331 116.766 165.499 116.598C165.667 116.43 165.872 116.346 166.115 116.346C166.348 116.346 166.544 116.43 166.703 116.598C166.871 116.766 166.955 116.971 166.955 117.214C166.955 117.457 166.871 117.662 166.703 117.83C166.544 117.998 166.348 118.082 166.115 118.082ZM166.731 119.328V127H165.457V119.328H166.731ZM172.248 127.126C171.529 127.126 170.876 126.963 170.288 126.636C169.709 126.309 169.252 125.847 168.916 125.25C168.589 124.643 168.426 123.943 168.426 123.15C168.426 122.366 168.594 121.675 168.93 121.078C169.275 120.471 169.742 120.009 170.33 119.692C170.918 119.365 171.576 119.202 172.304 119.202C173.032 119.202 173.69 119.365 174.278 119.692C174.866 120.009 175.328 120.467 175.664 121.064C176.009 121.661 176.182 122.357 176.182 123.15C176.182 123.943 176.005 124.643 175.65 125.25C175.305 125.847 174.833 126.309 174.236 126.636C173.639 126.963 172.976 127.126 172.248 127.126ZM172.248 126.006C172.705 126.006 173.135 125.899 173.536 125.684C173.937 125.469 174.259 125.147 174.502 124.718C174.754 124.289 174.88 123.766 174.88 123.15C174.88 122.534 174.759 122.011 174.516 121.582C174.273 121.153 173.956 120.835 173.564 120.63C173.172 120.415 172.747 120.308 172.29 120.308C171.823 120.308 171.394 120.415 171.002 120.63C170.619 120.835 170.311 121.153 170.078 121.582C169.845 122.011 169.728 122.534 169.728 123.15C169.728 123.775 169.84 124.303 170.064 124.732C170.297 125.161 170.605 125.483 170.988 125.698C171.371 125.903 171.791 126.006 172.248 126.006ZM181.595 119.188C182.528 119.188 183.284 119.473 183.863 120.042C184.442 120.602 184.731 121.414 184.731 122.478V127H183.471V122.66C183.471 121.895 183.28 121.311 182.897 120.91C182.514 120.499 181.992 120.294 181.329 120.294C180.657 120.294 180.12 120.504 179.719 120.924C179.327 121.344 179.131 121.955 179.131 122.758V127H177.857V119.328H179.131V120.42C179.383 120.028 179.724 119.725 180.153 119.51C180.592 119.295 181.072 119.188 181.595 119.188Z" fill="#3A3A3A"/>
<circle cx="114.5" cy="75.5" r="32" fill="#2C8ACE" stroke="#EDEDED"/>
<g clip-path="url(#clip0_21_2001)">
<path d="M110 69.75C110 70.7389 110.293 71.7056 110.843 72.5279C111.392 73.3501 112.173 73.991 113.087 74.3694C114 74.7478 115.006 74.8469 115.975 74.6539C116.945 74.461 117.836 73.9848 118.536 73.2855C119.235 72.5863 119.711 71.6954 119.904 70.7255C120.097 69.7555 119.998 68.7502 119.619 67.8366C119.241 66.923 118.6 66.1421 117.778 65.5927C116.956 65.0432 115.989 64.75 115 64.75C113.674 64.75 112.402 65.2768 111.464 66.2145C110.527 67.1521 110 68.4239 110 69.75Z" stroke="white" stroke-width="1.5" stroke-linecap="round" stroke-linejoin="round"/>
<path d="M107.5 87.25V84.75C107.5 83.4239 108.027 82.1521 108.964 81.2145C109.902 80.2768 111.174 79.75 112.5 79.75H117.5C117.925 79.75 118.348 79.8038 118.76 79.91" stroke="white" stroke-width="1.5" stroke-linecap="round" stroke-linejoin="round"/>
<path d="M123.75 81V84.75" stroke="white" stroke-width="1.5" stroke-linecap="round" stroke-linejoin="round"/>
<path d="M123.75 88.5V88.5125" stroke="white" stroke-width="1.5" stroke-linecap="round" stroke-linejoin="round"/>
</g>
<path d="M421.387 118.278V121.54H424.943V122.59H421.387V125.95H425.363V127H420.113V117.228H425.363V118.278H421.387ZM426.815 123.136C426.815 122.352 426.973 121.666 427.291 121.078C427.608 120.481 428.042 120.019 428.593 119.692C429.153 119.365 429.778 119.202 430.469 119.202C431.066 119.202 431.621 119.342 432.135 119.622C432.648 119.893 433.04 120.252 433.311 120.7V116.64H434.599V127H433.311V125.558C433.059 126.015 432.685 126.393 432.191 126.692C431.696 126.981 431.117 127.126 430.455 127.126C429.773 127.126 429.153 126.958 428.593 126.622C428.042 126.286 427.608 125.815 427.291 125.208C426.973 124.601 426.815 123.911 426.815 123.136ZM433.311 123.15C433.311 122.571 433.194 122.067 432.961 121.638C432.727 121.209 432.41 120.882 432.009 120.658C431.617 120.425 431.183 120.308 430.707 120.308C430.231 120.308 429.797 120.42 429.405 120.644C429.013 120.868 428.7 121.195 428.467 121.624C428.233 122.053 428.117 122.557 428.117 123.136C428.117 123.724 428.233 124.237 428.467 124.676C428.7 125.105 429.013 125.437 429.405 125.67C429.797 125.894 430.231 126.006 430.707 126.006C431.183 126.006 431.617 125.894 432.009 125.67C432.41 125.437 432.727 125.105 432.961 124.676C433.194 124.237 433.311 123.729 433.311 123.15ZM443.556 119.328V127H442.282V125.866C442.039 126.258 441.698 126.566 441.26 126.79C440.83 127.005 440.354 127.112 439.832 127.112C439.234 127.112 438.698 126.991 438.222 126.748C437.746 126.496 437.368 126.123 437.088 125.628C436.817 125.133 436.682 124.531 436.682 123.822V119.328H437.942V123.654C437.942 124.41 438.133 124.993 438.516 125.404C438.898 125.805 439.421 126.006 440.084 126.006C440.765 126.006 441.302 125.796 441.694 125.376C442.086 124.956 442.282 124.345 442.282 123.542V119.328H443.556ZM445.231 123.15C445.231 122.357 445.389 121.666 445.707 121.078C446.024 120.481 446.463 120.019 447.023 119.692C447.592 119.365 448.241 119.202 448.969 119.202C449.911 119.202 450.686 119.431 451.293 119.888C451.909 120.345 452.315 120.98 452.511 121.792H451.139C451.008 121.325 450.751 120.957 450.369 120.686C449.995 120.415 449.529 120.28 448.969 120.28C448.241 120.28 447.653 120.532 447.205 121.036C446.757 121.531 446.533 122.235 446.533 123.15C446.533 124.074 446.757 124.788 447.205 125.292C447.653 125.796 448.241 126.048 448.969 126.048C449.529 126.048 449.995 125.917 450.369 125.656C450.742 125.395 450.999 125.021 451.139 124.536H452.511C452.305 125.32 451.895 125.95 451.279 126.426C450.663 126.893 449.893 127.126 448.969 127.126C448.241 127.126 447.592 126.963 447.023 126.636C446.463 126.309 446.024 125.847 445.707 125.25C445.389 124.653 445.231 123.953 445.231 123.15ZM453.735 123.136C453.735 122.352 453.893 121.666 454.211 121.078C454.528 120.481 454.962 120.019 455.513 119.692C456.073 119.365 456.693 119.202 457.375 119.202C458.047 119.202 458.63 119.347 459.125 119.636C459.619 119.925 459.988 120.289 460.231 120.728V119.328H461.519V127H460.231V125.572C459.979 126.02 459.601 126.393 459.097 126.692C458.602 126.981 458.023 127.126 457.361 127.126C456.679 127.126 456.063 126.958 455.513 126.622C454.962 126.286 454.528 125.815 454.211 125.208C453.893 124.601 453.735 123.911 453.735 123.136ZM460.231 123.15C460.231 122.571 460.114 122.067 459.881 121.638C459.647 121.209 459.33 120.882 458.929 120.658C458.537 120.425 458.103 120.308 457.627 120.308C457.151 120.308 456.717 120.42 456.325 120.644C455.933 120.868 455.62 121.195 455.387 121.624C455.153 122.053 455.037 122.557 455.037 123.136C455.037 123.724 455.153 124.237 455.387 124.676C455.62 125.105 455.933 125.437 456.325 125.67C456.717 125.894 457.151 126.006 457.627 126.006C458.103 126.006 458.537 125.894 458.929 125.67C459.33 125.437 459.647 125.105 459.881 124.676C460.114 124.237 460.231 123.729 460.231 123.15ZM465.226 120.378V124.9C465.226 125.273 465.305 125.539 465.464 125.698C465.622 125.847 465.898 125.922 466.29 125.922H467.228V127H466.08C465.37 127 464.838 126.837 464.484 126.51C464.129 126.183 463.952 125.647 463.952 124.9V120.378H462.958V119.328H463.952V117.396H465.226V119.328H467.228V120.378H465.226ZM469.429 118.082C469.186 118.082 468.981 117.998 468.813 117.83C468.645 117.662 468.561 117.457 468.561 117.214C468.561 116.971 468.645 116.766 468.813 116.598C468.981 116.43 469.186 116.346 469.429 116.346C469.662 116.346 469.858 116.43 470.017 116.598C470.185 116.766 470.269 116.971 470.269 117.214C470.269 117.457 470.185 117.662 470.017 117.83C469.858 117.998 469.662 118.082 469.429 118.082ZM470.045 119.328V127H468.771V119.328H470.045ZM475.562 127.126C474.844 127.126 474.19 126.963 473.602 126.636C473.024 126.309 472.566 125.847 472.23 125.25C471.904 124.643 471.74 123.943 471.74 123.15C471.74 122.366 471.908 121.675 472.244 121.078C472.59 120.471 473.056 120.009 473.644 119.692C474.232 119.365 474.89 119.202 475.618 119.202C476.346 119.202 477.004 119.365 477.592 119.692C478.18 120.009 478.642 120.467 478.978 121.064C479.324 121.661 479.496 122.357 479.496 123.15C479.496 123.943 479.319 124.643 478.964 125.25C478.619 125.847 478.148 126.309 477.55 126.636C476.953 126.963 476.29 127.126 475.562 127.126ZM475.562 126.006C476.02 126.006 476.449 125.899 476.85 125.684C477.252 125.469 477.574 125.147 477.816 124.718C478.068 124.289 478.194 123.766 478.194 123.15C478.194 122.534 478.073 122.011 477.83 121.582C477.588 121.153 477.27 120.835 476.878 120.63C476.486 120.415 476.062 120.308 475.604 120.308C475.138 120.308 474.708 120.415 474.316 120.63C473.934 120.835 473.626 121.153 473.392 121.582C473.159 122.011 473.042 122.534 473.042 123.15C473.042 123.775 473.154 124.303 473.378 124.732C473.612 125.161 473.92 125.483 474.302 125.698C474.685 125.903 475.105 126.006 475.562 126.006ZM484.91 119.188C485.843 119.188 486.599 119.473 487.178 120.042C487.756 120.602 488.046 121.414 488.046 122.478V127H486.786V122.66C486.786 121.895 486.594 121.311 486.212 120.91C485.829 120.499 485.306 120.294 484.644 120.294C483.972 120.294 483.435 120.504 483.034 120.924C482.642 121.344 482.446 121.955 482.446 122.758V127H481.172V119.328H482.446V120.42C482.698 120.028 483.038 119.725 483.468 119.51C483.906 119.295 484.387 119.188 484.91 119.188ZM489.651 123.136C489.651 122.352 489.809 121.666 490.127 121.078C490.444 120.481 490.878 120.019 491.429 119.692C491.989 119.365 492.609 119.202 493.291 119.202C493.963 119.202 494.546 119.347 495.041 119.636C495.535 119.925 495.904 120.289 496.147 120.728V119.328H497.435V127H496.147V125.572C495.895 126.02 495.517 126.393 495.013 126.692C494.518 126.981 493.939 127.126 493.277 127.126C492.595 127.126 491.979 126.958 491.429 126.622C490.878 126.286 490.444 125.815 490.127 125.208C489.809 124.601 489.651 123.911 489.651 123.136ZM496.147 123.15C496.147 122.571 496.03 122.067 495.797 121.638C495.563 121.209 495.246 120.882 494.845 120.658C494.453 120.425 494.019 120.308 493.543 120.308C493.067 120.308 492.633 120.42 492.241 120.644C491.849 120.868 491.536 121.195 491.303 121.624C491.069 122.053 490.953 122.557 490.953 123.136C490.953 123.724 491.069 124.237 491.303 124.676C491.536 125.105 491.849 125.437 492.241 125.67C492.633 125.894 493.067 126.006 493.543 126.006C494.019 126.006 494.453 125.894 494.845 125.67C495.246 125.437 495.563 125.105 495.797 124.676C496.03 124.237 496.147 123.729 496.147 123.15ZM500.862 116.64V127H499.588V116.64H500.862ZM509.803 117.242C510.867 117.242 511.787 117.443 512.561 117.844C513.345 118.236 513.943 118.801 514.353 119.538C514.773 120.275 514.983 121.143 514.983 122.142C514.983 123.141 514.773 124.009 514.353 124.746C513.943 125.474 513.345 126.034 512.561 126.426C511.787 126.809 510.867 127 509.803 127H506.765V117.242H509.803ZM509.803 125.95C511.063 125.95 512.025 125.619 512.687 124.956C513.35 124.284 513.681 123.346 513.681 122.142C513.681 120.929 513.345 119.981 512.673 119.3C512.011 118.619 511.054 118.278 509.803 118.278H508.039V125.95H509.803ZM523.664 122.87C523.664 123.113 523.65 123.369 523.622 123.64H517.49C517.536 124.396 517.793 124.989 518.26 125.418C518.736 125.838 519.31 126.048 519.982 126.048C520.532 126.048 520.99 125.922 521.354 125.67C521.727 125.409 521.988 125.063 522.138 124.634H523.51C523.304 125.371 522.894 125.973 522.278 126.44C521.662 126.897 520.896 127.126 519.982 127.126C519.254 127.126 518.6 126.963 518.022 126.636C517.452 126.309 517.004 125.847 516.678 125.25C516.351 124.643 516.188 123.943 516.188 123.15C516.188 122.357 516.346 121.661 516.664 121.064C516.981 120.467 517.424 120.009 517.994 119.692C518.572 119.365 519.235 119.202 519.982 119.202C520.71 119.202 521.354 119.361 521.914 119.678C522.474 119.995 522.903 120.434 523.202 120.994C523.51 121.545 523.664 122.17 523.664 122.87ZM522.348 122.604C522.348 122.119 522.24 121.703 522.026 121.358C521.811 121.003 521.517 120.737 521.144 120.56C520.78 120.373 520.374 120.28 519.926 120.28C519.282 120.28 518.731 120.485 518.274 120.896C517.826 121.307 517.569 121.876 517.504 122.604H522.348ZM526.899 120.378V124.9C526.899 125.273 526.979 125.539 527.137 125.698C527.296 125.847 527.571 125.922 527.963 125.922H528.901V127H527.753C527.044 127 526.512 126.837 526.157 126.51C525.803 126.183 525.625 125.647 525.625 124.9V120.378H524.631V119.328H525.625V117.396H526.899V119.328H528.901V120.378H526.899ZM529.969 123.136C529.969 122.352 530.128 121.666 530.445 121.078C530.762 120.481 531.196 120.019 531.747 119.692C532.307 119.365 532.928 119.202 533.609 119.202C534.281 119.202 534.864 119.347 535.359 119.636C535.854 119.925 536.222 120.289 536.465 120.728V119.328H537.753V127H536.465V125.572C536.213 126.02 535.835 126.393 535.331 126.692C534.836 126.981 534.258 127.126 533.595 127.126C532.914 127.126 532.298 126.958 531.747 126.622C531.196 126.286 530.762 125.815 530.445 125.208C530.128 124.601 529.969 123.911 529.969 123.136ZM536.465 123.15C536.465 122.571 536.348 122.067 536.115 121.638C535.882 121.209 535.564 120.882 535.163 120.658C534.771 120.425 534.337 120.308 533.861 120.308C533.385 120.308 532.951 120.42 532.559 120.644C532.167 120.868 531.854 121.195 531.621 121.624C531.388 122.053 531.271 122.557 531.271 123.136C531.271 123.724 531.388 124.237 531.621 124.676C531.854 125.105 532.167 125.437 532.559 125.67C532.951 125.894 533.385 126.006 533.861 126.006C534.337 126.006 534.771 125.894 535.163 125.67C535.564 125.437 535.882 125.105 536.115 124.676C536.348 124.237 536.465 123.729 536.465 123.15ZM540.564 118.082C540.321 118.082 540.116 117.998 539.948 117.83C539.78 117.662 539.696 117.457 539.696 117.214C539.696 116.971 539.78 116.766 539.948 116.598C540.116 116.43 540.321 116.346 540.564 116.346C540.797 116.346 540.993 116.43 541.152 116.598C541.32 116.766 541.404 116.971 541.404 117.214C541.404 117.457 541.32 117.662 541.152 117.83C540.993 117.998 540.797 118.082 540.564 118.082ZM541.18 119.328V127H539.906V119.328H541.18ZM544.625 116.64V127H543.351V116.64H544.625ZM549.513 127.126C548.925 127.126 548.397 127.028 547.931 126.832C547.464 126.627 547.095 126.347 546.825 125.992C546.554 125.628 546.405 125.213 546.377 124.746H547.693C547.73 125.129 547.907 125.441 548.225 125.684C548.551 125.927 548.976 126.048 549.499 126.048C549.984 126.048 550.367 125.941 550.647 125.726C550.927 125.511 551.067 125.241 551.067 124.914C551.067 124.578 550.917 124.331 550.619 124.172C550.32 124.004 549.858 123.841 549.233 123.682C548.663 123.533 548.197 123.383 547.833 123.234C547.478 123.075 547.17 122.847 546.909 122.548C546.657 122.24 546.531 121.839 546.531 121.344C546.531 120.952 546.647 120.593 546.881 120.266C547.114 119.939 547.445 119.683 547.875 119.496C548.304 119.3 548.794 119.202 549.345 119.202C550.194 119.202 550.88 119.417 551.403 119.846C551.925 120.275 552.205 120.863 552.243 121.61H550.969C550.941 121.209 550.777 120.887 550.479 120.644C550.189 120.401 549.797 120.28 549.303 120.28C548.845 120.28 548.481 120.378 548.211 120.574C547.94 120.77 547.805 121.027 547.805 121.344C547.805 121.596 547.884 121.806 548.043 121.974C548.211 122.133 548.416 122.263 548.659 122.366C548.911 122.459 549.256 122.567 549.695 122.688C550.245 122.837 550.693 122.987 551.039 123.136C551.384 123.276 551.678 123.491 551.921 123.78C552.173 124.069 552.303 124.447 552.313 124.914C552.313 125.334 552.196 125.712 551.963 126.048C551.729 126.384 551.398 126.65 550.969 126.846C550.549 127.033 550.063 127.126 549.513 127.126Z" fill="#3A3A3A"/>
<circle cx="487.5" cy="75.5" r="31.5" fill="#2C8ACE" stroke="#2C8ACE" stroke-width="2"/>
<path d="M497.934 65H473C472.448 65 472 65.4477 472 66V81.4903C472 82.0426 472.448 82.4903 473 82.4903H487.44M475.86 71.2724H483.218M475.86 76.4592H483.218" stroke="white" stroke-width="1.5" stroke-linejoin="round"/>
<path d="M502.25 75.3736C502.25 79.6328 498.849 83.0672 494.677 83.0672C490.505 83.0672 487.104 79.6328 487.104 75.3736C487.104 71.1143 490.505 67.68 494.677 67.68C498.849 67.68 502.25 71.1143 502.25 75.3736Z" stroke="white" stroke-width="1.5" stroke-linejoin="round"/>
<path d="M489.008 81.4644V91.1208C489.008 92.0019 490.065 92.4524 490.7 91.8422L494.226 88.4578C494.613 88.0864 495.224 88.0864 495.611 88.4578L499.136 91.8422C499.772 92.4524 500.829 92.0019 500.829 91.1208V80.681" stroke="white" stroke-width="1.5" stroke-linejoin="round"/>
<path d="M829.68 116.242L826.852 126H825.424L823.156 118.146L820.804 126L819.39 126.014L816.66 116.242H818.018L820.146 124.516L822.498 116.242H823.926L826.166 124.488L828.308 116.242H829.68ZM834.42 126.126C833.701 126.126 833.048 125.963 832.46 125.636C831.881 125.309 831.424 124.847 831.088 124.25C830.761 123.643 830.598 122.943 830.598 122.15C830.598 121.366 830.766 120.675 831.102 120.078C831.447 119.471 831.914 119.009 832.502 118.692C833.09 118.365 833.748 118.202 834.476 118.202C835.204 118.202 835.862 118.365 836.45 118.692C837.038 119.009 837.5 119.467 837.836 120.064C838.181 120.661 838.354 121.357 838.354 122.15C838.354 122.943 838.177 123.643 837.822 124.25C837.477 124.847 837.005 125.309 836.408 125.636C835.811 125.963 835.148 126.126 834.42 126.126ZM834.42 125.006C834.877 125.006 835.307 124.899 835.708 124.684C836.109 124.469 836.431 124.147 836.674 123.718C836.926 123.289 837.052 122.766 837.052 122.15C837.052 121.534 836.931 121.011 836.688 120.582C836.445 120.153 836.128 119.835 835.736 119.63C835.344 119.415 834.919 119.308 834.462 119.308C833.995 119.308 833.566 119.415 833.174 119.63C832.791 119.835 832.483 120.153 832.25 120.582C832.017 121.011 831.9 121.534 831.9 122.15C831.9 122.775 832.012 123.303 832.236 123.732C832.469 124.161 832.777 124.483 833.16 124.698C833.543 124.903 833.963 125.006 834.42 125.006ZM841.303 119.574C841.527 119.135 841.844 118.795 842.255 118.552C842.675 118.309 843.184 118.188 843.781 118.188V119.504H843.445C842.017 119.504 841.303 120.279 841.303 121.828V126H840.029V118.328H841.303V119.574ZM849.536 126L846.526 122.612V126H845.252V115.64H846.526V121.73L849.48 118.328H851.258L847.646 122.15L851.272 126H849.536ZM863.707 116.242V126H862.433V121.576H857.463V126H856.189V116.242H857.463V120.526H862.433V116.242H863.707ZM866.54 117.082C866.298 117.082 866.092 116.998 865.924 116.83C865.756 116.662 865.672 116.457 865.672 116.214C865.672 115.971 865.756 115.766 865.924 115.598C866.092 115.43 866.298 115.346 866.54 115.346C866.774 115.346 866.97 115.43 867.128 115.598C867.296 115.766 867.38 115.971 867.38 116.214C867.38 116.457 867.296 116.662 867.128 116.83C866.97 116.998 866.774 117.082 866.54 117.082ZM867.156 118.328V126H865.882V118.328H867.156ZM872.044 126.126C871.456 126.126 870.928 126.028 870.462 125.832C869.995 125.627 869.626 125.347 869.356 124.992C869.085 124.628 868.936 124.213 868.908 123.746H870.224C870.261 124.129 870.438 124.441 870.756 124.684C871.082 124.927 871.507 125.048 872.03 125.048C872.515 125.048 872.898 124.941 873.178 124.726C873.458 124.511 873.598 124.241 873.598 123.914C873.598 123.578 873.448 123.331 873.15 123.172C872.851 123.004 872.389 122.841 871.764 122.682C871.194 122.533 870.728 122.383 870.364 122.234C870.009 122.075 869.701 121.847 869.44 121.548C869.188 121.24 869.062 120.839 869.062 120.344C869.062 119.952 869.178 119.593 869.412 119.266C869.645 118.939 869.976 118.683 870.406 118.496C870.835 118.3 871.325 118.202 871.876 118.202C872.725 118.202 873.411 118.417 873.934 118.846C874.456 119.275 874.736 119.863 874.774 120.61H873.5C873.472 120.209 873.308 119.887 873.01 119.644C872.72 119.401 872.328 119.28 871.834 119.28C871.376 119.28 871.012 119.378 870.742 119.574C870.471 119.77 870.336 120.027 870.336 120.344C870.336 120.596 870.415 120.806 870.574 120.974C870.742 121.133 870.947 121.263 871.19 121.366C871.442 121.459 871.787 121.567 872.226 121.688C872.776 121.837 873.224 121.987 873.57 122.136C873.915 122.276 874.209 122.491 874.452 122.78C874.704 123.069 874.834 123.447 874.844 123.914C874.844 124.334 874.727 124.712 874.494 125.048C874.26 125.384 873.929 125.65 873.5 125.846C873.08 126.033 872.594 126.126 872.044 126.126ZM878.196 119.378V123.9C878.196 124.273 878.276 124.539 878.434 124.698C878.593 124.847 878.868 124.922 879.26 124.922H880.198V126H879.05C878.341 126 877.809 125.837 877.454 125.51C877.1 125.183 876.922 124.647 876.922 123.9V119.378H875.928V118.328H876.922V116.396H878.196V118.328H880.198V119.378H878.196ZM885.088 126.126C884.369 126.126 883.716 125.963 883.128 125.636C882.549 125.309 882.092 124.847 881.756 124.25C881.429 123.643 881.266 122.943 881.266 122.15C881.266 121.366 881.434 120.675 881.77 120.078C882.115 119.471 882.582 119.009 883.17 118.692C883.758 118.365 884.416 118.202 885.144 118.202C885.872 118.202 886.53 118.365 887.118 118.692C887.706 119.009 888.168 119.467 888.504 120.064C888.849 120.661 889.022 121.357 889.022 122.15C889.022 122.943 888.844 123.643 888.49 124.25C888.144 124.847 887.673 125.309 887.076 125.636C886.478 125.963 885.816 126.126 885.088 126.126ZM885.088 125.006C885.545 125.006 885.974 124.899 886.376 124.684C886.777 124.469 887.099 124.147 887.342 123.718C887.594 123.289 887.72 122.766 887.72 122.15C887.72 121.534 887.598 121.011 887.356 120.582C887.113 120.153 886.796 119.835 886.404 119.63C886.012 119.415 885.587 119.308 885.13 119.308C884.663 119.308 884.234 119.415 883.842 119.63C883.459 119.835 883.151 120.153 882.918 120.582C882.684 121.011 882.568 121.534 882.568 122.15C882.568 122.775 882.68 123.303 882.904 123.732C883.137 124.161 883.445 124.483 883.828 124.698C884.21 124.903 884.63 125.006 885.088 125.006ZM891.971 119.574C892.195 119.135 892.512 118.795 892.923 118.552C893.343 118.309 893.852 118.188 894.449 118.188V119.504H894.113C892.685 119.504 891.971 120.279 891.971 121.828V126H890.697V118.328H891.971V119.574ZM902.528 118.328L897.908 129.612H896.592L898.104 125.916L895.01 118.328H896.424L898.832 124.544L901.212 118.328H902.528Z" fill="#3A3A3A"/>
<circle cx="861.5" cy="74.5" r="31.5" fill="white" stroke="#2C8ACE" stroke-width="2"/>
<g clip-path="url(#clip1_21_2001)">
<path d="M848.5 70.5C848.5 69.7044 848.816 68.9413 849.379 68.3787C849.941 67.8161 850.704 67.5 851.5 67.5H872.5C873.296 67.5 874.059 67.8161 874.621 68.3787C875.184 68.9413 875.5 69.7044 875.5 70.5V84C875.5 84.7956 875.184 85.5587 874.621 86.1213C874.059 86.6839 873.296 87 872.5 87H851.5C850.704 87 849.941 86.6839 849.379 86.1213C848.816 85.5587 848.5 84.7956 848.5 84V70.5Z" stroke="#2C8ACE" stroke-width="1.5" stroke-linecap="round" stroke-linejoin="round"/>
<path d="M856 67.5V64.5C856 63.7044 856.316 62.9413 856.879 62.3787C857.441 61.8161 858.204 61.5 859 61.5H865C865.796 61.5 866.559 61.8161 867.121 62.3787C867.684 62.9413 868 63.7044 868 64.5V67.5" stroke="#2C8ACE" stroke-width="1.5" stroke-linecap="round" stroke-linejoin="round"/>
<path d="M862 75V75.0136" stroke="#2C8ACE" stroke-width="1.5" stroke-linecap="round" stroke-linejoin="round"/>
<path d="M848.5 76.5C852.687 78.61 857.311 79.7091 862 79.7091C866.689 79.7091 871.313 78.61 875.5 76.5" stroke="#2C8ACE" stroke-width="1.5" stroke-linecap="round" stroke-linejoin="round"/>
</g>
<defs>
<clipPath id="clip0_21_2001">
<rect width="30" height="30" fill="white" transform="translate(100 61)"/>
</clipPath>
<clipPath id="clip1_21_2001">
<rect width="36" height="36" fill="white" transform="translate(844 57)"/>
</clipPath>
</defs>
</svg>
