<svg width="98" height="77" viewBox="0 0 98 77" fill="none" xmlns="http://www.w3.org/2000/svg">
<path d="M0 0H83.736C86.4974 0 88.736 2.23858 88.736 5V71.0595C88.736 73.8209 86.4974 76.0594 83.736 76.0594H0V0Z" fill="#F7F7F7"/>
<path d="M98 38.3781L78.5787 21.7313V55.025L98 38.3781Z" fill="#F7F7F7"/>
<path d="M55.6666 48V45.3333C55.6666 43.9188 55.1047 42.5623 54.1045 41.5621C53.1044 40.5619 51.7478 40 50.3333 40H39.6666C38.2522 40 36.8956 40.5619 35.8954 41.5621C34.8952 42.5623 34.3333 43.9188 34.3333 45.3333V48" stroke="#2C8ACE" stroke-width="1.5" stroke-linecap="round" stroke-linejoin="round"/>
<path d="M45 34.6667C47.9455 34.6667 50.3334 32.2789 50.3334 29.3333C50.3334 26.3878 47.9455 24 45 24C42.0545 24 39.6667 26.3878 39.6667 29.3333C39.6667 32.2789 42.0545 34.6667 45 34.6667Z" stroke="#2C8ACE" stroke-width="1.5" stroke-linecap="round" stroke-linejoin="round"/>
</svg>
