<svg width="976" height="148" viewBox="0 0 976 148" fill="none" xmlns="http://www.w3.org/2000/svg">
<path d="M357.78 9.94V14.02H362.58V15.88H357.78V20.14H363.18V22H355.5V8.08H363.18V9.94H357.78ZM379.328 10.8C380.195 10.8 380.968 10.98 381.648 11.34C382.342 11.7 382.882 12.2333 383.268 12.94C383.668 13.6467 383.868 14.5 383.868 15.5V22H381.608V15.84C381.608 14.8533 381.362 14.1 380.868 13.58C380.375 13.0467 379.702 12.78 378.848 12.78C377.995 12.78 377.315 13.0467 376.808 13.58C376.315 14.1 376.068 14.8533 376.068 15.84V22H373.808V15.84C373.808 14.8533 373.562 14.1 373.068 13.58C372.575 13.0467 371.902 12.78 371.048 12.78C370.195 12.78 369.515 13.0467 369.008 13.58C368.515 14.1 368.268 14.8533 368.268 15.84V22H365.988V10.98H368.268V12.24C368.642 11.7867 369.115 11.4333 369.688 11.18C370.262 10.9267 370.875 10.8 371.528 10.8C372.408 10.8 373.195 10.9867 373.888 11.36C374.582 11.7333 375.115 12.2733 375.488 12.98C375.822 12.3133 376.342 11.7867 377.048 11.4C377.755 11 378.515 10.8 379.328 10.8ZM389.05 12.6C389.436 12.0933 389.963 11.6667 390.63 11.32C391.296 10.9733 392.05 10.8 392.89 10.8C393.85 10.8 394.723 11.04 395.51 11.52C396.31 11.9867 396.936 12.6467 397.39 13.5C397.843 14.3533 398.07 15.3333 398.07 16.44C398.07 17.5467 397.843 18.54 397.39 19.42C396.936 20.2867 396.31 20.9667 395.51 21.46C394.723 21.94 393.85 22.18 392.89 22.18C392.05 22.18 391.303 22.0133 390.65 21.68C389.996 21.3333 389.463 20.9067 389.05 20.4V27.24H386.77V10.98H389.05V12.6ZM395.75 16.44C395.75 15.68 395.59 15.0267 395.27 14.48C394.963 13.92 394.55 13.5 394.03 13.22C393.523 12.9267 392.976 12.78 392.39 12.78C391.816 12.78 391.27 12.9267 390.75 13.22C390.243 13.5133 389.83 13.94 389.51 14.5C389.203 15.06 389.05 15.72 389.05 16.48C389.05 17.24 389.203 17.9067 389.51 18.48C389.83 19.04 390.243 19.4667 390.75 19.76C391.27 20.0533 391.816 20.2 392.39 20.2C392.976 20.2 393.523 20.0533 394.03 19.76C394.55 19.4533 394.963 19.0133 395.27 18.44C395.59 17.8667 395.75 17.2 395.75 16.44ZM402.604 7.2V22H400.324V7.2H402.604ZM410.378 22.18C409.338 22.18 408.398 21.9467 407.558 21.48C406.718 21 406.058 20.3333 405.578 19.48C405.098 18.6133 404.858 17.6133 404.858 16.48C404.858 15.36 405.104 14.3667 405.598 13.5C406.091 12.6333 406.764 11.9667 407.618 11.5C408.471 11.0333 409.424 10.8 410.478 10.8C411.531 10.8 412.484 11.0333 413.338 11.5C414.191 11.9667 414.864 12.6333 415.358 13.5C415.851 14.3667 416.098 15.36 416.098 16.48C416.098 17.6 415.844 18.5933 415.338 19.46C414.831 20.3267 414.138 21 413.258 21.48C412.391 21.9467 411.431 22.18 410.378 22.18ZM410.378 20.2C410.964 20.2 411.511 20.06 412.018 19.78C412.538 19.5 412.958 19.08 413.278 18.52C413.598 17.96 413.758 17.28 413.758 16.48C413.758 15.68 413.604 15.0067 413.298 14.46C412.991 13.9 412.584 13.48 412.078 13.2C411.571 12.92 411.024 12.78 410.438 12.78C409.851 12.78 409.304 12.92 408.798 13.2C408.304 13.48 407.911 13.9 407.618 14.46C407.324 15.0067 407.178 15.68 407.178 16.48C407.178 17.6667 407.478 18.5867 408.078 19.24C408.691 19.88 409.458 20.2 410.378 20.2ZM428.272 10.98L421.512 27.18H419.152L421.392 21.82L417.052 10.98H419.592L422.692 19.38L425.912 10.98H428.272ZM440.092 16.22C440.092 16.6333 440.066 17.0067 440.012 17.34H431.592C431.659 18.22 431.986 18.9267 432.572 19.46C433.159 19.9933 433.879 20.26 434.732 20.26C435.959 20.26 436.826 19.7467 437.332 18.72H439.792C439.459 19.7333 438.852 20.5667 437.972 21.22C437.106 21.86 436.026 22.18 434.732 22.18C433.679 22.18 432.732 21.9467 431.892 21.48C431.066 21 430.412 20.3333 429.932 19.48C429.466 18.6133 429.232 17.6133 429.232 16.48C429.232 15.3467 429.459 14.3533 429.912 13.5C430.379 12.6333 431.026 11.9667 431.852 11.5C432.692 11.0333 433.652 10.8 434.732 10.8C435.772 10.8 436.699 11.0267 437.512 11.48C438.326 11.9333 438.959 12.5733 439.412 13.4C439.866 14.2133 440.092 15.1533 440.092 16.22ZM437.712 15.5C437.699 14.66 437.399 13.9867 436.812 13.48C436.226 12.9733 435.499 12.72 434.632 12.72C433.846 12.72 433.172 12.9733 432.612 13.48C432.052 13.9733 431.719 14.6467 431.612 15.5H437.712ZM452.436 16.22C452.436 16.6333 452.409 17.0067 452.356 17.34H443.936C444.003 18.22 444.329 18.9267 444.916 19.46C445.503 19.9933 446.223 20.26 447.076 20.26C448.303 20.26 449.169 19.7467 449.676 18.72H452.136C451.803 19.7333 451.196 20.5667 450.316 21.22C449.449 21.86 448.369 22.18 447.076 22.18C446.023 22.18 445.076 21.9467 444.236 21.48C443.409 21 442.756 20.3333 442.276 19.48C441.809 18.6133 441.576 17.6133 441.576 16.48C441.576 15.3467 441.803 14.3533 442.256 13.5C442.723 12.6333 443.369 11.9667 444.196 11.5C445.036 11.0333 445.996 10.8 447.076 10.8C448.116 10.8 449.043 11.0267 449.856 11.48C450.669 11.9333 451.303 12.5733 451.756 13.4C452.209 14.2133 452.436 15.1533 452.436 16.22ZM450.056 15.5C450.043 14.66 449.743 13.9867 449.156 13.48C448.569 12.9733 447.843 12.72 446.976 12.72C446.189 12.72 445.516 12.9733 444.956 13.48C444.396 13.9733 444.063 14.6467 443.956 15.5H450.056ZM464.455 22.14C463.522 22.14 462.682 21.98 461.935 21.66C461.188 21.3267 460.602 20.86 460.175 20.26C459.748 19.66 459.535 18.96 459.535 18.16H461.975C462.028 18.76 462.262 19.2533 462.675 19.64C463.102 20.0267 463.695 20.22 464.455 20.22C465.242 20.22 465.855 20.0333 466.295 19.66C466.735 19.2733 466.955 18.78 466.955 18.18C466.955 17.7133 466.815 17.3333 466.535 17.04C466.268 16.7467 465.928 16.52 465.515 16.36C465.115 16.2 464.555 16.0267 463.835 15.84C462.928 15.6 462.188 15.36 461.615 15.12C461.055 14.8667 460.575 14.48 460.175 13.96C459.775 13.44 459.575 12.7467 459.575 11.88C459.575 11.08 459.775 10.38 460.175 9.78C460.575 9.18 461.135 8.72 461.855 8.4C462.575 8.08 463.408 7.92 464.355 7.92C465.702 7.92 466.802 8.26 467.655 8.94C468.522 9.60667 469.002 10.5267 469.095 11.7H466.575C466.535 11.1933 466.295 10.76 465.855 10.4C465.415 10.04 464.835 9.86 464.115 9.86C463.462 9.86 462.928 10.0267 462.515 10.36C462.102 10.6933 461.895 11.1733 461.895 11.8C461.895 12.2267 462.022 12.58 462.275 12.86C462.542 13.1267 462.875 13.34 463.275 13.5C463.675 13.66 464.222 13.8333 464.915 14.02C465.835 14.2733 466.582 14.5267 467.155 14.78C467.742 15.0333 468.235 15.4267 468.635 15.96C469.048 16.48 469.255 17.18 469.255 18.06C469.255 18.7667 469.062 19.4333 468.675 20.06C468.302 20.6867 467.748 21.1933 467.015 21.58C466.295 21.9533 465.442 22.14 464.455 22.14ZM482.045 16.22C482.045 16.6333 482.019 17.0067 481.965 17.34H473.545C473.612 18.22 473.939 18.9267 474.525 19.46C475.112 19.9933 475.832 20.26 476.685 20.26C477.912 20.26 478.779 19.7467 479.285 18.72H481.745C481.412 19.7333 480.805 20.5667 479.925 21.22C479.059 21.86 477.979 22.18 476.685 22.18C475.632 22.18 474.685 21.9467 473.845 21.48C473.019 21 472.365 20.3333 471.885 19.48C471.419 18.6133 471.185 17.6133 471.185 16.48C471.185 15.3467 471.412 14.3533 471.865 13.5C472.332 12.6333 472.979 11.9667 473.805 11.5C474.645 11.0333 475.605 10.8 476.685 10.8C477.725 10.8 478.652 11.0267 479.465 11.48C480.279 11.9333 480.912 12.5733 481.365 13.4C481.819 14.2133 482.045 15.1533 482.045 16.22ZM479.665 15.5C479.652 14.66 479.352 13.9867 478.765 13.48C478.179 12.9733 477.452 12.72 476.585 12.72C475.799 12.72 475.125 12.9733 474.565 13.48C474.005 13.9733 473.672 14.6467 473.565 15.5H479.665ZM486.569 7.2V22H484.289V7.2H486.569ZM494.183 12.84H492.143V22H489.843V12.84H488.543V10.98H489.843V10.2C489.843 8.93333 490.176 8.01333 490.843 7.44C491.523 6.85333 492.583 6.56 494.023 6.56V8.46C493.329 8.46 492.843 8.59333 492.563 8.86C492.283 9.11333 492.143 9.56 492.143 10.2V10.98H494.183V12.84ZM507.738 22.14C506.445 22.14 505.252 21.84 504.158 21.24C503.078 20.6267 502.218 19.78 501.578 18.7C500.952 17.6067 500.638 16.38 500.638 15.02C500.638 13.66 500.952 12.44 501.578 11.36C502.218 10.28 503.078 9.44 504.158 8.84C505.252 8.22667 506.445 7.92 507.738 7.92C509.045 7.92 510.238 8.22667 511.318 8.84C512.412 9.44 513.272 10.28 513.898 11.36C514.525 12.44 514.838 13.66 514.838 15.02C514.838 16.38 514.525 17.6067 513.898 18.7C513.272 19.78 512.412 20.6267 511.318 21.24C510.238 21.84 509.045 22.14 507.738 22.14ZM507.738 20.16C508.658 20.16 509.478 19.9533 510.198 19.54C510.918 19.1133 511.478 18.5133 511.878 17.74C512.292 16.9533 512.498 16.0467 512.498 15.02C512.498 13.9933 512.292 13.0933 511.878 12.32C511.478 11.5467 510.918 10.9533 510.198 10.54C509.478 10.1267 508.658 9.92 507.738 9.92C506.818 9.92 505.998 10.1267 505.278 10.54C504.558 10.9533 503.992 11.5467 503.578 12.32C503.178 13.0933 502.978 13.9933 502.978 15.02C502.978 16.0467 503.178 16.9533 503.578 17.74C503.992 18.5133 504.558 19.1133 505.278 19.54C505.998 19.9533 506.818 20.16 507.738 20.16ZM522.642 10.8C523.509 10.8 524.282 10.98 524.962 11.34C525.655 11.7 526.195 12.2333 526.582 12.94C526.969 13.6467 527.162 14.5 527.162 15.5V22H524.902V15.84C524.902 14.8533 524.655 14.1 524.162 13.58C523.669 13.0467 522.995 12.78 522.142 12.78C521.289 12.78 520.609 13.0467 520.102 13.58C519.609 14.1 519.362 14.8533 519.362 15.84V22H517.082V10.98H519.362V12.24C519.735 11.7867 520.209 11.4333 520.782 11.18C521.369 10.9267 521.989 10.8 522.642 10.8ZM532.35 12.62C532.737 12.0867 533.264 11.6533 533.93 11.32C534.61 10.9733 535.364 10.8 536.19 10.8C537.164 10.8 538.044 11.0333 538.83 11.5C539.617 11.9667 540.237 12.6333 540.69 13.5C541.144 14.3533 541.37 15.3333 541.37 16.44C541.37 17.5467 541.144 18.54 540.69 19.42C540.237 20.2867 539.61 20.9667 538.81 21.46C538.024 21.94 537.15 22.18 536.19 22.18C535.337 22.18 534.577 22.0133 533.91 21.68C533.257 21.3467 532.737 20.92 532.35 20.4V22H530.07V7.2H532.35V12.62ZM539.05 16.44C539.05 15.68 538.89 15.0267 538.57 14.48C538.264 13.92 537.85 13.5 537.33 13.22C536.824 12.9267 536.277 12.78 535.69 12.78C535.117 12.78 534.57 12.9267 534.05 13.22C533.544 13.5133 533.13 13.94 532.81 14.5C532.504 15.06 532.35 15.72 532.35 16.48C532.35 17.24 532.504 17.9067 532.81 18.48C533.13 19.04 533.544 19.4667 534.05 19.76C534.57 20.0533 535.117 20.2 535.69 20.2C536.277 20.2 536.824 20.0533 537.33 19.76C537.85 19.4533 538.264 19.0133 538.57 18.44C538.89 17.8667 539.05 17.2 539.05 16.44ZM548.405 22.18C547.365 22.18 546.425 21.9467 545.585 21.48C544.745 21 544.085 20.3333 543.605 19.48C543.125 18.6133 542.885 17.6133 542.885 16.48C542.885 15.36 543.132 14.3667 543.625 13.5C544.118 12.6333 544.792 11.9667 545.645 11.5C546.498 11.0333 547.452 10.8 548.505 10.8C549.558 10.8 550.512 11.0333 551.365 11.5C552.218 11.9667 552.892 12.6333 553.385 13.5C553.878 14.3667 554.125 15.36 554.125 16.48C554.125 17.6 553.872 18.5933 553.365 19.46C552.858 20.3267 552.165 21 551.285 21.48C550.418 21.9467 549.458 22.18 548.405 22.18ZM548.405 20.2C548.992 20.2 549.538 20.06 550.045 19.78C550.565 19.5 550.985 19.08 551.305 18.52C551.625 17.96 551.785 17.28 551.785 16.48C551.785 15.68 551.632 15.0067 551.325 14.46C551.018 13.9 550.612 13.48 550.105 13.2C549.598 12.92 549.052 12.78 548.465 12.78C547.878 12.78 547.332 12.92 546.825 13.2C546.332 13.48 545.938 13.9 545.645 14.46C545.352 15.0067 545.205 15.68 545.205 16.48C545.205 17.6667 545.505 18.5867 546.105 19.24C546.718 19.88 547.485 20.2 548.405 20.2ZM555.619 16.44C555.619 15.3333 555.846 14.3533 556.299 13.5C556.766 12.6467 557.392 11.9867 558.179 11.52C558.979 11.04 559.859 10.8 560.819 10.8C561.686 10.8 562.439 10.9733 563.079 11.32C563.732 11.6533 564.252 12.0733 564.639 12.58V10.98H566.939V22H564.639V20.36C564.252 20.88 563.726 21.3133 563.059 21.66C562.392 22.0067 561.632 22.18 560.779 22.18C559.832 22.18 558.966 21.94 558.179 21.46C557.392 20.9667 556.766 20.2867 556.299 19.42C555.846 18.54 555.619 17.5467 555.619 16.44ZM564.639 16.48C564.639 15.72 564.479 15.06 564.159 14.5C563.852 13.94 563.446 13.5133 562.939 13.22C562.432 12.9267 561.886 12.78 561.299 12.78C560.712 12.78 560.166 12.9267 559.659 13.22C559.152 13.5 558.739 13.92 558.419 14.48C558.112 15.0267 557.959 15.68 557.959 16.44C557.959 17.2 558.112 17.8667 558.419 18.44C558.739 19.0133 559.152 19.4533 559.659 19.76C560.179 20.0533 560.726 20.2 561.299 20.2C561.886 20.2 562.432 20.0533 562.939 19.76C563.446 19.4667 563.852 19.04 564.159 18.48C564.479 17.9067 564.639 17.24 564.639 16.48ZM572.214 12.58C572.547 12.02 572.987 11.5867 573.534 11.28C574.094 10.96 574.754 10.8 575.514 10.8V13.16H574.934C574.04 13.16 573.36 13.3867 572.894 13.84C572.44 14.2933 572.214 15.08 572.214 16.2V22H569.934V10.98H572.214V12.58ZM576.849 16.44C576.849 15.3333 577.076 14.3533 577.529 13.5C577.996 12.6467 578.623 11.9867 579.409 11.52C580.209 11.04 581.096 10.8 582.069 10.8C582.789 10.8 583.496 10.96 584.189 11.28C584.896 11.5867 585.456 12 585.869 12.52V7.2H588.169V22H585.869V20.34C585.496 20.8733 584.976 21.3133 584.309 21.66C583.656 22.0067 582.903 22.18 582.049 22.18C581.089 22.18 580.209 21.94 579.409 21.46C578.623 20.9667 577.996 20.2867 577.529 19.42C577.076 18.54 576.849 17.5467 576.849 16.44ZM585.869 16.48C585.869 15.72 585.709 15.06 585.389 14.5C585.083 13.94 584.676 13.5133 584.169 13.22C583.663 12.9267 583.116 12.78 582.529 12.78C581.943 12.78 581.396 12.9267 580.889 13.22C580.383 13.5 579.969 13.92 579.649 14.48C579.343 15.0267 579.189 15.68 579.189 16.44C579.189 17.2 579.343 17.8667 579.649 18.44C579.969 19.0133 580.383 19.4533 580.889 19.76C581.409 20.0533 581.956 20.2 582.529 20.2C583.116 20.2 583.663 20.0533 584.169 19.76C584.676 19.4667 585.083 19.04 585.389 18.48C585.709 17.9067 585.869 17.24 585.869 16.48ZM592.324 9.52C591.911 9.52 591.564 9.38 591.284 9.1C591.004 8.82 590.864 8.47333 590.864 8.06C590.864 7.64667 591.004 7.3 591.284 7.02C591.564 6.74 591.911 6.6 592.324 6.6C592.724 6.6 593.064 6.74 593.344 7.02C593.624 7.3 593.764 7.64667 593.764 8.06C593.764 8.47333 593.624 8.82 593.344 9.1C593.064 9.38 592.724 9.52 592.324 9.52ZM593.444 10.98V22H591.164V10.98H593.444ZM601.998 10.8C602.864 10.8 603.638 10.98 604.318 11.34C605.011 11.7 605.551 12.2333 605.938 12.94C606.324 13.6467 606.518 14.5 606.518 15.5V22H604.258V15.84C604.258 14.8533 604.011 14.1 603.518 13.58C603.024 13.0467 602.351 12.78 601.498 12.78C600.644 12.78 599.964 13.0467 599.458 13.58C598.964 14.1 598.718 14.8533 598.718 15.84V22H596.438V10.98H598.718V12.24C599.091 11.7867 599.564 11.4333 600.138 11.18C600.724 10.9267 601.344 10.8 601.998 10.8ZM613.866 10.8C614.719 10.8 615.472 10.9733 616.126 11.32C616.792 11.6533 617.312 12.0733 617.686 12.58V10.98H619.986V22.18C619.986 23.1933 619.772 24.0933 619.346 24.88C618.919 25.68 618.299 26.3067 617.486 26.76C616.686 27.2133 615.726 27.44 614.606 27.44C613.112 27.44 611.872 27.0867 610.886 26.38C609.899 25.6867 609.339 24.74 609.206 23.54H611.466C611.639 24.1133 612.006 24.5733 612.566 24.92C613.139 25.28 613.819 25.46 614.606 25.46C615.526 25.46 616.266 25.18 616.826 24.62C617.399 24.06 617.686 23.2467 617.686 22.18V20.34C617.299 20.86 616.772 21.3 616.106 21.66C615.452 22.0067 614.706 22.18 613.866 22.18C612.906 22.18 612.026 21.94 611.226 21.46C610.439 20.9667 609.812 20.2867 609.346 19.42C608.892 18.54 608.666 17.5467 608.666 16.44C608.666 15.3333 608.892 14.3533 609.346 13.5C609.812 12.6467 610.439 11.9867 611.226 11.52C612.026 11.04 612.906 10.8 613.866 10.8ZM617.686 16.48C617.686 15.72 617.526 15.06 617.206 14.5C616.899 13.94 616.492 13.5133 615.986 13.22C615.479 12.9267 614.932 12.78 614.346 12.78C613.759 12.78 613.212 12.9267 612.706 13.22C612.199 13.5 611.786 13.92 611.466 14.48C611.159 15.0267 611.006 15.68 611.006 16.44C611.006 17.2 611.159 17.8667 611.466 18.44C611.786 19.0133 612.199 19.4533 612.706 19.76C613.226 20.0533 613.772 20.2 614.346 20.2C614.932 20.2 615.479 20.0533 615.986 19.76C616.492 19.4667 616.899 19.04 617.206 18.48C617.526 17.9067 617.686 17.24 617.686 16.48Z" fill="#3A3A3A"/>
<rect x="95" y="76" width="782" height="4" fill="#D9D9D9"/>
<rect x="140" y="76" width="166" height="4" fill="#2C8ACE"/>
<path d="M47.9358 120.098C47.9358 120.91 47.6558 121.587 47.0958 122.128C46.5451 122.66 45.7005 122.926 44.5618 122.926H42.6858V127H41.4118V117.242H44.5618C45.6631 117.242 46.4985 117.508 47.0678 118.04C47.6465 118.572 47.9358 119.258 47.9358 120.098ZM44.5618 121.876C45.2711 121.876 45.7938 121.722 46.1298 121.414C46.4658 121.106 46.6338 120.667 46.6338 120.098C46.6338 118.894 45.9431 118.292 44.5618 118.292H42.6858V121.876H44.5618ZM56.5192 122.87C56.5192 123.113 56.5052 123.369 56.4772 123.64H50.3452C50.3919 124.396 50.6486 124.989 51.1152 125.418C51.5912 125.838 52.1652 126.048 52.8372 126.048C53.3879 126.048 53.8452 125.922 54.2092 125.67C54.5826 125.409 54.8439 125.063 54.9932 124.634H56.3652C56.1599 125.371 55.7492 125.973 55.1332 126.44C54.5172 126.897 53.7519 127.126 52.8372 127.126C52.1092 127.126 51.4559 126.963 50.8772 126.636C50.3079 126.309 49.8599 125.847 49.5332 125.25C49.2066 124.643 49.0432 123.943 49.0432 123.15C49.0432 122.357 49.2019 121.661 49.5192 121.064C49.8366 120.467 50.2799 120.009 50.8492 119.692C51.4279 119.365 52.0906 119.202 52.8372 119.202C53.5652 119.202 54.2092 119.361 54.7692 119.678C55.3292 119.995 55.7586 120.434 56.0572 120.994C56.3652 121.545 56.5192 122.17 56.5192 122.87ZM55.2032 122.604C55.2032 122.119 55.0959 121.703 54.8812 121.358C54.6666 121.003 54.3726 120.737 53.9992 120.56C53.6352 120.373 53.2292 120.28 52.7812 120.28C52.1372 120.28 51.5866 120.485 51.1292 120.896C50.6812 121.307 50.4246 121.876 50.3592 122.604H55.2032ZM59.4749 120.574C59.6989 120.135 60.0162 119.795 60.4269 119.552C60.8469 119.309 61.3555 119.188 61.9529 119.188V120.504H61.6169C60.1889 120.504 59.4749 121.279 59.4749 122.828V127H58.2009V119.328H59.4749V120.574ZM66.1395 127.126C65.5515 127.126 65.0242 127.028 64.5575 126.832C64.0909 126.627 63.7222 126.347 63.4515 125.992C63.1809 125.628 63.0315 125.213 63.0035 124.746H64.3195C64.3569 125.129 64.5342 125.441 64.8515 125.684C65.1782 125.927 65.6029 126.048 66.1255 126.048C66.6109 126.048 66.9935 125.941 67.2735 125.726C67.5535 125.511 67.6935 125.241 67.6935 124.914C67.6935 124.578 67.5442 124.331 67.2455 124.172C66.9469 124.004 66.4849 123.841 65.8595 123.682C65.2902 123.533 64.8235 123.383 64.4595 123.234C64.1049 123.075 63.7969 122.847 63.5355 122.548C63.2835 122.24 63.1575 121.839 63.1575 121.344C63.1575 120.952 63.2742 120.593 63.5075 120.266C63.7409 119.939 64.0722 119.683 64.5015 119.496C64.9309 119.3 65.4209 119.202 65.9715 119.202C66.8209 119.202 67.5069 119.417 68.0295 119.846C68.5522 120.275 68.8322 120.863 68.8695 121.61H67.5955C67.5675 121.209 67.4042 120.887 67.1055 120.644C66.8162 120.401 66.4242 120.28 65.9295 120.28C65.4722 120.28 65.1082 120.378 64.8375 120.574C64.5669 120.77 64.4315 121.027 64.4315 121.344C64.4315 121.596 64.5109 121.806 64.6695 121.974C64.8375 122.133 65.0429 122.263 65.2855 122.366C65.5375 122.459 65.8829 122.567 66.3215 122.688C66.8722 122.837 67.3202 122.987 67.6655 123.136C68.0109 123.276 68.3049 123.491 68.5475 123.78C68.7995 124.069 68.9302 124.447 68.9395 124.914C68.9395 125.334 68.8229 125.712 68.5895 126.048C68.3562 126.384 68.0249 126.65 67.5955 126.846C67.1755 127.033 66.6902 127.126 66.1395 127.126ZM74.084 127.126C73.3653 127.126 72.712 126.963 72.124 126.636C71.5453 126.309 71.088 125.847 70.752 125.25C70.4253 124.643 70.262 123.943 70.262 123.15C70.262 122.366 70.43 121.675 70.766 121.078C71.1113 120.471 71.578 120.009 72.166 119.692C72.754 119.365 73.412 119.202 74.14 119.202C74.868 119.202 75.526 119.365 76.114 119.692C76.702 120.009 77.164 120.467 77.5 121.064C77.8453 121.661 78.018 122.357 78.018 123.15C78.018 123.943 77.8406 124.643 77.486 125.25C77.1406 125.847 76.6693 126.309 76.072 126.636C75.4746 126.963 74.812 127.126 74.084 127.126ZM74.084 126.006C74.5413 126.006 74.9706 125.899 75.372 125.684C75.7733 125.469 76.0953 125.147 76.338 124.718C76.59 124.289 76.716 123.766 76.716 123.15C76.716 122.534 76.5946 122.011 76.352 121.582C76.1093 121.153 75.792 120.835 75.4 120.63C75.008 120.415 74.5833 120.308 74.126 120.308C73.6593 120.308 73.23 120.415 72.838 120.63C72.4553 120.835 72.1473 121.153 71.914 121.582C71.6806 122.011 71.564 122.534 71.564 123.15C71.564 123.775 71.676 124.303 71.9 124.732C72.1333 125.161 72.4413 125.483 72.824 125.698C73.2066 125.903 73.6266 126.006 74.084 126.006ZM83.4311 119.188C84.3644 119.188 85.1204 119.473 85.6991 120.042C86.2777 120.602 86.5671 121.414 86.5671 122.478V127H85.3071V122.66C85.3071 121.895 85.1157 121.311 84.7331 120.91C84.3504 120.499 83.8277 120.294 83.1651 120.294C82.4931 120.294 81.9564 120.504 81.5551 120.924C81.1631 121.344 80.9671 121.955 80.9671 122.758V127H79.6931V119.328H80.9671V120.42C81.2191 120.028 81.5597 119.725 81.9891 119.51C82.4277 119.295 82.9084 119.188 83.4311 119.188ZM88.1721 123.136C88.1721 122.352 88.3308 121.666 88.6481 121.078C88.9655 120.481 89.3995 120.019 89.9501 119.692C90.5101 119.365 91.1308 119.202 91.8121 119.202C92.4841 119.202 93.0675 119.347 93.5621 119.636C94.0568 119.925 94.4255 120.289 94.6681 120.728V119.328H95.9561V127H94.6681V125.572C94.4161 126.02 94.0381 126.393 93.5341 126.692C93.0395 126.981 92.4608 127.126 91.7981 127.126C91.1168 127.126 90.5008 126.958 89.9501 126.622C89.3995 126.286 88.9655 125.815 88.6481 125.208C88.3308 124.601 88.1721 123.911 88.1721 123.136ZM94.6681 123.15C94.6681 122.571 94.5515 122.067 94.3181 121.638C94.0848 121.209 93.7675 120.882 93.3661 120.658C92.9741 120.425 92.5401 120.308 92.0641 120.308C91.5881 120.308 91.1541 120.42 90.7621 120.644C90.3701 120.868 90.0575 121.195 89.8241 121.624C89.5908 122.053 89.4741 122.557 89.4741 123.136C89.4741 123.724 89.5908 124.237 89.8241 124.676C90.0575 125.105 90.3701 125.437 90.7621 125.67C91.1541 125.894 91.5881 126.006 92.0641 126.006C92.5401 126.006 92.9741 125.894 93.3661 125.67C93.7675 125.437 94.0848 125.105 94.3181 124.676C94.5515 124.237 94.6681 123.729 94.6681 123.15ZM99.3831 116.64V127H98.1091V116.64H99.3831ZM106.561 117.242V127H105.287V117.242H106.561ZM112.47 119.188C113.403 119.188 114.159 119.473 114.738 120.042C115.317 120.602 115.606 121.414 115.606 122.478V127H114.346V122.66C114.346 121.895 114.155 121.311 113.772 120.91C113.389 120.499 112.867 120.294 112.204 120.294C111.532 120.294 110.995 120.504 110.594 120.924C110.202 121.344 110.006 121.955 110.006 122.758V127H108.732V119.328H110.006V120.42C110.258 120.028 110.599 119.725 111.028 119.51C111.467 119.295 111.947 119.188 112.47 119.188ZM120.809 120.378H119.199V127H117.925V120.378H116.931V119.328H117.925V118.782C117.925 117.923 118.145 117.298 118.583 116.906C119.031 116.505 119.745 116.304 120.725 116.304V117.368C120.165 117.368 119.769 117.48 119.535 117.704C119.311 117.919 119.199 118.278 119.199 118.782V119.328H120.809V120.378ZM125.641 127.126C124.922 127.126 124.269 126.963 123.681 126.636C123.102 126.309 122.645 125.847 122.309 125.25C121.982 124.643 121.819 123.943 121.819 123.15C121.819 122.366 121.987 121.675 122.323 121.078C122.668 120.471 123.135 120.009 123.723 119.692C124.311 119.365 124.969 119.202 125.697 119.202C126.425 119.202 127.083 119.365 127.671 119.692C128.259 120.009 128.721 120.467 129.057 121.064C129.402 121.661 129.575 122.357 129.575 123.15C129.575 123.943 129.397 124.643 129.043 125.25C128.697 125.847 128.226 126.309 127.629 126.636C127.031 126.963 126.369 127.126 125.641 127.126ZM125.641 126.006C126.098 126.006 126.527 125.899 126.929 125.684C127.33 125.469 127.652 125.147 127.895 124.718C128.147 124.289 128.273 123.766 128.273 123.15C128.273 122.534 128.151 122.011 127.909 121.582C127.666 121.153 127.349 120.835 126.957 120.63C126.565 120.415 126.14 120.308 125.683 120.308C125.216 120.308 124.787 120.415 124.395 120.63C124.012 120.835 123.704 121.153 123.471 121.582C123.237 122.011 123.121 122.534 123.121 123.15C123.121 123.775 123.233 124.303 123.457 124.732C123.69 125.161 123.998 125.483 124.381 125.698C124.763 125.903 125.183 126.006 125.641 126.006ZM132.524 120.574C132.748 120.135 133.065 119.795 133.476 119.552C133.896 119.309 134.404 119.188 135.002 119.188V120.504H134.666C133.238 120.504 132.524 121.279 132.524 122.828V127H131.25V119.328H132.524V120.574ZM145.698 119.188C146.296 119.188 146.828 119.314 147.294 119.566C147.761 119.809 148.13 120.177 148.4 120.672C148.671 121.167 148.806 121.769 148.806 122.478V127H147.546V122.66C147.546 121.895 147.355 121.311 146.972 120.91C146.599 120.499 146.09 120.294 145.446 120.294C144.784 120.294 144.256 120.509 143.864 120.938C143.472 121.358 143.276 121.969 143.276 122.772V127H142.016V122.66C142.016 121.895 141.825 121.311 141.442 120.91C141.069 120.499 140.56 120.294 139.916 120.294C139.254 120.294 138.726 120.509 138.334 120.938C137.942 121.358 137.746 121.969 137.746 122.772V127H136.472V119.328H137.746V120.434C137.998 120.033 138.334 119.725 138.754 119.51C139.184 119.295 139.655 119.188 140.168 119.188C140.812 119.188 141.382 119.333 141.876 119.622C142.371 119.911 142.74 120.336 142.982 120.896C143.197 120.355 143.552 119.935 144.046 119.636C144.541 119.337 145.092 119.188 145.698 119.188ZM150.42 123.136C150.42 122.352 150.579 121.666 150.896 121.078C151.214 120.481 151.648 120.019 152.198 119.692C152.758 119.365 153.379 119.202 154.06 119.202C154.732 119.202 155.316 119.347 155.81 119.636C156.305 119.925 156.674 120.289 156.916 120.728V119.328H158.204V127H156.916V125.572C156.664 126.02 156.286 126.393 155.782 126.692C155.288 126.981 154.709 127.126 154.046 127.126C153.365 127.126 152.749 126.958 152.198 126.622C151.648 126.286 151.214 125.815 150.896 125.208C150.579 124.601 150.42 123.911 150.42 123.136ZM156.916 123.15C156.916 122.571 156.8 122.067 156.566 121.638C156.333 121.209 156.016 120.882 155.614 120.658C155.222 120.425 154.788 120.308 154.312 120.308C153.836 120.308 153.402 120.42 153.01 120.644C152.618 120.868 152.306 121.195 152.072 121.624C151.839 122.053 151.722 122.557 151.722 123.136C151.722 123.724 151.839 124.237 152.072 124.676C152.306 125.105 152.618 125.437 153.01 125.67C153.402 125.894 153.836 126.006 154.312 126.006C154.788 126.006 155.222 125.894 155.614 125.67C156.016 125.437 156.333 125.105 156.566 124.676C156.8 124.237 156.916 123.729 156.916 123.15ZM161.911 120.378V124.9C161.911 125.273 161.99 125.539 162.149 125.698C162.308 125.847 162.583 125.922 162.975 125.922H163.913V127H162.765C162.056 127 161.524 126.837 161.169 126.51C160.814 126.183 160.637 125.647 160.637 124.9V120.378H159.643V119.328H160.637V117.396H161.911V119.328H163.913V120.378H161.911ZM166.115 118.082C165.872 118.082 165.667 117.998 165.499 117.83C165.331 117.662 165.247 117.457 165.247 117.214C165.247 116.971 165.331 116.766 165.499 116.598C165.667 116.43 165.872 116.346 166.115 116.346C166.348 116.346 166.544 116.43 166.703 116.598C166.871 116.766 166.955 116.971 166.955 117.214C166.955 117.457 166.871 117.662 166.703 117.83C166.544 117.998 166.348 118.082 166.115 118.082ZM166.731 119.328V127H165.457V119.328H166.731ZM172.248 127.126C171.529 127.126 170.876 126.963 170.288 126.636C169.709 126.309 169.252 125.847 168.916 125.25C168.589 124.643 168.426 123.943 168.426 123.15C168.426 122.366 168.594 121.675 168.93 121.078C169.275 120.471 169.742 120.009 170.33 119.692C170.918 119.365 171.576 119.202 172.304 119.202C173.032 119.202 173.69 119.365 174.278 119.692C174.866 120.009 175.328 120.467 175.664 121.064C176.009 121.661 176.182 122.357 176.182 123.15C176.182 123.943 176.005 124.643 175.65 125.25C175.305 125.847 174.833 126.309 174.236 126.636C173.639 126.963 172.976 127.126 172.248 127.126ZM172.248 126.006C172.705 126.006 173.135 125.899 173.536 125.684C173.937 125.469 174.259 125.147 174.502 124.718C174.754 124.289 174.88 123.766 174.88 123.15C174.88 122.534 174.759 122.011 174.516 121.582C174.273 121.153 173.956 120.835 173.564 120.63C173.172 120.415 172.747 120.308 172.29 120.308C171.823 120.308 171.394 120.415 171.002 120.63C170.619 120.835 170.311 121.153 170.078 121.582C169.845 122.011 169.728 122.534 169.728 123.15C169.728 123.775 169.84 124.303 170.064 124.732C170.297 125.161 170.605 125.483 170.988 125.698C171.371 125.903 171.791 126.006 172.248 126.006ZM181.595 119.188C182.528 119.188 183.284 119.473 183.863 120.042C184.442 120.602 184.731 121.414 184.731 122.478V127H183.471V122.66C183.471 121.895 183.28 121.311 182.897 120.91C182.514 120.499 181.992 120.294 181.329 120.294C180.657 120.294 180.12 120.504 179.719 120.924C179.327 121.344 179.131 121.955 179.131 122.758V127H177.857V119.328H179.131V120.42C179.383 120.028 179.724 119.725 180.153 119.51C180.592 119.295 181.072 119.188 181.595 119.188Z" fill="#3A3A3A"/>
<circle cx="107.5" cy="75.5" r="31.5" fill="white" stroke="#2C8ACE" stroke-width="2"/>
<g clip-path="url(#clip0_17_522)">
<path d="M103 69.75C103 70.7389 103.293 71.7056 103.843 72.5279C104.392 73.3501 105.173 73.991 106.087 74.3694C107 74.7478 108.006 74.8469 108.975 74.6539C109.945 74.461 110.836 73.9848 111.536 73.2855C112.235 72.5863 112.711 71.6954 112.904 70.7255C113.097 69.7555 112.998 68.7502 112.619 67.8366C112.241 66.923 111.6 66.1421 110.778 65.5927C109.956 65.0432 108.989 64.75 108 64.75C106.674 64.75 105.402 65.2768 104.464 66.2145C103.527 67.1521 103 68.4239 103 69.75Z" stroke="#2C8ACE" stroke-width="1.5" stroke-linecap="round" stroke-linejoin="round"/>
<path d="M100.5 87.25V84.75C100.5 83.4239 101.027 82.1521 101.964 81.2145C102.902 80.2768 104.174 79.75 105.5 79.75H110.5C110.925 79.75 111.348 79.8038 111.76 79.91" stroke="#2C8ACE" stroke-width="1.5" stroke-linecap="round" stroke-linejoin="round"/>
<path d="M116.75 81V84.75" stroke="#2C8ACE" stroke-width="1.5" stroke-linecap="round" stroke-linejoin="round"/>
<path d="M116.75 88.5V88.5125" stroke="#2C8ACE" stroke-width="1.5" stroke-linecap="round" stroke-linejoin="round"/>
</g>
<path d="M440.904 122.114C440.904 121.162 441.118 120.308 441.548 119.552C441.977 118.787 442.56 118.189 443.298 117.76C444.044 117.331 444.87 117.116 445.776 117.116C446.84 117.116 447.768 117.373 448.562 117.886C449.355 118.399 449.934 119.127 450.298 120.07H448.772C448.501 119.482 448.109 119.029 447.596 118.712C447.092 118.395 446.485 118.236 445.776 118.236C445.094 118.236 444.483 118.395 443.942 118.712C443.4 119.029 442.976 119.482 442.668 120.07C442.36 120.649 442.206 121.33 442.206 122.114C442.206 122.889 442.36 123.57 442.668 124.158C442.976 124.737 443.4 125.185 443.942 125.502C444.483 125.819 445.094 125.978 445.776 125.978C446.485 125.978 447.092 125.824 447.596 125.516C448.109 125.199 448.501 124.746 448.772 124.158H450.298C449.934 125.091 449.355 125.815 448.562 126.328C447.768 126.832 446.84 127.084 445.776 127.084C444.87 127.084 444.044 126.874 443.298 126.454C442.56 126.025 441.977 125.432 441.548 124.676C441.118 123.92 440.904 123.066 440.904 122.114ZM455.54 127.126C454.821 127.126 454.168 126.963 453.58 126.636C453.001 126.309 452.544 125.847 452.208 125.25C451.881 124.643 451.718 123.943 451.718 123.15C451.718 122.366 451.886 121.675 452.222 121.078C452.567 120.471 453.034 120.009 453.622 119.692C454.21 119.365 454.868 119.202 455.596 119.202C456.324 119.202 456.982 119.365 457.57 119.692C458.158 120.009 458.62 120.467 458.956 121.064C459.301 121.661 459.474 122.357 459.474 123.15C459.474 123.943 459.297 124.643 458.942 125.25C458.597 125.847 458.125 126.309 457.528 126.636C456.931 126.963 456.268 127.126 455.54 127.126ZM455.54 126.006C455.997 126.006 456.427 125.899 456.828 125.684C457.229 125.469 457.551 125.147 457.794 124.718C458.046 124.289 458.172 123.766 458.172 123.15C458.172 122.534 458.051 122.011 457.808 121.582C457.565 121.153 457.248 120.835 456.856 120.63C456.464 120.415 456.039 120.308 455.582 120.308C455.115 120.308 454.686 120.415 454.294 120.63C453.911 120.835 453.603 121.153 453.37 121.582C453.137 122.011 453.02 122.534 453.02 123.15C453.02 123.775 453.132 124.303 453.356 124.732C453.589 125.161 453.897 125.483 454.28 125.698C454.663 125.903 455.083 126.006 455.54 126.006ZM470.375 119.188C470.972 119.188 471.504 119.314 471.971 119.566C472.438 119.809 472.806 120.177 473.077 120.672C473.348 121.167 473.483 121.769 473.483 122.478V127H472.223V122.66C472.223 121.895 472.032 121.311 471.649 120.91C471.276 120.499 470.767 120.294 470.123 120.294C469.46 120.294 468.933 120.509 468.541 120.938C468.149 121.358 467.953 121.969 467.953 122.772V127H466.693V122.66C466.693 121.895 466.502 121.311 466.119 120.91C465.746 120.499 465.237 120.294 464.593 120.294C463.93 120.294 463.403 120.509 463.011 120.938C462.619 121.358 462.423 121.969 462.423 122.772V127H461.149V119.328H462.423V120.434C462.675 120.033 463.011 119.725 463.431 119.51C463.86 119.295 464.332 119.188 464.845 119.188C465.489 119.188 466.058 119.333 466.553 119.622C467.048 119.911 467.416 120.336 467.659 120.896C467.874 120.355 468.228 119.935 468.723 119.636C469.218 119.337 469.768 119.188 470.375 119.188ZM476.847 120.742C477.099 120.303 477.472 119.939 477.967 119.65C478.471 119.351 479.054 119.202 479.717 119.202C480.398 119.202 481.014 119.365 481.565 119.692C482.125 120.019 482.564 120.481 482.881 121.078C483.198 121.666 483.357 122.352 483.357 123.136C483.357 123.911 483.198 124.601 482.881 125.208C482.564 125.815 482.125 126.286 481.565 126.622C481.014 126.958 480.398 127.126 479.717 127.126C479.064 127.126 478.485 126.981 477.981 126.692C477.486 126.393 477.108 126.025 476.847 125.586V130.64H475.573V119.328H476.847V120.742ZM482.055 123.136C482.055 122.557 481.938 122.053 481.705 121.624C481.472 121.195 481.154 120.868 480.753 120.644C480.361 120.42 479.927 120.308 479.451 120.308C478.984 120.308 478.55 120.425 478.149 120.658C477.757 120.882 477.44 121.213 477.197 121.652C476.964 122.081 476.847 122.581 476.847 123.15C476.847 123.729 476.964 124.237 477.197 124.676C477.44 125.105 477.757 125.437 478.149 125.67C478.55 125.894 478.984 126.006 479.451 126.006C479.927 126.006 480.361 125.894 480.753 125.67C481.154 125.437 481.472 125.105 481.705 124.676C481.938 124.237 482.055 123.724 482.055 123.136ZM492.034 122.87C492.034 123.113 492.02 123.369 491.992 123.64H485.86C485.907 124.396 486.163 124.989 486.63 125.418C487.106 125.838 487.68 126.048 488.352 126.048C488.903 126.048 489.36 125.922 489.724 125.67C490.097 125.409 490.359 125.063 490.508 124.634H491.88C491.675 125.371 491.264 125.973 490.648 126.44C490.032 126.897 489.267 127.126 488.352 127.126C487.624 127.126 486.971 126.963 486.392 126.636C485.823 126.309 485.375 125.847 485.048 125.25C484.721 124.643 484.558 123.943 484.558 123.15C484.558 122.357 484.717 121.661 485.034 121.064C485.351 120.467 485.795 120.009 486.364 119.692C486.943 119.365 487.605 119.202 488.352 119.202C489.08 119.202 489.724 119.361 490.284 119.678C490.844 119.995 491.273 120.434 491.572 120.994C491.88 121.545 492.034 122.17 492.034 122.87ZM490.718 122.604C490.718 122.119 490.611 121.703 490.396 121.358C490.181 121.003 489.887 120.737 489.514 120.56C489.15 120.373 488.744 120.28 488.296 120.28C487.652 120.28 487.101 120.485 486.644 120.896C486.196 121.307 485.939 121.876 485.874 122.604H490.718ZM495.27 120.378V124.9C495.27 125.273 495.349 125.539 495.508 125.698C495.666 125.847 495.942 125.922 496.334 125.922H497.272V127H496.124C495.414 127 494.882 126.837 494.528 126.51C494.173 126.183 493.996 125.647 493.996 124.9V120.378H493.002V119.328H493.996V117.396H495.27V119.328H497.272V120.378H495.27ZM505.815 122.87C505.815 123.113 505.801 123.369 505.773 123.64H499.641C499.688 124.396 499.944 124.989 500.411 125.418C500.887 125.838 501.461 126.048 502.133 126.048C502.684 126.048 503.141 125.922 503.505 125.67C503.878 125.409 504.14 125.063 504.289 124.634H505.661C505.456 125.371 505.045 125.973 504.429 126.44C503.813 126.897 503.048 127.126 502.133 127.126C501.405 127.126 500.752 126.963 500.173 126.636C499.604 126.309 499.156 125.847 498.829 125.25C498.502 124.643 498.339 123.943 498.339 123.15C498.339 122.357 498.498 121.661 498.815 121.064C499.132 120.467 499.576 120.009 500.145 119.692C500.724 119.365 501.386 119.202 502.133 119.202C502.861 119.202 503.505 119.361 504.065 119.678C504.625 119.995 505.054 120.434 505.353 120.994C505.661 121.545 505.815 122.17 505.815 122.87ZM504.499 122.604C504.499 122.119 504.392 121.703 504.177 121.358C503.962 121.003 503.668 120.737 503.295 120.56C502.931 120.373 502.525 120.28 502.077 120.28C501.433 120.28 500.882 120.485 500.425 120.896C499.977 121.307 499.72 121.876 499.655 122.604H504.499ZM511.235 119.188C512.168 119.188 512.924 119.473 513.503 120.042C514.081 120.602 514.371 121.414 514.371 122.478V127H513.111V122.66C513.111 121.895 512.919 121.311 512.537 120.91C512.154 120.499 511.631 120.294 510.969 120.294C510.297 120.294 509.76 120.504 509.359 120.924C508.967 121.344 508.771 121.955 508.771 122.758V127H507.497V119.328H508.771V120.42C509.023 120.028 509.363 119.725 509.793 119.51C510.231 119.295 510.712 119.188 511.235 119.188ZM515.976 123.15C515.976 122.357 516.135 121.666 516.452 121.078C516.769 120.481 517.208 120.019 517.768 119.692C518.337 119.365 518.986 119.202 519.714 119.202C520.657 119.202 521.431 119.431 522.038 119.888C522.654 120.345 523.06 120.98 523.256 121.792H521.884C521.753 121.325 521.497 120.957 521.114 120.686C520.741 120.415 520.274 120.28 519.714 120.28C518.986 120.28 518.398 120.532 517.95 121.036C517.502 121.531 517.278 122.235 517.278 123.15C517.278 124.074 517.502 124.788 517.95 125.292C518.398 125.796 518.986 126.048 519.714 126.048C520.274 126.048 520.741 125.917 521.114 125.656C521.487 125.395 521.744 125.021 521.884 124.536H523.256C523.051 125.32 522.64 125.95 522.024 126.426C521.408 126.893 520.638 127.126 519.714 127.126C518.986 127.126 518.337 126.963 517.768 126.636C517.208 126.309 516.769 125.847 516.452 125.25C516.135 124.653 515.976 123.953 515.976 123.15ZM531.564 119.328L526.944 130.612H525.628L527.14 126.916L524.046 119.328H525.46L527.868 125.544L530.248 119.328H531.564Z" fill="#3A3A3A"/>
<circle cx="487.5" cy="75.5" r="32" fill="white" stroke="#EDEDED"/>
<g opacity="0.5">
<path d="M497.934 65H473C472.448 65 472 65.4477 472 66V81.4903C472 82.0426 472.448 82.4903 473 82.4903H487.44M475.86 71.2724H483.218M475.86 76.4592H483.218" stroke="black" stroke-width="1.5" stroke-linejoin="round"/>
<path d="M502.25 75.3736C502.25 79.6328 498.849 83.0672 494.677 83.0672C490.505 83.0672 487.104 79.6328 487.104 75.3736C487.104 71.1143 490.505 67.68 494.677 67.68C498.849 67.68 502.25 71.1143 502.25 75.3736Z" stroke="black" stroke-width="1.5" stroke-linejoin="round"/>
<path d="M489.008 81.4644V91.1208C489.008 92.0019 490.065 92.4524 490.7 91.8422L494.226 88.4578C494.613 88.0864 495.224 88.0864 495.611 88.4578L499.136 91.8422C499.772 92.4524 500.829 92.0019 500.829 91.1208V80.681" stroke="black" stroke-width="1.5" stroke-linejoin="round"/>
</g>
<path d="M829.68 116.242L826.852 126H825.424L823.156 118.146L820.804 126L819.39 126.014L816.66 116.242H818.018L820.146 124.516L822.498 116.242H823.926L826.166 124.488L828.308 116.242H829.68ZM834.42 126.126C833.701 126.126 833.048 125.963 832.46 125.636C831.881 125.309 831.424 124.847 831.088 124.25C830.761 123.643 830.598 122.943 830.598 122.15C830.598 121.366 830.766 120.675 831.102 120.078C831.447 119.471 831.914 119.009 832.502 118.692C833.09 118.365 833.748 118.202 834.476 118.202C835.204 118.202 835.862 118.365 836.45 118.692C837.038 119.009 837.5 119.467 837.836 120.064C838.181 120.661 838.354 121.357 838.354 122.15C838.354 122.943 838.177 123.643 837.822 124.25C837.477 124.847 837.005 125.309 836.408 125.636C835.811 125.963 835.148 126.126 834.42 126.126ZM834.42 125.006C834.877 125.006 835.307 124.899 835.708 124.684C836.109 124.469 836.431 124.147 836.674 123.718C836.926 123.289 837.052 122.766 837.052 122.15C837.052 121.534 836.931 121.011 836.688 120.582C836.445 120.153 836.128 119.835 835.736 119.63C835.344 119.415 834.919 119.308 834.462 119.308C833.995 119.308 833.566 119.415 833.174 119.63C832.791 119.835 832.483 120.153 832.25 120.582C832.017 121.011 831.9 121.534 831.9 122.15C831.9 122.775 832.012 123.303 832.236 123.732C832.469 124.161 832.777 124.483 833.16 124.698C833.543 124.903 833.963 125.006 834.42 125.006ZM841.303 119.574C841.527 119.135 841.844 118.795 842.255 118.552C842.675 118.309 843.184 118.188 843.781 118.188V119.504H843.445C842.017 119.504 841.303 120.279 841.303 121.828V126H840.029V118.328H841.303V119.574ZM849.536 126L846.526 122.612V126H845.252V115.64H846.526V121.73L849.48 118.328H851.258L847.646 122.15L851.272 126H849.536ZM863.707 116.242V126H862.433V121.576H857.463V126H856.189V116.242H857.463V120.526H862.433V116.242H863.707ZM866.541 117.082C866.298 117.082 866.093 116.998 865.925 116.83C865.757 116.662 865.673 116.457 865.673 116.214C865.673 115.971 865.757 115.766 865.925 115.598C866.093 115.43 866.298 115.346 866.541 115.346C866.774 115.346 866.97 115.43 867.129 115.598C867.297 115.766 867.381 115.971 867.381 116.214C867.381 116.457 867.297 116.662 867.129 116.83C866.97 116.998 866.774 117.082 866.541 117.082ZM867.157 118.328V126H865.883V118.328H867.157ZM872.044 126.126C871.456 126.126 870.928 126.028 870.462 125.832C869.995 125.627 869.626 125.347 869.356 124.992C869.085 124.628 868.936 124.213 868.908 123.746H870.224C870.261 124.129 870.438 124.441 870.756 124.684C871.082 124.927 871.507 125.048 872.03 125.048C872.515 125.048 872.898 124.941 873.178 124.726C873.458 124.511 873.598 124.241 873.598 123.914C873.598 123.578 873.448 123.331 873.15 123.172C872.851 123.004 872.389 122.841 871.764 122.682C871.194 122.533 870.728 122.383 870.364 122.234C870.009 122.075 869.701 121.847 869.44 121.548C869.188 121.24 869.062 120.839 869.062 120.344C869.062 119.952 869.178 119.593 869.412 119.266C869.645 118.939 869.976 118.683 870.406 118.496C870.835 118.3 871.325 118.202 871.876 118.202C872.725 118.202 873.411 118.417 873.934 118.846C874.456 119.275 874.736 119.863 874.774 120.61H873.5C873.472 120.209 873.308 119.887 873.01 119.644C872.72 119.401 872.328 119.28 871.834 119.28C871.376 119.28 871.012 119.378 870.742 119.574C870.471 119.77 870.336 120.027 870.336 120.344C870.336 120.596 870.415 120.806 870.574 120.974C870.742 121.133 870.947 121.263 871.19 121.366C871.442 121.459 871.787 121.567 872.226 121.688C872.776 121.837 873.224 121.987 873.57 122.136C873.915 122.276 874.209 122.491 874.452 122.78C874.704 123.069 874.834 123.447 874.844 123.914C874.844 124.334 874.727 124.712 874.494 125.048C874.26 125.384 873.929 125.65 873.5 125.846C873.08 126.033 872.594 126.126 872.044 126.126ZM878.196 119.378V123.9C878.196 124.273 878.276 124.539 878.434 124.698C878.593 124.847 878.868 124.922 879.26 124.922H880.198V126H879.05C878.341 126 877.809 125.837 877.454 125.51C877.1 125.183 876.922 124.647 876.922 123.9V119.378H875.928V118.328H876.922V116.396H878.196V118.328H880.198V119.378H878.196ZM885.088 126.126C884.369 126.126 883.716 125.963 883.128 125.636C882.549 125.309 882.092 124.847 881.756 124.25C881.429 123.643 881.266 122.943 881.266 122.15C881.266 121.366 881.434 120.675 881.77 120.078C882.115 119.471 882.582 119.009 883.17 118.692C883.758 118.365 884.416 118.202 885.144 118.202C885.872 118.202 886.53 118.365 887.118 118.692C887.706 119.009 888.168 119.467 888.504 120.064C888.849 120.661 889.022 121.357 889.022 122.15C889.022 122.943 888.845 123.643 888.49 124.25C888.145 124.847 887.673 125.309 887.076 125.636C886.479 125.963 885.816 126.126 885.088 126.126ZM885.088 125.006C885.545 125.006 885.975 124.899 886.376 124.684C886.777 124.469 887.099 124.147 887.342 123.718C887.594 123.289 887.72 122.766 887.72 122.15C887.72 121.534 887.599 121.011 887.356 120.582C887.113 120.153 886.796 119.835 886.404 119.63C886.012 119.415 885.587 119.308 885.13 119.308C884.663 119.308 884.234 119.415 883.842 119.63C883.459 119.835 883.151 120.153 882.918 120.582C882.685 121.011 882.568 121.534 882.568 122.15C882.568 122.775 882.68 123.303 882.904 123.732C883.137 124.161 883.445 124.483 883.828 124.698C884.211 124.903 884.631 125.006 885.088 125.006ZM891.971 119.574C892.195 119.135 892.512 118.795 892.923 118.552C893.343 118.309 893.852 118.188 894.449 118.188V119.504H894.113C892.685 119.504 891.971 120.279 891.971 121.828V126H890.697V118.328H891.971V119.574ZM902.528 118.328L897.908 129.612H896.592L898.104 125.916L895.01 118.328H896.424L898.832 124.544L901.212 118.328H902.528Z" fill="#3A3A3A"/>
<circle cx="861.5" cy="74.5" r="32" fill="white" stroke="#EDEDED"/>
<g opacity="0.5" clip-path="url(#clip1_17_522)">
<path d="M848.5 70.5C848.5 69.7044 848.816 68.9413 849.379 68.3787C849.941 67.8161 850.704 67.5 851.5 67.5H872.5C873.296 67.5 874.059 67.8161 874.621 68.3787C875.184 68.9413 875.5 69.7044 875.5 70.5V84C875.5 84.7956 875.184 85.5587 874.621 86.1213C874.059 86.6839 873.296 87 872.5 87H851.5C850.704 87 849.941 86.6839 849.379 86.1213C848.816 85.5587 848.5 84.7956 848.5 84V70.5Z" stroke="black" stroke-width="1.5" stroke-linecap="round" stroke-linejoin="round"/>
<path d="M856 67.5V64.5C856 63.7044 856.316 62.9413 856.879 62.3787C857.441 61.8161 858.204 61.5 859 61.5H865C865.796 61.5 866.559 61.8161 867.121 62.3787C867.684 62.9413 868 63.7044 868 64.5V67.5" stroke="black" stroke-width="1.5" stroke-linecap="round" stroke-linejoin="round"/>
<path d="M862 75V75.0136" stroke="black" stroke-width="1.5" stroke-linecap="round" stroke-linejoin="round"/>
<path d="M848.5 76.5C852.687 78.61 857.311 79.7091 862 79.7091C866.689 79.7091 871.313 78.61 875.5 76.5" stroke="black" stroke-width="1.5" stroke-linecap="round" stroke-linejoin="round"/>
</g>
<defs>
<clipPath id="clip0_17_522">
<rect width="30" height="30" fill="white" transform="translate(93 61)"/>
</clipPath>
<clipPath id="clip1_17_522">
<rect width="36" height="36" fill="white" transform="translate(844 57)"/>
</clipPath>
</defs>
</svg>
