<svg xmlns="http://www.w3.org/2000/svg" width="24.378" height="24.378" viewBox="0 0 24.378 24.378">
  <g id="PDF" transform="translate(0.05 0.05)">
    <g id="icon_issue_svg" transform="translate(4.37 2.306)">
      <g id="Group_10972" data-name="Group 10972">
        <g id="Group_10971" data-name="Group 10971">
          <path id="Path_9083" data-name="Path 9083" d="M22.374,8.291h0V21.948a2.13,2.13,0,0,1-2.428,2.428H9.628A2.13,2.13,0,0,1,7.2,21.948V6.228A2.13,2.13,0,0,1,9.628,3.8h8.315l4.431,4.491h0M17.943,3.8V8.231h4.431" transform="translate(-7.2 -3.8)" fill="none" stroke="#fff" stroke-linecap="round" stroke-linejoin="round" stroke-width="1.5"/>
        </g>
      </g>
      <g id="Group_10974" data-name="Group 10974" transform="translate(2.483 6.919)">
        <g id="Group_10973" data-name="Group 10973" transform="translate(0)">
          <path id="Path_9084" data-name="Path 9084" d="M16.555,18.538l-.971-1.517a1,1,0,0,1-.121-.607,1.2,1.2,0,0,1,.364-.85,1.654,1.654,0,0,1,.728-.364h.061a.865.865,0,0,1,.728.364,1.057,1.057,0,0,1,.3.85,1.025,1.025,0,0,1-.182.607l-.91,1.517h0l2.124,3.52h.243L20.5,22a1.094,1.094,0,0,1,.607.121,1.083,1.083,0,0,1,.546.728,1.184,1.184,0,0,1-.061.789.059.059,0,0,1-.061.061,1.484,1.484,0,0,1-.668.546,1.591,1.591,0,0,1-.91-.121,1.636,1.636,0,0,1-.486-.425L18.8,22.483l-.182-.3H14.431l-.182.3L13.581,23.7a1.124,1.124,0,0,1-.486.425,1.066,1.066,0,0,1-.85.121.984.984,0,0,1-.668-.546l-.061-.061a.908.908,0,0,1-.061-.789A1.083,1.083,0,0,1,12,22.119.748.748,0,0,1,12.61,22l1.578.061h.243Zm-2.367,3.52.243.061v-.061h1.578m-1.76.364.121-.3h0v-.061m4.552,0-.243.061.121.3m-.121-.3H17.1m1.578,0h0" transform="translate(-11.391 -15.2)" fill="none" stroke="#fff" stroke-linecap="round" stroke-linejoin="round" stroke-width="1.5"/>
        </g>
      </g>
    </g>
    <g id="Layer_3">
      <g id="Group_10976" data-name="Group 10976">
        <g id="Group_10975" data-name="Group 10975">
          <path id="Path_9085" data-name="Path 9085" d="M0,24.278V0H24.278V3.156" fill="none" stroke="rgba(63,64,64,0)" stroke-linecap="round" stroke-linejoin="round" stroke-width="0.1"/>
        </g>
      </g>
    </g>
  </g>
</svg>
