<svg width="32" height="32" viewBox="0 0 32 32" fill="none" xmlns="http://www.w3.org/2000/svg">
<g id="Group 9 1" clip-path="url(#clip0_35_1631)">
<path id="Path 38" d="M26.7921 7.75732C26.7173 7.67439 26.6254 7.60867 26.5228 7.56471C26.4201 7.52074 26.3091 7.49957 26.1975 7.50267H22.7988V4.952C22.7934 4.72844 22.7022 4.51554 22.5441 4.35742C22.3859 4.1993 22.173 4.10807 21.9495 4.10266H10.0508C9.82726 4.10807 9.61436 4.1993 9.45624 4.35742C9.29811 4.51554 9.20689 4.72844 9.20148 4.952V7.50133H5.80148C5.68984 7.49824 5.57885 7.5194 5.47619 7.56336C5.37352 7.60733 5.28162 7.67305 5.20682 7.75599C5.05264 7.91678 4.96213 8.12811 4.95215 8.35066C5.03748 11.24 5.63215 13.284 6.65215 14.3C7.5632 15.2164 8.758 15.7969 10.0415 15.9467C10.3365 16.4988 10.7122 17.0039 11.1561 17.4453C12.2242 18.5313 13.6401 19.2072 15.1561 19.3547V22.7987H12.6068C12.3814 22.7987 12.1652 22.8882 12.0058 23.0476C11.8464 23.207 11.7568 23.4232 11.7568 23.6487C11.7568 23.8741 11.8464 24.0903 12.0058 24.2497C12.1652 24.4091 12.3814 24.4987 12.6068 24.4987H19.4068C19.6323 24.4987 19.8484 24.4091 20.0079 24.2497C20.1673 24.0903 20.2568 23.8741 20.2568 23.6487C20.2568 23.4232 20.1673 23.207 20.0079 23.0476C19.8484 22.8882 19.6323 22.7987 19.4068 22.7987H16.8575V19.332C17.9225 19.2246 18.9456 18.8606 19.8392 18.2712C20.7327 17.6819 21.4701 16.8847 21.9881 15.948C23.2572 15.7746 24.4372 15.1989 25.3548 14.3053C26.3748 13.2853 26.9695 11.3307 27.0548 8.356C27.045 8.13343 26.9544 7.92205 26.8001 7.76133M9.20148 14.0453C8.6813 13.845 8.21546 13.5253 7.84148 13.112C7.07414 11.9561 6.68764 10.5892 6.73614 9.20266H9.20014L9.20148 14.0453ZM19.5695 16.1693C18.6287 17.1309 17.3453 17.6808 16.0002 17.6987C15.3299 17.7174 14.6637 17.5904 14.0474 17.3263C13.4311 17.0623 12.8795 16.6675 12.4308 16.1693C11.4692 15.2285 10.9193 13.9452 10.9015 12.6V5.8H21.0988V12.6C21.1176 13.2702 20.9905 13.9365 20.7265 14.5528C20.4624 15.169 20.0677 15.7206 19.5695 16.1693ZM24.1588 13.1093C23.762 13.4957 23.302 13.8114 22.7988 14.0427V9.20132H25.2628C25.3113 10.5878 24.9248 11.9548 24.1575 13.1107M22.7975 26.1973H9.19748C8.97204 26.1973 8.75585 26.2869 8.59645 26.4463C8.43704 26.6057 8.34748 26.8219 8.34748 27.0473C8.34748 27.2728 8.43704 27.489 8.59645 27.6484C8.75585 27.8078 8.97204 27.8973 9.19748 27.8973H22.7975C23.0229 27.8973 23.2391 27.8078 23.3985 27.6484C23.5579 27.489 23.6475 27.2728 23.6475 27.0473C23.6475 26.8219 23.5579 26.6057 23.3985 26.4463C23.2391 26.2869 23.0229 26.1973 22.7975 26.1973Z" fill="white"/>
</g>
<defs>
<clipPath id="clip0_35_1631">
<rect width="32" height="32" fill="white"/>
</clipPath>
</defs>
</svg>
