<svg width="155" height="21" viewBox="0 0 155 21" fill="none" xmlns="http://www.w3.org/2000/svg">
<g id="Presidio-blue-logo 1" clip-path="url(#clip0_35_2131)">
<g id="Group 3441">
<g id="Clip path group">
<mask id="mask0_35_2131" style="mask-type:luminance" maskUnits="userSpaceOnUse" x="0" y="0" width="155" height="21">
<g id="clip-path">
<path id="Rectangle 4" d="M155 0H0V21H155V0Z" fill="white"/>
</g>
</mask>
<g mask="url(#mask0_35_2131)">
<g id="Group 1">
<path id="Path 1" d="M155 2.63319C155.012 3.08263 154.89 3.52547 154.648 3.90486C154.407 4.28424 154.058 4.58285 153.646 4.76236C153.233 4.94188 152.777 4.9941 152.334 4.91232C151.892 4.83054 151.485 4.6185 151.164 4.30341C150.843 3.98832 150.624 3.58457 150.534 3.14398C150.444 2.70338 150.489 2.24606 150.661 1.83071C150.833 1.41536 151.125 1.06094 151.5 0.812948C151.876 0.564952 152.316 0.434698 152.766 0.438907C153.057 0.435812 153.346 0.490169 153.615 0.598861C153.885 0.707553 154.131 0.868442 154.339 1.0723C154.546 1.27616 154.711 1.51898 154.825 1.78683C154.938 2.05468 154.998 2.3423 155 2.63319ZM151.053 2.63319C151.047 2.86146 151.087 3.0886 151.17 3.30115C151.254 3.51369 151.379 3.70733 151.539 3.87059C151.698 4.03385 151.889 4.16341 152.1 4.25161C152.311 4.33981 152.537 4.38485 152.765 4.38407C152.99 4.3832 153.213 4.33708 153.42 4.24845C153.627 4.15983 153.814 4.0305 153.97 3.86816C154.126 3.70581 154.248 3.51377 154.328 3.30344C154.409 3.0931 154.446 2.86877 154.438 2.64378C154.448 2.41554 154.412 2.18754 154.332 1.97349C154.252 1.75944 154.13 1.56377 153.973 1.39825C153.815 1.23272 153.626 1.10077 153.416 1.01032C153.206 0.919868 152.98 0.872793 152.751 0.871924C152.523 0.871056 152.297 0.916413 152.086 1.00527C151.875 1.09412 151.685 1.22463 151.526 1.38895C151.368 1.55328 151.244 1.74801 151.162 1.96145C151.081 2.17488 151.043 2.4026 151.052 2.63092M152.403 3.76589H151.893V1.57161C152.173 1.5297 152.455 1.5072 152.737 1.50427C153 1.47557 153.264 1.53723 153.486 1.67905C153.56 1.73229 153.62 1.80304 153.659 1.88494C153.699 1.96683 153.717 2.05729 153.713 2.14817C153.706 2.27301 153.658 2.3919 153.575 2.48614C153.493 2.58038 153.382 2.64462 153.259 2.66875V2.69674C153.473 2.76333 153.581 2.93811 153.647 3.23094C153.674 3.41633 153.728 3.59665 153.809 3.76589H153.272C153.185 3.59827 153.127 3.41756 153.098 3.23094C153.057 3.00394 152.925 2.8965 152.644 2.8965H152.403L152.403 3.76589ZM152.416 2.53558H152.657C152.937 2.53558 153.165 2.44327 153.165 2.21476C153.165 2.01425 153.019 1.87881 152.696 1.87881C152.602 1.87734 152.508 1.88673 152.416 1.9068V2.53558Z" fill="#0081BC"/>
<path id="Path 2" d="M7.6028 14.1334H3.57361V20.6527H0V0.348816H8.00693C12.7407 0.348816 15.7263 3.01827 15.7263 7.1647C15.7263 11.7462 12.0717 14.1327 7.60053 14.1327M7.71935 3.60013H3.57361V10.9116H7.71935C10.4136 10.9116 12.1005 9.43237 12.1005 7.25398C12.1005 4.8433 10.3863 3.60013 7.71935 3.60013Z" fill="#0081BC"/>
<path id="Path 3" d="M33.86 20.6527L28.8719 13.575H24.403V20.6527H20.834V0.348816H29.8868C34.5593 0.348816 37.4321 2.817 37.4321 6.79394C37.4321 10.1595 35.4289 12.1835 32.5886 12.9659L38.0708 20.6527H33.86ZM29.5947 3.60013H24.403V10.4153H29.625C32.1814 10.4153 33.8063 9.08053 33.8063 6.99067C33.8063 4.75705 32.2427 3.60013 29.5985 3.60013" fill="#0081BC"/>
<path id="Path 4" d="M43.2622 0.348816V20.6535H58.458V17.4695H46.8298V12.0103H57.014V8.82024H46.8298V3.54338H58.3225V0.348816H43.2622Z" fill="#0081BC"/>
<path id="Path 5" d="M71.9895 8.87247C76.2806 9.92194 78.5109 11.4549 78.5109 14.85C78.5109 18.6885 75.5207 20.9501 71.2637 20.9501C68.1321 20.9654 65.1083 19.8079 62.7876 17.7056L64.9339 15.1489C66.6546 16.8167 68.9498 17.7605 71.3462 17.7858C73.5485 17.7858 74.9403 16.7749 74.9403 15.2071C74.9403 13.7241 74.1313 12.9432 70.3594 12.0693C66.035 11.0297 63.6004 9.75094 63.6004 5.98132C63.6004 2.44248 66.5027 0.0620668 70.5281 0.0620668C73.2125 0.00767783 75.828 0.913866 77.9031 2.61727L75.9877 5.31245C74.4288 4.0303 72.4917 3.29576 70.4744 3.22183C68.3887 3.22183 67.171 4.30081 67.171 5.65899C67.171 7.25779 68.0981 7.95239 71.988 8.87626" fill="#0081BC"/>
<path id="Rectangle 2" d="M87.9463 0.349609H84.3765V20.6542H87.9463V0.349609Z" fill="#0081BC"/>
<path id="Path 6" d="M102.393 20.6527H94.8247V0.348816H102.393C108.771 0.348816 113.185 4.72678 113.185 10.4773C113.185 16.2278 108.769 20.6557 102.391 20.6557M102.391 3.60391H98.3877V17.4105H102.391C106.66 17.4105 109.441 14.5352 109.441 10.525C109.441 6.51474 106.66 3.59711 102.391 3.59711" fill="#0081BC"/>
<path id="Rectangle 3" d="M122.731 0.349609H119.167V20.6542H122.731V0.349609Z" fill="#0081BC"/>
<path id="Path 7" d="M139.297 20.9993C137.907 21.0359 136.524 20.7909 135.23 20.279C133.937 19.7672 132.761 18.9991 131.773 18.0209C130.784 17.0427 130.004 15.8747 129.479 14.5871C128.954 13.2995 128.695 11.9191 128.717 10.5288C128.733 7.72853 129.854 5.0478 131.837 3.07058C133.821 1.09337 136.505 -0.0201222 139.306 -0.0273087C142.107 -0.0344953 144.797 1.0652 146.791 3.03222C148.784 4.99923 149.919 7.67417 149.949 10.4743C149.966 11.8716 149.7 13.2579 149.169 14.5505C148.638 15.8431 147.852 17.0155 146.858 17.9977C145.864 18.98 144.682 19.752 143.383 20.2677C142.084 20.7834 140.694 21.0322 139.297 20.9993ZM139.297 3.27631C135.266 3.27631 132.451 6.50568 132.451 10.4751C132.451 14.4444 135.323 17.7222 139.356 17.7222C143.389 17.7222 146.211 14.505 146.211 10.5288C146.211 6.55259 143.335 3.27631 139.297 3.27631Z" fill="#0081BC"/>
<path id="Path 8" d="M139.297 20.9993C137.907 21.0359 136.524 20.7909 135.23 20.279C133.937 19.7672 132.761 18.9991 131.773 18.0209C130.784 17.0427 130.004 15.8747 129.479 14.5871C128.954 13.2995 128.695 11.9191 128.717 10.5288C128.733 7.72853 129.854 5.0478 131.837 3.07058C133.821 1.09337 136.505 -0.0201222 139.306 -0.0273087C142.107 -0.0344953 144.797 1.0652 146.791 3.03222C148.784 4.99923 149.919 7.67417 149.949 10.4743C149.966 11.8716 149.7 13.2579 149.169 14.5505C148.638 15.8431 147.852 17.0155 146.858 17.9977C145.864 18.98 144.682 19.752 143.383 20.2677C142.084 20.7834 140.694 21.0322 139.297 20.9993ZM139.297 3.27631C135.266 3.27631 132.451 6.50568 132.451 10.4751C132.451 14.4444 135.323 17.7222 139.356 17.7222C143.389 17.7222 146.211 14.505 146.211 10.5288C146.211 6.55259 143.335 3.27631 139.297 3.27631Z" fill="#0081BC"/>
</g>
</g>
</g>
</g>
</g>
<defs>
<clipPath id="clip0_35_2131">
<rect width="155" height="21" fill="white"/>
</clipPath>
</defs>
</svg>
