<svg width="32" height="32" viewBox="0 0 32 32" fill="none" xmlns="http://www.w3.org/2000/svg">
<g clip-path="url(#clip0_19_1105)">
<path d="M6.02237 22.6668C4.70379 20.6935 4 18.3734 4 16C4 12.8174 5.26428 9.76515 7.51472 7.51472C9.76515 5.26428 12.8174 4 16 4C18.3734 4 20.6935 4.70379 22.6668 6.02237C24.6402 7.34094 26.1783 9.21509 27.0866 11.4078C27.9948 13.6005 28.2324 16.0133 27.7694 18.3411C27.3064 20.6689 26.1635 22.8071 24.4853 24.4853C22.8071 26.1635 20.6689 27.3064 18.3411 27.7694C16.0133 28.2324 13.6005 27.9948 11.4078 27.0866C9.21509 26.1783 7.34094 24.6402 6.02237 22.6668Z" stroke="white" stroke-width="1.5" stroke-linecap="round" stroke-linejoin="round"/>
<path d="M20 10.6667H13.3333C14.3942 10.6667 15.4116 11.0881 16.1618 11.8382C16.9119 12.5884 17.3333 13.6058 17.3333 14.6667C17.3333 15.7275 16.9119 16.745 16.1618 17.4951C15.4116 18.2452 14.3942 18.6667 13.3333 18.6667H12L16 22.6667" stroke="white" stroke-width="1.5" stroke-linecap="round" stroke-linejoin="round"/>
<path d="M12 14.6667H20" stroke="white" stroke-width="1.5" stroke-linecap="round" stroke-linejoin="round"/>
</g>
<defs>
<clipPath id="clip0_19_1105">
<rect width="32" height="32" fill="white"/>
</clipPath>
</defs>
</svg>
