<svg id="Group_10667" data-name="Group 10667" xmlns="http://www.w3.org/2000/svg" width="24" height="24" viewBox="0 0 24 24">
  <rect id="Rectangle_4426" data-name="Rectangle 4426" width="24" height="24" fill="#fff" opacity="0"/>
  <path id="angle-left" d="M.366,7.013a.475.475,0,0,0,.15.346l5.907,5.907L.516,19.172a.473.473,0,0,0,0,.692l.751.751a.473.473,0,0,0,.692,0l7-7a.473.473,0,0,0,0-.692l-7-7a.473.473,0,0,0-.692,0l-.751.751a.475.475,0,0,0-.15.346Z" transform="translate(6.887 -0.766)"/>
</svg>
