<svg xmlns="http://www.w3.org/2000/svg" xmlns:xlink="http://www.w3.org/1999/xlink" width="87.328" height="71.507" viewBox="0 0 87.328 71.507">
  <defs>
    <linearGradient id="linear-gradient" x1="0.681" x2="0.39" y2="0.693" gradientUnits="objectBoundingBox">
      <stop offset="0" stop-color="#fff" stop-opacity="0.451"/>
      <stop offset="1" stop-color="#fff" stop-opacity="0.051"/>
    </linearGradient>
    <filter id="Path_8950" x="0" y="9" width="87.328" height="62.507" filterUnits="userSpaceOnUse">
      <feOffset dy="3" input="SourceAlpha"/>
      <feGaussianBlur stdDeviation="6" result="blur"/>
      <feFlood flood-opacity="0.263"/>
      <feComposite operator="in" in2="blur"/>
      <feComposite in="SourceGraphic"/>
    </filter>
    <linearGradient id="linear-gradient-2" x1="3.863" y1="3.457" x2="2.603" y2="3.979" gradientUnits="objectBoundingBox">
      <stop offset="0" stop-opacity="0.8"/>
      <stop offset="1" stop-opacity="0"/>
    </linearGradient>
    <linearGradient id="linear-gradient-3" x1="0.155" y1="-1.01" x2="0.93" y2="-1.01" gradientUnits="objectBoundingBox">
      <stop offset="0" stop-opacity="0.286"/>
      <stop offset="1" stop-opacity="0"/>
    </linearGradient>
    <linearGradient id="linear-gradient-4" x1="-1.681" y1="-0.134" x2="-1.279" y2="-0.683" gradientUnits="objectBoundingBox">
      <stop offset="0" stop-color="#fff" stop-opacity="0"/>
      <stop offset="1" stop-color="#fff" stop-opacity="0.569"/>
    </linearGradient>
    <linearGradient id="linear-gradient-5" x1="-1.863" y1="-0.539" x2="-0.674" y2="-1.458" gradientUnits="objectBoundingBox">
      <stop offset="0" stop-opacity="0.6"/>
      <stop offset="0.208" stop-opacity="0.498"/>
      <stop offset="0.333" stop-opacity="0.278"/>
      <stop offset="0.478" stop-opacity="0.361"/>
      <stop offset="0.69" stop-opacity="0.251"/>
      <stop offset="1" stop-opacity="0.808"/>
    </linearGradient>
    <linearGradient id="linear-gradient-6" x1="0.715" y1="12.215" x2="-2.049" y2="13.795" xlink:href="#linear-gradient-3"/>
    <linearGradient id="linear-gradient-7" x1="-0.729" y1="-0.127" x2="-0.208" y2="-0.516" gradientUnits="objectBoundingBox">
      <stop offset="0" stop-color="#fff" stop-opacity="0"/>
      <stop offset="1" stop-color="#fff" stop-opacity="0.298"/>
    </linearGradient>
    <linearGradient id="linear-gradient-8" x1="-3.945" y1="-0.93" x2="-3.229" y2="-1.898" xlink:href="#linear-gradient-5"/>
  </defs>
  <g id="Group_10912" data-name="Group 10912" transform="translate(-1175.336 -992)">
    <rect id="Rectangle_4461" data-name="Rectangle 4461" width="56" height="56" rx="8" transform="translate(1191 992)" fill="#00d4ff"/>
    <g transform="matrix(1, 0, 0, 1, 1175.34, 992)" filter="url(#Path_8950)">
      <path id="Path_8950-2" data-name="Path 8950" d="M25.664,0C39.838,0,51.328,5.934,51.328,13.253S39.838,26.507,25.664,26.507,0,20.573,0,13.253,11.49,0,25.664,0Z" transform="translate(18 24)" fill="url(#linear-gradient)"/>
    </g>
    <g id="Tccl_3d_icon0011" data-name="Tccl 3d icon0011" transform="translate(1204.409 1008.039)">
      <g id="calender33_svg" transform="translate(0 0)">
        <g id="Group_9892" data-name="Group 9892">
          <g id="Group_9891" data-name="Group 9891">
            <g id="Group_9890" data-name="Group 9890">
              <path id="Path_8670" data-name="Path 8670" d="M270.1,183.571l-.6-1.255-.7-.4-.58.575,1.88,1.083m.349-5.137-.276-.113v1.25l.743.412v-1.35l-.467-.2M267.9,174.85l-.032.077-.548,1.635-.072.168,2.215,1.278.557-1.93-2.12-1.228m4.888,10.216.072-2.265-.843-.485-1.88,1.232Z" transform="translate(-249.02 -165.916)" fill="#a05345"/>
              <path id="Path_8671" data-name="Path 8671" d="M276.715,115.5v.988l-1.373,1.355.7.4,1.418-2.333-.743-.412m10.9-5.745.018.186,1.377.593-1.4-.779m1.454.815.014,0-.014-.009v0m-9.749-1.042-.122-2.17L276.3,105.7l.122,2.17-.843,1.445-.892.48.072.027-.285.87-.027.091,2.12,1.228,1.925-1.033.82-1.445m.843-5.133-1.06.652,1.468.843,1.327.892,1.178-.7-2.913-1.69m1.663,6.361a3.982,3.982,0,0,0-.942,1.685,2.165,2.165,0,0,0,0,1.568.863.863,0,0,0,.988.53,2.242,2.242,0,0,0,1.373-.8,4.21,4.21,0,0,0,.942-1.685,2.2,2.2,0,0,0,0-1.568.9.9,0,0,0-.988-.53A2.323,2.323,0,0,0,281.821,110.761Z" transform="translate(-255.567 -101.849)" fill="#b7604f"/>
              <path id="Path_8672" data-name="Path 8672" d="M168.462,143.691l-.4-.181-.131-.059-2.215-1.278-.168.53.625,1.373,2.288-.385m-7.054-2.383,1.468-.145,2.36-2.65-2.89-1.663-1.853,2.1-2.868-1.64L155.6,138.49l2.89,1.658,2.025-1.178Z" transform="translate(-147.486 -131.359)" fill="#4f98c7"/>
              <path id="Path_8673" data-name="Path 8673" d="M74.449,250.7l-.236.281,2.841,1.635-.888-2.333-1.472.145-.245.272m-8.4-6.777v2.338l2.863,1.635-.888,2.7,2.863,1.663,1.133-3.375-1.953-1.133-1.128.172v-2.338l-2.89-1.663m3.081-4.5,2.89,1.663-1.133-2.07-2.863-1.663,1.105,2.07m7.226,1.083a5.045,5.045,0,0,0-.648,1.758,2.977,2.977,0,0,0-.05.625,1.469,1.469,0,0,0,2.41,1.4A5.276,5.276,0,0,0,80.5,240.1a1.662,1.662,0,0,0-.7-1.568,1.692,1.692,0,0,0-1.731.168,5.635,5.635,0,0,0-.53.362A4.987,4.987,0,0,0,76.357,240.5Z" transform="translate(-66.05 -222.753)" fill="#3c7498"/>
              <path id="Path_8674" data-name="Path 8674" d="M69.131,164.486l-.6,2.07L66.05,168.99l2.89,1.663L71.4,168.22l.625-2.07-2.89-1.663m5.033-9.536-.865,3.321-1.5,1.59-2.36.05-1.418,2.505,2.863,1.663,1.445-2.483,2.36-.073,1.5-1.59v-.023l.865-3.3Z" transform="translate(-66.05 -147.819)" fill="#4585af"/>
              <path id="Path_8675" data-name="Path 8675" d="M110.449,157.85l-1.468.145-.892-2.338-2.025,1.178-.865,3.3v.023l-1.5,1.59-2.36.072L99.9,164.306l1.133,2.07-.625,2.07L97.95,170.88v2.338l1.128-.172,1.953,1.133L99.9,177.553l1.445.815,2.116-2.374.245-.272,1.472-.145.888,2.333,2.025-1.178.892-3.348,1.468-1.568,2.36-.072,1.445-2.478-1.133-2.07.625-2.075.507-.5.58-.575,1.373-1.355v-2.238l-.172-.072-2.288.385-.625-1.373.168-.53.072-.168.548-1.635.059-.168.285-.87-.072-.027-1.373-.793-2.36,2.65m-5.731,9.7a5.045,5.045,0,0,1,.648-1.758,4.987,4.987,0,0,1,1.182-1.445,5.635,5.635,0,0,1,.53-.362,1.692,1.692,0,0,1,1.731-.168,1.662,1.662,0,0,1,.7,1.568,5.276,5.276,0,0,1-2.433,4.191,1.469,1.469,0,0,1-2.41-1.4A2.977,2.977,0,0,1,104.718,167.554Z" transform="translate(-95.06 -148.047)" fill="#58a8dc"/>
              <path id="Path_8676" data-name="Path 8676" d="M299.163,80.3l-1.468-.843-1.423-.82L294.9,80.1l2.89,1.663,1.373-1.468m3.783-2.215,1.373-.168-.072,2.261.843.485,1.925-1.255-2.89-1.663-.045.027-2.65-1.518-1.4.145L298.755,78.8l2.913,1.69Z" transform="translate(-274.164 -76.25)" fill="#c86856"/>
              <path id="Path_8677" data-name="Path 8677" d="M301.409,94.6l-1.373.168-1.278,2.41-1.178.7-1.327-.892-1.373,1.468.122,2.17-.82,1.445-1.925,1.033-.557,1.93.131.059.847.367.467.2V107l-1.418,2.333.6,1.255.045-.023,1.88-1.232.843.485-.072,2.265,1.373-.172,1.278-2.406,1.178-.7,1.327.892,1.373-1.468-.122-2.17.82-1.445,1.925-1.033.575-1.921v0l0,0-.063-.027-1.377-.593,0,0-.023-.19V99.656l1.418-2.311-.6-1.255-1.925,1.255-.843-.485.072-2.261m-4.843,8.934a3.982,3.982,0,0,1,.942-1.685,2.323,2.323,0,0,1,1.373-.8.9.9,0,0,1,.988.53,2.2,2.2,0,0,1,0,1.568,4.21,4.21,0,0,1-.942,1.685,2.242,2.242,0,0,1-1.373.8.863.863,0,0,1-.988-.53A2.165,2.165,0,0,1,296.566,103.534Z" transform="translate(-271.254 -92.937)" fill="#da725e"/>
            </g>
          </g>
        </g>
      </g>
      <g id="light" transform="translate(0 0)">
        <g id="Group_9895" data-name="Group 9895">
          <g id="Group_9894" data-name="Group 9894">
            <g id="Group_9893" data-name="Group 9893">
              <path id="Path_8678" data-name="Path 8678" d="M269.493,182.316l-.7-.4-.58.575,1.88,1.083-.6-1.255m.951-3.883-.276-.113v1.25l.743.412v-1.35l-.467-.2M267.9,174.85l-.032.077-.548,1.635-.072.168,2.215,1.278.557-1.93Z" transform="translate(-249.02 -165.916)" fill="#a05345"/>
              <path id="Path_8679" data-name="Path 8679" d="M276.715,115.5v.988l-1.373,1.355.7.4,1.418-2.333-.743-.412m10.9-5.745.018.186,1.377.593-1.4-.779m1.454.815.014,0-.014-.009v0m-9.749-1.042-.122-2.17L276.3,105.7l.122,2.17-.843,1.445-.892.48.072.027-.285.87-.027.091,2.12,1.228,1.925-1.033.82-1.445m1.25-3.638,1.327.892,1.178-.7-2.913-1.69-1.06.652Z" transform="translate(-255.567 -101.849)" fill="#b7604f"/>
              <path id="Path_8680" data-name="Path 8680" d="M168.462,143.691l-.4-.181-.131-.059-2.215-1.278-.168.53.625,1.373,2.288-.385m-7.054-2.383,1.468-.145,2.36-2.65-2.89-1.663-1.853,2.1-2.868-1.64L155.6,138.49l2.89,1.658,2.025-1.178Z" transform="translate(-147.486 -131.359)" fill="#4f98c7"/>
              <path id="Path_8681" data-name="Path 8681" d="M94.519,250.429l-.245.272-.236.281,2.841,1.635-.888-2.333-1.472.145m-3.806-11.417L87.85,237.35l1.105,2.07,2.89,1.663Z" transform="translate(-85.875 -222.753)" fill="#3c7498"/>
              <path id="Path_8682" data-name="Path 8682" d="M66.05,309.9v2.338l2.863,1.635-.888,2.7,2.863,1.663,1.133-3.375-1.953-1.133-1.128.172v-2.338Z" transform="translate(-66.05 -288.73)" fill="url(#linear-gradient-2)"/>
              <path id="Path_8683" data-name="Path 8683" d="M69.131,164.486l-.6,2.07L66.05,168.99l2.89,1.663L71.4,168.22l.625-2.07-2.89-1.663m5.033-9.536-.865,3.321-1.5,1.59-2.36.05-1.418,2.505,2.863,1.663,1.445-2.483,2.36-.073,1.5-1.59v-.023l.865-3.3Z" transform="translate(-66.05 -147.819)" fill="url(#linear-gradient-3)"/>
              <path id="Path_8684" data-name="Path 8684" d="M110.449,157.85l-1.468.145-.892-2.338-2.025,1.178-.865,3.3v.023l-1.5,1.59-2.36.072L99.9,164.306l1.133,2.07-.625,2.07L97.95,170.88v2.338l1.128-.172,1.953,1.133L99.9,177.553l1.445.815,2.116-2.374.245-.272,1.472-.145.888,2.333,2.025-1.178.892-3.348,1.468-1.568,2.36-.072,1.445-2.478-1.133-2.07.625-2.075.507-.5.58-.575,1.373-1.355v-2.238l-.172-.072-2.288.385-.625-1.373.168-.53.072-.168.548-1.635.059-.168.285-.87-.072-.027-1.373-.793-2.36,2.65m-5.731,9.7a5.045,5.045,0,0,1,.648-1.758,4.987,4.987,0,0,1,1.182-1.445,5.635,5.635,0,0,1,.53-.362,1.692,1.692,0,0,1,1.731-.168,1.662,1.662,0,0,1,.7,1.568,5.276,5.276,0,0,1-2.433,4.191,1.469,1.469,0,0,1-2.41-1.4A2.977,2.977,0,0,1,104.718,167.554Z" transform="translate(-95.06 -148.047)" fill="url(#linear-gradient-4)"/>
              <path id="Path_8685" data-name="Path 8685" d="M172.8,250.628a5.044,5.044,0,0,0-.648,1.758,2.976,2.976,0,0,0-.05.625,1.469,1.469,0,0,0,2.41,1.4,5.276,5.276,0,0,0,2.433-4.191,1.662,1.662,0,0,0-.7-1.568,1.692,1.692,0,0,0-1.731.168,5.635,5.635,0,0,0-.53.362A4.987,4.987,0,0,0,172.8,250.628Z" transform="translate(-162.491 -232.878)" fill="url(#linear-gradient-5)"/>
              <path id="Path_8686" data-name="Path 8686" d="M301.8,260l.072-2.265-.843-.485-1.88,1.232Z" transform="translate(-278.029 -240.85)" fill="url(#linear-gradient-6)"/>
              <path id="Path_8687" data-name="Path 8687" d="M297.79,81.763l1.373-1.468-1.468-.843-1.423-.82L294.9,80.1l2.89,1.663m6.288-4-2.65-1.518-1.4.145L298.755,78.8l2.913,1.69,1.278-2.41,1.373-.168-.072,2.261.843.485,1.925-1.255-2.89-1.663Z" transform="translate(-274.164 -76.25)" fill="#c86856"/>
              <path id="Path_8688" data-name="Path 8688" d="M301.409,94.6l-1.373.168-1.278,2.41-1.178.7-1.327-.892-1.373,1.468.122,2.17-.82,1.445-1.925,1.033-.557,1.93.131.059.847.367.467.2V107l-1.418,2.333.6,1.255.045-.023,1.88-1.232.843.485-.072,2.265,1.373-.172,1.278-2.406,1.178-.7,1.327.892,1.373-1.468-.122-2.17.82-1.445,1.925-1.033.575-1.921v0l0,0-.063-.027-1.377-.593,0,0-.023-.19V99.656l1.418-2.311-.6-1.255-1.925,1.255-.843-.485.072-2.261m-4.843,8.934a3.982,3.982,0,0,1,.942-1.685,2.323,2.323,0,0,1,1.373-.8.9.9,0,0,1,.988.53,2.2,2.2,0,0,1,0,1.568,4.21,4.21,0,0,1-.942,1.685,2.242,2.242,0,0,1-1.373.8.863.863,0,0,1-.988-.53A2.165,2.165,0,0,1,296.566,103.534Z" transform="translate(-271.254 -92.937)" fill="url(#linear-gradient-7)"/>
              <path id="Path_8689" data-name="Path 8689" d="M344.887,166.528a3.982,3.982,0,0,0-.942,1.685,2.165,2.165,0,0,0,0,1.568.863.863,0,0,0,.988.53,2.242,2.242,0,0,0,1.373-.8,4.21,4.21,0,0,0,.942-1.685,2.2,2.2,0,0,0,0-1.567.9.9,0,0,0-.988-.53A2.323,2.323,0,0,0,344.887,166.528Z" transform="translate(-318.634 -157.617)" fill="url(#linear-gradient-8)"/>
            </g>
          </g>
        </g>
      </g>
    </g>
  </g>
</svg>
