<svg xmlns="http://www.w3.org/2000/svg" xmlns:xlink="http://www.w3.org/1999/xlink" width="87.328" height="71.507" viewBox="0 0 87.328 71.507">
  <defs>
    <linearGradient id="linear-gradient" x1="0.681" x2="0.39" y2="0.693" gradientUnits="objectBoundingBox">
      <stop offset="0" stop-color="#fff" stop-opacity="0.451"/>
      <stop offset="1" stop-color="#fff" stop-opacity="0.051"/>
    </linearGradient>
    <filter id="Path_8950" x="0" y="9" width="87.328" height="62.507" filterUnits="userSpaceOnUse">
      <feOffset dy="3" input="SourceAlpha"/>
      <feGaussianBlur stdDeviation="6" result="blur"/>
      <feFlood flood-opacity="0.263"/>
      <feComposite operator="in" in2="blur"/>
      <feComposite in="SourceGraphic"/>
    </filter>
  </defs>
  <g id="Group_10888" data-name="Group 10888" transform="translate(-544.336 -992)">
    <g id="Group_10887" data-name="Group 10887">
      <g id="Home" transform="translate(560 992)">
        <rect id="Rectangle_4461" data-name="Rectangle 4461" width="56" height="56" rx="8" fill="#00d4ff"/>
        <g transform="matrix(1, 0, 0, 1, -15.66, 0)" filter="url(#Path_8950)">
          <path id="Path_8950-2" data-name="Path 8950" d="M25.664,0C39.838,0,51.328,5.934,51.328,13.253S39.838,26.507,25.664,26.507,0,20.573,0,13.253,11.49,0,25.664,0Z" transform="translate(18 24)" fill="url(#linear-gradient)"/>
        </g>
        <g id="highight" transform="translate(7.48 21.434)">
          <g id="Group_10535" data-name="Group 10535" transform="translate(0 0)">
            <g id="Group_10534" data-name="Group 10534">
              <g id="Group_10533" data-name="Group 10533">
                <path id="Path_8936" data-name="Path 8936" d="M56.935,241.8a2.138,2.138,0,0,1,.071.493,1.53,1.53,0,0,1-.794,1.407,165.939,165.939,0,0,0-19.887,11.534,5.6,5.6,0,0,1-2.85.762,5.49,5.49,0,0,1-2.841-.8L16.728,246.89a1.053,1.053,0,0,1-.547-.941,2.409,2.409,0,0,0,.547,2.3l13.888,8.29a5.61,5.61,0,0,0,5.691.045,165.934,165.934,0,0,1,19.887-11.534,2.182,2.182,0,0,0,.935-1.765A3,3,0,0,0,56.935,241.8Z" transform="translate(-16.111 -232.04)" fill="#89989b"/>
                <path id="Path_8937" data-name="Path 8937" d="M57.4,142.146a1.418,1.418,0,0,0-.229-.233,1.725,1.725,0,0,0-.247-.17l-14.2-8.2a4.861,4.861,0,0,0-4.932.054Q27.02,139.457,17.456,145.8a1.221,1.221,0,0,0-.4.367,1.138,1.138,0,0,0-.159.609v.036a1.07,1.07,0,0,0,.547.941l13.888,8.3a5.582,5.582,0,0,0,5.691.036,165.942,165.942,0,0,1,19.887-11.534,1.5,1.5,0,0,0,.794-1.407,1.748,1.748,0,0,0-.071-.493A1.232,1.232,0,0,0,57.4,142.146Z" transform="translate(-16.83 -132.897)" fill="#fafbfc"/>
              </g>
            </g>
          </g>
          <g id="Group_10538" data-name="Group 10538" transform="translate(16.358 5.339) rotate(-9.216)">
            <g id="Group_10537" data-name="Group 10537" transform="translate(0 0)">
              <g id="Group_10536" data-name="Group 10536">
                <path id="Path_8938" data-name="Path 8938" d="M2.761,3.308c-.133.215-.292.458-.461.727A4.429,4.429,0,0,1,4.588,6.887,3.572,3.572,0,0,0,2.761,3.308m-1.474.138c.142-.3.257-.547.346-.771A3.279,3.279,0,0,1,.086,0a3.168,3.168,0,0,0,1.2,3.446M1.8,2.782c-.115.215-.257.449-.425.718a4.809,4.809,0,0,0,.423.25c.141.071.282.152.423.232.16-.278.284-.529.39-.753A6.258,6.258,0,0,1,1.8,2.782Z" transform="translate(0.729 0.76)" fill="#02b8de"/>
                <path id="Path_8939" data-name="Path 8939" d="M.489,3.852A3.421,3.421,0,0,0,1.6,4.906c-.222.35-.47.736-.762,1.149.3-.4.576-.772.815-1.113a6.035,6.035,0,0,0,.9.437c-.195.287-.416.61-.655.951.248-.341.487-.646.7-.933a10.34,10.34,0,0,0,1.2.337,7.092,7.092,0,0,1-1.076-.508c.106-.153.2-.3.3-.431.168-.269.328-.511.461-.727q1.33-2.261-.561-1.539c.054-.547-.4-.608-1.359-.185.821-.145,1.085.212.792,1.082-.089.224-.2.475-.346.771-.071.117-.142.251-.23.395A4.1,4.1,0,0,1,.826,3.528,4.515,4.515,0,0,1,.358,0,4.476,4.476,0,0,0,.489,3.852M2.1,4.26c.168-.269.31-.5.425-.718a4.2,4.2,0,0,0,.391-.933c.706-.038.846.428.42,1.387-.106.224-.231.475-.39.753-.089.144-.186.3-.275.458a6.232,6.232,0,0,1-.82-.544C1.935,4.52,2.024,4.385,2.1,4.26Z" fill="#08326f"/>
              </g>
            </g>
          </g>
          <g id="Group_10541" data-name="Group 10541" transform="translate(21.979 10.847)">
            <g id="Group_10540" data-name="Group 10540">
              <g id="Group_10539" data-name="Group 10539">
                <path id="Path_8940" data-name="Path 8940" d="M267.082,255.388a.76.76,0,0,0-.236.1.562.562,0,0,0-.269.4.6.6,0,0,0,.18.5.827.827,0,0,0,.532.257.791.791,0,0,0,.515-.144.479.479,0,0,0,.216-.254,1.513,1.513,0,0,0,.048-.25l-.081-.007a1.256,1.256,0,0,1-.052.215.482.482,0,0,1-.168.217.4.4,0,0,1-.444.009,1.422,1.422,0,0,1-.287-.226.825.825,0,0,1-.236-.378.227.227,0,0,1,.124-.279.486.486,0,0,1,.366-.061.951.951,0,0,1,.288.092l.041-.028-.311-.341-.049.037c0,.018.013.035.016.053a.1.1,0,0,1-.037.054l-.155.039m1.411-.99-.04.036c.01.009.012.027.016.053a.126.126,0,0,1-.027.063l-.154.048a.5.5,0,0,0-.244.112.569.569,0,0,0-.123.9.8.8,0,0,0,.524.266.891.891,0,0,0,.532-.153.63.63,0,0,0,.223-.272,1.74,1.74,0,0,0,.049-.241l-.081-.007a.824.824,0,0,1-.052.215.593.593,0,0,1-.175.226.437.437,0,0,1-.464-.009,1.391,1.391,0,0,1-.278-.226.862.862,0,0,1-.236-.378.247.247,0,0,1,.123-.287.463.463,0,0,1,.367-.052.829.829,0,0,1,.287.083l.042-.019-.287-.36m-2.625,1.86a.409.409,0,0,1,.2-.084.421.421,0,0,1,.326.109l.05-.028-.276-.28-.958.642.269.289.039-.045c-.086-.114-.107-.212-.063-.284a.394.394,0,0,1,.15-.146l.7.752a.164.164,0,0,1,.059.115.337.337,0,0,1-.093.109l.031.035.566-.367-.023-.044a.391.391,0,0,1-.161.065.237.237,0,0,1-.127-.087l-.694-.752m4.671-1.589-.227-.379-.049.037a.523.523,0,0,1,.028.356.712.712,0,0,1-.211.227q-.088.042-.126.056a.084.084,0,0,1-.087-.052l-.625-.7q-.092-.092-.071-.132c.005-.027.053-.072.128-.109l-.04-.035-.59.395.031.035a.465.465,0,0,1,.11-.047.146.146,0,0,1,.14.051l.636.718c.041.044.046.079.023.106a.62.62,0,0,1-.076.1l.031.035Z" transform="translate(-265.212 -253.937)" fill="#09326f"/>
              </g>
            </g>
          </g>
          <g id="Group_10545" data-name="Group 10545" transform="translate(20.84 10.735) rotate(-6.945)">
            <g id="Group_10543" data-name="Group 10543" transform="translate(0.073 1.172)">
              <g id="Group_10542" data-name="Group 10542" transform="translate(0 0)">
                <path id="Path_8941" data-name="Path 8941" d="M2.675,4.692a.822.822,0,0,0,.547.232.782.782,0,0,0,.547-.18A.639.639,0,0,0,4,4.251a.685.685,0,0,0-.229-.51.822.822,0,0,0-.547-.232.782.782,0,0,0-.547.18.626.626,0,0,0-.23.493.685.685,0,0,0,.229.51M.775,6.111a.782.782,0,0,0,.547-.18.639.639,0,0,0,.23-.493.685.685,0,0,0-.229-.51A.822.822,0,0,0,.778,4.7a.782.782,0,0,0-.547.18A.626.626,0,0,0,0,5.369a.652.652,0,0,0,.229.5.79.79,0,0,0,.547.241M5.8,1.972a.988.988,0,0,0-.724.234.832.832,0,0,0-.3.646.878.878,0,0,0,.3.671,1.1,1.1,0,0,0,.723.3.955.955,0,0,0,.715-.234.8.8,0,0,0,.3-.637.86.86,0,0,0-.3-.662A.986.986,0,0,0,5.8,1.972M9.008,1.8a.685.685,0,0,0-.229-.51.822.822,0,0,0-.547-.232.782.782,0,0,0-.547.18.6.6,0,0,0-.222.484.657.657,0,0,0,.22.5.822.822,0,0,0,.547.232.782.782,0,0,0,.547-.18.556.556,0,0,0,.23-.475M10.979.233A.822.822,0,0,0,10.432,0a.782.782,0,0,0-.547.18.6.6,0,0,0-.222.484.674.674,0,0,0,.22.5.822.822,0,0,0,.547.232.782.782,0,0,0,.547-.18.635.635,0,0,0,.23-.484A.68.68,0,0,0,10.979.233Z" fill="#fff"/>
              </g>
            </g>
            <g id="Group_10544" data-name="Group 10544" transform="translate(0.875 0) rotate(6.945)">
              <path id="Path_8942" data-name="Path 8942" d="M10.559.649a.606.606,0,0,1-.168.511A.773.773,0,0,1,9.87,1.4.817.817,0,0,1,9.3,1.24.646.646,0,0,1,9.014.765.606.606,0,0,1,9.182.254.748.748,0,0,1,9.711,0a.817.817,0,0,1,.574.161A.7.7,0,0,1,10.559.649ZM8.512,1.966a.606.606,0,0,1-.168.511.773.773,0,0,1-.521.242.817.817,0,0,1-.574-.161.645.645,0,0,1-.282-.475.606.606,0,0,1,.168-.511.748.748,0,0,1,.529-.251.817.817,0,0,1,.574.161A.753.753,0,0,1,8.512,1.966Zm-2.047,1.4a.835.835,0,0,1-.221.672.968.968,0,0,1-.688.323A1.043,1.043,0,0,1,4.8,4.144a.879.879,0,0,1-.15-1.308,1,1,0,0,1,.7-.323,1.021,1.021,0,0,1,.75.215A.919.919,0,0,1,6.465,3.364ZM1.55,6.483a.606.606,0,0,1-.168.511.773.773,0,0,1-.521.242.817.817,0,0,1-.574-.161A.645.645,0,0,1,.006,6.6a.606.606,0,0,1,.168-.511A.748.748,0,0,1,.7,5.837.817.817,0,0,1,1.277,6,.748.748,0,0,1,1.55,6.483ZM3.835,5a.606.606,0,0,1-.168.511.773.773,0,0,1-.521.242A.817.817,0,0,1,2.574,5.6a.645.645,0,0,1-.282-.475.606.606,0,0,1,.168-.511.748.748,0,0,1,.529-.251.817.817,0,0,1,.574.161A.713.713,0,0,1,3.835,5Z" transform="translate(0 0)" fill="none" stroke="#89989b" stroke-linecap="round" stroke-linejoin="round" stroke-width="0.5"/>
            </g>
          </g>
        </g>
      </g>
    </g>
  </g>
</svg>
