<svg xmlns="http://www.w3.org/2000/svg" xmlns:xlink="http://www.w3.org/1999/xlink" width="87.328" height="71.507" viewBox="0 0 87.328 71.507">
  <defs>
    <linearGradient id="linear-gradient" x1="0.681" x2="0.39" y2="0.693" gradientUnits="objectBoundingBox">
      <stop offset="0" stop-color="#fff" stop-opacity="0.451"/>
      <stop offset="1" stop-color="#fff" stop-opacity="0.051"/>
    </linearGradient>
    <filter id="Path_8950" x="0" y="9" width="87.328" height="62.507" filterUnits="userSpaceOnUse">
      <feOffset dy="3" input="SourceAlpha"/>
      <feGaussianBlur stdDeviation="6" result="blur"/>
      <feFlood flood-opacity="0.263"/>
      <feComposite operator="in" in2="blur"/>
      <feComposite in="SourceGraphic"/>
    </filter>
  </defs>
  <g id="Group_10909" data-name="Group 10909" transform="translate(-1069.336 -992)">
    <rect id="Rectangle_4461" data-name="Rectangle 4461" width="56" height="56" rx="8" transform="translate(1085 992)" fill="#00d4ff"/>
    <g transform="matrix(1, 0, 0, 1, 1069.34, 992)" filter="url(#Path_8950)">
      <path id="Path_8950-2" data-name="Path 8950" d="M25.664,0C39.838,0,51.328,5.934,51.328,13.253S39.838,26.507,25.664,26.507,0,20.573,0,13.253,11.49,0,25.664,0Z" transform="translate(18 24)" fill="url(#linear-gradient)"/>
    </g>
    <g id="Group_10867" data-name="Group 10867" transform="translate(1103 1000.639)">
      <g id="Group_9884" data-name="Group 9884">
        <path id="Path_8665" data-name="Path 8665" d="M149.408,43.83l.28-.161,14.967-8.708-4.94-2.356-15.336,8.451a5.213,5.213,0,0,0,1.858,1.725A12.759,12.759,0,0,0,149.408,43.83Z" transform="translate(-144.325 -32.604)" fill="#9597d1"/>
        <path id="Path_8666" data-name="Path 8666" d="M149.1,134.38l-.28.161a11.609,11.609,0,0,1-3.13-1.007,5.824,5.824,0,0,1-1.954-1.8l.019,27.96,5.065,2.344.013-27.5Z" transform="translate(-143.736 -123.316)" fill="#7768a5"/>
        <path id="Path_8667" data-name="Path 8667" d="M218.809,87.936l.038-27.586L203.88,69.058l-.268.161-.013,27.5,15.209-8.78m-.981-23.8a.56.56,0,0,1,.3.522l-.03,19.692a1.366,1.366,0,0,1-.191.7,1.335,1.335,0,0,1-.51.51l-12.22,7.108a.526.526,0,0,1-.573,0,.536.536,0,0,1-.293-.5l.013-19.777a1.392,1.392,0,0,1,.076-.459,1.366,1.366,0,0,1,.221-.4,1.458,1.458,0,0,1,.408-.357l12.194-7.04A.566.566,0,0,1,217.828,64.133Z" transform="translate(-198.516 -57.994)" fill="#babcef"/>
        <path id="Path_8668" data-name="Path 8668" d="M225.816,104.484a.6.6,0,0,0-.9-.522L212.718,111a1.458,1.458,0,0,0-.408.357,1.366,1.366,0,0,0-.221.4,1.392,1.392,0,0,0-.076.459L212,132a.536.536,0,0,0,.293.5.526.526,0,0,0,.573,0l12.22-7.108a1.335,1.335,0,0,0,.509-.51,1.365,1.365,0,0,0,.191-.7Z" transform="translate(-206.203 -97.823)" fill="#fff"/>
        <path id="Path_8717" data-name="Path 8717" d="M179.4,38.528l-14.623,8.164a2.3,2.3,0,0,0,1.02,1.081,6.881,6.881,0,0,0,2.4.461l14.195-8.324-.856-.4Z" transform="translate(-162.986 -38.025)" fill="#fff"/>
      </g>
      <g id="Group_9889" data-name="Group 9889" transform="translate(6.659 14.633)">
        <g id="Group_9888" data-name="Group 9888" transform="translate(0 0)">
          <g id="Group_9887" data-name="Group 9887">
            <path id="Path_8669" data-name="Path 8669" d="M127.128,110.807a5.549,5.549,0,0,0,1.795.513q2.86.406,5.382-2.491-3.364,1.9-5.886.7a2.562,2.562,0,0,0-3.2.735,3.551,3.551,0,0,1,1.9.541M134.7,112a1.125,1.125,0,0,0-1.262-.1l-.028.031a.832.832,0,0,0-.2.163,6.717,6.717,0,0,1-6,.859q-3.28-1.417-4.708.772a5.279,5.279,0,0,1,3.308,1.167q4.567,2.333,8.887-2.894m-3.28-4.229a1.117,1.117,0,0,0,.335-.831,1.219,1.219,0,0,0-.335-.859.936.936,0,0,0-.758-.313,1.1,1.1,0,0,0-.758.378,1.4,1.4,0,0,0-.307.89,1.065,1.065,0,0,0,.307.8.953.953,0,0,0,.758.341A1,1,0,0,0,131.419,107.772Z" transform="translate(-122.504 -105.768)" fill="#0e468e"/>
          </g>
        </g>
      </g>
    </g>
  </g>
</svg>
