<svg xmlns="http://www.w3.org/2000/svg" xmlns:xlink="http://www.w3.org/1999/xlink" width="87.328" height="71.507" viewBox="0 0 87.328 71.507">
  <defs>
    <linearGradient id="linear-gradient" x1="0.681" x2="0.39" y2="0.693" gradientUnits="objectBoundingBox">
      <stop offset="0" stop-color="#fff" stop-opacity="0.451"/>
      <stop offset="1" stop-color="#fff" stop-opacity="0.051"/>
    </linearGradient>
    <filter id="Path_8950" x="0" y="9" width="87.328" height="62.507" filterUnits="userSpaceOnUse">
      <feOffset dy="3" input="SourceAlpha"/>
      <feGaussianBlur stdDeviation="6" result="blur"/>
      <feFlood flood-opacity="0.263"/>
      <feComposite operator="in" in2="blur"/>
      <feComposite in="SourceGraphic"/>
    </filter>
    <linearGradient id="linear-gradient-2" x1="0.231" y1="-0.991" x2="0.858" y2="-0.991" gradientUnits="objectBoundingBox">
      <stop offset="0" stop-color="#fff" stop-opacity="0"/>
      <stop offset="1" stop-color="#fff" stop-opacity="0.298"/>
    </linearGradient>
    <linearGradient id="linear-gradient-3" x1="1.73" y1="0.394" x2="1.769" y2="0.865" xlink:href="#linear-gradient-2"/>
  </defs>
  <g id="Group_10891" data-name="Group 10891" transform="translate(-619.336 -992)">
    <rect id="Rectangle_4461" data-name="Rectangle 4461" width="56" height="56" rx="8" transform="translate(635 992)" fill="#00d4ff"/>
    <g transform="matrix(1, 0, 0, 1, 619.34, 992)" filter="url(#Path_8950)">
      <path id="Path_8950-2" data-name="Path 8950" d="M25.664,0C39.838,0,51.328,5.934,51.328,13.253S39.838,26.507,25.664,26.507,0,20.573,0,13.253,11.49,0,25.664,0Z" transform="translate(18 24)" fill="url(#linear-gradient)"/>
    </g>
    <g id="Tccl_3d_icon0003" data-name="Tccl 3d icon0003" transform="translate(651.43 996.845)">
      <g id="calender33_svg" transform="translate(0 0)">
        <g id="Group_9595" data-name="Group 9595">
          <g id="Group_9594" data-name="Group 9594">
            <g id="Group_9593" data-name="Group 9593">
              <path id="Path_8481" data-name="Path 8481" d="M166.656,285.02q0-.249-.215-.249h-.034l-.125.062-.125.091a.694.694,0,0,0-.221.5v3.262l.719-.408V285.02m-.028-10.578v.034l-5.306,4.581a7.551,7.551,0,0,0-1.659,2.418,6.5,6.5,0,0,0-.663,2.7V288.6l3.517,2.073v-4.428a6.2,6.2,0,0,1,.657-2.667,6.99,6.99,0,0,1,1.7-2.418l.125-.125,5.148-4.485-3.517-2.107m13.653,2.293a.692.692,0,0,0-.379.629v3.262l.725-.408v-3.262l-.034-.159q-.091-.158-.312-.062m-2.135-7.379-.379.1a5.084,5.084,0,0,1-.753,1.036l-.595.691v1.756l5.272-1.506a2.071,2.071,0,0,1,1.353.187l-3.358-1.942a1.732,1.732,0,0,0-1.167-.345h-.028Z" transform="translate(-159 -248.171)" fill="#996bb1"/>
              <path id="Path_8482" data-name="Path 8482" d="M263.646,287.552l.028-.1V285.7a9.384,9.384,0,0,1-2.01,1.569l-1.031.629a4.727,4.727,0,0,1-2.6.719,2.5,2.5,0,0,1-.629-.091v2.543q0,.623.906.532a6.008,6.008,0,0,0,2.231-.815l.651-.425.13-.079.47-.368.13-.1.062-.062.283-.221.425-.425q.14-.15.232-.266a1.3,1.3,0,0,0,.1-.125h.028l.1-.125a4.13,4.13,0,0,0,.408-.691A.762.762,0,0,0,263.646,287.552Z" transform="translate(-246.255 -262.692)" fill="#e7c49c"/>
              <path id="Path_8483" data-name="Path 8483" d="M189.1,223.52a2.684,2.684,0,0,0-.153.787l.028.311.062.221.034.034a.722.722,0,0,0,.283.345h.028l.946.561h.028l.034,1.761.028.187v.1l.125.561.221.566q.034.062.159.283l.091.187.13.159q.028.034.091.125l.1.125.159.159.408.283.028.034v.028l1.257.691v2.384l3.517,2.107v-2.543a2.7,2.7,0,0,1-1.6-1.257,4.849,4.849,0,0,1-.595-2.509v-1.7a.9.9,0,0,1-.974.1.981.981,0,0,1-.408-.912,2.59,2.59,0,0,1,.345-1.257l-4.145-2.384Z" transform="translate(-185.558 -207.137)" fill="#d0b18c"/>
              <path id="Path_8484" data-name="Path 8484" d="M210.606,287.842l-.028-.034a2.071,2.071,0,0,0-1.353-.187l-5.272,1.506-.028.1a.762.762,0,0,1-.1.345,2.142,2.142,0,0,1-.408.691l-.1.125H203.3a1.3,1.3,0,0,1-.1.125l-.091.125-.142.142-.425.425-.283.221-.062.062-.13.1-.374.306-.187.125-.04.017-.651.425a6.007,6.007,0,0,1-2.231.815q-.906.091-.906-.532l-5.148,4.485-.125.125a6.989,6.989,0,0,0-1.7,2.418,6.2,6.2,0,0,0-.657,2.667v4.428l3.42-1.982V301.62a.694.694,0,0,1,.221-.5l.125-.125.125-.028h.034q.215,0,.215.249v3.262l13.246-7.656v-3.262a.692.692,0,0,1,.379-.629q.221-.1.311.062l.034.159v3.262l3.42-1.976v-4.428A2.286,2.286,0,0,0,210.606,287.842Z" transform="translate(-186.533 -264.364)" fill="#e5b1ff"/>
              <path id="Path_8485" data-name="Path 8485" d="M240.11,151.53a.914.914,0,0,0-1,.034l-.034.028V148.8a11.3,11.3,0,0,1-6.212,3.3,9.159,9.159,0,0,0-5.68,3.234v3.1a2.773,2.773,0,0,0-1.036,1.161,2.59,2.59,0,0,0-.345,1.257.981.981,0,0,0,.408.912.9.9,0,0,0,.974-.1v1.7a4.849,4.849,0,0,0,.595,2.509,2.7,2.7,0,0,0,1.6,1.257,2.5,2.5,0,0,0,.629.091,4.727,4.727,0,0,0,2.6-.719l1.031-.629a9.38,9.38,0,0,0,2.01-1.569l.595-.691a5.088,5.088,0,0,0,.753-1.036,10.766,10.766,0,0,0,2.073-6.088v-1.7h.034a2.582,2.582,0,0,0,.974-1.031,2.827,2.827,0,0,0,.408-1.382A.992.992,0,0,0,240.11,151.53Z" transform="translate(-218.234 -141.297)" fill="#f8d3a7"/>
              <path id="Path_8486" data-name="Path 8486" d="M241.008,103.6a2.839,2.839,0,0,0-.481-.17,3.232,3.232,0,0,0-1.591.017,5.93,5.93,0,0,0-1.518.646l-2.95,1.693A11.288,11.288,0,0,0,230.481,110a11.015,11.015,0,0,0-1.631,5.521v3.766a2.772,2.772,0,0,1,1.036-1.161v-3.1a9.159,9.159,0,0,1,5.68-3.234,11.3,11.3,0,0,0,6.212-3.3v2.792l.034-.028a.914.914,0,0,1,1-.034v-3.987a3.816,3.816,0,0,0-1.472-3.449l-.125-.068Q241.114,103.658,241.008,103.6Z" transform="translate(-220.939 -100.988)" fill="#77502c"/>
              <path id="Path_8487" data-name="Path 8487" d="M208.072,85a2.841,2.841,0,0,1,.481.17l-3.907-2.237-.062-.062-.062-.034h-.062l-.311-.159h-.062l-.345-.091-.878-.034-.221.034-.787.187-.532.221-3.483,1.976a12.452,12.452,0,0,0-5.589,9.7v3.794l4.145,2.384V97.081a11.015,11.015,0,0,1,1.631-5.521,11.288,11.288,0,0,1,3.987-4.208l2.95-1.693a5.93,5.93,0,0,1,1.518-.646A3.231,3.231,0,0,1,208.072,85Z" transform="translate(-188.484 -82.55)" fill="#5e3f23"/>
            </g>
          </g>
        </g>
      </g>
      <g id="light" transform="translate(0 0)">
        <g id="Group_9598" data-name="Group 9598">
          <g id="Group_9597" data-name="Group 9597">
            <g id="Group_9596" data-name="Group 9596">
              <path id="Path_8488" data-name="Path 8488" d="M166.656,285.02q0-.249-.215-.249h-.034l-.125.062-.125.091a.694.694,0,0,0-.221.5v3.262l.719-.408V285.02m-.028-10.578v.034l-5.306,4.581a7.551,7.551,0,0,0-1.659,2.418,6.5,6.5,0,0,0-.663,2.7V288.6l3.517,2.073v-4.428a6.2,6.2,0,0,1,.657-2.667,6.99,6.99,0,0,1,1.7-2.418l.125-.125,5.148-4.485-3.517-2.107m14,2.514-.034-.159q-.091-.158-.312-.062a.692.692,0,0,0-.379.629v3.262l.725-.408v-3.262m-.94-7.283a1.732,1.732,0,0,0-1.167-.345h-.028l-.345.028-.379.1a5.084,5.084,0,0,1-.753,1.036l-.595.691v1.756l5.272-1.506a2.071,2.071,0,0,1,1.353.187Z" transform="translate(-159 -248.171)" fill="#754d8a"/>
              <path id="Path_8489" data-name="Path 8489" d="M263.55,287.9a.762.762,0,0,0,.1-.345l.028-.1V285.7a9.384,9.384,0,0,1-2.01,1.569l-1.031.629a4.727,4.727,0,0,1-2.6.719,2.5,2.5,0,0,1-.629-.091v2.543q0,.623.906.532a6.008,6.008,0,0,0,2.231-.815l.651-.425.13-.079.47-.368.13-.1.062-.062.283-.221.425-.425q.14-.15.232-.266a1.3,1.3,0,0,0,.1-.125h.028l.1-.125A4.13,4.13,0,0,0,263.55,287.9Z" transform="translate(-246.255 -262.692)" fill="#e7c49c"/>
              <path id="Path_8490" data-name="Path 8490" d="M189.324,223.05l-.221.47a2.684,2.684,0,0,0-.153.787l.028.311.062.221.034.034a.722.722,0,0,0,.283.345h.028l.946.561h.028l.034,1.761.028.187v.1l.125.561.221.566q.034.062.159.283l.091.187.13.159q.028.034.091.125l.1.125.159.159.408.283.028.034v.028l1.257.691v2.384l3.517,2.107v-2.543a2.7,2.7,0,0,1-1.6-1.257,4.849,4.849,0,0,1-.595-2.509v-1.7a.9.9,0,0,1-.974.1.981.981,0,0,1-.408-.912,2.59,2.59,0,0,1,.345-1.257Z" transform="translate(-185.558 -207.137)" fill="#d0b18c"/>
              <path id="Path_8491" data-name="Path 8491" d="M210.606,124.467l-.028-.034a2.071,2.071,0,0,0-1.353-.187l-5.272,1.506-.028.1a.762.762,0,0,1-.1.345,2.142,2.142,0,0,1-.408.691l-.1.125H203.3a1.293,1.293,0,0,1-.1.125l-.091.125-.142.142-.425.425-.283.221-.062.062-.13.1-.374.306-.187.125-.04.017-.651.425a6.007,6.007,0,0,1-2.231.815q-.906.091-.906-.532l-5.148,4.485-.125.125a6.989,6.989,0,0,0-1.7,2.418,6.2,6.2,0,0,0-.657,2.667v4.428l3.42-1.982v-3.262a.694.694,0,0,1,.221-.5l.125-.125.125-.028h.034q.215,0,.215.249V141.1l13.246-7.656v-3.262a.692.692,0,0,1,.379-.629q.221-.1.311.062l.034.159v3.262l3.42-1.976V126.63a2.286,2.286,0,0,0-.974-2.163m-4-20.862a2.84,2.84,0,0,0-.481-.17,3.231,3.231,0,0,0-1.591.017,5.93,5.93,0,0,0-1.518.646l-2.95,1.693A11.288,11.288,0,0,0,196.075,110a11.015,11.015,0,0,0-1.631,5.521v3.766a2.772,2.772,0,0,1,1.036-1.161v-3.1a9.159,9.159,0,0,1,5.68-3.234,11.3,11.3,0,0,0,6.212-3.3v2.792l.034-.028a.914.914,0,0,1,1-.034v-3.987a3.816,3.816,0,0,0-1.472-3.449l-.125-.068Q206.709,103.658,206.6,103.6Z" transform="translate(-186.533 -100.988)" fill="url(#linear-gradient-2)"/>
              <path id="Path_8492" data-name="Path 8492" d="M240.082,153.761a2.827,2.827,0,0,0,.408-1.382.992.992,0,0,0-.379-.849.914.914,0,0,0-1,.034l-.034.028V148.8a11.3,11.3,0,0,1-6.212,3.3,9.159,9.159,0,0,0-5.68,3.234v3.1a2.773,2.773,0,0,0-1.036,1.161,2.59,2.59,0,0,0-.345,1.257.981.981,0,0,0,.408.912.9.9,0,0,0,.974-.1v1.7a4.849,4.849,0,0,0,.595,2.509,2.7,2.7,0,0,0,1.6,1.257,2.5,2.5,0,0,0,.629.091,4.727,4.727,0,0,0,2.6-.719l1.031-.629a9.38,9.38,0,0,0,2.01-1.569l.595-.691a5.088,5.088,0,0,0,.753-1.036,10.766,10.766,0,0,0,2.073-6.088v-1.7h.034A2.582,2.582,0,0,0,240.082,153.761Z" transform="translate(-218.234 -141.297)" fill="#f8d3a7"/>
              <path id="Path_8493" data-name="Path 8493" d="M208.072,85a2.841,2.841,0,0,1,.481.17l-3.907-2.237-.062-.062-.062-.034h-.062l-.311-.159h-.062l-.345-.091-.878-.034-.221.034-.787.187-.532.221-3.483,1.976a12.452,12.452,0,0,0-5.589,9.7v3.794l4.145,2.384V97.081a11.015,11.015,0,0,1,1.631-5.521,11.288,11.288,0,0,1,3.987-4.208l2.95-1.693a5.93,5.93,0,0,1,1.518-.646A3.231,3.231,0,0,1,208.072,85Z" transform="translate(-188.484 -82.55)" fill="url(#linear-gradient-3)"/>
            </g>
          </g>
        </g>
      </g>
    </g>
  </g>
</svg>
